<?xml version="1.0" encoding="UTF-8"?><svg id="Layer_1" xmlns="http://www.w3.org/2000/svg" viewBox="0 0 557.42 282.68"><path d="M188.2,133.4c2.9,0,5.25-2.35,5.25-5.25V5.25C193.45,2.35,191.1,0,188.2,0s-5.25,2.35-5.25,5.25v122.9c0,2.9,2.35,5.25,5.25,5.25Z"/><path d="M160.78,97.43c0-13-6.92-24.4-17.28-30.73,10.35-6.32,17.28-17.73,17.28-30.73C160.78,16.14,144.64,0,124.81,0H5.25C2.35,0,0,2.35,0,5.25v122.9c0,2.9,2.35,5.25,5.25,5.25h119.56c19.84,0,35.98-16.14,35.98-35.98ZM124.81,10.5c14.05,0,25.48,11.43,25.48,25.48s-11.43,25.48-25.48,25.48H10.5V10.5h114.31ZM124.81,122.9H10.5v-50.95h114.31c14.05,0,25.48,11.43,25.48,25.48s-11.43,25.48-25.48,25.48Z"/><path d="M379.1,130.06c1.05-2.7-.29-5.74-2.99-6.8l-145.47-56.56L376.11,10.14c2.7-1.05,4.04-4.09,2.99-6.8-1.05-2.7-4.09-4.04-6.8-2.99l-143.19,55.67V5.25C229.12,2.35,226.77,0,223.87,0s-5.25,2.35-5.25,5.25v122.9c0,2.9,2.35,5.25,5.25,5.25s5.25-2.35,5.25-5.25v-50.78l143.19,55.67c.63.24,1.27.36,1.9.36,2.1,0,4.09-1.27,4.89-3.35Z"/><path d="M552.17,122.9h-145.18v-48.7h140.68c2.9,0,5.25-2.35,5.25-5.25s-2.35-5.25-5.25-5.25h-140.68V10.5h145.18c2.9,0,5.25-2.35,5.25-5.25S555.07,0,552.17,0h-150.43c-2.9,0-5.25,2.35-5.25,5.25v122.9c0,2.9,2.35,5.25,5.25,5.25h150.43c2.9,0,5.25-2.35,5.25-5.25s-2.35-5.25-5.25-5.25Z"/><path d="M115.64,148.16c-2.42-.51-4.88.74-5.89,3l-49.87,112.11L10.05,151.16c-1.01-2.27-3.46-3.52-5.89-3-2.43.51-4.16,2.66-4.16,5.14v122.9c0,2.9,2.35,5.25,5.25,5.25s5.25-2.35,5.25-5.25v-98.17l44.58,100.3c.84,1.9,2.72,3.12,4.8,3.12h0c2.07,0,3.95-1.22,4.8-3.12l44.62-100.3-.03,98.16c0,2.9,2.35,5.25,5.25,5.25h0c2.9,0,5.25-2.35,5.25-5.25l.04-122.9c0-2.48-1.73-4.62-4.16-5.14Z"/><path d="M354.91,148.05c-2.9,0-5.25,2.35-5.25,5.25v102.65s-58.48-105.2-58.48-105.2c-1.16-2.09-3.58-3.13-5.91-2.53-2.31.6-3.93,2.69-3.93,5.08v122.9c0,2.9,2.35,5.25,5.25,5.25s5.25-2.35,5.25-5.25v-102.66l58.5,105.21c.94,1.69,2.72,2.7,4.59,2.7.44,0,.88-.05,1.32-.17,2.31-.6,3.93-2.69,3.93-5.08v-122.9c-.01-2.9-2.36-5.25-5.26-5.25Z"/><path d="M460.34,148.05h-82.08c-2.9,0-5.25,2.35-5.25,5.25s2.35,5.25,5.25,5.25h35.75v117.65c0,2.9,2.35,5.25,5.25,5.25s5.25-2.35,5.25-5.25v-117.65h35.84c2.9,0,5.25-2.35,5.25-5.25s-2.35-5.25-5.25-5.25Z"/><path d="M552.17,148.05c-2.9,0-5.25,2.35-5.25,5.25v53.95h-57.98v-53.95c0-2.9-2.35-5.25-5.25-5.25s-5.25,2.35-5.25,5.25v122.9c0,2.9,2.35,5.25,5.25,5.25s5.25-2.35,5.25-5.25v-58.45h57.98v58.45c0,2.9,2.35,5.25,5.25,5.25s5.25-2.35,5.25-5.25v-122.9c0-2.9-2.35-5.25-5.25-5.25Z"/><path d="M200.57,146.82c-37.46,0-67.93,30.47-67.93,67.93s30.47,67.93,67.93,67.93,67.93-30.47,67.93-67.93-30.47-67.93-67.93-67.93ZM200.57,272.18c-31.67,0-57.43-25.76-57.43-57.43s25.76-57.43,57.43-57.43,57.43,25.76,57.43,57.43-25.76,57.43-57.43,57.43Z"/></svg>