<?xml version="1.0" encoding="UTF-8"?><svg id="Layer_1" xmlns="http://www.w3.org/2000/svg" viewBox="0 0 382.23 281.47"><path d="M191.42,168.74c-5.92-3.42-12.38-5.03-18.75-5.02,0,0,0,0,0,0s0,0,0,0c6.37,0,12.83-1.6,18.75-5.02,17.94-10.36,24.08-33.29,13.73-51.23-10.36-17.94-33.29-24.08-51.23-13.73-5.92,3.42-10.54,8.21-13.73,13.74,0,0,0,0,0,0,3.19-5.52,5.03-11.92,5.03-18.75,0-20.71-16.79-37.5-37.5-37.5s-37.5,16.79-37.5,37.5c0,6.83,1.84,13.24,5.03,18.75,0,0,0,0,0,0-3.18-5.53-7.81-10.32-13.73-13.74-17.94-10.36-40.87-4.21-51.23,13.73-10.36,17.94-4.21,40.87,13.73,51.23,5.92,3.42,12.38,5.03,18.75,5.02,0,0,0,0,0,0s0,0,0,0c-6.37,0-12.83,1.6-18.75,5.02C6.08,179.09-.06,202.03,10.29,219.97c10.36,17.94,33.29,24.08,51.23,13.73,5.92-3.42,10.54-8.21,13.73-13.74,0,0,0,0,0,0-3.19,5.52-5.03,11.92-5.03,18.75,0,20.71,16.79,37.5,37.5,37.5s37.5-16.79,37.5-37.5c0-6.83-1.84-13.24-5.03-18.75,0,0,0,0,0,0,3.18,5.53,7.81,10.32,13.73,13.74,17.94,10.36,40.87,4.21,51.23-13.73,10.36-17.94,4.21-40.87-13.73-51.23Z" style="fill:#f4b8ff;"/><circle cx="107.72" cy="163.72" r="37.5" style="fill:#fffb00;"/><path d="M369.06,163.71c-18.41-62.13-62.77-112.49-99.06-112.49s-50.79,50.36-32.38,112.49c18.41,62.13,62.77,112.49,99.06,112.49s50.79-50.36,32.38-112.49Z" style="fill:#00bf6c;"/><path d="M374.1,162.22c-9.12-30.76-24.72-59.71-43.92-81.52-7.56-8.59-15.37-15.68-23.19-21.18V10.5h35.34c2.9,0,5.25-2.35,5.25-5.25s-2.35-5.25-5.25-5.25h-81.19c-2.9,0-5.25,2.35-5.25,5.25s2.35,5.25,5.25,5.25h35.35v42.61c-9.05-4.68-17.99-7.14-26.48-7.14h-94.3l-20.48-35.47h33.69c2.9,0,5.25-2.35,5.25-5.25s-2.35-5.25-5.25-5.25h-81.19c-2.9,0-5.25,2.35-5.25,5.25s2.35,5.25,5.25,5.25h35.38l23.51,40.72-16.93,29.33c-3.82-19.68-21.18-34.58-41.96-34.58-23.57,0-42.75,19.18-42.75,42.75,0,.32,0,.65.01.97-.28-.17-.56-.33-.84-.5-9.89-5.71-21.41-7.23-32.44-4.27-11.03,2.96-20.25,10.03-25.96,19.92C.04,114.73-1.48,126.25,1.47,137.28c2.96,11.03,10.03,20.25,19.92,25.96.28.16.56.32.85.48-.28.16-.57.31-.85.48-20.41,11.79-27.43,37.98-15.65,58.4,5.71,9.89,14.93,16.96,25.96,19.92,11.03,2.95,22.55,1.44,32.44-4.27.28-.16.56-.33.84-.5,0,.32-.01.65-.01.97,0,23.57,19.18,42.75,42.75,42.75s42.75-19.18,42.75-42.75c0-.33,0-.65-.01-.97.28.17.56.33.84.5,20.41,11.79,46.61,4.77,58.4-15.65,10.39-17.99,6.16-40.47-8.96-53.62h33.03c9.25,29.35,24.33,56.84,42.75,77.75,19.72,22.39,41.09,34.73,60.18,34.73,12.96,0,24.04-5.67,32.04-16.39,15.83-21.2,17.88-60.61,5.36-102.84ZM243.21,56.47c-1.87,1.75-3.63,3.71-5.25,5.89-11.64,15.6-15.82,41.05-12.24,70.23l-15.95-27.63s-.04-.08-.06-.12c-.02-.04-.05-.07-.07-.11l-27.86-48.26h61.44ZM150.14,158.47c-1.44-11.75-7.67-22.04-16.67-28.85l11.26-19.51s0-.01.01-.02c2.82-4.89,6.9-8.98,11.8-11.81,15.38-8.88,35.11-3.61,44.02,11.75l.07.11c4.28,7.45,5.41,16.11,3.19,24.41-2.23,8.32-7.57,15.28-15.03,19.58-4.89,2.82-10.45,4.32-16.09,4.32-.01,0-.02,0-.04,0-.04,0-.07.01-.11.01h-22.42ZM103.17,166.35c.94,1.62,2.67,2.62,4.55,2.62h31.78c-2.52,15.29-15.79,26.99-31.78,26.99-17.78,0-32.25-14.47-32.25-32.25s14.47-32.25,32.25-32.25c4,0,7.81.77,11.35,2.1l-15.89,27.53c-.94,1.62-.94,3.63,0,5.25ZM116.81,158.47l11.36-19.67c5.91,4.86,10.04,11.8,11.33,19.67h-22.69ZM213.97,137.28c.26-.96.47-1.93.66-2.89l13.91,24.09h-27.79c6.39-5.54,10.99-12.84,13.23-21.19ZM186.59,85.83c-8.84-3.04-18.63-3.2-27.81-.04l13.9-24.07,13.92,24.11ZM188.8,173.29c15.4,8.89,20.7,28.65,11.8,44.05-8.89,15.4-28.65,20.7-44.05,11.8-4.9-2.83-8.98-6.91-11.8-11.81-1.39-2.41-4.41-3.32-6.9-2.08-.19.1-.39.21-.57.33-2.31,1.54-3.02,4.6-1.63,7,2.83,4.89,4.33,10.46,4.33,16.12,0,17.78-14.47,32.25-32.25,32.25s-32.25-14.47-32.25-32.25c0-5.66,1.5-11.24,4.33-16.12,1.39-2.4.67-5.46-1.63-7-.07-.05-.14-.09-.21-.14-1.17-.7-2.57-.93-3.9-.61-1.41.33-2.63,1.23-3.35,2.49-2.82,4.89-6.9,8.98-11.8,11.81-7.46,4.31-16.15,5.45-24.47,3.22-8.32-2.23-15.28-7.57-19.58-15.03-8.89-15.4-3.6-35.16,11.8-44.05,4.89-2.82,10.45-4.32,16.09-4.32.01,0,.03,0,.03,0,1.39,0,2.73-.56,3.71-1.54.99-.98,1.54-2.33,1.54-3.72s-.55-2.73-1.54-3.71c-.98-.98-2.32-1.54-3.71-1.54h-.04c-5.63,0-11.2-1.49-16.09-4.32-7.46-4.31-12.8-11.26-15.03-19.58-2.23-8.32-1.08-17.01,3.22-24.47,4.31-7.46,11.26-12.8,19.58-15.03,8.32-2.23,17.01-1.09,24.47,3.22,4.9,2.83,8.98,6.91,11.8,11.81.73,1.26,1.94,2.16,3.35,2.49,1.33.31,2.73.09,3.89-.61.08-.05.15-.09.22-.14,2.31-1.54,3.02-4.6,1.63-7-2.83-4.89-4.33-10.46-4.33-16.12,0-17.78,14.47-32.25,32.25-32.25s32.25,14.47,32.25,32.25c0,5.66-1.5,11.24-4.33,16.12-.01.02-.02.05-.03.07l-11.22,19.44c-5.12-2.18-10.76-3.38-16.67-3.38-23.57,0-42.75,19.18-42.75,42.75s19.18,42.75,42.75,42.75c21.79,0,39.82-16.39,42.42-37.49h22.62c5.62,0,11.17,1.5,16.05,4.31ZM360.32,258.78c-6.03,8.08-13.98,12.17-23.63,12.17-15.79,0-34.85-11.36-52.3-31.17-18.22-20.69-33.04-48.23-41.73-77.56-11.6-39.12-10.17-74.98,3.71-93.57,6.03-8.08,13.98-12.17,23.63-12.17,8.18,0,17.23,3.07,26.48,8.76v98.49c0,2.9,2.35,5.25,5.25,5.25s5.25-2.35,5.25-5.25v-90.96c5.16,4.23,10.3,9.19,15.31,14.88,18.22,20.69,33.04,48.23,41.73,77.56,11.59,39.12,10.17,74.98-3.71,93.57Z"/></svg>