<?xml version="1.0" encoding="UTF-8"?><svg id="Layer_1" xmlns="http://www.w3.org/2000/svg" viewBox="0 0 743.72 73.6"><path d="M370,43.99c-1.52-.88-3.18-1.29-4.81-1.29,0,0,0,0,0,0s0,0,0,0c1.64,0,3.29-.41,4.81-1.29,4.6-2.66,6.18-8.54,3.52-13.14-2.66-4.6-8.54-6.18-13.14-3.52-1.52.88-2.71,2.11-3.52,3.52,0,0,0,0,0,0,.82-1.42,1.29-3.06,1.29-4.81,0-5.31-4.31-9.62-9.62-9.62s-9.62,4.31-9.62,9.62c0,1.75.47,3.4,1.29,4.81,0,0,0,0,0,0-.82-1.42-2-2.65-3.52-3.52-4.6-2.66-10.49-1.08-13.14,3.52-2.66,4.6-1.08,10.49,3.52,13.14,1.52.88,3.18,1.29,4.81,1.29,0,0,0,0,0,0s0,0,0,0c-1.64,0-3.29.41-4.81,1.29-4.6,2.66-6.18,8.54-3.52,13.14,2.66,4.6,8.54,6.18,13.14,3.52,1.52-.88,2.71-2.11,3.52-3.52,0,0,0,0,0,0-.82,1.42-1.29,3.06-1.29,4.81,0,5.31,4.31,9.62,9.62,9.62s9.62-4.31,9.62-9.62c0-1.75-.47-3.4-1.29-4.81,0,0,0,0,0,0,.82,1.42,2,2.65,3.52,3.52,4.6,2.66,10.49,1.08,13.14-3.52,2.66-4.6,1.08-10.49-3.52-13.14Z" style="fill:#f4b8ff; stroke:#000; stroke-linecap:round; stroke-linejoin:round; stroke-width:2.69px;"/><circle cx="348.53" cy="42.7" r="9.62" style="fill:#fffb00; stroke:#000; stroke-linecap:round; stroke-linejoin:round; stroke-width:2.69px;"/><polyline points="381.86 42.7 348.53 42.7 365.19 13.84 390.16 13.84" style="fill:none; stroke:#000; stroke-linecap:round; stroke-linejoin:round; stroke-width:2.69px;"/><line x1="358.38" y1="2.04" x2="381.86" y2="42.7" style="fill:none; stroke:#000; stroke-linecap:round; stroke-linejoin:round; stroke-width:2.69px;"/><line x1="369.36" y1="2.04" x2="348.53" y2="2.04" style="fill:none; stroke:#000; stroke-linecap:round; stroke-linejoin:round; stroke-width:2.69px;"/><line x1="408.72" y1="2.04" x2="387.89" y2="2.04" style="fill:none; stroke:#000; stroke-linecap:round; stroke-linejoin:round; stroke-width:2.69px;"/><path d="M415.58,42.7c-4.72-15.94-16.1-28.86-25.42-28.86s-13.03,12.92-8.31,28.86c4.72,15.94,16.1,28.86,25.42,28.86s13.03-12.92,8.31-28.86Z" style="fill:#00bf6c; stroke:#000; stroke-linecap:round; stroke-linejoin:round; stroke-width:2.69px;"/><line x1="398.31" y1="42.7" x2="398.31" y2="2.04" style="fill:none; stroke:#000; stroke-linecap:round; stroke-linejoin:round; stroke-width:2.69px;"/><line x1="104.83" y1="2.04" x2="104.83" y2="71.56" style="fill:none; stroke:#000; stroke-linecap:round; stroke-linejoin:round; stroke-width:2.69px;"/><path d="M68.97,2.04c9.6,0,17.38,7.78,17.38,17.38s-7.78,17.38-17.38,17.38c9.6,0,17.38,7.78,17.38,17.38s-7.78,17.38-17.38,17.38H1.35V2.04h67.62Z" style="fill:none; stroke:#000; stroke-linecap:round; stroke-linejoin:round; stroke-width:2.69px;"/><line x1="68.97" y1="36.8" x2="1.35" y2="36.8" style="fill:none; stroke:#000; stroke-linecap:round; stroke-linejoin:round; stroke-width:2.69px;"/><line x1="125" y1="71.56" x2="125" y2="2.04" style="fill:none; stroke:#000; stroke-linecap:round; stroke-linejoin:round; stroke-width:2.69px;"/><line x1="125" y1="37.54" x2="210.04" y2="71.56" style="fill:none; stroke:#000; stroke-linecap:round; stroke-linejoin:round; stroke-width:2.69px;"/><line x1="210.04" y1="2.04" x2="125" y2="36.07" style="fill:none; stroke:#000; stroke-linecap:round; stroke-linejoin:round; stroke-width:2.69px;"/><polyline points="310.69 2.04 225.61 2.04 225.61 71.56 310.69 71.56" style="fill:none; stroke:#000; stroke-linecap:round; stroke-linejoin:round; stroke-width:2.69px;"/><line x1="225.61" y1="38.07" x2="308.15" y2="38.07" style="fill:none; stroke:#000; stroke-linecap:round; stroke-linejoin:round; stroke-width:2.69px;"/><polyline points="433.02 71.56 433.02 2.04 463.92 71.56 494.85 2.04 494.82 71.56" style="fill:none; stroke:#000; stroke-linecap:round; stroke-linejoin:round; stroke-width:2.69px;"/><polyline points="592.16 71.56 592.16 2.04 630.81 71.56 630.8 2.04" style="fill:none; stroke:#000; stroke-linecap:round; stroke-linejoin:round; stroke-width:2.69px;"/><line x1="644.01" y1="2.04" x2="690.44" y2="2.04" style="fill:none; stroke:#000; stroke-linecap:round; stroke-linejoin:round; stroke-width:2.69px;"/><line x1="667.19" y1="2.04" x2="667.19" y2="71.56" style="fill:none; stroke:#000; stroke-linecap:round; stroke-linejoin:round; stroke-width:2.69px;"/><line x1="703.64" y1="2.04" x2="703.64" y2="71.56" style="fill:none; stroke:#000; stroke-linecap:round; stroke-linejoin:round; stroke-width:2.69px;"/><line x1="742.37" y1="2.04" x2="742.37" y2="71.56" style="fill:none; stroke:#000; stroke-linecap:round; stroke-linejoin:round; stroke-width:2.69px;"/><line x1="742.37" y1="35.53" x2="703.64" y2="35.53" style="fill:none; stroke:#000; stroke-linecap:round; stroke-linejoin:round; stroke-width:2.69px;"/><circle cx="543.5" cy="36.8" r="35.45" style="fill:none; stroke:#000; stroke-linecap:round; stroke-linejoin:round; stroke-width:2.69px;"/></svg>