<?xml version="1.0" encoding="UTF-8"?><svg id="BGs" xmlns="http://www.w3.org/2000/svg" viewBox="0 0 1080 1080"><line x1="449.49" y1="403.91" x2="449.49" y2="526.81" style="fill:none; stroke:#000; stroke-linecap:round; stroke-linejoin:round; stroke-width:10.5px;"/><path d="M386.1,403.91c16.97,0,30.73,13.76,30.73,30.73s-13.76,30.73-30.73,30.73c16.97,0,30.73,13.76,30.73,30.73s-13.76,30.73-30.73,30.73h-119.56v-122.9h119.56Z" style="fill:none; stroke:#000; stroke-linecap:round; stroke-linejoin:round; stroke-width:10.5px;"/><line x1="386.1" y1="465.36" x2="266.54" y2="465.36" style="fill:none; stroke:#000; stroke-linecap:round; stroke-linejoin:round; stroke-width:10.5px;"/><line x1="485.16" y1="526.81" x2="485.16" y2="403.91" style="fill:none; stroke:#000; stroke-linecap:round; stroke-linejoin:round; stroke-width:10.5px;"/><line x1="485.16" y1="468.36" x2="635.5" y2="526.81" style="fill:none; stroke:#000; stroke-linecap:round; stroke-linejoin:round; stroke-width:10.5px;"/><line x1="635.5" y1="403.91" x2="485.16" y2="462.36" style="fill:none; stroke:#000; stroke-linecap:round; stroke-linejoin:round; stroke-width:10.5px;"/><polyline points="813.46 403.91 663.03 403.91 663.03 526.81 813.46 526.81" style="fill:none; stroke:#000; stroke-linecap:round; stroke-linejoin:round; stroke-width:10.5px;"/><line x1="663.03" y1="467.61" x2="808.96" y2="467.61" style="fill:none; stroke:#000; stroke-linecap:round; stroke-linejoin:round; stroke-width:10.5px;"/><polyline points="266.54 674.86 266.54 551.96 321.17 674.86 375.84 551.96 375.8 674.86" style="fill:none; stroke:#000; stroke-linecap:round; stroke-linejoin:round; stroke-width:10.5px;"/><polyline points="547.88 674.86 547.88 551.96 616.21 674.86 616.2 551.96" style="fill:none; stroke:#000; stroke-linecap:round; stroke-linejoin:round; stroke-width:10.5px;"/><line x1="639.55" y1="551.96" x2="721.64" y2="551.96" style="fill:none; stroke:#000; stroke-linecap:round; stroke-linejoin:round; stroke-width:10.5px;"/><line x1="680.55" y1="551.96" x2="680.55" y2="674.86" style="fill:none; stroke:#000; stroke-linecap:round; stroke-linejoin:round; stroke-width:10.5px;"/><line x1="744.98" y1="551.96" x2="744.98" y2="674.86" style="fill:none; stroke:#000; stroke-linecap:round; stroke-linejoin:round; stroke-width:10.5px;"/><line x1="813.46" y1="551.96" x2="813.46" y2="674.86" style="fill:none; stroke:#000; stroke-linecap:round; stroke-linejoin:round; stroke-width:10.5px;"/><line x1="813.46" y1="611.16" x2="744.98" y2="611.16" style="fill:none; stroke:#000; stroke-linecap:round; stroke-linejoin:round; stroke-width:10.5px;"/><circle cx="461.86" cy="613.41" r="62.68" style="fill:none; stroke:#000; stroke-linecap:round; stroke-linejoin:round; stroke-width:10.5px;"/></svg>