<?xml version="1.0" encoding="UTF-8"?><svg xmlns="http://www.w3.org/2000/svg" viewBox="0 0 185.81 243.12"><g id="BGs"><rect x="0" y="1.75" width="185.8" height="239.21"/></g><g id="Layer_1"><path d="M51.99,189.34c-11.1,0-20.14-9.03-20.14-20.14,0-.7.04-1.39.11-2.08-.56.41-1.15.79-1.75,1.14-4.66,2.69-10.08,3.41-15.28,2.01-5.2-1.39-9.54-4.72-12.23-9.38s-3.4-10.08-2.01-15.28c1.39-5.2,4.72-9.54,9.38-12.23.6-.35,1.22-.67,1.86-.95-.63-.28-1.26-.6-1.86-.95-4.66-2.69-7.99-7.03-9.38-12.23-1.39-5.2-.68-10.62,2.01-15.28s7.03-7.99,12.23-9.38c5.2-1.39,10.62-.68,15.28,2.01.6.35,1.19.73,1.75,1.14-.07-.69-.11-1.39-.11-2.08,0-11.1,9.03-20.14,20.14-20.14s20.14,9.03,20.14,20.14c0,.7-.04,1.39-.11,2.08.56-.41,1.15-.79,1.75-1.14,4.66-2.69,10.08-3.4,15.28-2.01,5.2,1.39,9.54,4.72,12.23,9.38s3.4,10.08,2.01,15.28c-1.39,5.2-4.72,9.54-9.38,12.23-.6.35-1.22.67-1.86.95.63.28,1.26.6,1.86.95,4.66,2.69,7.99,7.03,9.38,12.23,1.39,5.2.68,10.62-2.01,15.28s-7.03,7.99-12.23,9.38c-5.2,1.39-10.62.68-15.28-2.01-.6-.35-1.19-.73-1.75-1.14.07.69.11,1.39.11,2.08,0,11.1-9.03,20.14-20.14,20.14ZM36.07,158.25c.26,0,.53.06.78.18.59.3.97.91.97,1.57,0,.31-.08.61-.24.88-1.46,2.52-2.23,5.4-2.23,8.32,0,9.17,7.46,16.64,16.64,16.64s16.64-7.46,16.64-16.64c0-2.92-.77-5.8-2.23-8.32-.15-.27-.24-.57-.24-.88,0-.66.38-1.27.97-1.57.83-.42,1.84-.11,2.3.69,1.46,2.53,3.56,4.63,6.09,6.09,3.85,2.22,8.33,2.81,12.62,1.66s7.88-3.9,10.1-7.75c2.22-3.85,2.81-8.33,1.66-12.62-1.15-4.29-3.9-7.88-7.75-10.1h0c-2.52-1.46-5.39-2.23-8.3-2.23h-.02c-1.02.02-1.75-.79-1.75-1.75s.78-1.75,1.75-1.75h0c.09,0,.17,0,.26,0,2.83-.05,5.61-.81,8.06-2.23,3.85-2.22,6.6-5.81,7.75-10.1,1.15-4.29.56-8.78-1.66-12.62-2.22-3.85-5.81-6.6-10.1-7.75-4.29-1.15-8.78-.56-12.62,1.66-2.53,1.46-4.63,3.57-6.09,6.09-.46.8-1.47,1.1-2.3.69-.59-.3-.97-.91-.97-1.57,0-.31.08-.61.24-.88,1.46-2.52,2.23-5.4,2.23-8.32,0-9.17-7.46-16.64-16.64-16.64s-16.64,7.46-16.64,16.64c0,2.92.77,5.8,2.23,8.32.15.27.24.57.24.88,0,.66-.38,1.27-.97,1.57-.83.41-1.84.11-2.3-.69-1.46-2.53-3.56-4.63-6.09-6.09-3.85-2.22-8.33-2.81-12.62-1.66-4.29,1.15-7.88,3.9-10.1,7.75-2.22,3.85-2.81,8.33-1.66,12.62,1.15,4.29,3.9,7.88,7.75,10.1,2.52,1.46,5.39,2.23,8.3,2.23h.02s0,0,0,0c.97,0,1.75.79,1.75,1.75s-.78,1.75-1.75,1.75h0c-.09,0-.17,0-.26,0-2.83.05-5.61.81-8.06,2.23-3.85,2.22-6.6,5.81-7.75,10.1-1.15,4.29-.56,8.78,1.66,12.62,2.22,3.85,5.81,6.6,10.1,7.75,4.29,1.15,8.78.56,12.62-1.66,2.53-1.46,4.63-3.57,6.09-6.09.32-.56.91-.88,1.52-.88Z" style="fill:#f4b8ff;"/><path d="M51.99,152.56c-11.1,0-20.14-9.03-20.14-20.14s9.03-20.14,20.14-20.14,20.14,9.03,20.14,20.14-9.03,20.14-20.14,20.14ZM51.99,115.78c-9.17,0-16.64,7.46-16.64,16.64s7.46,16.64,16.64,16.64,16.64-7.46,16.64-16.64-7.46-16.64-16.64-16.64Z" style="fill:#f4b8ff;"/><path d="M115.69,134.17h-63.7c-.62,0-1.2-.33-1.52-.88s-.31-1.21,0-1.75l31.85-55.16c.31-.54.89-.88,1.52-.88h47.72c.97,0,1.75.78,1.75,1.75s-.78,1.75-1.75,1.75h-46.71l-29.83,51.66h60.67c.97,0,1.75.78,1.75,1.75s-.78,1.75-1.75,1.75Z" style="fill:#00bf6c;"/><path d="M115.7,134.17c-.61,0-1.19-.31-1.52-.88l-44.86-77.71c-.48-.84-.2-1.91.64-2.39.84-.48,1.91-.2,2.39.64l44.86,77.71c.48.84.2,1.91-.64,2.39-.28.16-.58.23-.87.23Z" style="fill:#00bf6c;"/><path d="M91.81,56.47h-39.81c-.97,0-1.75-.78-1.75-1.75s.78-1.75,1.75-1.75h39.81c.97,0,1.75.78,1.75,1.75s-.78,1.75-1.75,1.75Z" style="fill:#00bf6c;"/><path d="M164.27,189.33c-18.49,0-41.03-25.31-50.25-56.41-6.07-20.46-5.11-39.51,2.5-49.7,3.76-5.04,8.97-7.71,15.05-7.71,18.49,0,41.03,25.31,50.25,56.41,6.07,20.46,5.11,39.51-2.5,49.7-3.76,5.04-8.97,7.71-15.05,7.71ZM131.57,79.01c-5.01,0-9.13,2.12-12.25,6.3-6.96,9.32-7.71,27.18-1.95,46.61,8.81,29.72,29.85,53.9,46.9,53.9,5.01,0,9.13-2.12,12.25-6.3,6.96-9.32,7.71-27.18,1.95-46.61-8.81-29.72-29.85-53.91-46.9-53.91Z" style="fill:#fffb00;"/><path d="M147.13,134.17c-.97,0-1.75-.78-1.75-1.75V54.72c0-.97.78-1.75,1.75-1.75s1.75.78,1.75,1.75v77.71c0,.97-.78,1.75-1.75,1.75Z" style="fill:#fffb00;"/><path d="M167.03,56.47h-39.81c-.97,0-1.75-.78-1.75-1.75s.78-1.75,1.75-1.75h39.81c.97,0,1.75.78,1.75,1.75s-.78,1.75-1.75,1.75Z" style="fill:#fffb00;"/><path d="M62.74,44.47c-.97,0-1.75-.78-1.75-1.75V1.75C60.99.78,61.77,0,62.74,0s1.75.78,1.75,1.75v40.97c0,.97-.78,1.75-1.75,1.75Z" style="fill:#fff;"/><path d="M41.61,44.47H1.76c-.97,0-1.75-.78-1.75-1.75V1.75C0,.78.79,0,1.76,0h39.85C48.22,0,53.6,5.38,53.6,11.99c0,4.33-2.31,8.13-5.76,10.24,3.45,2.11,5.76,5.91,5.76,10.24,0,6.61-5.38,11.99-11.99,11.99ZM3.51,40.97h38.1c4.68,0,8.49-3.81,8.49-8.49s-3.81-8.49-8.49-8.49c-.97,0-1.75-.78-1.75-1.75s.78-1.75,1.75-1.75c4.68,0,8.49-3.81,8.49-8.49s-3.81-8.49-8.49-8.49H3.51v37.47Z" style="fill:#fff;"/><path d="M41.61,23.98H1.76C.79,23.98,0,23.2,0,22.23s.78-1.75,1.75-1.75h39.85c.97,0,1.75.78,1.75,1.75s-.78,1.75-1.75,1.75Z" style="fill:#fff;"/><path d="M74.63,44.47c-.97,0-1.75-.78-1.75-1.75V1.75C72.88.78,73.66,0,74.63,0s1.75.78,1.75,1.75v40.97c0,.97-.78,1.75-1.75,1.75Z" style="fill:#fff;"/><path d="M124.74,44.47c-.21,0-.43-.04-.63-.12l-50.12-19.48c-.9-.35-1.35-1.36-1-2.26.35-.9,1.36-1.35,2.27-1l50.12,19.48c.9.35,1.35,1.36,1,2.26-.27.69-.93,1.12-1.63,1.12Z" style="fill:#fff;"/><path d="M74.63,22.98c-.7,0-1.36-.42-1.63-1.12-.35-.9.1-1.92,1-2.26L124.11.12c.9-.35,1.92.1,2.27,1s-.1,1.92-1,2.26l-50.12,19.48c-.21.08-.42.12-.63.12Z" style="fill:#fff;"/><path d="M184.06,44.47h-50.14c-.97,0-1.75-.78-1.75-1.75V1.75C132.17.78,132.95,0,133.92,0h50.14c.97,0,1.75.78,1.75,1.75s-.78,1.75-1.75,1.75h-48.39v37.47h48.39c.97,0,1.75.78,1.75,1.75s-.78,1.75-1.75,1.75Z" style="fill:#fff;"/><path d="M182.56,24.73h-48.64c-.97,0-1.75-.78-1.75-1.75s.78-1.75,1.75-1.75h48.64c.97,0,1.75.78,1.75,1.75s-.78,1.75-1.75,1.75Z" style="fill:#fff;"/><path d="M38.17,242.71h0c-.97,0-1.75-.78-1.75-1.75v-32.72s-14.86,33.43-14.86,33.43c-.28.63-.91,1.04-1.6,1.04h0c-.69,0-1.32-.41-1.6-1.04l-14.86-33.43v32.72c0,.97-.78,1.75-1.75,1.75S0,241.93,0,240.96v-40.97c0-.83.58-1.54,1.39-1.71.81-.17,1.63.25,1.96,1l16.61,37.37,16.62-37.37c.33-.75,1.15-1.17,1.96-1,.81.17,1.39.89,1.39,1.71l-.02,40.97c0,.97-.78,1.75-1.75,1.75Z" style="fill:#fff;"/><path d="M118.31,242.71c-.62,0-1.21-.33-1.53-.9l-19.5-35.07v34.22c0,.97-.78,1.75-1.75,1.75s-1.75-.78-1.75-1.75v-40.97c0-.8.54-1.49,1.31-1.69.77-.2,1.58.15,1.97.84l19.5,35.07v-34.22c0-.97.78-1.75,1.75-1.75s1.75.78,1.75,1.75v40.97c0,.8-.54,1.49-1.31,1.69-.15.04-.29.06-.44.06Z" style="fill:#fff;"/><path d="M153.45,201.74h-27.36c-.97,0-1.75-.78-1.75-1.75s.78-1.75,1.75-1.75h27.36c.97,0,1.75.78,1.75,1.75s-.78,1.75-1.75,1.75Z" style="fill:#fff;"/><path d="M139.76,242.71c-.97,0-1.75-.78-1.75-1.75v-40.97c0-.97.78-1.75,1.75-1.75s1.75.78,1.75,1.75v40.97c0,.97-.78,1.75-1.75,1.75Z" style="fill:#fff;"/><path d="M161.23,242.71c-.97,0-1.75-.78-1.75-1.75v-40.97c0-.97.78-1.75,1.75-1.75s1.75.78,1.75,1.75v40.97c0,.97-.78,1.75-1.75,1.75Z" style="fill:#fff;"/><path d="M184.06,242.71c-.97,0-1.75-.78-1.75-1.75v-40.97c0-.97.78-1.75,1.75-1.75s1.75.78,1.75,1.75v40.97c0,.97-.78,1.75-1.75,1.75Z" style="fill:#fff;"/><path d="M184.06,221.48h-22.83c-.97,0-1.75-.78-1.75-1.75s.78-1.75,1.75-1.75h22.83c.97,0,1.75.78,1.75,1.75s-.78,1.75-1.75,1.75Z" style="fill:#fff;"/><path d="M66.86,243.12c-12.48,0-22.64-10.16-22.64-22.64s10.16-22.64,22.64-22.64,22.64,10.16,22.64,22.64-10.16,22.64-22.64,22.64ZM66.86,201.34c-10.55,0-19.14,8.59-19.14,19.14s8.59,19.14,19.14,19.14,19.14-8.59,19.14-19.14-8.59-19.14-19.14-19.14Z" style="fill:#fff;"/></g></svg>