<?xml version="1.0" encoding="UTF-8"?><svg id="Layer_1" xmlns="http://www.w3.org/2000/svg" viewBox="0 0 986.98 282.68"><path d="M377.05,10.5c2.9,0,5.25-2.35,5.25-5.25s-2.35-5.25-5.25-5.25h-150.64c-2.9,0-5.25,2.35-5.25,5.25s2.35,5.25,5.25,5.25h70.07v42.61c-9.05-4.68-17.99-7.14-26.48-7.14h-94.3l-20.48-35.47h33.69c2.9,0,5.25-2.35,5.25-5.25S191.81,0,188.91,0h-81.19c-2.9,0-5.25,2.35-5.25,5.25s2.35,5.25,5.25,5.25h35.38l23.51,40.72-16.93,29.33c-3.82-19.68-21.18-34.58-41.96-34.58-23.57,0-42.75,19.18-42.75,42.75,0,.32,0,.65.01.97-.28-.17-.56-.33-.84-.5-9.89-5.71-21.41-7.23-32.44-4.27-11.03,2.96-20.25,10.03-25.96,19.92s-7.23,21.41-4.27,32.44c2.96,11.03,10.03,20.25,19.92,25.96.28.16.57.32.85.48-.29.16-.57.31-.85.48-9.89,5.71-16.96,14.93-19.92,25.96-2.96,11.03-1.44,22.55,4.27,32.44,11.79,20.41,37.99,27.43,58.4,15.65.28-.16.56-.33.84-.5,0,.32-.01.65-.01.97,0,23.57,19.18,42.75,42.75,42.75s42.75-19.18,42.75-42.75c0-.32,0-.65-.01-.97.28.17.56.33.84.5,9.89,5.71,21.41,7.23,32.44,4.27,11.03-2.96,20.25-10.03,25.96-19.92,10.39-17.99,6.16-40.47-8.96-53.62h33.03c9.25,29.35,24.33,56.84,42.75,77.75,19.72,22.39,41.09,34.73,60.18,34.73,12.96,0,24.04-5.67,32.04-16.39,15.83-21.2,17.88-60.61,5.36-102.84-9.12-30.76-24.71-59.71-43.92-81.52-7.56-8.59-15.37-15.68-23.19-21.18V10.5h70.07ZM243.21,56.47c-1.87,1.75-3.63,3.71-5.25,5.89-11.64,15.6-15.82,41.05-12.24,70.23l-15.96-27.64s-.04-.08-.06-.12c-.02-.04-.05-.08-.07-.12l-27.86-48.25h61.44ZM150.14,158.47c-1.44-11.75-7.66-22.04-16.66-28.85l11.26-19.51s0-.01.01-.02c2.82-4.9,6.9-8.98,11.8-11.81,7.46-4.31,16.15-5.45,24.47-3.22,8.3,2.22,15.24,7.54,19.54,14.97l.07.12c8.84,15.39,3.55,35.12-11.83,43.99-4.89,2.82-10.45,4.32-16.09,4.32-.01,0-.02,0-.03,0-.04,0-.07.01-.11.01h-22.43ZM103.17,166.35c.94,1.62,2.67,2.62,4.55,2.62h31.78c-2.52,15.29-15.79,26.99-31.78,26.99-17.78,0-32.25-14.47-32.25-32.25s14.47-32.25,32.25-32.25c4,0,7.81.77,11.35,2.1l-15.9,27.53c-.94,1.62-.94,3.63,0,5.25ZM116.81,158.47l11.36-19.67c5.91,4.86,10.04,11.8,11.33,19.67h-22.69ZM214.61,134.36l13.92,24.11h-27.81c7.33-6.37,12.1-14.93,13.89-24.11ZM186.57,85.8c-.93-.32-1.88-.62-2.84-.88-8.34-2.24-16.97-1.91-24.95.85l13.89-24.05,13.9,24.08ZM188.8,173.29c15.4,8.89,20.7,28.65,11.8,44.05-4.31,7.46-11.26,12.8-19.58,15.03-8.32,2.23-17.01,1.08-24.47-3.22-4.9-2.83-8.98-6.91-11.8-11.81-1.39-2.41-4.42-3.32-6.91-2.07-1.29.65-2.26,1.8-2.68,3.19s-.24,2.88.48,4.14c2.83,4.89,4.33,10.46,4.33,16.12,0,17.78-14.47,32.25-32.25,32.25s-32.25-14.47-32.25-32.25c0-5.66,1.5-11.23,4.33-16.12,1.19-2.06.85-4.66-.83-6.34-.4-.4-.87-.74-1.37-.99-.75-.38-1.55-.56-2.35-.56-1.82,0-3.59.95-4.55,2.63-2.82,4.9-6.9,8.98-11.8,11.81-15.4,8.89-35.16,3.6-44.05-11.8-4.31-7.46-5.45-16.15-3.22-24.47,2.23-8.32,7.57-15.28,15.03-19.58,4.89-2.82,10.45-4.32,16.09-4.32h.03c1.39,0,2.73-.56,3.71-1.54.99-.99,1.54-2.33,1.54-3.72s-.55-2.73-1.54-3.71c-.98-.98-2.32-1.54-3.71-1.54-.01,0-.02,0-.03,0-5.64,0-11.2-1.49-16.09-4.32-7.46-4.31-12.8-11.26-15.03-19.58-2.23-8.32-1.09-17.01,3.22-24.47,4.31-7.46,11.26-12.8,19.58-15.03,8.32-2.23,17.01-1.08,24.47,3.22,4.9,2.83,8.98,6.91,11.8,11.81,1.39,2.41,4.41,3.32,6.9,2.08.5-.25.97-.59,1.37-.99,1.68-1.68,2.02-4.28.83-6.34-2.83-4.89-4.33-10.47-4.33-16.12,0-17.78,14.47-32.25,32.25-32.25s32.25,14.47,32.25,32.25c0,5.66-1.5,11.24-4.33,16.12-.01.02-.02.05-.03.08l-11.22,19.44c-5.13-2.18-10.76-3.39-16.67-3.39-23.57,0-42.75,19.18-42.75,42.75s19.18,42.75,42.75,42.75c21.79,0,39.81-16.39,42.42-37.49h22.64c5.61.01,11.15,1.5,16.02,4.31ZM322.3,87.64c18.22,20.69,33.04,48.23,41.73,77.56,11.6,39.12,10.17,74.98-3.71,93.57-6.03,8.08-13.98,12.17-23.63,12.17-15.79,0-34.85-11.36-52.3-31.17-18.22-20.69-33.04-48.23-41.73-77.56-11.6-39.12-10.17-74.98,3.71-93.57,6.03-8.08,13.98-12.17,23.63-12.17,8.18,0,17.23,3.07,26.48,8.76v98.49c0,2.9,2.35,5.25,5.25,5.25s5.25-2.35,5.25-5.25v-90.96c5.16,4.23,10.3,9.19,15.31,14.88Z"/><path d="M617.76,133.4c2.9,0,5.25-2.35,5.25-5.25V5.25c0-2.9-2.35-5.25-5.25-5.25s-5.25,2.35-5.25,5.25v122.9c0,2.9,2.35,5.25,5.25,5.25Z"/><path d="M590.35,97.43c0-12.99-6.92-24.4-17.28-30.73,10.35-6.32,17.28-17.73,17.28-30.73C590.35,16.14,574.21,0,554.37,0h-119.56c-2.9,0-5.25,2.35-5.25,5.25v122.9c0,2.9,2.35,5.25,5.25,5.25h119.56c19.84,0,35.98-16.14,35.98-35.98ZM554.37,10.5c14.05,0,25.48,11.43,25.48,25.48s-11.43,25.48-25.48,25.48h-114.31V10.5h114.31ZM554.37,122.9h-114.31v-50.95h114.31c14.05,0,25.48,11.43,25.48,25.48s-11.43,25.48-25.48,25.48Z"/><path d="M808.67,130.06c1.05-2.7-.29-5.74-2.99-6.8l-145.47-56.56,145.47-56.56c2.7-1.05,4.04-4.09,2.99-6.8-1.05-2.7-4.09-4.04-6.8-2.99l-143.19,55.67V5.25c0-2.9-2.35-5.25-5.25-5.25s-5.25,2.35-5.25,5.25v122.9c0,2.9,2.35,5.25,5.25,5.25s5.25-2.35,5.25-5.25v-50.78l143.19,55.67c.63.24,1.27.36,1.9.36,2.1,0,4.09-1.27,4.89-3.35Z"/><path d="M981.73,122.9h-145.18v-48.7h140.68c2.9,0,5.25-2.35,5.25-5.25s-2.35-5.25-5.25-5.25h-140.68V10.5h145.18c2.9,0,5.25-2.35,5.25-5.25S984.63,0,981.73,0h-150.43c-2.9,0-5.25,2.35-5.25,5.25v122.9c0,2.9,2.35,5.25,5.25,5.25h150.43c2.9,0,5.25-2.35,5.25-5.25s-2.35-5.25-5.25-5.25Z"/><path d="M545.21,148.16c-2.42-.52-4.88.74-5.89,3l-49.87,112.11-49.83-112.11c-1.01-2.27-3.46-3.52-5.89-3-2.43.51-4.16,2.66-4.16,5.14v122.9c0,2.9,2.35,5.25,5.25,5.25s5.25-2.35,5.25-5.25v-98.17l44.58,100.3c.84,1.9,2.72,3.12,4.8,3.12h0c2.07,0,3.95-1.22,4.8-3.12l44.62-100.3-.04,98.16c0,2.9,2.35,5.25,5.25,5.25h0c2.9,0,5.25-2.35,5.25-5.25l.04-122.9c0-2.48-1.73-4.62-4.16-5.14Z"/><path d="M784.47,148.05c-2.9,0-5.25,2.35-5.25,5.25v102.65s-58.48-105.2-58.48-105.2c-1.16-2.09-3.58-3.13-5.91-2.53-2.31.6-3.93,2.69-3.93,5.08v122.9c0,2.9,2.35,5.25,5.25,5.25s5.25-2.35,5.25-5.25v-102.66l58.5,105.21c.94,1.69,2.72,2.7,4.59,2.7.44,0,.88-.05,1.32-.17,2.31-.6,3.93-2.69,3.93-5.08v-122.9c-.01-2.9-2.36-5.25-5.26-5.25Z"/><path d="M889.91,148.05h-82.08c-2.9,0-5.25,2.35-5.25,5.25s2.35,5.25,5.25,5.25h35.74v117.65c0,2.9,2.35,5.25,5.25,5.25s5.25-2.35,5.25-5.25v-117.65h35.84c2.9,0,5.25-2.35,5.25-5.25s-2.35-5.25-5.25-5.25Z"/><path d="M981.73,148.05c-2.9,0-5.25,2.35-5.25,5.25v53.95h-57.98v-53.95c0-2.9-2.35-5.25-5.25-5.25s-5.25,2.35-5.25,5.25v122.9c0,2.9,2.35,5.25,5.25,5.25s5.25-2.35,5.25-5.25v-58.45h57.98v58.45c0,2.9,2.35,5.25,5.25,5.25s5.25-2.35,5.25-5.25v-122.9c0-2.9-2.35-5.25-5.25-5.25Z"/><path d="M630.13,146.82c-37.46,0-67.93,30.47-67.93,67.93s30.47,67.93,67.93,67.93,67.93-30.47,67.93-67.93-30.47-67.93-67.93-67.93ZM630.13,272.18c-31.67,0-57.43-25.76-57.43-57.43s25.76-57.43,57.43-57.43,57.43,25.76,57.43,57.43-25.76,57.43-57.43,57.43Z"/></svg>