<?xml version="1.0" encoding="UTF-8"?><svg id="Layer_1" xmlns="http://www.w3.org/2000/svg" viewBox="0 0 511.61 625.42"><rect x="-53.41" y="60.41" width="618.42" height="504.61" rx="70" ry="70" transform="translate(568.52 56.91) rotate(90)" style="fill:#f4b8ff; stroke:#000; stroke-linecap:round; stroke-linejoin:round; stroke-width:7px;"/><rect x="-33.41" y="80.41" width="578.42" height="464.61" rx="50" ry="50" transform="translate(568.52 56.91) rotate(90)" style="fill:#00bf6c; stroke:#000; stroke-linecap:round; stroke-linejoin:round; stroke-width:7px;"/><path d="M256.07,339.77c-5.8-3.35-12.14-4.93-18.39-4.92,0,0,0,0,0,0s0,0,0,0c6.25,0,12.59-1.57,18.39-4.92,17.59-10.16,23.62-32.65,13.46-50.24-10.16-17.59-32.65-23.62-50.24-13.46-5.8,3.35-10.34,8.05-13.46,13.47,0,0,0,0,0,0,3.13-5.41,4.93-11.69,4.93-18.39,0-20.31-16.47-36.78-36.78-36.78s-36.78,16.47-36.78,36.78c0,6.7,1.8,12.98,4.93,18.39,0,0,0,0,0,0-3.12-5.42-7.66-10.12-13.46-13.47-17.59-10.16-40.08-4.13-50.24,13.46-10.16,17.59-4.13,40.08,13.46,50.24,5.8,3.35,12.14,4.93,18.39,4.92,0,0,0,0,0,0s0,0,0,0c-6.25,0-12.59,1.57-18.39,4.92-17.59,10.16-23.62,32.65-13.46,50.24,10.16,17.59,32.65,23.62,50.24,13.46,5.8-3.35,10.34-8.05,13.46-13.47,0,0,0,0,0,0-3.13,5.41-4.93,11.69-4.93,18.39,0,20.31,16.47,36.78,36.78,36.78s36.78-16.47,36.78-36.78c0-6.7-1.8-12.98-4.93-18.39,0,0,0,0,0,0,3.12,5.42,7.66,10.12,13.46,13.47,17.59,10.16,40.08,4.13,50.24-13.46,10.16-17.59,4.13-40.08-13.46-50.24Z" style="fill:#fffb00; stroke:#000; stroke-linecap:round; stroke-linejoin:round; stroke-width:7px;"/><circle cx="173.98" cy="334.84" r="36.78" style="fill:#ff6a00; stroke:#000; stroke-linecap:round; stroke-linejoin:round; stroke-width:7px;"/><polyline points="301.38 334.85 173.98 334.85 237.68 224.52 333.13 224.52" style="fill:none; stroke:#000; stroke-linecap:round; stroke-linejoin:round; stroke-width:7px;"/><line x1="211.65" y1="179.44" x2="301.38" y2="334.85" style="fill:none; stroke:#000; stroke-linecap:round; stroke-linejoin:round; stroke-width:7px;"/><line x1="253.6" y1="179.44" x2="173.98" y2="179.44" style="fill:none; stroke:#000; stroke-linecap:round; stroke-linejoin:round; stroke-width:7px;"/><line x1="404.06" y1="179.44" x2="324.43" y2="179.44" style="fill:none; stroke:#000; stroke-linecap:round; stroke-linejoin:round; stroke-width:7px;"/><path d="M430.28,334.84c-18.06-60.93-61.55-110.32-97.15-110.32s-49.81,49.39-31.75,110.32c18.06,60.93,61.55,110.32,97.15,110.32s49.81-49.39,31.75-110.32Z" style="fill:#3af; stroke:#000; stroke-linecap:round; stroke-linejoin:round; stroke-width:7px;"/><line x1="364.25" y1="334.85" x2="364.25" y2="179.44" style="fill:none; stroke:#000; stroke-linecap:round; stroke-linejoin:round; stroke-width:7px;"/><line x1="195.47" y1="73.5" x2="195.47" y2="155.43" style="fill:none; stroke:#000; stroke-linecap:round; stroke-linejoin:round; stroke-width:7px;"/><path d="M153.21,73.5c11.31,0,20.48,9.17,20.48,20.48s-9.17,20.48-20.48,20.48c11.31,0,20.48,9.17,20.48,20.48s-9.17,20.48-20.48,20.48h-79.7v-81.93h79.7Z" style="fill:none; stroke:#000; stroke-linecap:round; stroke-linejoin:round; stroke-width:7px;"/><line x1="153.21" y1="114.47" x2="73.5" y2="114.47" style="fill:none; stroke:#000; stroke-linecap:round; stroke-linejoin:round; stroke-width:7px;"/><line x1="219.25" y1="155.43" x2="219.25" y2="73.5" style="fill:none; stroke:#000; stroke-linecap:round; stroke-linejoin:round; stroke-width:7px;"/><line x1="219.25" y1="116.47" x2="319.47" y2="155.43" style="fill:none; stroke:#000; stroke-linecap:round; stroke-linejoin:round; stroke-width:7px;"/><line x1="319.47" y1="73.5" x2="219.25" y2="112.47" style="fill:none; stroke:#000; stroke-linecap:round; stroke-linejoin:round; stroke-width:7px;"/><polyline points="438.11 73.5 337.83 73.5 337.83 155.43 438.11 155.43" style="fill:none; stroke:#000; stroke-linecap:round; stroke-linejoin:round; stroke-width:7px;"/><line x1="337.83" y1="115.97" x2="435.11" y2="115.97" style="fill:none; stroke:#000; stroke-linecap:round; stroke-linejoin:round; stroke-width:7px;"/><polyline points="73.5 551.92 73.5 469.99 109.92 551.92 146.37 469.99 146.34 551.92" style="fill:none; stroke:#000; stroke-linecap:round; stroke-linejoin:round; stroke-width:7px;"/><polyline points="261.06 551.92 261.06 469.99 306.62 551.92 306.61 469.99" style="fill:none; stroke:#000; stroke-linecap:round; stroke-linejoin:round; stroke-width:7px;"/><line x1="322.17" y1="469.99" x2="376.9" y2="469.99" style="fill:none; stroke:#000; stroke-linecap:round; stroke-linejoin:round; stroke-width:7px;"/><line x1="349.5" y1="469.99" x2="349.5" y2="551.92" style="fill:none; stroke:#000; stroke-linecap:round; stroke-linejoin:round; stroke-width:7px;"/><line x1="392.46" y1="469.99" x2="392.46" y2="551.92" style="fill:none; stroke:#000; stroke-linecap:round; stroke-linejoin:round; stroke-width:7px;"/><line x1="438.11" y1="469.99" x2="438.11" y2="551.92" style="fill:none; stroke:#000; stroke-linecap:round; stroke-linejoin:round; stroke-width:7px;"/><line x1="438.11" y1="509.46" x2="392.46" y2="509.46" style="fill:none; stroke:#000; stroke-linecap:round; stroke-linejoin:round; stroke-width:7px;"/><circle cx="203.71" cy="510.96" r="41.79" style="fill:none; stroke:#000; stroke-linecap:round; stroke-linejoin:round; stroke-width:7px;"/></svg>