<?xml version="1.0" encoding="UTF-8"?><svg xmlns="http://www.w3.org/2000/svg" viewBox="0 0 657.6 686.36"><g id="BGs"><rect x="-5.07" y="-4.28" width="664.96" height="695.54"/></g><g id="Layer_1"><path d="M631.4,674.54c-13.04,0-23.64-10.61-23.64-23.64s10.61-23.64,23.64-23.64,23.64,10.61,23.64,23.64-10.61,23.64-23.64,23.64ZM631.4,628.95c-12.1,0-21.95,9.84-21.95,21.94s9.85,21.95,21.95,21.95,21.95-9.84,21.95-21.95-9.85-21.94-21.95-21.94Z" style="fill:#fff;"/><rect x="599.17" y="650.05" width="64.47" height="1.7" transform="translate(-275.33 637.85) rotate(-45.05)" style="fill:#fff;"/><rect x="630.55" y="618.66" width="1.7" height="64.47" transform="translate(-275.32 637.12) rotate(-45)" style="fill:#fff;"/><path d="M578.77,674.54c-13.04,0-23.64-10.61-23.64-23.64s10.61-23.64,23.64-23.64,23.64,10.61,23.64,23.64-10.61,23.64-23.64,23.64ZM578.77,628.95c-12.1,0-21.95,9.84-21.95,21.94s9.85,21.95,21.95,21.95,21.95-9.84,21.95-21.95-9.85-21.94-21.95-21.94Z" style="fill:#fff;"/><rect x="546.53" y="650.05" width="64.47" height="1.7" transform="translate(-290.78 600.6) rotate(-45.05)" style="fill:#fff;"/><rect x="577.92" y="618.66" width="1.7" height="64.47" transform="translate(-290.74 599.91) rotate(-45)" style="fill:#fff;"/><path d="M182.75,481.11c-38.07,0-69.04-30.97-69.04-69.04,0-4.82.51-9.61,1.5-14.3-3.56,3.2-7.46,6.04-11.63,8.45-32.97,19.03-75.28,7.7-94.31-25.27-19.03-32.97-7.7-75.28,25.27-94.31,4.17-2.41,8.58-4.37,13.13-5.85-4.55-1.48-8.95-3.44-13.13-5.85C1.56,255.9-9.77,213.59,9.26,180.62c9.22-15.97,24.11-27.4,41.92-32.17,17.81-4.77,36.42-2.32,52.39,6.9,4.18,2.41,8.07,5.25,11.63,8.45-.99-4.68-1.5-9.47-1.5-14.3,0-38.07,30.97-69.04,69.04-69.04s69.04,30.97,69.04,69.04c0,4.82-.51,9.61-1.5,14.3,3.56-3.2,7.46-6.04,11.63-8.45,15.97-9.22,34.57-11.67,52.39-6.9,17.81,4.77,32.7,16.2,41.92,32.17,19.03,32.97,7.7,75.28-25.27,94.31-4.17,2.41-8.58,4.37-13.13,5.85,4.55,1.48,8.95,3.44,13.13,5.85,32.97,19.03,44.31,61.34,25.27,94.31-19.04,32.97-61.35,44.3-94.31,25.27-4.18-2.41-8.07-5.25-11.63-8.45.99,4.68,1.5,9.48,1.5,14.3,0,38.07-30.97,69.04-69.04,69.04ZM127.75,376.37c.68.44,1.19,1.1,1.42,1.89.27.9.15,1.87-.31,2.68-5.46,9.44-8.35,20.2-8.35,31.12,0,34.32,27.92,62.24,62.24,62.24s62.24-27.92,62.24-62.24c0-10.93-2.89-21.69-8.35-31.12-.86-1.49-.47-3.39.9-4.42.06-.05.13-.1.2-.14.75-.48,1.66-.66,2.53-.48.95.2,1.78.79,2.26,1.63,5.44,9.45,13.32,17.33,22.78,22.79,29.73,17.16,67.87,6.94,85.02-22.78,17.16-29.72,6.94-67.86-22.78-85.02-9.44-5.45-20.18-8.33-31.06-8.33-.02,0-.05,0-.06,0-.9,0-1.77-.36-2.4-1-.64-.64-1-1.5-1-2.41s.36-1.78,1-2.41c.64-.64,1.5-1,2.4-1h.06c10.88,0,21.62-2.88,31.06-8.33,29.72-17.16,39.94-55.3,22.78-85.02-8.31-14.4-21.73-24.7-37.79-29-16.06-4.3-32.83-2.09-47.23,6.22-9.46,5.46-17.34,13.34-22.78,22.79-.49.84-1.31,1.44-2.26,1.63-.81.17-1.66.03-2.38-.38-.76-.43-1.32-1.14-1.57-1.98-.27-.9-.16-1.87.31-2.68,5.46-9.44,8.35-20.2,8.35-31.13,0-34.32-27.92-62.24-62.24-62.24s-62.24,27.92-62.24,62.24c0,10.93,2.89,21.69,8.35,31.13.51.88.6,1.95.24,2.91-.28.75-.82,1.36-1.5,1.75-.71.41-1.56.55-2.38.38-.95-.2-1.78-.79-2.26-1.63-5.44-9.45-13.32-17.33-22.78-22.79-14.4-8.31-31.17-10.52-47.23-6.22-16.06,4.3-29.48,14.6-37.79,29-17.16,29.72-6.94,67.86,22.78,85.02,9.44,5.45,20.18,8.33,31.06,8.33h.06c.9,0,1.77.36,2.4,1,.64.64,1,1.5,1,2.41s-.36,1.78-1,2.41c-.64.64-1.5,1-2.4,1-.03,0-.04,0-.06,0-10.88,0-21.62,2.88-31.06,8.33-29.72,17.16-39.94,55.3-22.78,85.02,17.16,29.72,55.29,39.94,85.02,22.78,9.46-5.46,17.34-13.35,22.78-22.79.49-.84,1.31-1.44,2.26-1.63.88-.18,1.79,0,2.53.48Z" style="fill:#f4b8ff;"/><path d="M182.75,349.82c-38.07,0-69.04-30.97-69.04-69.04s30.97-69.04,69.04-69.04,69.04,30.97,69.04,69.04-30.97,69.04-69.04,69.04ZM182.75,218.54c-34.32,0-62.24,27.92-62.24,62.24s27.92,62.24,62.24,62.24,62.24-27.92,62.24-62.24-27.92-62.24-62.24-62.24Z" style="fill:#f4b8ff;"/><path d="M410.13,284.19h-227.39c-1.21,0-2.34-.65-2.95-1.7s-.61-2.35,0-3.4l113.7-196.92c.61-1.05,1.73-1.7,2.95-1.7h170.37c1.88,0,3.4,1.52,3.4,3.4s-1.52,3.4-3.4,3.4h-168.4l-109.77,190.12h221.5c1.88,0,3.4,1.52,3.4,3.4s-1.52,3.4-3.4,3.4Z" style="fill:#00bf6c;"/><path d="M324.87,6.8h-142.12c-1.88,0-3.4-1.52-3.4-3.4s1.52-3.4,3.4-3.4h142.12c1.88,0,3.4,1.52,3.4,3.4s-1.52,3.4-3.4,3.4Z" style="fill:#00bf6c;"/><path d="M410.14,284.19c-1.18,0-2.32-.61-2.95-1.7L247.04,5.1c-.94-1.63-.38-3.71,1.25-4.64,1.63-.94,3.71-.38,4.64,1.24l160.15,277.39c.94,1.63.38,3.71-1.25,4.64-.54.31-1.12.46-1.7.46Z" style="fill:#00bf6c;"/><path d="M593.41,6.8h-142.12c-1.88,0-3.4-1.52-3.4-3.4s1.52-3.4,3.4-3.4h142.12c1.88,0,3.4,1.52,3.4,3.4s-1.52,3.4-3.4,3.4Z" style="fill:#fffb00;"/><path d="M583.54,481.07c-64.83,0-144.08-89.42-176.66-199.34-21.4-72.21-18.16-139.23,8.48-174.91,12.88-17.25,30.67-26.36,51.45-26.36,64.83,0,144.08,89.42,176.66,199.34,21.4,72.21,18.16,139.23-8.48,174.9-12.88,17.25-30.67,26.36-51.46,26.36ZM466.81,87.27c-18.82,0-34.3,7.95-46,23.63-25.38,33.99-28.21,98.71-7.41,168.91,31.79,107.23,108.11,194.47,170.14,194.47,18.82,0,34.3-7.95,46.01-23.63,25.38-33.99,28.21-98.71,7.41-168.91-31.79-107.23-108.11-194.47-170.14-194.47Z" style="fill:#fffb00;"/><path d="M522.35,284.19c-1.88,0-3.4-1.52-3.4-3.4V3.4c0-1.88,1.52-3.4,3.4-3.4s3.4,1.52,3.4,3.4v277.39c0,1.88-1.52,3.4-3.4,3.4Z" style="fill:#fffb00;"/><path d="M107.07,585.42c-1.88,0-3.4-1.52-3.4-3.4v-69.64c0-1.88,1.52-3.4,3.4-3.4s3.4,1.52,3.4,3.4v69.64c0,1.88-1.52,3.4-3.4,3.4Z" style="fill:#fff;"/><path d="M71.15,585.42H3.4c-1.88,0-3.4-1.52-3.4-3.4v-69.64c0-1.88,1.52-3.4,3.4-3.4h67.75c11.47,0,20.81,9.34,20.81,20.81,0,7.27-3.75,13.69-9.42,17.41,5.67,3.72,9.42,10.14,9.42,17.41,0,11.48-9.34,20.81-20.81,20.81ZM6.8,578.61h64.35c7.72,0,14.01-6.29,14.01-14.01s-6.29-14.01-14.01-14.01c-1.88,0-3.4-1.52-3.4-3.4s1.52-3.4,3.4-3.4c7.72,0,14.01-6.29,14.01-14.01s-6.29-14.01-14.01-14.01H6.8v62.84Z" style="fill:#fff;"/><path d="M71.15,550.59H3.4c-1.88,0-3.4-1.52-3.4-3.4s1.52-3.4,3.4-3.4h67.75c1.88,0,3.4,1.52,3.4,3.4s-1.52,3.4-3.4,3.4Z" style="fill:#fff;"/><path d="M127.28,585.42c-1.88,0-3.4-1.52-3.4-3.4v-69.64c0-1.88,1.52-3.4,3.4-3.4s3.4,1.52,3.4,3.4v69.64c0,1.88-1.52,3.4-3.4,3.4Z" style="fill:#fff;"/><path d="M212.48,585.42c-.41,0-.83-.08-1.23-.23l-85.2-33.12c-1.75-.68-2.62-2.65-1.94-4.4.68-1.75,2.65-2.62,4.4-1.94l85.2,33.12c1.75.68,2.62,2.65,1.94,4.4-.52,1.34-1.81,2.17-3.17,2.17Z" style="fill:#fff;"/><path d="M127.28,548.89c-1.36,0-2.65-.82-3.17-2.17-.68-1.75.19-3.72,1.94-4.4l85.2-33.12c1.74-.68,3.72.19,4.4,1.94.68,1.75-.19,3.72-1.94,4.4l-85.2,33.12c-.4.16-.82.23-1.23.23Z" style="fill:#fff;"/><path d="M313.32,585.42h-85.24c-1.88,0-3.4-1.52-3.4-3.4v-69.64c0-1.88,1.52-3.4,3.4-3.4h85.24c1.88,0,3.4,1.52,3.4,3.4s-1.52,3.4-3.4,3.4h-81.84v62.84h81.84c1.88,0,3.4,1.52,3.4,3.4s-1.52,3.4-3.4,3.4Z" style="fill:#fff;"/><path d="M310.77,551.87h-82.69c-1.88,0-3.4-1.52-3.4-3.4s1.52-3.4,3.4-3.4h82.69c1.88,0,3.4,1.52,3.4,3.4s-1.52,3.4-3.4,3.4Z" style="fill:#fff;"/><path d="M406.19,585.42h0c-1.88,0-3.4-1.52-3.4-3.4l.02-53.62-24.47,55c-.55,1.23-1.76,2.02-3.11,2.02h0c-1.34,0-2.56-.79-3.11-2.02l-24.45-55.01v53.62c0,1.88-1.52,3.4-3.4,3.4s-3.4-1.52-3.4-3.4v-69.64c0-1.61,1.12-2.99,2.7-3.33,1.58-.33,3.16.48,3.81,1.95l27.85,62.66,27.87-62.66c.65-1.47,2.25-2.28,3.81-1.94,1.57.33,2.69,1.72,2.69,3.33l-.03,69.64c0,1.88-1.52,3.4-3.4,3.4Z" style="fill:#fff;"/><path d="M542.43,585.42c-1.21,0-2.36-.65-2.97-1.75l-32.35-58.19v56.53c0,1.88-1.52,3.4-3.4,3.4s-3.4-1.52-3.4-3.4v-69.64c0-1.55,1.05-2.9,2.55-3.29,1.5-.39,3.07.29,3.82,1.64l32.35,58.18v-56.53c0-1.88,1.52-3.4,3.39-3.4,1.88,0,3.4,1.52,3.4,3.4v69.64c0,1.55-1.04,2.9-2.54,3.29-.28.07-.57.11-.85.11Z" style="fill:#fff;"/><path d="M602.16,515.77h-46.51c-1.88,0-3.4-1.52-3.4-3.4s1.52-3.4,3.4-3.4h46.51c1.88,0,3.4,1.52,3.4,3.4s-1.52,3.4-3.4,3.4Z" style="fill:#fff;"/><path d="M578.88,585.42c-1.88,0-3.4-1.52-3.4-3.4v-69.64c0-1.88,1.52-3.4,3.4-3.4s3.4,1.52,3.4,3.4v69.64c0,1.88-1.52,3.4-3.4,3.4Z" style="fill:#fff;"/><path d="M615.39,585.42c-1.88,0-3.4-1.52-3.4-3.4v-69.64c0-1.88,1.52-3.4,3.4-3.4s3.4,1.52,3.4,3.4v69.64c0,1.88-1.52,3.4-3.4,3.4Z" style="fill:#fff;"/><path d="M654.2,585.42c-1.88,0-3.4-1.52-3.4-3.4v-69.64c0-1.88,1.52-3.4,3.4-3.4s3.4,1.52,3.4,3.4v69.64c0,1.88-1.52,3.4-3.4,3.4Z" style="fill:#fff;"/><path d="M654.2,549.32h-38.81c-1.88,0-3.4-1.52-3.4-3.4s1.52-3.4,3.4-3.4h38.81c1.88,0,3.4,1.52,3.4,3.4s-1.52,3.4-3.4,3.4Z" style="fill:#fff;"/><path d="M454.96,586.11c-21.46,0-38.92-17.46-38.92-38.92s17.46-38.92,38.92-38.92,38.92,17.46,38.92,38.92-17.46,38.92-38.92,38.92ZM454.96,515.07c-17.71,0-32.12,14.41-32.12,32.12s14.41,32.12,32.12,32.12,32.12-14.41,32.12-32.12-14.41-32.12-32.12-32.12Z" style="fill:#fff;"/><path d="M1.28,631.65c.47-.81,1.12-1.44,1.94-1.9.81-.46,1.71-.68,2.68-.68,1.11,0,2.1.27,2.96.82.87.55,1.49,1.32,1.88,2.32h-2.05c-.27-.55-.64-.96-1.12-1.23s-1.04-.41-1.67-.41c-.69,0-1.3.16-1.84.46-.54.31-.96.76-1.27,1.34s-.46,1.25-.46,2.02.15,1.44.46,2.02.73,1.03,1.27,1.34,1.15.47,1.84.47c.63,0,1.18-.13,1.67-.4s.86-.68,1.12-1.23h2.05c-.39,1-1.02,1.77-1.88,2.31-.86.54-1.85.81-2.96.81-.98,0-1.88-.23-2.68-.68-.81-.46-1.45-1.09-1.93-1.9-.47-.81-.71-1.72-.71-2.74s.24-1.94.71-2.75Z" style="fill:#fff;"/><path d="M20.05,636.14h-6.31c.05.66.29,1.19.73,1.59.44.4.98.6,1.62.6.92,0,1.57-.38,1.95-1.15h1.84c-.25.76-.7,1.38-1.36,1.87-.66.48-1.47.73-2.44.73-.79,0-1.5-.18-2.12-.53-.62-.35-1.12-.85-1.47-1.5s-.53-1.39-.53-2.24.17-1.6.52-2.24c.35-.65.83-1.14,1.46-1.49s1.34-.52,2.15-.52,1.47.17,2.08.51c.61.34,1.08.82,1.42,1.43.34.62.51,1.32.51,2.12,0,.31-.02.59-.06.84ZM18.33,634.76c-.01-.63-.24-1.13-.68-1.52-.44-.38-.98-.57-1.63-.57-.59,0-1.1.19-1.52.56s-.67.88-.75,1.52h4.58Z" style="fill:#fff;"/><path d="M23.43,628.53v11.1h-1.71v-11.1h1.71Z" style="fill:#fff;"/><path d="M33.15,636.14h-6.32c.05.66.29,1.19.74,1.59.44.4.98.6,1.62.6.92,0,1.57-.38,1.95-1.15h1.84c-.25.76-.7,1.38-1.36,1.87-.65.48-1.47.73-2.44.73-.79,0-1.5-.18-2.12-.53-.62-.35-1.12-.85-1.47-1.5-.36-.65-.53-1.39-.53-2.24s.17-1.6.52-2.24c.35-.65.83-1.14,1.46-1.49s1.34-.52,2.15-.52,1.47.17,2.09.51c.61.34,1.08.82,1.42,1.43.34.62.51,1.32.51,2.12,0,.31-.02.59-.06.84ZM31.42,634.76c-.01-.63-.24-1.13-.67-1.52-.44-.38-.99-.57-1.63-.57-.59,0-1.1.19-1.52.56s-.67.88-.75,1.52h4.58Z" style="fill:#fff;"/><path d="M37.73,631.61c.51-.25,1.07-.38,1.69-.38.73,0,1.39.17,1.98.52s1.05.85,1.39,1.49.51,1.38.51,2.21-.17,1.57-.51,2.23-.81,1.17-1.4,1.53c-.59.37-1.25.55-1.97.55-.64,0-1.21-.12-1.7-.38-.5-.25-.89-.57-1.18-.96v1.2h-1.71v-11.1h1.71v4.06c.29-.4.69-.73,1.19-.98ZM41.21,633.98c-.23-.42-.54-.73-.93-.94-.38-.22-.8-.32-1.24-.32s-.84.11-1.22.33c-.39.22-.7.54-.93.96-.23.42-.35.92-.35,1.48s.12,1.07.35,1.49c.24.43.54.75.93.97.38.22.79.33,1.22.33s.85-.11,1.24-.34.7-.55.93-.98c.23-.43.35-.93.35-1.5s-.12-1.06-.35-1.48Z" style="fill:#fff;"/><path d="M47.63,631.58c.42-.23.91-.35,1.48-.35v1.77h-.44c-.67,0-1.18.17-1.52.51-.35.34-.52.93-.52,1.77v4.35h-1.71v-8.27h1.71v1.2c.25-.42.58-.75,1-.98Z" style="fill:#fff;"/><path d="M50.41,633.26c.35-.64.82-1.14,1.41-1.49.6-.35,1.25-.53,1.97-.53.65,0,1.22.13,1.7.38.48.25.87.57,1.16.95v-1.2h1.72v8.27h-1.72v-1.23c-.29.39-.69.71-1.19.98-.5.26-1.07.39-1.71.39-.71,0-1.36-.18-1.95-.55-.59-.36-1.06-.88-1.4-1.53-.34-.65-.52-1.4-.52-2.23s.17-1.56.52-2.21ZM56.3,634.01c-.24-.42-.54-.74-.92-.96-.38-.22-.79-.33-1.23-.33s-.85.11-1.23.32c-.38.21-.69.53-.92.94s-.35.91-.35,1.48.12,1.07.35,1.5c.24.43.54.76.93.98.39.23.79.34,1.22.34s.85-.11,1.23-.33c.38-.22.69-.54.92-.97.24-.42.35-.92.35-1.49s-.12-1.06-.35-1.48Z" style="fill:#fff;"/><path d="M62.48,632.76v4.58c0,.31.07.53.22.67.14.13.39.2.74.2h1.05v1.42h-1.35c-.77,0-1.36-.18-1.77-.54s-.61-.94-.61-1.75v-4.58h-.98v-1.4h.98v-2.05h1.73v2.05h2.01v1.4h-2.01Z" style="fill:#fff;"/><path d="M65.92,629.96c-.21-.21-.32-.47-.32-.78s.11-.57.32-.78.47-.31.78-.31.55.1.76.31.32.47.32.78-.11.57-.32.78-.46.31-.76.31-.57-.1-.78-.31ZM67.54,631.37v8.27h-1.71v-8.27h1.71Z" style="fill:#fff;"/><path d="M75.59,631.64c.52.27.92.67,1.21,1.2.29.53.43,1.17.43,1.92v4.88h-1.69v-4.62c0-.74-.19-1.31-.56-1.7-.37-.4-.88-.59-1.51-.59s-1.15.2-1.52.59-.56.96-.56,1.7v4.62h-1.71v-8.27h1.71v.95c.28-.34.64-.6,1.07-.8.44-.19.9-.28,1.39-.28.65,0,1.23.13,1.75.4Z" style="fill:#fff;"/><path d="M84.36,631.61c.49.25.88.57,1.16.95v-1.2h1.72v8.4c0,.76-.16,1.44-.48,2.03-.32.59-.78,1.06-1.39,1.4-.61.34-1.33.51-2.17.51-1.12,0-2.05-.26-2.79-.79-.74-.52-1.16-1.24-1.26-2.14h1.69c.13.43.41.78.83,1.04.42.27.93.4,1.52.4.69,0,1.25-.21,1.67-.63s.64-1.03.64-1.83v-1.38c-.29.39-.68.72-1.18.98-.5.27-1.06.4-1.69.4-.72,0-1.38-.18-1.97-.55-.6-.36-1.06-.88-1.41-1.53-.34-.65-.52-1.4-.52-2.23s.17-1.56.52-2.21c.35-.64.81-1.14,1.41-1.49.59-.35,1.25-.53,1.97-.53.64,0,1.21.13,1.7.38ZM85.17,634.01c-.23-.42-.54-.74-.92-.96-.38-.22-.79-.33-1.23-.33s-.85.11-1.23.32c-.38.21-.69.53-.92.94-.23.42-.35.91-.35,1.48s.12,1.07.35,1.5c.24.43.54.76.93.98.39.23.79.34,1.22.34s.85-.11,1.23-.33c.38-.22.69-.54.92-.97.24-.42.35-.92.35-1.49s-.12-1.06-.35-1.48Z" style="fill:#fff;"/><path d="M95.39,632.76v4.58c0,.31.07.53.22.67.15.13.39.2.74.2h1.05v1.42h-1.35c-.77,0-1.36-.18-1.77-.54s-.62-.94-.62-1.75v-4.58h-.97v-1.4h.97v-2.05h1.72v2.05h2.01v1.4h-2.01Z" style="fill:#fff;"/><path d="M104.81,631.64c.49.27.88.67,1.17,1.2.29.53.43,1.17.43,1.92v4.88h-1.7v-4.62c0-.74-.19-1.31-.55-1.7-.37-.4-.88-.59-1.52-.59s-1.15.2-1.52.59-.56.96-.56,1.7v4.62h-1.71v-11.1h1.71v3.79c.29-.35.66-.62,1.1-.81.45-.19.93-.28,1.46-.28.63,0,1.19.13,1.69.4Z" style="fill:#fff;"/><path d="M116.02,636.14h-6.31c.05.66.29,1.19.73,1.59.44.4.98.6,1.62.6.92,0,1.57-.38,1.95-1.15h1.85c-.25.76-.7,1.38-1.36,1.87-.66.48-1.47.73-2.44.73-.79,0-1.5-.18-2.12-.53s-1.12-.85-1.47-1.5c-.35-.65-.53-1.39-.53-2.24s.17-1.6.52-2.24.83-1.14,1.46-1.49,1.34-.52,2.15-.52,1.47.17,2.08.51c.61.34,1.09.82,1.43,1.43.34.62.51,1.32.51,2.12,0,.31-.02.59-.06.84ZM114.29,634.76c0-.63-.24-1.13-.67-1.52-.44-.38-.99-.57-1.64-.57-.59,0-1.09.19-1.51.56s-.67.88-.75,1.52h4.58Z" style="fill:#fff;"/><path d="M127.07,639.63l-2.4-4.17h-1.31v4.17h-1.71v-10.42h3.6c.8,0,1.48.14,2.03.42.56.28.97.65,1.25,1.12s.41,1,.41,1.57c0,.68-.2,1.3-.59,1.85-.4.56-1,.93-1.82,1.13l2.58,4.32h-2.04ZM123.37,634.1h1.89c.64,0,1.12-.16,1.45-.48.33-.32.49-.75.49-1.29s-.16-.96-.48-1.27c-.32-.31-.8-.46-1.46-.46h-1.89v3.49Z" style="fill:#fff;"/><path d="M130.71,633.26c.34-.64.81-1.14,1.41-1.49.59-.35,1.25-.53,1.97-.53.65,0,1.22.13,1.7.38s.87.57,1.16.95v-1.2h1.73v8.27h-1.73v-1.23c-.29.39-.68.71-1.18.98-.5.26-1.07.39-1.71.39-.71,0-1.36-.18-1.95-.55-.59-.36-1.06-.88-1.4-1.53-.35-.65-.52-1.4-.52-2.23s.17-1.56.52-2.21ZM136.6,634.01c-.23-.42-.54-.74-.92-.96-.38-.22-.79-.33-1.23-.33s-.85.11-1.23.32c-.38.21-.69.53-.92.94-.24.42-.35.91-.35,1.48s.12,1.07.35,1.5c.23.43.54.76.93.98s.79.34,1.22.34.85-.11,1.23-.33c.38-.22.69-.54.92-.97.23-.42.35-.92.35-1.49s-.12-1.06-.35-1.48Z" style="fill:#fff;"/><path d="M142.5,628.53v11.1h-1.71v-11.1h1.71Z" style="fill:#fff;"/><path d="M152.22,636.14h-6.31c.05.66.29,1.19.73,1.59.44.4.98.6,1.62.6.92,0,1.57-.38,1.95-1.15h1.84c-.25.76-.7,1.38-1.36,1.87-.66.48-1.47.73-2.44.73-.79,0-1.5-.18-2.12-.53-.62-.35-1.12-.85-1.47-1.5s-.53-1.39-.53-2.24.17-1.6.52-2.24c.35-.65.83-1.14,1.46-1.49s1.34-.52,2.15-.52,1.47.17,2.08.51c.61.34,1.08.82,1.42,1.43.34.62.51,1.32.51,2.12,0,.31-.02.59-.06.84ZM150.5,634.76c-.01-.63-.24-1.13-.68-1.52-.44-.38-.98-.57-1.63-.57-.59,0-1.1.19-1.52.56s-.67.88-.75,1.52h4.58Z" style="fill:#fff;"/><path d="M153.96,629.96c-.21-.21-.32-.47-.32-.78s.1-.57.32-.78c.21-.21.47-.31.78-.31s.55.1.77.31c.21.21.31.47.31.78s-.1.57-.31.78c-.21.21-.46.31-.77.31s-.57-.1-.78-.31ZM155.57,631.37v8.27h-1.71v-8.27h1.71Z" style="fill:#fff;"/><path d="M162.77,631.61c.49.25.88.57,1.16.95v-1.2h1.72v8.4c0,.76-.16,1.44-.48,2.03-.32.59-.78,1.06-1.39,1.4s-1.33.51-2.17.51c-1.12,0-2.05-.26-2.79-.79s-1.16-1.24-1.26-2.14h1.69c.13.43.41.78.83,1.04.42.27.93.4,1.52.4.69,0,1.25-.21,1.67-.63.42-.42.64-1.03.64-1.83v-1.38c-.29.39-.68.72-1.18.98-.49.27-1.06.4-1.69.4-.72,0-1.38-.18-1.97-.55-.59-.36-1.06-.88-1.41-1.53-.34-.65-.52-1.4-.52-2.23s.17-1.56.52-2.21c.35-.64.82-1.14,1.41-1.49.6-.35,1.25-.53,1.97-.53.64,0,1.21.13,1.7.38ZM163.58,634.01c-.24-.42-.54-.74-.92-.96-.38-.22-.79-.33-1.23-.33s-.85.11-1.23.32c-.38.21-.69.53-.92.94s-.35.91-.35,1.48.12,1.07.35,1.5c.24.43.54.76.93.98.39.23.79.34,1.22.34s.85-.11,1.23-.33c.38-.22.69-.54.92-.97.24-.42.35-.92.35-1.49s-.12-1.06-.35-1.48Z" style="fill:#fff;"/><path d="M173.73,631.64c.5.27.89.67,1.17,1.2.29.53.43,1.17.43,1.92v4.88h-1.69v-4.62c0-.74-.19-1.31-.56-1.7-.37-.4-.88-.59-1.51-.59s-1.15.2-1.52.59-.56.96-.56,1.7v4.62h-1.71v-11.1h1.71v3.79c.29-.35.66-.62,1.1-.81.44-.19.93-.28,1.46-.28.63,0,1.19.13,1.69.4Z" style="fill:#fff;"/><path d="M184.31,631.61c.5-.25,1.07-.38,1.69-.38.73,0,1.39.17,1.98.52.59.35,1.06.85,1.4,1.49s.51,1.38.51,2.21-.17,1.57-.51,2.23-.81,1.17-1.4,1.53c-.59.37-1.25.55-1.97.55-.64,0-1.21-.12-1.7-.38-.5-.25-.89-.57-1.18-.96v1.2h-1.71v-11.1h1.71v4.06c.29-.4.69-.73,1.19-.98ZM187.79,633.98c-.23-.42-.54-.73-.93-.94-.38-.22-.8-.32-1.24-.32s-.84.11-1.22.33c-.39.22-.7.54-.93.96s-.35.92-.35,1.48.12,1.07.35,1.49c.24.43.54.75.93.97.38.22.79.33,1.22.33s.85-.11,1.24-.34.7-.55.93-.98c.24-.43.35-.93.35-1.5s-.12-1.06-.35-1.48Z" style="fill:#fff;"/><path d="M191.56,629.96c-.21-.21-.32-.47-.32-.78s.1-.57.32-.78c.21-.21.47-.31.78-.31s.55.1.77.31c.21.21.31.47.31.78s-.1.57-.31.78c-.21.21-.46.31-.77.31s-.57-.1-.78-.31ZM193.18,631.37v8.27h-1.71v-8.27h1.71Z" style="fill:#fff;"/><path d="M198.58,635.51l3.81,4.12h-2.31l-3.06-3.56v3.56h-1.71v-11.1h1.71v6.45l3-3.62h2.37l-3.81,4.14Z" style="fill:#fff;"/><path d="M210.6,636.14h-6.32c.05.66.29,1.19.74,1.59.44.4.98.6,1.62.6.92,0,1.57-.38,1.95-1.15h1.84c-.25.76-.7,1.38-1.36,1.87-.65.48-1.47.73-2.44.73-.79,0-1.5-.18-2.12-.53-.62-.35-1.12-.85-1.47-1.5-.36-.65-.53-1.39-.53-2.24s.17-1.6.52-2.24c.35-.65.83-1.14,1.46-1.49s1.34-.52,2.15-.52,1.47.17,2.09.51c.61.34,1.08.82,1.42,1.43.34.62.51,1.32.51,2.12,0,.31-.02.59-.06.84ZM208.87,634.76c-.01-.63-.24-1.13-.67-1.52-.44-.38-.99-.57-1.63-.57-.59,0-1.1.19-1.52.56s-.67.88-.75,1.52h4.58Z" style="fill:#fff;"/><path d="M1.08,652.25c.35-.65.82-1.14,1.43-1.49s1.31-.52,2.1-.52c1,0,1.83.24,2.48.71.65.48,1.1,1.15,1.33,2.03h-1.84c-.15-.41-.39-.73-.72-.96-.33-.23-.74-.34-1.24-.34-.7,0-1.26.25-1.67.74-.42.49-.62,1.19-.62,2.08s.21,1.59.62,2.08c.42.5.97.75,1.67.75.99,0,1.64-.44,1.96-1.3h1.84c-.24.84-.69,1.51-1.35,2s-1.48.74-2.46.74c-.79,0-1.49-.18-2.1-.53s-1.09-.85-1.43-1.5c-.34-.65-.52-1.39-.52-2.24s.17-1.6.52-2.24Z" style="fill:#fff;"/><path d="M11.51,658.23c-.63-.35-1.12-.85-1.49-1.5-.36-.65-.54-1.39-.54-2.24s.18-1.58.56-2.23c.37-.65.88-1.15,1.51-1.5s1.35-.52,2.15-.52,1.5.17,2.14.52c.64.35,1.14.85,1.51,1.5.37.65.56,1.4.56,2.23s-.19,1.59-.57,2.24c-.38.65-.9,1.15-1.55,1.51s-1.38.53-2.17.53-1.48-.18-2.11-.53ZM14.87,656.97c.38-.21.7-.52.94-.94s.36-.93.36-1.53-.12-1.11-.34-1.52c-.23-.41-.54-.73-.92-.94s-.79-.31-1.23-.31-.85.1-1.22.31-.67.52-.89.94c-.22.42-.33.92-.33,1.52,0,.89.23,1.58.68,2.06.46.49,1.03.73,1.72.73.44,0,.85-.1,1.24-.31Z" style="fill:#fff;"/><path d="M31.29,650.64c.52.27.92.67,1.21,1.2.29.53.44,1.17.44,1.92v4.88h-1.7v-4.62c0-.74-.19-1.31-.55-1.7-.37-.4-.88-.59-1.52-.59s-1.15.2-1.52.59-.56.96-.56,1.7v4.62h-1.69v-4.62c0-.74-.19-1.31-.56-1.7s-.88-.59-1.51-.59-1.15.2-1.52.59-.56.96-.56,1.7v4.62h-1.71v-8.27h1.71v.95c.28-.34.63-.6,1.07-.8.43-.19.89-.28,1.38-.28.66,0,1.25.14,1.77.42.52.28.92.69,1.2,1.21.25-.5.64-.9,1.17-1.19.53-.29,1.1-.44,1.71-.44.65,0,1.23.13,1.75.4Z" style="fill:#fff;"/><path d="M46.75,650.64c.52.27.92.67,1.21,1.2.29.53.44,1.17.44,1.92v4.88h-1.7v-4.62c0-.74-.19-1.31-.55-1.7-.37-.4-.88-.59-1.52-.59s-1.15.2-1.52.59-.56.96-.56,1.7v4.62h-1.69v-4.62c0-.74-.19-1.31-.56-1.7s-.88-.59-1.51-.59-1.15.2-1.52.59-.56.96-.56,1.7v4.62h-1.71v-8.27h1.71v.95c.28-.34.63-.6,1.07-.8.43-.19.89-.28,1.38-.28.66,0,1.25.14,1.77.42.52.28.92.69,1.2,1.21.25-.5.64-.9,1.17-1.19.53-.29,1.1-.44,1.71-.44.65,0,1.23.13,1.75.4Z" style="fill:#fff;"/><path d="M57.9,650.37v8.27h-1.71v-.98c-.27.34-.62.61-1.06.8-.43.19-.9.29-1.39.29-.65,0-1.23-.14-1.75-.41s-.92-.67-1.21-1.2c-.29-.53-.44-1.17-.44-1.92v-4.86h1.7v4.6c0,.74.19,1.31.55,1.7.37.4.88.59,1.52.59s1.15-.2,1.52-.59.56-.96.56-1.7v-4.6h1.71Z" style="fill:#fff;"/><path d="M65.93,650.64c.52.27.92.67,1.21,1.2.29.53.43,1.17.43,1.92v4.88h-1.69v-4.62c0-.74-.19-1.31-.56-1.7-.37-.4-.88-.59-1.51-.59s-1.15.2-1.52.59-.56.96-.56,1.7v4.62h-1.71v-8.27h1.71v.95c.28-.34.64-.6,1.07-.8.44-.19.9-.28,1.39-.28.65,0,1.23.13,1.75.4Z" style="fill:#fff;"/><path d="M69.69,648.96c-.21-.21-.31-.47-.31-.78s.11-.57.31-.78c.21-.21.47-.31.78-.31s.55.1.76.31c.21.21.32.47.32.78s-.11.57-.32.78c-.21.21-.46.31-.76.31s-.57-.1-.78-.31ZM71.31,650.37v8.27h-1.71v-8.27h1.71Z" style="fill:#fff;"/><path d="M75.38,651.76v4.58c0,.31.07.53.22.67.15.13.39.2.74.2h1.05v1.42h-1.35c-.77,0-1.36-.18-1.77-.54s-.62-.94-.62-1.75v-4.58h-.97v-1.4h.97v-2.05h1.72v2.05h2.01v1.4h-2.01Z" style="fill:#fff;"/><path d="M86.66,650.37l-5.07,12.15h-1.77l1.68-4.02-3.25-8.13h1.9l2.33,6.3,2.42-6.3h1.77Z" style="fill:#fff;"/><path d="M91.8,652.26c.35-.64.82-1.14,1.41-1.49.6-.35,1.25-.53,1.97-.53.65,0,1.22.13,1.7.38.48.25.87.57,1.16.95v-1.2h1.72v8.27h-1.72v-1.23c-.29.39-.69.71-1.19.98-.5.26-1.07.39-1.71.39-.71,0-1.36-.18-1.95-.55-.59-.36-1.06-.88-1.4-1.53-.34-.65-.52-1.4-.52-2.23s.17-1.56.52-2.21ZM97.7,653.01c-.24-.42-.54-.74-.92-.96-.38-.22-.79-.33-1.23-.33s-.85.11-1.23.32c-.38.21-.69.53-.92.94s-.35.91-.35,1.48.12,1.07.35,1.5c.24.43.54.76.93.98.39.23.79.34,1.22.34s.85-.11,1.23-.33c.38-.22.69-.54.92-.97.24-.42.35-.92.35-1.49s-.12-1.06-.35-1.48Z" style="fill:#fff;"/><path d="M107.81,650.64c.51.27.92.67,1.21,1.2.29.53.43,1.17.43,1.92v4.88h-1.69v-4.62c0-.74-.19-1.31-.56-1.7s-.88-.59-1.51-.59-1.15.2-1.52.59-.56.96-.56,1.7v4.62h-1.71v-8.27h1.71v.95c.28-.34.64-.6,1.07-.8.43-.19.9-.28,1.39-.28.65,0,1.23.13,1.75.4Z" style="fill:#fff;"/><path d="M111.49,652.26c.35-.64.82-1.14,1.41-1.49.6-.35,1.26-.53,1.99-.53.54,0,1.07.12,1.6.35.52.23.94.55,1.25.94v-3.99h1.72v11.1h-1.72v-1.25c-.28.4-.67.73-1.16.99-.5.26-1.06.39-1.7.39-.72,0-1.38-.18-1.97-.55-.59-.36-1.06-.88-1.41-1.53-.34-.65-.52-1.4-.52-2.23s.17-1.56.52-2.21ZM117.39,653.01c-.24-.42-.54-.74-.92-.96-.38-.22-.79-.33-1.23-.33s-.85.11-1.23.32c-.38.21-.69.53-.92.94s-.35.91-.35,1.48.12,1.07.35,1.5c.24.43.54.76.93.98.39.23.79.34,1.22.34s.85-.11,1.23-.33c.38-.22.69-.54.92-.97.24-.42.35-.92.35-1.49s-.12-1.06-.35-1.48Z" style="fill:#fff;"/><path d="M132.44,649.17h-5.03v2.98c.21-.28.52-.52.94-.71s.86-.29,1.33-.29c.84,0,1.52.18,2.05.54.53.36.9.82,1.12,1.37.23.55.34,1.13.34,1.74,0,.74-.14,1.4-.43,1.97-.29.58-.71,1.03-1.27,1.36-.57.33-1.26.5-2.08.5-1.09,0-1.96-.27-2.62-.81s-1.05-1.25-1.19-2.15h1.67c.11.47.35.84.73,1.12.38.27.86.41,1.43.41.71,0,1.24-.22,1.6-.65.35-.43.53-1,.53-1.71s-.18-1.27-.54-1.66c-.36-.38-.89-.58-1.59-.58-.49,0-.9.12-1.24.37s-.58.58-.73,1h-1.62v-6.31h6.6v1.5Z" style="fill:#fff;"/><path d="M135.59,648.96c.58-.98,1.59-1.46,3.02-1.46s2.44.49,3.02,1.46c.59.98.88,2.33.88,4.06s-.29,3.12-.88,4.1c-.58.98-1.59,1.48-3.02,1.48s-2.44-.49-3.02-1.48-.88-2.35-.88-4.1.29-3.08.88-4.06ZM140.67,650.97c-.1-.56-.32-1.02-.64-1.37s-.79-.53-1.42-.53-1.1.18-1.42.53-.53.81-.64,1.37-.16,1.25-.16,2.06.05,1.54.15,2.11c.1.57.31,1.03.64,1.38.33.35.8.53,1.43.53s1.11-.17,1.43-.53c.32-.35.54-.81.64-1.38.1-.57.15-1.27.15-2.11s-.05-1.5-.16-2.06Z" style="fill:#fff;"/><path d="M155.89,650.37l-5.07,12.15h-1.77l1.68-4.02-3.26-8.13h1.91l2.32,6.3,2.42-6.3h1.77Z" style="fill:#fff;"/><path d="M164.32,655.14h-6.32c.05.66.29,1.19.74,1.59s.98.6,1.62.6c.92,0,1.57-.38,1.95-1.15h1.85c-.25.76-.7,1.38-1.36,1.87-.66.48-1.47.73-2.44.73-.79,0-1.5-.18-2.12-.53s-1.12-.85-1.47-1.5-.53-1.39-.53-2.24.17-1.6.52-2.24c.34-.65.83-1.14,1.46-1.49s1.34-.52,2.15-.52,1.47.17,2.08.51c.61.34,1.08.82,1.42,1.43.34.62.51,1.32.51,2.12,0,.31-.02.59-.06.84ZM162.59,653.76c0-.63-.23-1.13-.67-1.52-.44-.38-.99-.57-1.64-.57-.59,0-1.09.19-1.51.56s-.67.88-.75,1.52h4.57Z" style="fill:#fff;"/><path d="M166.01,652.26c.35-.64.81-1.14,1.41-1.49.59-.35,1.25-.53,1.97-.53.65,0,1.22.13,1.7.38.48.25.87.57,1.16.95v-1.2h1.72v8.27h-1.72v-1.23c-.29.39-.69.71-1.19.98-.5.26-1.07.39-1.71.39-.71,0-1.36-.18-1.95-.55-.59-.36-1.06-.88-1.4-1.53-.34-.65-.52-1.4-.52-2.23s.17-1.56.52-2.21ZM171.9,653.01c-.23-.42-.54-.74-.92-.96-.38-.22-.79-.33-1.23-.33s-.85.11-1.23.32c-.38.21-.69.53-.92.94-.23.42-.35.91-.35,1.48s.12,1.07.35,1.5c.24.43.54.76.93.98.39.23.79.34,1.22.34s.85-.11,1.23-.33c.38-.22.69-.54.92-.97.24-.42.35-.92.35-1.49s-.12-1.06-.35-1.48Z" style="fill:#fff;"/><path d="M178.81,650.58c.41-.23.91-.35,1.48-.35v1.77h-.43c-.67,0-1.18.17-1.52.51-.35.34-.52.93-.52,1.77v4.35h-1.71v-8.27h1.71v1.2c.25-.42.58-.75,1-.98Z" style="fill:#fff;"/><path d="M183.02,658.41c-.51-.23-.92-.56-1.22-.96-.3-.4-.46-.86-.48-1.36h1.77c.03.35.2.64.5.88.31.24.69.35,1.15.35s.85-.09,1.12-.28.4-.42.4-.71c0-.31-.15-.54-.44-.69s-.76-.31-1.4-.5c-.62-.17-1.12-.33-1.52-.5-.39-.16-.73-.4-1.01-.73s-.43-.77-.43-1.31c0-.44.13-.84.39-1.21.26-.36.63-.65,1.12-.86.48-.21,1.04-.31,1.67-.31.94,0,1.7.24,2.27.71.57.48.88,1.12.92,1.94h-1.71c-.03-.37-.18-.67-.45-.88s-.63-.33-1.09-.33-.8.08-1.04.25c-.24.17-.36.4-.36.68,0,.22.08.4.24.55s.36.27.58.35.57.19,1.02.32c.6.16,1.09.32,1.48.49s.72.41,1,.73c.28.32.42.75.44,1.27,0,.47-.13.89-.39,1.26s-.63.66-1.1.87-1.03.31-1.67.31-1.23-.12-1.75-.35Z" style="fill:#fff;"/><path d="M195.15,658.23c-.63-.35-1.12-.85-1.49-1.5s-.54-1.39-.54-2.24.19-1.58.55-2.23c.37-.65.88-1.15,1.52-1.5.64-.35,1.36-.52,2.14-.52s1.51.17,2.15.52,1.14.85,1.51,1.5c.37.65.55,1.4.55,2.23s-.19,1.59-.57,2.24-.9,1.15-1.55,1.51-1.38.53-2.17.53-1.49-.18-2.12-.53ZM198.5,656.97c.39-.21.7-.52.94-.94.24-.42.36-.93.36-1.53s-.12-1.11-.35-1.52c-.23-.41-.54-.73-.92-.94s-.79-.31-1.23-.31-.85.1-1.22.31-.67.52-.89.94c-.22.42-.33.92-.33,1.52,0,.89.23,1.58.68,2.06.45.49,1.03.73,1.72.73.44,0,.85-.1,1.24-.31Z" style="fill:#fff;"/><path d="M206.56,651.76h-1.53v6.87h-1.73v-6.87h-.97v-1.4h.97v-.58c0-.95.25-1.64.76-2.08.5-.43,1.3-.65,2.38-.65v1.43c-.52,0-.89.1-1.09.29-.21.19-.32.53-.32,1.01v.58h1.53v1.4Z" style="fill:#fff;"/><path d="M213.97,651.76v4.58c0,.31.07.53.22.67.14.13.39.2.74.2h1.05v1.42h-1.35c-.77,0-1.36-.18-1.77-.54s-.61-.94-.61-1.75v-4.58h-.98v-1.4h.98v-2.05h1.73v2.05h2.01v1.4h-2.01Z" style="fill:#fff;"/><path d="M223.38,650.64c.5.27.89.67,1.17,1.2.29.53.43,1.17.43,1.92v4.88h-1.69v-4.62c0-.74-.19-1.31-.56-1.7-.37-.4-.88-.59-1.51-.59s-1.15.2-1.52.59-.56.96-.56,1.7v4.62h-1.71v-11.1h1.71v3.79c.29-.35.66-.62,1.1-.81.44-.19.93-.28,1.46-.28.63,0,1.19.13,1.69.4Z" style="fill:#fff;"/><path d="M234.59,655.14h-6.32c.05.66.29,1.19.74,1.59.44.4.98.6,1.62.6.92,0,1.57-.38,1.95-1.15h1.84c-.25.76-.7,1.38-1.36,1.87-.65.48-1.47.73-2.44.73-.79,0-1.5-.18-2.12-.53-.62-.35-1.12-.85-1.47-1.5-.36-.65-.53-1.39-.53-2.24s.17-1.6.52-2.24c.35-.65.83-1.14,1.46-1.49s1.34-.52,2.15-.52,1.47.17,2.09.51c.61.34,1.08.82,1.42,1.43.34.62.51,1.32.51,2.12,0,.31-.02.59-.06.84ZM232.87,653.76c-.01-.63-.24-1.13-.67-1.52-.44-.38-.99-.57-1.63-.57-.59,0-1.1.19-1.52.56s-.67.88-.75,1.52h4.58Z" style="fill:#fff;"/><path d="M1.28,669.65c.47-.81,1.12-1.44,1.94-1.9.81-.46,1.71-.68,2.68-.68,1.11,0,2.1.27,2.96.82.87.55,1.49,1.32,1.88,2.32h-2.05c-.27-.55-.64-.96-1.12-1.23s-1.04-.41-1.67-.41c-.69,0-1.3.16-1.84.46-.54.31-.96.76-1.27,1.34s-.46,1.25-.46,2.02.15,1.44.46,2.02.73,1.03,1.27,1.34,1.15.47,1.84.47c.63,0,1.18-.13,1.67-.4s.86-.68,1.12-1.23h2.05c-.39,1-1.02,1.77-1.88,2.31-.86.54-1.85.81-2.96.81-.98,0-1.88-.23-2.68-.68-.81-.46-1.45-1.09-1.93-1.9-.47-.81-.71-1.72-.71-2.74s.24-1.94.71-2.75Z" style="fill:#fff;"/><path d="M12.48,671.26c.35-.64.82-1.14,1.41-1.49.6-.35,1.25-.53,1.97-.53.65,0,1.22.13,1.7.38.48.25.87.57,1.16.95v-1.2h1.72v8.27h-1.72v-1.23c-.29.39-.69.71-1.19.98-.5.26-1.07.39-1.71.39-.71,0-1.36-.18-1.95-.55-.59-.36-1.06-.88-1.4-1.53-.34-.65-.52-1.4-.52-2.23s.17-1.56.52-2.21ZM18.38,672.01c-.24-.42-.54-.74-.92-.96-.38-.22-.79-.33-1.23-.33s-.85.11-1.23.32c-.38.21-.69.53-.92.94s-.35.91-.35,1.48.12,1.07.35,1.5c.24.43.54.76.93.98.39.23.79.34,1.22.34s.85-.11,1.23-.33c.38-.22.69-.54.92-.97.24-.42.35-.92.35-1.49s-.12-1.06-.35-1.48Z" style="fill:#fff;"/><path d="M25.47,669.62c.5-.26,1.06-.39,1.7-.39.72,0,1.38.18,1.97.53.59.36,1.06.85,1.4,1.49.34.64.51,1.38.51,2.21s-.17,1.57-.51,2.23-.81,1.17-1.4,1.53c-.6.37-1.25.55-1.97.55-.63,0-1.19-.13-1.68-.38-.49-.25-.89-.57-1.2-.95v5.13h-1.71v-12.2h1.71v1.22c.29-.38.69-.7,1.19-.96ZM28.96,671.98c-.24-.42-.54-.73-.93-.94-.39-.22-.8-.32-1.24-.32s-.84.11-1.22.33c-.38.22-.7.54-.93.96-.24.42-.35.92-.35,1.48s.12,1.07.35,1.49c.23.43.54.75.93.97.38.22.79.33,1.22.33s.85-.11,1.24-.34c.38-.23.69-.55.93-.98.24-.43.35-.93.35-1.5s-.12-1.06-.35-1.48Z" style="fill:#fff;"/><path d="M32.73,667.96c-.21-.21-.31-.47-.31-.78s.1-.57.31-.78.47-.31.78-.31.55.1.76.31c.21.21.32.47.32.78s-.1.57-.32.78c-.21.21-.46.31-.76.31s-.57-.1-.78-.31ZM34.35,669.37v8.27h-1.71v-8.27h1.71Z" style="fill:#fff;"/><path d="M38.43,670.76v4.58c0,.31.07.53.22.67.15.13.39.2.74.2h1.05v1.42h-1.35c-.77,0-1.36-.18-1.77-.54s-.61-.94-.61-1.75v-4.58h-.98v-1.4h.98v-2.05h1.72v2.05h2.01v1.4h-2.01Z" style="fill:#fff;"/><path d="M41.69,671.26c.35-.64.82-1.14,1.41-1.49.6-.35,1.25-.53,1.97-.53.65,0,1.22.13,1.7.38.48.25.87.57,1.16.95v-1.2h1.72v8.27h-1.72v-1.23c-.29.39-.69.71-1.19.98-.5.26-1.07.39-1.71.39-.71,0-1.36-.18-1.95-.55-.59-.36-1.06-.88-1.4-1.53-.34-.65-.52-1.4-.52-2.23s.17-1.56.52-2.21ZM47.58,672.01c-.24-.42-.54-.74-.92-.96-.38-.22-.79-.33-1.23-.33s-.85.11-1.23.32c-.38.21-.69.53-.92.94s-.35.91-.35,1.48.12,1.07.35,1.5c.24.43.54.76.93.98.39.23.79.34,1.22.34s.85-.11,1.23-.33c.38-.22.69-.54.92-.97.24-.42.35-.92.35-1.49s-.12-1.06-.35-1.48Z" style="fill:#fff;"/><path d="M53.48,666.53v11.1h-1.71v-11.1h1.71Z" style="fill:#fff;"/><path d="M65.92,675.5h-4.37l-.75,2.13h-1.79l3.74-10.44h1.98l3.73,10.44h-1.8l-.75-2.13ZM65.44,674.11l-1.7-4.85-1.71,4.85h3.41Z" style="fill:#fff;"/><path d="M72.54,669.58c.42-.23.91-.35,1.48-.35v1.77h-.43c-.67,0-1.18.17-1.52.51-.34.34-.52.93-.52,1.77v4.35h-1.71v-8.27h1.71v1.2c.25-.42.58-.75,1-.98Z" style="fill:#fff;"/><path d="M82.88,674.14h-6.31c.05.66.29,1.19.73,1.59.44.4.98.6,1.62.6.92,0,1.57-.38,1.95-1.15h1.85c-.25.76-.7,1.38-1.36,1.87-.66.48-1.47.73-2.44.73-.79,0-1.5-.18-2.12-.53s-1.12-.85-1.47-1.5c-.35-.65-.53-1.39-.53-2.24s.17-1.6.52-2.24.83-1.14,1.46-1.49,1.34-.52,2.15-.52,1.47.17,2.08.51c.61.34,1.09.82,1.43,1.43.34.62.51,1.32.51,2.12,0,.31-.02.59-.06.84ZM81.16,672.76c0-.63-.24-1.13-.67-1.52-.44-.38-.99-.57-1.64-.57-.59,0-1.09.19-1.51.56s-.67.88-.75,1.52h4.58Z" style="fill:#fff;"/><path d="M84.58,671.26c.34-.64.81-1.14,1.41-1.49.59-.35,1.25-.53,1.97-.53.65,0,1.22.13,1.7.38s.87.57,1.16.95v-1.2h1.73v8.27h-1.73v-1.23c-.29.39-.68.71-1.18.98-.5.26-1.07.39-1.71.39-.71,0-1.36-.18-1.95-.55-.59-.36-1.06-.88-1.4-1.53-.35-.65-.52-1.4-.52-2.23s.17-1.56.52-2.21ZM90.47,672.01c-.23-.42-.54-.74-.92-.96-.38-.22-.79-.33-1.23-.33s-.85.11-1.23.32c-.38.21-.69.53-.92.94-.24.42-.35.91-.35,1.48s.12,1.07.35,1.5c.23.43.54.76.93.98s.79.34,1.22.34.85-.11,1.23-.33c.38-.22.69-.54.92-.97.23-.42.35-.92.35-1.49s-.12-1.06-.35-1.48Z" style="fill:#fff;"/><path d="M106.25,670.21c-.27-.52-.65-.91-1.12-1.18-.48-.26-1.04-.4-1.67-.4-.69,0-1.3.16-1.84.46-.54.31-.96.75-1.27,1.32-.31.57-.46,1.23-.46,1.98s.15,1.41.46,1.99c.3.58.73,1.02,1.27,1.33s1.16.46,1.84.46c.93,0,1.69-.26,2.27-.78.58-.52.93-1.23,1.06-2.12h-3.92v-1.36h5.75v1.33c-.11.81-.4,1.56-.86,2.23-.47.68-1.07,1.22-1.82,1.63-.75.41-1.57.61-2.48.61-.98,0-1.88-.23-2.69-.68-.81-.46-1.45-1.09-1.93-1.9-.48-.81-.71-1.72-.71-2.74s.24-1.94.71-2.75c.47-.81,1.12-1.44,1.93-1.9.82-.46,1.71-.68,2.68-.68,1.11,0,2.1.27,2.96.82.87.55,1.49,1.32,1.88,2.32h-2.06Z" style="fill:#fff;"/><path d="M113.03,669.58c.42-.23.91-.35,1.48-.35v1.77h-.44c-.67,0-1.18.17-1.52.51-.34.34-.52.93-.52,1.77v4.35h-1.71v-8.27h1.71v1.2c.25-.42.58-.75,1-.98Z" style="fill:#fff;"/><path d="M123.38,674.14h-6.32c.05.66.29,1.19.74,1.59.44.4.98.6,1.62.6.92,0,1.57-.38,1.95-1.15h1.84c-.25.76-.7,1.38-1.36,1.87-.65.48-1.47.73-2.44.73-.79,0-1.5-.18-2.12-.53-.62-.35-1.12-.85-1.47-1.5-.36-.65-.53-1.39-.53-2.24s.17-1.6.52-2.24c.35-.65.83-1.14,1.46-1.49s1.34-.52,2.15-.52,1.47.17,2.09.51c.61.34,1.08.82,1.42,1.43.34.62.51,1.32.51,2.12,0,.31-.02.59-.06.84ZM121.65,672.76c-.01-.63-.24-1.13-.67-1.52-.44-.38-.99-.57-1.63-.57-.59,0-1.1.19-1.52.56s-.67.88-.75,1.52h4.58Z" style="fill:#fff;"/><path d="M132.64,674.14h-6.31c.05.66.29,1.19.73,1.59.44.4.98.6,1.62.6.92,0,1.57-.38,1.95-1.15h1.84c-.25.76-.7,1.38-1.36,1.87-.66.48-1.47.73-2.44.73-.79,0-1.5-.18-2.12-.53-.62-.35-1.12-.85-1.47-1.5s-.53-1.39-.53-2.24.17-1.6.52-2.24c.35-.65.83-1.14,1.46-1.49s1.34-.52,2.15-.52,1.47.17,2.08.51c.61.34,1.08.82,1.42,1.43.34.62.51,1.32.51,2.12,0,.31-.02.59-.06.84ZM130.92,672.76c-.01-.63-.24-1.13-.68-1.52-.44-.38-.98-.57-1.63-.57-.59,0-1.1.19-1.52.56s-.67.88-.75,1.52h4.58Z" style="fill:#fff;"/><path d="M140.23,669.64c.52.27.92.67,1.21,1.2.29.53.43,1.17.43,1.92v4.88h-1.69v-4.62c0-.74-.19-1.31-.56-1.7-.37-.4-.88-.59-1.51-.59s-1.15.2-1.52.59-.56.96-.56,1.7v4.62h-1.71v-8.27h1.71v.95c.28-.34.64-.6,1.07-.8.44-.19.9-.28,1.39-.28.65,0,1.23.13,1.75.4Z" style="fill:#fff;"/><path d="M154.87,669.37l-2.57,8.27h-1.8l-1.67-6.1-1.67,6.1h-1.8l-2.58-8.27h1.74l1.72,6.65,1.76-6.65h1.78l1.68,6.62,1.71-6.62h1.68Z" style="fill:#fff;"/><path d="M155.86,671.26c.34-.64.82-1.14,1.41-1.49.59-.35,1.25-.53,1.97-.53.65,0,1.22.13,1.7.38.49.25.87.57,1.16.95v-1.2h1.73v8.27h-1.73v-1.23c-.29.39-.68.71-1.18.98-.5.26-1.07.39-1.71.39-.71,0-1.36-.18-1.95-.55-.59-.36-1.06-.88-1.4-1.53s-.52-1.4-.52-2.23.17-1.56.52-2.21ZM161.76,672.01c-.24-.42-.54-.74-.92-.96-.38-.22-.79-.33-1.23-.33s-.85.11-1.23.32c-.38.21-.69.53-.92.94-.24.42-.35.91-.35,1.48s.12,1.07.35,1.5c.23.43.54.76.93.98s.79.34,1.22.34.85-.11,1.23-.33c.38-.22.69-.54.92-.97.23-.42.35-.92.35-1.49s-.12-1.06-.35-1.48Z" style="fill:#fff;"/><path d="M173.45,669.37l-5.07,12.15h-1.77l1.68-4.02-3.25-8.13h1.91l2.33,6.3,2.41-6.3h1.77Z" style="fill:#fff;"/><path d="M173.6,677.42c-.21-.21-.32-.47-.32-.78s.1-.57.32-.78c.21-.21.47-.31.78-.31s.55.1.77.31c.21.21.31.47.31.78s-.11.57-.31.78c-.21.21-.46.31-.77.31s-.57-.1-.78-.31Z" style="fill:#fff;"/><path d="M345.27,639.63l-2.4-4.17h-1.3v4.17h-1.71v-10.42h3.6c.8,0,1.48.14,2.03.42.55.28.97.65,1.25,1.12.27.47.41,1,.41,1.57,0,.68-.2,1.3-.59,1.85-.39.56-1,.93-1.82,1.13l2.58,4.32h-2.04ZM341.56,634.09h1.89c.64,0,1.12-.16,1.45-.48.32-.32.49-.75.49-1.29s-.16-.96-.48-1.27c-.32-.31-.8-.46-1.46-.46h-1.89v3.49Z" style="fill:#fff;"/><path d="M348.9,633.25c.35-.64.82-1.14,1.41-1.49.59-.35,1.25-.53,1.97-.53.65,0,1.22.13,1.7.38s.87.57,1.16.95v-1.2h1.72v8.27h-1.72v-1.23c-.29.39-.69.71-1.19.98-.5.26-1.07.39-1.71.39-.71,0-1.36-.18-1.95-.55-.59-.36-1.06-.88-1.4-1.53-.34-.65-.52-1.4-.52-2.23s.17-1.56.52-2.21ZM354.8,634c-.24-.42-.54-.74-.92-.96-.38-.22-.79-.33-1.23-.33s-.85.11-1.23.32c-.38.21-.69.53-.92.94-.23.42-.35.91-.35,1.48s.12,1.07.35,1.5c.24.43.54.76.93.98.38.23.79.34,1.22.34s.85-.11,1.23-.33c.38-.22.69-.54.92-.97.23-.42.35-.92.35-1.49s-.12-1.06-.35-1.48Z" style="fill:#fff;"/><path d="M360.7,628.53v11.1h-1.71v-11.1h1.71Z" style="fill:#fff;"/><path d="M370.42,636.13h-6.31c.05.66.29,1.19.73,1.59.44.4.98.6,1.62.6.92,0,1.57-.38,1.95-1.15h1.84c-.25.76-.7,1.38-1.36,1.87-.65.48-1.47.73-2.44.73-.79,0-1.5-.18-2.12-.53s-1.12-.85-1.47-1.5c-.36-.65-.53-1.39-.53-2.24s.17-1.6.52-2.24c.35-.65.83-1.14,1.46-1.49s1.34-.52,2.15-.52,1.48.17,2.08.51c.61.34,1.08.82,1.43,1.43.34.62.51,1.32.51,2.12,0,.31-.02.59-.06.84ZM368.69,634.75c0-.63-.24-1.13-.67-1.52-.44-.38-.99-.57-1.63-.57-.59,0-1.1.19-1.52.56s-.67.88-.75,1.52h4.58Z" style="fill:#fff;"/><path d="M372.15,629.95c-.21-.21-.31-.47-.31-.78s.1-.57.31-.78.47-.31.78-.31.55.1.76.31.32.47.32.78-.11.57-.32.78-.46.31-.76.31-.57-.1-.78-.31ZM373.77,631.36v8.27h-1.71v-8.27h1.71Z" style="fill:#fff;"/><path d="M380.96,631.61c.5.25.88.57,1.16.95v-1.2h1.72v8.4c0,.76-.16,1.44-.48,2.03-.32.59-.78,1.06-1.39,1.4-.61.34-1.33.51-2.17.51-1.12,0-2.05-.26-2.79-.79s-1.16-1.24-1.26-2.14h1.7c.13.43.41.78.83,1.04.42.27.93.4,1.52.4.69,0,1.25-.21,1.67-.63s.64-1.03.64-1.83v-1.38c-.29.39-.68.72-1.18.98-.5.27-1.06.4-1.69.4-.72,0-1.38-.18-1.97-.55-.59-.36-1.06-.88-1.41-1.53-.34-.65-.52-1.4-.52-2.23s.17-1.56.52-2.21c.35-.64.82-1.14,1.41-1.49.59-.35,1.25-.53,1.97-.53.64,0,1.21.13,1.7.38ZM381.77,634c-.24-.42-.54-.74-.92-.96-.38-.22-.79-.33-1.23-.33s-.85.11-1.23.32c-.38.21-.69.53-.92.94-.23.42-.35.91-.35,1.48s.12,1.07.35,1.5c.24.43.54.76.93.98.38.23.79.34,1.22.34s.85-.11,1.23-.33c.38-.22.69-.54.92-.97.23-.42.35-.92.35-1.49s-.12-1.06-.35-1.48Z" style="fill:#fff;"/><path d="M391.93,631.63c.49.27.88.67,1.17,1.2.29.53.43,1.17.43,1.92v4.88h-1.69v-4.62c0-.74-.19-1.31-.56-1.7s-.88-.59-1.51-.59-1.15.2-1.52.59-.56.96-.56,1.7v4.62h-1.71v-11.1h1.71v3.79c.29-.35.66-.62,1.1-.81.45-.19.93-.28,1.46-.28.63,0,1.19.13,1.69.4Z" style="fill:#fff;"/><path d="M397.6,637.57l-1.82,4.14h-1.11l1.06-4.14h1.86Z" style="fill:#fff;"/><path d="M411.57,639.63h-1.71l-5.15-7.79v7.79h-1.71v-10.44h1.71l5.15,7.77v-7.77h1.71v10.44Z" style="fill:#fff;"/><path d="M413.99,631.65c.47-.81,1.12-1.44,1.93-1.9.82-.46,1.71-.68,2.68-.68,1.11,0,2.1.27,2.96.82.86.55,1.49,1.32,1.88,2.32h-2.05c-.27-.55-.64-.96-1.12-1.23-.48-.27-1.04-.41-1.67-.41-.69,0-1.3.16-1.84.46-.54.31-.96.76-1.27,1.34-.31.58-.46,1.25-.46,2.02s.15,1.44.46,2.02c.3.58.73,1.03,1.27,1.34s1.16.47,1.84.47c.63,0,1.19-.13,1.67-.4.48-.27.86-.68,1.12-1.23h2.05c-.39,1-1.02,1.77-1.88,2.31-.87.54-1.85.81-2.96.81-.98,0-1.88-.23-2.68-.68-.81-.46-1.45-1.09-1.93-1.9-.48-.81-.71-1.72-.71-2.74s.24-1.94.71-2.75Z" style="fill:#fff;"/><path d="M350.83,648.2v10.42h-1.71v-7.14l-3.18,7.14h-1.18l-3.2-7.14v7.14h-1.71v-10.42h1.84l3.66,8.17,3.65-8.17h1.83Z" style="fill:#fff;"/><path d="M353.06,652.25c.35-.64.82-1.14,1.41-1.49.59-.35,1.25-.53,1.97-.53.65,0,1.22.13,1.7.38s.87.57,1.16.95v-1.2h1.72v8.27h-1.72v-1.23c-.29.39-.69.71-1.19.98-.5.26-1.07.39-1.71.39-.71,0-1.36-.18-1.95-.55-.59-.36-1.06-.88-1.4-1.53-.34-.65-.52-1.4-.52-2.23s.17-1.56.52-2.21ZM358.95,653c-.24-.42-.54-.74-.92-.96-.38-.22-.79-.33-1.23-.33s-.85.11-1.23.32c-.38.21-.69.53-.92.94-.23.42-.35.91-.35,1.48s.12,1.07.35,1.5c.24.43.54.76.93.98.38.23.79.34,1.22.34s.85-.11,1.23-.33c.38-.22.69-.54.92-.97.23-.42.35-.92.35-1.49s-.12-1.06-.35-1.48Z" style="fill:#fff;"/><path d="M370.64,650.36l-5.07,12.15h-1.77l1.68-4.02-3.25-8.13h1.9l2.33,6.3,2.42-6.3h1.77Z" style="fill:#fff;"/><path d="M387.26,652.48v1.44h-11.25v-1.44h11.25Z" style="fill:#fff;"/><path d="M394.31,656.3c.96-.83,1.72-1.51,2.27-2.05.56-.53,1.02-1.09,1.39-1.67s.55-1.16.55-1.74-.14-1.07-.43-1.41-.73-.51-1.34-.51-1.05.19-1.37.56c-.33.38-.5.88-.52,1.51h-1.65c.03-1.14.37-2.01,1.03-2.62s1.49-.91,2.5-.91c1.09,0,1.94.3,2.56.9.62.6.92,1.4.92,2.4,0,.72-.18,1.41-.55,2.08-.36.67-.8,1.26-1.3,1.79s-1.15,1.13-1.93,1.82l-.67.6h4.75v1.43h-7.29v-1.25l1.08-.93Z" style="fill:#fff;"/><path d="M402.77,648.96c.58-.98,1.59-1.46,3.02-1.46s2.44.49,3.02,1.46.88,2.33.88,4.06-.29,3.12-.88,4.1-1.59,1.48-3.02,1.48-2.44-.49-3.02-1.48-.88-2.35-.88-4.1.29-3.08.88-4.06ZM407.85,650.96c-.1-.56-.32-1.02-.64-1.37-.32-.35-.79-.53-1.42-.53s-1.1.18-1.42.53-.53.81-.64,1.37c-.1.56-.16,1.25-.16,2.06s.05,1.54.15,2.11c.1.57.31,1.03.64,1.38.33.35.8.53,1.43.53s1.11-.17,1.43-.53c.33-.35.54-.81.64-1.38.1-.57.15-1.27.15-2.11s-.05-1.5-.16-2.06Z" style="fill:#fff;"/><path d="M412.16,656.3c.96-.83,1.72-1.51,2.27-2.05.56-.53,1.02-1.09,1.39-1.67s.55-1.16.55-1.74-.14-1.07-.43-1.41-.73-.51-1.34-.51-1.05.19-1.37.56c-.33.38-.5.88-.52,1.51h-1.65c.03-1.14.37-2.01,1.03-2.62s1.49-.91,2.5-.91c1.09,0,1.94.3,2.56.9.62.6.92,1.4.92,2.4,0,.72-.18,1.41-.55,2.08-.36.67-.8,1.26-1.3,1.79s-1.15,1.13-1.93,1.82l-.67.6h4.75v1.43h-7.29v-1.25l1.08-.93Z" style="fill:#fff;"/><path d="M424.95,649.19c-.29-.23-.7-.34-1.21-.34-.79,0-1.38.3-1.77.91-.39.6-.6,1.61-.62,3.01.26-.44.64-.78,1.14-1.02.5-.24,1.04-.36,1.62-.36.66,0,1.24.14,1.75.43.5.28.9.7,1.18,1.24s.43,1.19.43,1.94c0,.7-.14,1.33-.41,1.88-.27.55-.68.98-1.22,1.3s-1.19.47-1.95.47c-1.03,0-1.84-.23-2.42-.68-.58-.45-1-1.1-1.23-1.93-.24-.83-.35-1.87-.35-3.1,0-3.66,1.29-5.49,3.87-5.49,1,0,1.79.27,2.36.81.57.54.91,1.21,1.01,2h-1.58c-.11-.46-.31-.81-.6-1.04ZM422.18,653.37c-.42.36-.64.89-.64,1.58s.2,1.24.59,1.64c.4.41.95.61,1.66.61.63,0,1.13-.2,1.49-.58.37-.39.55-.91.55-1.56s-.18-1.22-.53-1.63c-.35-.41-.88-.61-1.57-.61-.61,0-1.13.18-1.55.55Z" style="fill:#fff;"/><path d="M345.27,677.63l-2.4-4.17h-1.3v4.17h-1.71v-10.42h3.6c.8,0,1.48.14,2.03.42.55.28.97.65,1.25,1.12.27.47.41,1,.41,1.57,0,.68-.2,1.3-.59,1.85-.39.56-1,.93-1.82,1.13l2.58,4.32h-2.04ZM341.56,672.09h1.89c.64,0,1.12-.16,1.45-.48.32-.32.49-.75.49-1.29s-.16-.96-.48-1.27c-.32-.31-.8-.46-1.46-.46h-1.89v3.49Z" style="fill:#fff;"/><path d="M348.9,671.25c.35-.64.82-1.14,1.41-1.49.59-.35,1.25-.53,1.97-.53.65,0,1.22.13,1.7.38s.87.57,1.16.95v-1.2h1.72v8.27h-1.72v-1.23c-.29.39-.69.71-1.19.98-.5.26-1.07.39-1.71.39-.71,0-1.36-.18-1.95-.55-.59-.36-1.06-.88-1.4-1.53-.34-.65-.52-1.4-.52-2.23s.17-1.56.52-2.21ZM354.8,672c-.24-.42-.54-.74-.92-.96-.38-.22-.79-.33-1.23-.33s-.85.11-1.23.32c-.38.21-.69.53-.92.94-.23.42-.35.91-.35,1.48s.12,1.07.35,1.5c.24.43.54.76.93.98.38.23.79.34,1.22.34s.85-.11,1.23-.33c.38-.22.69-.54.92-.97.23-.42.35-.92.35-1.49s-.12-1.06-.35-1.48Z" style="fill:#fff;"/><path d="M360.7,666.53v11.1h-1.71v-11.1h1.71Z" style="fill:#fff;"/><path d="M370.42,674.13h-6.31c.05.66.29,1.19.73,1.59.44.4.98.6,1.62.6.92,0,1.57-.38,1.95-1.15h1.84c-.25.76-.7,1.38-1.36,1.87-.65.48-1.47.73-2.44.73-.79,0-1.5-.18-2.12-.53s-1.12-.85-1.47-1.5c-.36-.65-.53-1.39-.53-2.24s.17-1.6.52-2.24c.35-.65.83-1.14,1.46-1.49s1.34-.52,2.15-.52,1.48.17,2.08.51c.61.34,1.08.82,1.43,1.43.34.62.51,1.32.51,2.12,0,.31-.02.59-.06.84ZM368.69,672.75c0-.63-.24-1.13-.67-1.52-.44-.38-.99-.57-1.63-.57-.59,0-1.1.19-1.52.56s-.67.88-.75,1.52h4.58Z" style="fill:#fff;"/><path d="M372.15,667.95c-.21-.21-.31-.47-.31-.78s.1-.57.31-.78.47-.31.78-.31.55.1.76.31.32.47.32.78-.11.57-.32.78-.46.31-.76.31-.57-.1-.78-.31ZM373.77,669.36v8.27h-1.71v-8.27h1.71Z" style="fill:#fff;"/><path d="M380.96,669.61c.5.25.88.57,1.16.95v-1.2h1.72v8.4c0,.76-.16,1.44-.48,2.03-.32.59-.78,1.06-1.39,1.4-.61.34-1.33.51-2.17.51-1.12,0-2.05-.26-2.79-.79s-1.16-1.24-1.26-2.14h1.7c.13.43.41.78.83,1.04.42.27.93.4,1.52.4.69,0,1.25-.21,1.67-.63s.64-1.03.64-1.83v-1.38c-.29.39-.68.72-1.18.98-.5.27-1.06.4-1.69.4-.72,0-1.38-.18-1.97-.55-.59-.36-1.06-.88-1.41-1.53-.34-.65-.52-1.4-.52-2.23s.17-1.56.52-2.21c.35-.64.82-1.14,1.41-1.49.59-.35,1.25-.53,1.97-.53.64,0,1.21.13,1.7.38ZM381.77,672c-.24-.42-.54-.74-.92-.96-.38-.22-.79-.33-1.23-.33s-.85.11-1.23.32c-.38.21-.69.53-.92.94-.23.42-.35.91-.35,1.48s.12,1.07.35,1.5c.24.43.54.76.93.98.38.23.79.34,1.22.34s.85-.11,1.23-.33c.38-.22.69-.54.92-.97.23-.42.35-.92.35-1.49s-.12-1.06-.35-1.48Z" style="fill:#fff;"/><path d="M391.93,669.63c.49.27.88.67,1.17,1.2.29.53.43,1.17.43,1.92v4.88h-1.69v-4.62c0-.74-.19-1.31-.56-1.7s-.88-.59-1.51-.59-1.15.2-1.52.59-.56.96-.56,1.7v4.62h-1.71v-11.1h1.71v3.79c.29-.35.66-.62,1.1-.81.45-.19.93-.28,1.46-.28.63,0,1.19.13,1.69.4Z" style="fill:#fff;"/><path d="M402.68,673.16c.39.49.58,1.05.58,1.67,0,.53-.14,1.01-.41,1.43-.28.43-.67.76-1.19,1-.52.25-1.12.37-1.82.37h-4.17v-10.42h3.97c.71,0,1.32.12,1.83.36.51.24.9.56,1.16.97.26.41.39.86.39,1.36,0,.6-.16,1.1-.48,1.5-.32.4-.75.7-1.29.89.56.1,1.04.4,1.42.88ZM397.38,671.58h2.12c.56,0,1-.13,1.31-.38.31-.25.47-.62.47-1.1s-.16-.84-.47-1.1c-.32-.27-.75-.4-1.31-.4h-2.12v2.98ZM401.06,675.81c.33-.28.5-.67.5-1.17s-.17-.92-.52-1.22c-.35-.3-.82-.45-1.4-.45h-2.25v3.25h2.31c.58,0,1.04-.14,1.37-.42Z" style="fill:#fff;"/><path d="M405.14,667.95c-.21-.21-.31-.47-.31-.78s.1-.57.31-.78.47-.31.78-.31.55.1.76.31.32.47.32.78-.11.57-.32.78-.46.31-.76.31-.57-.1-.78-.31ZM406.76,669.36v8.27h-1.71v-8.27h1.71Z" style="fill:#fff;"/><path d="M412.16,673.5l3.81,4.12h-2.31l-3.06-3.56v3.56h-1.71v-11.1h1.71v6.45l3-3.62h2.37l-3.81,4.14Z" style="fill:#fff;"/><path d="M424.17,674.13h-6.31c.05.66.29,1.19.73,1.59.44.4.98.6,1.62.6.92,0,1.57-.38,1.95-1.15h1.84c-.25.76-.7,1.38-1.36,1.87-.65.48-1.47.73-2.44.73-.79,0-1.5-.18-2.12-.53s-1.12-.85-1.47-1.5c-.36-.65-.53-1.39-.53-2.24s.17-1.6.52-2.24c.35-.65.83-1.14,1.46-1.49s1.34-.52,2.15-.52,1.48.17,2.08.51c.61.34,1.08.82,1.43,1.43.34.62.51,1.32.51,2.12,0,.31-.02.59-.06.84ZM422.45,672.75c0-.63-.24-1.13-.67-1.52-.44-.38-.99-.57-1.63-.57-.59,0-1.1.19-1.52.56s-.67.88-.75,1.52h4.58Z" style="fill:#fff;"/><path d="M436.92,667.2v10.42h-1.71v-7.14l-3.18,7.14h-1.18l-3.2-7.14v7.14h-1.71v-10.42h1.84l3.66,8.17,3.65-8.17h1.83Z" style="fill:#fff;"/><path d="M440.66,677.23c-.63-.35-1.12-.85-1.48-1.5-.36-.65-.54-1.39-.54-2.24s.18-1.58.55-2.23c.37-.65.88-1.15,1.51-1.5.64-.35,1.36-.52,2.15-.52s1.5.17,2.14.52c.64.35,1.15.85,1.52,1.5.37.65.55,1.4.55,2.23s-.19,1.59-.57,2.24-.9,1.15-1.55,1.51c-.66.35-1.38.53-2.17.53s-1.49-.18-2.12-.53ZM444.01,675.96c.38-.21.7-.52.94-.94s.36-.93.36-1.53-.12-1.11-.34-1.52c-.23-.41-.54-.73-.92-.94-.38-.21-.79-.31-1.23-.31s-.85.1-1.22.31-.67.52-.89.94c-.22.42-.33.92-.33,1.52,0,.89.23,1.58.68,2.06.46.49,1.03.73,1.72.73.44,0,.85-.1,1.24-.31Z" style="fill:#fff;"/><path d="M454.6,669.63c.51.27.92.67,1.21,1.2.29.53.43,1.17.43,1.92v4.88h-1.69v-4.62c0-.74-.19-1.31-.56-1.7s-.88-.59-1.51-.59-1.15.2-1.52.59-.56.96-.56,1.7v4.62h-1.71v-8.27h1.71v.95c.28-.34.64-.6,1.07-.8.44-.19.9-.28,1.39-.28.65,0,1.23.13,1.75.4Z" style="fill:#fff;"/><path d="M460.16,670.76v4.58c0,.31.07.53.22.67.14.13.39.2.74.2h1.05v1.42h-1.35c-.77,0-1.36-.18-1.77-.54s-.62-.94-.62-1.75v-4.58h-.97v-1.4h.97v-2.05h1.73v2.05h2.01v1.4h-2.01Z" style="fill:#fff;"/><path d="M469.58,669.63c.49.27.88.67,1.17,1.2.29.53.43,1.17.43,1.92v4.88h-1.69v-4.62c0-.74-.19-1.31-.56-1.7s-.88-.59-1.51-.59-1.15.2-1.52.59-.56.96-.56,1.7v4.62h-1.71v-11.1h1.71v3.79c.29-.35.66-.62,1.1-.81.45-.19.93-.28,1.46-.28.63,0,1.19.13,1.69.4Z" style="fill:#fff;"/><path d="M473.28,677.42c-.21-.21-.32-.47-.32-.78s.11-.57.32-.78.47-.31.78-.31.55.1.76.31.31.47.31.78-.1.57-.31.78-.46.31-.76.31-.57-.1-.78-.31Z" style="fill:#fff;"/><path d="M476.68,671.25c.35-.65.82-1.14,1.43-1.49s1.31-.52,2.1-.52c1,0,1.83.24,2.48.71.65.48,1.1,1.15,1.33,2.03h-1.84c-.15-.41-.39-.73-.72-.96-.33-.23-.75-.34-1.24-.34-.7,0-1.26.25-1.67.74-.42.49-.62,1.19-.62,2.08s.21,1.59.62,2.08c.42.5.97.75,1.67.75.99,0,1.64-.44,1.96-1.3h1.84c-.24.84-.69,1.51-1.35,2-.66.5-1.48.74-2.46.74-.79,0-1.49-.18-2.1-.53s-1.09-.85-1.43-1.5c-.34-.65-.52-1.39-.52-2.24s.17-1.6.52-2.24Z" style="fill:#fff;"/><path d="M487.12,677.23c-.63-.35-1.12-.85-1.48-1.5-.36-.65-.54-1.39-.54-2.24s.18-1.58.55-2.23c.37-.65.88-1.15,1.51-1.5.64-.35,1.36-.52,2.15-.52s1.5.17,2.14.52c.64.35,1.15.85,1.52,1.5.37.65.55,1.4.55,2.23s-.19,1.59-.57,2.24-.9,1.15-1.55,1.51c-.66.35-1.38.53-2.17.53s-1.49-.18-2.12-.53ZM490.47,675.96c.38-.21.7-.52.94-.94s.36-.93.36-1.53-.12-1.11-.34-1.52c-.23-.41-.54-.73-.92-.94-.38-.21-.79-.31-1.23-.31s-.85.1-1.22.31-.67.52-.89.94c-.22.42-.33.92-.33,1.52,0,.89.23,1.58.68,2.06.46.49,1.03.73,1.72.73.44,0,.85-.1,1.24-.31Z" style="fill:#fff;"/><path d="M506.89,669.63c.51.27.92.67,1.21,1.2.29.53.44,1.17.44,1.92v4.88h-1.7v-4.62c0-.74-.18-1.31-.55-1.7s-.88-.59-1.52-.59-1.15.2-1.52.59-.56.96-.56,1.7v4.62h-1.69v-4.62c0-.74-.19-1.31-.56-1.7s-.88-.59-1.51-.59-1.15.2-1.52.59-.56.96-.56,1.7v4.62h-1.71v-8.27h1.71v.95c.28-.34.63-.6,1.07-.8.43-.19.89-.28,1.38-.28.66,0,1.25.14,1.77.42.52.28.92.69,1.2,1.21.25-.5.64-.9,1.17-1.19s1.1-.44,1.71-.44c.65,0,1.23.13,1.75.4Z" style="fill:#fff;"/></g></svg>