<?xml version="1.0" encoding="UTF-8"?><svg id="Layer_1" xmlns="http://www.w3.org/2000/svg" viewBox="0 0 412.22 508.1"><path d="M207.13,378.97c2.04.05,4.08-.02,6.11-.25,2.62-.3,5.21-.77,7.79-1.37,3.97-.92,7.95-1.77,11.88-2.88,3.3-.93,6.51-2.08,9.58-3.6,3.39-1.68,6.68-3.54,9.8-5.68,2.18-1.49,4.37-2.96,6.54-4.46,2.62-1.8,5.25-3.59,7.68-5.64,1.51-1.28,3.07-2.51,4.42-3.96,2.87-3.09,5.29-6.52,7.27-10.24,1.32-2.49,2.39-5.1,3.47-7.7,1.84-4.45,3.2-9.04,4.19-13.74.35-1.64.61-3.3.9-4.95.55-3.2.76-6.43.59-9.68-.15-2.82-.5-5.61-.89-8.41-.32-2.31-.74-4.61-1.25-6.89-.85-3.8-1.8-7.58-2.92-11.31-.95-3.16-1.99-6.29-3.34-9.3-1.06-2.35-2.11-4.71-3.46-6.91-2.3-3.74-4.9-7.26-7.75-10.59-1.8-2.09-3.68-4.11-5.75-5.94-2.48-2.19-5.09-4.2-7.83-6.04-3.94-2.64-8.1-4.9-12.38-6.96-.38-.18-.76-.35-1.16-.49-2.37-.86-4.74-1.69-7.18-2.32-1.33-.35-2.67-.7-3.97-1.15-2.95-1.02-5.97-1.79-8.97-2.62-1.15-.32-2.33-.57-3.52-.74-2.14-.31-4.3-.42-6.45-.51-.06,0-.12,0-.18,0-.06,0-.11.04-.17.04-.13.01-.29.28-.22.42.59,1.31,1.19,2.62,1.77,3.93,1.7,3.84,3.45,7.65,5.33,11.4.78,1.55,1.48,3.15,2.18,4.73.75,1.7,1.46,3.42,2.2,5.12,1.85,4.23,3.7,8.46,5.28,12.8,1.91,5.24,3.94,10.43,5.96,15.62.22.56.41,1.13.62,1.69,1.23,3.39,2.2,6.85,2.98,10.36.34,1.52.67,3.04.9,4.58.27,1.78.43,3.57.62,5.36.27,2.55-.03,5.02-.93,7.43-.44,1.18-.89,2.36-1.27,3.56-.71,2.25-1.76,4.33-2.9,6.37-.44.79-.95,1.53-1.56,2.19-1.42,1.55-2.93,3.01-4.67,4.2-1.53,1.05-3.11,2.04-4.73,2.96-1.21.68-2.47,1.21-3.81,1.58-1.74.48-3.52.75-5.32.86-1.67.1-3.36.07-5.04.03-1.56-.03-3.1-.31-4.61-.73-2.33-.63-4.51-1.61-6.62-2.76-1.43-.78-2.8-1.64-4.03-2.69-1.92-1.63-3.68-3.44-5.28-5.39-4-4.89-7.47-10.14-10.6-15.61-2.6-4.53-5-9.16-7.17-13.9-1.92-4.2-3.84-8.4-5.95-12.51-2.33-4.53-4.7-9.05-7.05-13.57-.91-1.76-1.83-3.51-2.72-5.28-1.08-2.14-2.13-4.3-3.2-6.44-.21-.43-.47-.83-.71-1.25-.08-.13-.34-.14-.48-.02-.27.24-.55.47-.78.74-1.48,1.73-3.04,3.39-4.45,5.19-2.08,2.65-3.98,5.41-5.58,8.37-2.05,3.8-4,7.65-5.59,11.67-1.59,4.03-2.75,8.17-3.58,12.42-.36,1.82-.66,3.65-.96,5.49-.46,2.85-.69,5.72-.66,8.6.06,4.82.73,9.56,1.85,14.24.95,3.97,2.21,7.85,3.58,11.69,1.29,3.61,2.77,7.15,4.36,10.65,2.15,4.74,4.98,9.02,8.49,12.85,1.95,2.12,4.02,4.11,6.27,5.92,3.18,2.56,6.38,5.08,9.71,7.44,2.98,2.12,6.13,3.99,9.3,5.81,2.67,1.53,5.48,2.73,8.42,3.59,3.11.91,6.26,1.65,9.45,2.21,1.89.33,3.78.65,5.66,1.01,2.12.41,4.23.84,6.4.96,2.04.11,4.07.26,6.1.39Z" style="fill:#f4b8ff;"/><path d="M207.52,383.47c-2.31.04-4.52-.18-6.74-.32-1.5-.1-2.98-.35-4.45-.58-1.78-.27-3.54-.66-5.3-.98-1.53-.28-3.08-.5-4.61-.82-1.94-.4-3.87-.83-5.78-1.32-3.44-.88-6.76-2.06-9.92-3.7-1.92-.99-3.77-2.1-5.63-3.2-2.94-1.75-5.78-3.65-8.51-5.72-2.01-1.52-4.02-3.05-5.98-4.62-2.1-1.69-4.22-3.37-6.09-5.33-1.08-1.13-2.1-2.3-3.15-3.46-2.71-3-4.94-6.33-6.8-9.92-1.11-2.13-2.1-4.31-3.03-6.52-2.47-5.86-4.6-11.85-6.22-18-.98-3.72-1.74-7.47-1.98-11.32-.02-.36-.06-.72-.11-1.07-.35-2.81-.25-5.63-.15-8.45.31-1.83.34-3.7.64-5.54.51-3.14,1.05-6.27,1.82-9.35.92-3.67,2.09-7.26,3.56-10.74,1.08-2.54,2.33-5,3.55-7.47,2.94-6.03,6.72-11.48,11.27-16.4.98-1.06,1.99-2.08,2.99-3.11.28-.29.35-.62.19-.99-.65-1.48-1.33-2.95-1.95-4.45-1.25-3.05-2.65-6.04-4.07-9.02-2.83-5.96-5.49-11.99-7.9-18.14-1.92-4.92-4-9.76-6.3-14.52-1.77-3.67-3.49-7.37-5.01-11.15-1.12-2.78-2.31-5.53-3.72-8.19-.25-.48-.47-.98-.79-1.41-.91-1.22-1.48-2.6-2.11-3.96-1.75-3.81-3.51-7.63-5.31-11.42-1.57-3.3-3.2-6.58-4.8-9.87-.11-.22-.2-.44-.3-.65-.22-.46-.58-.75-1.09-.85-.82-.17-1.64-.34-2.46-.52-2.53-.55-5.09-.83-7.68-.84-.96,0-1.92.03-2.86.23-1.58.33-3.17.67-4.75,1.01-1.23.27-2.42.66-3.6,1.11-2.3.87-4.52,1.93-6.74,2.98-1.03.49-2.04,1.02-3.01,1.61-1.43.87-2.83,1.81-4.23,2.73-1.01.66-1.92,1.44-2.77,2.28-4.03,4-6.95,8.7-8.83,14.04-.42,1.18-.73,2.41-1.02,3.63-.74,3.1-1.27,6.24-1.06,9.44.12,1.85.32,3.7.54,5.55.16,1.37.4,2.73.6,4.1.04.3.09.59.1.89.04,1.35-.69,2.42-1.94,2.94-.63.26-1.28.27-1.94.31-2.89.18-5.7.73-8.34,1.98-.97.46-1.97.89-2.94,1.36-3.39,1.62-6.36,3.84-9.14,6.33-2.21,1.97-3.98,4.32-5.43,6.9-.68,1.2-1.28,2.44-1.9,3.67-1.66,3.29-2.84,6.74-3.34,10.4-.25,1.84-.57,3.68-.49,5.55.04.96.19,1.91.24,2.87.11,1.92.45,3.81.86,5.68,1.04,4.81,2.92,9.25,5.81,13.25.6.83,1.19,1.66,1.75,2.51.29.45.56.93.76,1.42.46,1.1.29,2.13-.53,3-.41.43-.9.79-1.39,1.12-1.04.71-2.11,1.38-3.17,2.06-3.31,2.13-6.1,4.84-8.63,7.84-1.28,1.51-2.48,3.09-3.77,4.59-1.53,1.79-2.78,3.76-3.92,5.8-.56,1-.98,2.06-1.32,3.15-1.16,3.81-1.74,7.71-1.85,11.69-.04,1.44.11,2.87.23,4.31.2,2.35.75,4.62,1.63,6.79,1.09,2.67,2.4,5.24,4.12,7.57,1.28,1.74,2.57,3.47,3.91,5.16,1.12,1.42,2.43,2.64,3.91,3.7,1.52,1.08,3.05,2.12,4.67,3.05.73.42,1.45.84,2.16,1.3.4.26.78.56,1.13.89.56.53.75,1.22.66,1.97-.05.48-.21.93-.47,1.35-.32.51-.64,1.01-.97,1.51-2.26,3.45-3.78,7.21-4.78,11.2-.37,1.45-.74,2.9-1.06,4.37-.38,1.76-.73,3.53-.87,5.32-.13,1.73-.23,3.47-.33,5.21-.1,1.75.05,3.48.41,5.19.31,1.47.74,2.9,1.25,4.32,1.76,4.91,4.49,9.27,7.73,13.32,1.91,2.4,4.1,4.54,6.38,6.58.94.84,1.94,1.6,2.98,2.32,2.88,2,6,3.5,9.34,4.57,1.2.38,2.4.77,3.59,1.18.45.16.9.35,1.31.58,1.16.66,1.74,1.9,1.49,3.2-.12.65-.27,1.29-.43,1.93-.33,1.29-.5,2.59-.5,3.92,0,1.26,0,2.52.01,3.78.01,2.95.36,5.87.78,8.78.2,1.36.51,2.7.95,4.02,1.51,4.52,4.04,8.43,7.15,11.97,3.54,4.04,7.61,7.48,12.24,10.24,1.86,1.11,3.77,2.09,5.81,2.82,3.49,1.25,7.06,1.87,10.77,1.66,1.26-.07,2.51-.21,3.76-.37,1.91-.25,3.77-.69,5.59-1.31.63-.22,1.25-.42,1.8-.8.63-.44,1.32-.52,2.06-.49.72.03,1.24.38,1.64.95.28.41.42.87.42,1.36-.02,1.11.3,2.14.69,3.15,1.06,2.74,2.17,5.46,3.61,8.03.35.63.7,1.26,1,1.91,1.22,2.64,2.95,4.94,4.74,7.19.75.94,1.58,1.81,2.52,2.56,2.77,2.23,5.7,4.18,8.99,5.58,1.44.61,2.9,1.14,4.39,1.61,2.91.93,5.85,1.76,8.89,2.18,4.75.66,9.45.41,14.1-.79,2.68-.69,5.25-1.67,7.75-2.86,1.41-.67,2.79-1.39,4.19-2.08.54-.27,1.07-.56,1.63-.76,1.35-.49,2.6-.32,3.63.76.21.22.39.45.58.69.3.38.6.75.87,1.15,1.43,2.08,3.11,3.96,4.86,5.78,1.71,1.78,3.54,3.43,5.57,4.82,2.73,1.86,5.62,3.45,8.61,4.86,1.36.64,2.79,1.12,4.26,1.42,2.24.47,4.52.67,6.79.69,4.58.04,9.1-.47,13.53-1.7,1.21-.34,2.39-.76,3.55-1.28,3.09-1.39,5.86-3.26,8.5-5.36,3.17-2.53,5.9-5.44,7.89-9.02.44-.79.92-1.55,1.39-2.32.31-.51.68-.99,1.15-1.37.8-.65,2-.71,2.86-.14.51.33.94.74,1.3,1.23.6.84,1.37,1.51,2.19,2.12.48.36.95.74,1.42,1.1.71.55,1.47,1.03,2.28,1.44,1.77.89,3.58,1.68,5.44,2.35,2.43.88,4.94,1.43,7.44,2.03,2.36.57,4.74.74,7.14.69,3.86-.07,7.63-.71,11.33-1.8,4.73-1.4,8.97-3.66,12.72-6.87,2.19-1.88,4.25-3.89,6.21-6,1.59-1.72,3.06-3.54,4.42-5.45.8-1.13,1.47-2.33,1.96-3.63.71-1.91,1.35-3.85,1.72-5.86.29-1.59.6-3.18.87-4.78.09-.54.21-1.06.44-1.55.13-.26.31-.52.53-.71.75-.67,1.63-.76,2.51-.31.78.4,1.56.55,2.42.53,1.32-.03,2.64,0,3.96,0,.54,0,1.08-.05,1.62-.11,1.97-.22,3.93-.45,5.89-.68.24-.03.47-.07.71-.11,1.06-.19,2.12-.38,3.18-.59,2.18-.44,4.33-.98,6.38-1.85,4.58-1.94,8.67-4.61,12.13-8.21,1.46-1.51,2.88-3.05,4.21-4.68,3.05-3.71,5.26-7.86,6.54-12.5.43-1.57.66-3.17.93-4.76.17-1,.32-2.02.36-3.03.12-2.94.1-5.88-.16-8.81-.14-1.49-.2-3-.17-4.49.02-1.32.78-2.23,1.99-2.74.61-.25,1.26-.37,1.92-.45,1.01-.11,2.03-.22,3.04-.37,3.42-.51,6.62-1.66,9.61-3.38,3.19-1.84,5.97-4.22,8.59-6.79.98-.97,1.88-2.02,2.71-3.13,2.79-3.73,4.94-7.79,6.4-12.21,1.04-3.15,1.76-6.35,1.83-9.68.06-3.07-.2-6.11-.98-9.09-.41-1.57-.93-3.1-1.48-4.63-1.19-3.29-2.73-6.39-4.83-9.21-.72-.96-1.34-2.01-2.58-2.39-.68-.47-1.04-1.16-1.22-1.93-.07-.32.07-.71.16-1.05.29-1.14.96-1.94,2.18-2.11.68-.1,1.24-.41,1.79-.78,2.52-1.7,4.63-3.82,6.41-6.25,1.91-2.61,3.81-5.25,5.49-8.01,1.97-3.24,3.67-6.59,4.54-10.32.64-2.76,1.12-5.53,1.02-8.37-.09-2.4-.3-4.78-.73-7.15-.51-2.85-1.41-5.57-2.68-8.17-2.51-5.17-5.75-9.83-9.78-13.93-1.43-1.45-2.89-2.88-4.33-4.33-.38-.38-.75-.78-1.09-1.19-.53-.63-.72-1.38-.6-2.19.05-.35.14-.71.29-1.03.25-.54.55-1.06.85-1.58.78-1.35,1.59-2.68,2.35-4.04,1.41-2.52,2.59-5.14,3.53-7.87.69-2,1.04-4.07,1.18-6.17.15-2.28.07-4.56,0-6.84-.01-.48-.06-.96-.13-1.43-.2-1.24-.38-2.49-.65-3.72-.58-2.7-1.41-5.32-2.69-7.8-2.04-3.97-4.48-7.66-7.37-11.06-2.1-2.48-4.44-4.71-7.08-6.62-2.6-1.88-5.39-3.36-8.51-4.18-1.45-.38-2.91-.73-4.36-1.08-.52-.13-1.05-.24-1.58-.33-.94-.16-1.89-.3-2.83-.47-.29-.05-.59-.15-.85-.29-.44-.22-.76-.58-.93-1.05-.15-.4-.24-.82-.14-1.24.33-1.35.31-2.74.44-4.11.2-2.21.29-4.43.34-6.65.05-2.05-.17-4.07-.53-6.08-.47-2.61-1.26-5.12-2.47-7.49-.71-1.39-1.44-2.77-2.17-4.15-.7-1.33-1.49-2.6-2.41-3.79-.92-1.19-1.87-2.35-2.79-3.53-2.01-2.59-4.47-4.68-7.18-6.48-2.31-1.54-4.81-2.69-7.38-3.7-2.9-1.14-5.88-2.05-8.96-2.63-2.19-.42-4.38-.72-6.61-.72-1.62,0-3.24.1-4.85.26-.95.1-1.91.19-2.87.26-.42.03-.84.04-1.26.03-1.03-.01-1.84-.47-2.48-1.26-.38-.47-.67-1-.87-1.56-.28-.79-.57-1.58-.78-2.39-1.03-3.91-2.6-7.6-4.38-11.21-.8-1.61-1.71-3.17-2.83-4.59-1.83-2.32-4.04-4.27-6.28-6.17-.23-.19-.48-.36-.73-.53-1.64-1.11-3.34-2.12-5.14-2.95-3.29-1.52-6.73-2.51-10.29-3.14-1.54-.28-3.1-.34-4.65-.53-1.19-.15-2.39-.19-3.59-.2-1.62,0-3.23.16-4.84.36-1.97.24-3.89.69-5.77,1.35-3.12,1.11-6.09,2.53-8.9,4.27-.51.31-1.03.61-1.55.91-.53.31-1.11.47-1.72.39-.48-.06-.95-.03-1.43.08-1,.23-1.76-.19-2.36-.95-.22-.28-.4-.6-.53-.93-.37-.97-.93-1.81-1.56-2.62-.59-.76-1.18-1.52-1.83-2.22-1.09-1.19-2.18-2.4-3.36-3.51-2.11-1.97-4.48-3.61-7.02-5-3.59-1.96-7.31-3.6-11.31-4.56-1.46-.35-2.94-.56-4.43-.74-3.28-.39-6.57-.62-9.87-.22-2.15.26-4.26.69-6.28,1.49-3.31,1.31-6.41,3.01-9.25,5.15-4.01,3.03-7.41,6.64-9.99,10.97-.25.41-.49.83-.74,1.23-.16.25-.31.52-.5.75-.67.83-1.54,1.17-2.56.87-1.32-.39-2.65-.76-3.77-1.63-.52-.41-1.09-.75-1.64-1.1-1.47-.93-2.92-1.89-4.42-2.77-.88-.51-1.82-.92-2.75-1.32-.72-.3-1.47-.51-2.21-.75-.09-.03-.25,0-.32.06-.06.06-.1.22-.06.31.08.22.2.43.31.65,2.4,4.7,4.57,9.51,6.68,14.35,2.45,5.61,5.18,11.08,8.2,16.41,1.42,2.5,2.88,4.99,4.31,7.49,3.36,5.89,6.39,11.95,9.33,18.06,3.52,7.29,7,14.6,10.66,21.82,1.17,2.3,2.21,4.66,3.14,7.06,2.19,5.65,4.61,11.2,7.22,16.67.15.32.32.64.53.93.09.13.28.23.44.26.23.05.48.04.72.04,3.31.03,6.58.4,9.87.75.24.03.47.08.7.14,3.61.88,7.2,1.83,10.73,3.02.85.29,1.71.58,2.58.79,2.74.66,5.42,1.54,8.08,2.45,1.14.39,2.25.82,3.33,1.35,3.02,1.48,5.99,3.02,8.89,4.74,4.35,2.58,8.42,5.53,12.19,8.89,2.42,2.15,4.64,4.52,6.73,7,1.7,2.02,3.28,4.13,4.82,6.28,1.43,2,2.8,4.05,3.94,6.23,1.94,3.73,3.65,7.56,4.98,11.55,1.63,4.9,2.96,9.88,4.07,14.91.63,2.87,1.17,5.76,1.57,8.67.28,2.08.49,4.17.67,6.26.22,2.57.28,5.16.04,7.73-.31,3.29-.82,6.55-1.51,9.77-.76,3.58-1.75,7.1-2.96,10.56-1.02,2.89-2.22,5.7-3.46,8.49-3.27,7.36-7.89,13.69-14.16,18.79-2.1,1.7-4.25,3.33-6.48,4.86-2.47,1.7-4.95,3.39-7.42,5.09-3.46,2.38-7.07,4.52-10.82,6.42-2.41,1.22-4.91,2.22-7.47,3.1-2.38.82-4.81,1.48-7.26,2.07-3.5.84-7,1.65-10.52,2.42-1.58.34-3.18.58-4.78.8-2.5.35-5.02.47-7.45.36Z" style="fill:#ff6a00;"/><path d="M154.12,6.02s0-.07,0-.1c-2.28-.02-4.56-.07-6.84-.06-4.26,0-8.52.04-12.78.08-1.5.01-3,.11-4.5.12-5.22.03-10.44.05-15.66.06-2.64,0-5.28.02-7.92.13-2.76.12-5.5.44-8.24.72-.95.1-1.91.17-2.86.35-2.18.41-4.34.9-6.46,1.56-2.32.72-4.43,1.82-6.34,3.32-.75.59-1.52,1.17-2.28,1.75-.53.4-1.04.82-1.39,1.39-.39.63-.9,1.12-1.52,1.51-.61.39-1.13.89-1.61,1.43-1.4,1.57-2.7,3.21-3.91,4.93-2.4,3.42-4.14,7.15-5.41,11.12-.86,2.7-1.43,5.45-1.36,8.3.03,1.2-.01,2.4.06,3.6.13,2.27.26,4.55.61,6.81.32,2.08.76,4.12,1.26,6.16.8,3.27,1.77,6.48,3.16,9.55.69,1.53,1.38,3.07,2.19,4.54.58,1.05,1.19,2.08,1.71,3.16,2.21,4.53,4.46,9.03,6.67,13.56,1.82,3.72,3.6,7.45,5.39,11.18.36.76.69,1.53,1,2.31,1.91,4.79,4.08,9.47,6.57,13.99.58,1.05,1.21,2.07,1.62,3.21.72,1.98,1.66,3.85,2.64,5.71,3.43,6.46,6.73,12.99,9.48,19.78,2.09,5.17,4.65,10.13,7.36,15.01.52.94,1,1.91,1.44,2.89,1.05,2.29,2.04,4.61,3.11,6.88,1.07,2.28,2.25,4.51,3.32,6.78,1.12,2.39,2.25,4.78,3.25,7.21,1.37,3.33,2.78,6.64,4.35,9.87,2.41,4.96,4.68,9.99,6.71,15.13,1.1,2.79,2.21,5.57,3.38,8.33,1.76,4.14,3.64,8.22,5.58,12.28.98,2.06,1.88,4.15,2.8,6.23.8,1.81,1.53,3.65,2.4,5.43,2.33,4.8,4.67,9.6,7.09,14.36,2.36,4.65,4.85,9.24,7.25,13.87,2.07,3.99,4.09,8.01,5.94,12.11,2.14,4.76,4.39,9.47,6.86,14.07,2.95,5.5,6.22,10.81,9.97,15.82,1.58,2.12,3.25,4.16,5.12,6.03,3.5,3.5,7.72,5.62,12.53,6.66,1.6.34,3.22.29,4.84.29,2.06,0,4.05-.38,6.04-.87,1-.25,1.93-.65,2.81-1.17,1.08-.64,2.16-1.29,3.22-1.97,1.52-.97,2.94-2.08,4.17-3.4.57-.61,1.14-1.25,1.59-1.95.8-1.27,1.52-2.59,2.04-4,.7-1.91,1.37-3.84,2.07-5.75.44-1.2.65-2.43.62-3.71-.01-.66-.04-1.32-.09-1.98-.23-3.06-.73-6.07-1.41-9.06-.94-4.16-2.18-8.22-3.73-12.2-1.04-2.68-2.1-5.36-3.13-8.04-2.08-5.37-3.94-10.82-6.31-16.07-1.48-3.28-2.84-6.61-4.27-9.91-.24-.55-.51-1.08-.78-1.62-1.34-2.75-2.71-5.48-3.96-8.27-1.72-3.83-3.51-7.62-5.27-11.44-1.43-3.11-2.83-6.22-4.26-9.32-1.46-3.16-2.75-6.39-4.04-9.62-1.2-3.01-2.43-6.01-3.91-8.89-2.86-5.54-5.5-11.19-8.26-16.79-2.15-4.36-4.18-8.77-6.44-13.07-1.36-2.6-2.71-5.22-4.13-7.79-1.51-2.73-3.11-5.41-4.66-8.11-3.38-5.88-6.39-11.95-9.09-18.17-2.98-6.88-6.25-13.62-9.84-20.21-1.32-2.43-2.53-4.9-3.62-7.44-2.06-4.79-4.14-9.58-6.21-14.37-.81-1.87-1.66-3.73-2.42-5.62-1.06-2.61-2.05-5.25-3.08-7.87-.99-2.51-2.05-4.99-3.2-7.43-.36-.76-.68-1.53-.96-2.32-.14-.39-.2-.82-.19-1.23.04-1.52.91-2.61,2.53-2.72.24-.02.48-.04.72-.04,1.2-.01,2.4-.05,3.6-.03,2.88.04,5.76.12,8.64.15,2.88.02,5.76.08,8.63.24.72.04,1.44.08,2.16.08,4.62.01,9.23.36,13.85.47,4.14.1,8.28.2,12.42.23,2.76.02,5.52-.08,8.28-.14,5.16-.11,10.32-.1,15.47-.5,2.39-.19,4.78-.37,7.18-.55.06,0,.12-.01.18-.02,1.79-.2,3.57-.41,5.36-.59,2.39-.24,4.75-.64,7.09-1.21,2.41-.59,4.67-1.54,6.64-3.09,1.04-.82,2.06-1.65,3.03-2.54.89-.81,1.66-1.74,2.28-2.77,2.15-3.56,3.89-7.29,4.86-11.37.45-1.88.73-3.76.72-5.69,0-1.44-.01-2.88.02-4.32.03-1.03-.13-2.04-.41-3.02-.57-1.97-1.37-3.84-2.56-5.52-1.1-1.58-2.37-3.02-3.64-4.46-.8-.91-1.71-1.69-2.76-2.29-1.86-1.09-3.72-2.21-5.64-3.18-2.46-1.25-5-2.33-7.68-3.04-1.51-.4-3.03-.74-4.54-1.11-2.75-.67-5.54-1.02-8.35-1.17-.3-.02-.6-.01-.9-.06-1.73-.29-3.47-.25-5.21-.29-1.86-.04-3.72-.04-5.58-.12-3.48-.15-6.95-.35-10.43-.5-1.2-.05-2.4-.07-3.6-.08-3.42-.04-6.84,0-10.26-.11-3.66-.13-7.32-.16-10.98-.22-2.34-.04-4.68-.12-7.02-.18Z" style="fill:#00bf6c;"/><path d="M411.23,294.46c-.6-2.87-1.6-5.78-2.98-8.65-2.72-5.67-6.46-10.95-11.13-15.69-.62-.63-1.25-1.26-1.88-1.88l-1.05-1.05c-.25-.25-.49-.5-.74-.7l.18-.32c.47-.83.95-1.65,1.44-2.47.99-1.64,1.87-3.33,2.63-5.01.73-1.61,1.55-3.49,2.15-5.44.99-3.22,1.46-6.78,1.44-10.89-.02-3.45-.35-6.59-1-9.62-.75-3.44-1.68-6.2-2.93-8.67-.68-1.33-1.32-2.53-1.98-3.68-1.44-2.52-3.23-5.08-5.63-8.05-2.6-3.21-5.52-6.01-8.69-8.33-3-2.19-5.94-3.7-8.97-4.62-2.41-.73-4.42-1.25-6.34-1.62l-.36-.07c-.39-.07-.74-.13-1.05-.27-.03-.23,0-.5.05-.8l.03-.18c.2-1.41.3-2.92.31-4.76,0-.9.02-1.79.05-2.69.05-2.09-.08-4.19-.41-6.23-.56-3.51-1.49-6.55-2.84-9.29-.85-1.73-1.79-3.45-2.69-5.11l-.26-.48c-.85-1.56-1.75-2.92-2.77-4.16-.51-.62-1-1.25-1.49-1.88-.28-.36-.56-.72-.85-1.08-3.81-4.8-8.78-8.56-14.79-11.16-2.45-1.06-5.03-1.99-7.87-2.82-3-.88-6.2-1.44-9.52-1.67-2.54-.17-4.82-.12-6.98.18-.67.09-1.35.11-2.07.14-.24,0-.49.02-.77.04,0,0-.02-.02-.03-.07l-.03-.1c-.2-.57-.4-1.16-.55-1.74-.94-3.49-2.39-7.14-4.58-11.48-.96-1.9-2.3-4.36-4.21-6.49-1.6-1.79-3.39-3.54-5.34-5.23-.49-.42-1.11-.95-1.75-1.4-3.32-2.27-6.62-3.96-10.08-5.15-2.55-.88-5.29-1.55-8.14-2.01-3.43-.55-6.92-.77-10.36-.67-4.33.13-8.21.89-11.84,2.33-2.96,1.18-5.32,2.3-7.4,3.54-.15.09-.3.18-.46.26-.16.09-.32.18-.48.28-.18.11-.37.15-.59.13l-.78-.06s-.02-.03-.03-.04c-.14-.16-.28-.32-.4-.49-1.47-2.19-3.22-4.08-5.19-6.14-1.96-2.05-4.28-3.91-7.28-5.83-2.83-1.81-6.04-3.39-9.8-4.83-2.17-.83-4.48-1.49-6.87-1.95-1.07-.21-2.15-.31-3.19-.41-.84-.08-1.7-.17-2.54-.3h-.16c-3.19-.14-6.49-.27-9.77.28-3.23.54-5.98,1.38-8.43,2.56-3.66,1.78-6.49,3.48-8.9,5.36-1.84,1.44-3.49,3.04-4.86,4.42-2,2.02-3.77,4.24-5.25,6.59-.15.23-.29.46-.45.69-.66-.42-1.34-.86-1.98-1.31-1.57-1.1-3.29-2.16-5.28-3.24-1.55-.85-3-1.47-4.42-1.91l-1.14-.35c-1.32-.41-2.69-.84-4.05-1.21-.5-.14-.67-.34-.77-.55l-.54-1.04c-.58-1.12-1.18-2.27-1.7-3.43-1.04-2.34-2.08-4.73-3.07-7.05-.43-1-.86-2.01-1.3-3.01l-1.07-2.45c-.72-1.66-1.44-3.31-2.15-4.97l-.47-1.1c-.78-1.8-1.58-3.66-2.32-5.51-.53-1.31-1.03-2.62-1.53-3.94-1.04-2.72-2.11-5.53-3.41-8.22.05,0,.09,0,.13,0,2.51.18,5.05.2,7.5.22h.1c.78,0,1.56.01,2.34.01,3.53.02,7.17.03,10.74.3,1.08.08,2.18.09,3.24.11.61,0,1.22.01,1.83.03,1.2.04,2.4.09,3.6.13,1.74.07,3.48.13,5.21.18,2.27.06,4.54.1,6.81.13l2.38.04c1.31.03,2.66.05,3.99.01,4.2-.13,8.67-.19,13.66-.21,2.88,0,5.79-.2,8.61-.39l.97-.07c.56-.04,1.12-.09,1.68-.13.91-.08,1.86-.16,2.78-.19.23,0,.45-.03.68-.06h.1c.6-.08,1.21-.15,1.81-.22,1.3-.15,2.59-.3,3.89-.42,2.27-.21,4.57-.55,7.02-1.03,2.24-.44,4.15-1.02,5.83-1.76,2.99-1.33,5.73-3.3,8.64-6.22,1.22-1.22,2.15-2.44,2.85-3.73l.51-.93c.63-1.15,1.29-2.33,1.88-3.53,1.68-3.4,2.59-6.98,3.2-9.72.09-.41.13-.81.16-1.16.23-2.49.33-5.22.3-8.34-.01-1.69-.21-3.15-.61-4.48-.82-2.7-1.9-5-3.3-7.02-1.43-2.06-3.09-3.93-4.52-5.49-.79-.86-1.67-1.61-2.61-2.21-3.92-2.54-7.29-4.33-10.59-5.64-.31-.12-.61-.24-.91-.37-1.09-.44-2.21-.9-3.4-1.2l-.26-.07c-1.98-.5-4.02-1.01-6.05-1.46-1.67-.37-2.95-.59-4.16-.72l-.92-.1c-1.77-.19-3.6-.39-5.43-.4-.45,0-.9-.04-1.37-.08-.24-.02-.49-.04-.73-.06-.21-.01-.41-.03-.62-.05-.51-.04-1.04-.08-1.58-.08-2.83,0-5.7-.13-8.48-.25-2.34-.11-4.77-.22-7.16-.25-.51,0-1.01-.03-1.52-.06-.62-.03-1.27-.06-1.91-.07-3.58.03-7.35-.03-11.85-.16-3.42-.1-6.84-.18-10.26-.26-2.28-.05-4.56-.1-6.83-.16l-.8-.02c-1.36-.03-2.65-.05-3.94-.27-.32-.05-.63-.06-.92-.06l-14.66-.22c-1.98-.03-3.96-.06-5.93-.11-.54,0-1.26.04-1.86.59-.07.07-.2.15-.49.16h-4.59c-3.15.01-6.3.02-9.45.03h-.37c-.9,0-1.83,0-2.76.09-1.07.1-2.17.16-3.23.21-1.42.07-2.88.15-4.33.33-.76.09-1.52.18-2.27.26-1.31.14-2.66.29-3.99.5-2.67.42-5.33,1.09-8.14,2.07-1.98.69-3.67,1.54-5.16,2.59-3.09,2.2-5.61,4.14-7.85,6.53-2,2.12-3.57,3.98-4.93,5.85-2.74,3.75-4.92,7.93-6.47,12.44-1.41,4.08-2.05,7.91-1.98,11.73.03,1.59.12,3.2.2,4.75l.07,1.38c.09,1.8.37,3.57.64,5.29l.05.31c.38,2.43.96,4.76,1.53,6.92.89,3.38,1.9,6.3,3.09,8.95.55,1.23,1.16,2.46,1.74,3.64.44.89.88,1.79,1.31,2.69,1.28,2.73,2.68,5.36,3.89,7.56.66,1.21,1.27,2.44,1.78,3.49.84,1.72,1.67,3.44,2.51,5.17,1.1,2.27,2.2,4.54,3.31,6.81,1.28,2.62,2.46,5.39,3.51,7.84.28.65.55,1.31.83,1.97.71,1.7,1.44,3.46,2.26,5.16,2.59,5.41,4.66,9.53,6.71,13.37,1.84,3.45,3.99,7.55,6.02,11.83.54,1.15,1.06,2.34,1.56,3.48l.41.94c-2.53-.53-5.04-.62-7.41-.68-1.09-.02-2.24.06-3.54.26-1.33.2-2.65.5-3.92.78l-.71.16c-2.27.5-4.28,1.13-6.13,1.92l-.66.28c-.89.38-1.78.76-2.66,1.15-2.33,1.04-4.74,2.12-6.97,3.6-.99.66-2,1.31-3.01,1.95-2.43,1.54-4.66,3.59-7.03,6.47-2.16,2.62-4.05,5.66-5.79,9.29-1.04,2.17-1.78,4.2-2.26,6.23-.09.4-.2.79-.3,1.19-.12.48-.24.95-.35,1.43-.89,3.89-1.16,7.82-.79,11.68.05.5.09,1,.13,1.5.12,1.4.24,2.86.51,4.29.03.15.04.31.06.46l.02.19s0,.08,0,.12c-.27.05-.54.09-.81.13-2.41.32-4.35.78-6.11,1.45-.65.25-1.3.53-1.92.81-.36.16-.72.32-1.08.47-4.22,1.78-8.22,4.42-12.61,8.33-.42.38-.78.73-1.09,1.07-1.26,1.42-2.59,2.97-3.76,4.72-1.29,1.93-2.33,4.01-3.34,6.03l-.18.36c-1.65,3.31-2.83,6.8-3.5,10.39-.52,2.75-.74,5.2-.7,7.49.07,3.75.6,7.58,1.56,11.37,1.29,5.08,3.26,9.43,6.03,13.28.35.49.7.99,1.04,1.49l.07.1c-.05.04-.11.07-.17.11l-.82.56c-.52.35-1.03.7-1.55,1.05-2,1.33-3.73,2.72-5.29,4.25-1.3,1.27-2.81,2.81-4.2,4.57-.77.98-1.57,1.94-2.37,2.9-.62.74-1.24,1.49-1.85,2.24-2.88,3.57-4.78,7.1-5.82,10.8-.81,2.88-1.35,5.77-1.61,8.61-.03.36-.06.72-.09,1.08-.03.36-.06.71-.09,1.07-.12,1.31-.12,2.68,0,4.09.02.23.04.46.07.69.04.36.07.72.1,1.08.11,1.8.45,3.71,1.04,5.81.9,3.21,2.33,6.41,4.27,9.52,1.71,2.75,3.77,5.48,6.66,8.86.62.73,1.34,1.36,1.89,1.83,1.78,1.52,3.83,2.97,6.27,4.43.37.22.73.44,1.09.67-.2.36-.4.72-.62,1.07-1.8,2.96-3.19,6.4-4.39,10.82-.37,1.38-.65,2.5-.86,3.54-.1.47-.21.95-.32,1.42-.32,1.34-.64,2.73-.68,4.19,0,.06-.02.12-.03.18-.02.1-.04.19-.05.29l-.06.5c-.07.61-.14,1.22-.2,1.83-.06.69-.11,1.39-.16,2.08l-.04.62c-.12,1.71-.21,3.55.03,5.36.42,3.22,1.3,6.43,2.6,9.53,2.82,6.69,7.02,12.75,12.49,18.02.18.17.36.34.54.51.21.2.42.4.63.6,1.38,1.35,2.92,2.6,4.71,3.82,3.34,2.28,6.24,3.78,9.11,4.71,1.05.34,2.09.69,3.13,1.05l.37.13c.18.06.34.11.48.18,0,.01,0,.02.01.04-.49,1.78-.69,3.71-.66,6.25v.13c.03,2.03.05,4.14.25,6.22.19,1.93.43,4.2.78,6.47.08.54.18,1.02.29,1.47.77,3.18,2.02,6.27,3.72,9.17,1.63,2.78,3.25,5.07,4.97,7.01,3.86,4.35,8.23,8.07,12.99,11.07,3.98,2.5,7.82,4.14,11.76,5,2.32.51,4.77.76,7.48.77.41-.02.85-.05,1.25-.09.31-.04.62-.07.92-.08,2.8-.08,5.63-.58,8.67-1.5.22-.07.43-.12.65-.17.07.15.13.29.19.44,1.14,2.96,2.2,5.61,3.57,8.15.83,1.54,1.49,2.8,2.08,3.96.86,1.69,1.9,3.32,3.18,4.96l1.43,1.85c1.02,1.31,2.16,2.47,3.4,3.46,2.38,1.89,4.65,3.43,6.95,4.7,1.51.84,2.78,1.44,3.99,1.9,4.81,1.83,8.79,2.99,12.54,3.66l.35.06c1.49.27,3.04.54,4.63.49.65-.02,1.33-.01,1.98,0,.41,0,.83.02,1.24.01,1.9,0,3.48-.12,4.96-.36,2.61-.43,4.88-.97,6.93-1.67,3.26-1.11,6.17-2.34,8.87-3.78.41-.22.84-.42,1.26-.63l.19-.09c.3.37.6.74.88,1.12,1.73,2.33,3.69,4.53,5.8,6.55,1.5,1.43,3.31,3.08,5.37,4.44,3.14,2.07,6.34,3.86,9.51,5.32,2.33,1.07,4.91,1.77,7.66,2.09,1.94.22,3.94.33,6.04.33,1.62,0,3.31-.07,5.06-.2,2-.15,3.96-.51,5.95-.91,3.96-.77,7.65-2.15,10.96-4.09,2.41-1.41,4.72-3.03,6.87-4.82,3.48-2.89,6.08-5.87,7.95-9.09.08-.13.16-.26.24-.39l.19-.3.12.09c.69.54,1.39,1.08,2.07,1.64,1.03.84,2.19,1.59,3.44,2.24,2.42,1.25,4.92,2.28,7.42,3.07,2.27.72,5.29,1.61,8.47,2.13,1.95.32,3.59.53,5.3.54,2.85,0,5.88-.28,9.26-.89,2.89-.52,5.78-1.37,8.6-2.5,3.68-1.49,7.03-3.44,9.94-5.81,2.74-2.23,5.36-4.73,8.01-7.66,2.08-2.29,3.77-4.45,5.18-6.6.64-.97,1.09-1.81,1.44-2.65,1.28-3.11,2.08-5.78,2.53-8.41.09-.56.23-1.14.36-1.69l.07-.28c.17-.03.32-.04.45-.04,2.32.15,4.73.08,7.14-.22.2-.02.4-.03.6-.03.15,0,.29,0,.44-.02h.11c.28-.02.57-.04.85-.08.44-.06.89-.14,1.33-.21.84-.13,1.7-.27,2.55-.35,1.93-.18,3.82-.63,5.64-1.05l.99-.23c1.86-.42,3.73-1.06,5.58-1.88,1.64-.74,3.13-1.51,4.55-2.36,3.39-2.03,6.21-4.25,8.61-6.79.9-.95,1.78-1.94,2.64-2.89l.88-.98c1.78-1.98,3.39-4.24,4.79-6.71,1.62-2.87,2.79-5.62,3.57-8.42.52-1.86.92-3.85,1.22-6.1.48-3.64.58-6.99.29-10.22-.09-.99-.13-2-.16-2.98-.01-.37-.03-.74-.04-1.12,0-.15,0-.3.02-.45l.11-.02c.1-.02.2-.03.3-.05.58-.11,1.16-.18,1.77-.26.82-.11,1.68-.22,2.52-.42,4.09-.97,7.87-2.62,11.23-4.89,2.21-1.49,4.43-3.3,6.79-5.52,1.45-1.36,2.8-2.89,4.02-4.54,3.04-4.1,5.38-8.47,6.95-13,.92-2.66,1.54-5.03,1.9-7.25.81-4.97.55-10.12-.75-15.3-.66-2.6-1.6-5.3-2.87-8.26-.83-1.92-1.8-3.71-2.9-5.33-.31-.46-.63-.92-.95-1.37l-.58-.83c-.17-.25-.34-.5-.51-.75.1-.08.21-.15.31-.22,2.26-1.57,4.36-3.59,6.24-5.99,2.92-3.73,5.34-7.25,7.38-10.77,2.19-3.78,3.5-6.85,4.24-9.93l.09-.38c.28-1.15.56-2.33.77-3.52.21-1.22.36-2.45.44-3.65.19-2.92-.1-5.81-.44-8.75-.1-.89-.26-1.84-.48-2.9ZM388.99,335.79c-.51.34-.96.59-1.47.66-1,.14-2.3.72-2.8,2.67l-.05.18c-.1.34-.22.77-.12,1.22.23,1.05.75,1.85,1.52,2.39l.2.1c.85.26,1.35.95,1.93,1.75l.27.37c1.93,2.59,3.47,5.53,4.73,9.01.49,1.35,1.04,2.94,1.46,4.56.71,2.74,1.02,5.64.95,8.89-.06,2.94-.63,5.95-1.79,9.46-1.41,4.28-3.53,8.31-6.29,12-.86,1.15-1.72,2.15-2.63,3.04-3.02,2.98-5.7,5.1-8.43,6.68-2.94,1.7-6.09,2.8-9.35,3.29-.83.12-1.66.21-2.49.31l-.52.06c-.59.07-1.36.18-2.13.5-1.56.65-2.43,1.86-2.46,3.42-.03,1.46.03,3,.18,4.57.24,2.66.29,5.51.16,8.71-.04.97-.19,1.95-.35,2.94l-.1.64c-.22,1.34-.44,2.72-.81,4.04-1.22,4.43-3.38,8.54-6.4,12.22-1.44,1.75-2.99,3.4-4.17,4.63-3.24,3.37-7.24,6.08-11.89,8.04-2.16.91-4.47,1.44-6.24,1.8-.75.15-1.5.29-2.25.42l-.92.17c-.22.04-.44.08-.66.11l-.58.07c-1.77.21-3.54.42-5.31.61-.59.07-1.08.1-1.54.1-.58,0-1.16,0-1.74,0-.74,0-1.48-.01-2.22,0-.77.02-1.43-.13-2.06-.45-1.16-.6-2.38-.44-3.35.42-.28.25-.53.58-.71.94-.29.58-.41,1.19-.51,1.75-.2,1.18-.42,2.35-.64,3.52l-.23,1.24c-.38,2.08-1.07,4.07-1.69,5.73-.44,1.17-1.05,2.31-1.87,3.46-1.35,1.9-2.81,3.71-4.36,5.37-2.04,2.2-4.05,4.15-6.15,5.94-3.6,3.09-7.79,5.35-12.45,6.72-3.74,1.1-7.48,1.7-11.13,1.77-2.59.04-4.86-.17-6.95-.67l-.97-.23c-2.12-.5-4.32-1.03-6.39-1.77-1.81-.65-3.61-1.43-5.36-2.32-.77-.39-1.49-.85-2.15-1.36l-.42-.33c-.33-.26-.67-.53-1.01-.78-.92-.69-1.55-1.3-2.03-1.96-.4-.56-.9-1.04-1.49-1.42-1.14-.75-2.68-.67-3.74.19-.49.4-.91.9-1.32,1.56l-.29.47c-.38.62-.76,1.24-1.11,1.87-1.79,3.21-4.31,6.09-7.7,8.79-2.99,2.38-5.64,4.06-8.34,5.27-1.1.49-2.26.91-3.44,1.24-4.14,1.15-8.62,1.72-13.32,1.68-2.4-.02-4.57-.24-6.65-.67-1.42-.3-2.8-.75-4.09-1.37-3.22-1.52-6-3.09-8.51-4.8-1.8-1.23-3.58-2.77-5.45-4.72-1.42-1.48-3.25-3.47-4.78-5.69-.24-.34-.49-.67-.75-1l-.14-.18c-.2-.26-.4-.51-.63-.75-.79-.83-1.75-1.25-2.8-1.25-.52,0-1.06.1-1.63.3-.47.17-.91.39-1.33.61l-.37.19c-.5.25-1,.5-1.51.76-.89.45-1.77.9-2.67,1.32-2.62,1.24-5.11,2.16-7.62,2.81-4.5,1.16-9.14,1.42-13.81.78-3.12-.43-6.18-1.33-8.76-2.15-1.59-.5-3-1.02-4.32-1.59-2.92-1.25-5.72-2.99-8.81-5.48-.84-.68-1.65-1.5-2.4-2.44-1.61-2.02-3.42-4.39-4.65-7.04-.31-.66-.65-1.28-1.03-1.96-1.48-2.65-2.62-5.49-3.57-7.94-.32-.84-.65-1.83-.64-2.86,0-.65-.18-1.27-.55-1.8-.57-.81-1.32-1.24-2.23-1.28-.72-.03-1.66.02-2.52.63-.43.3-.96.48-1.51.67l-.1.03c-1.78.61-3.61,1.04-5.45,1.28-1.49.19-2.63.3-3.7.36-3.47.19-6.9-.34-10.48-1.62-1.79-.64-3.64-1.54-5.68-2.76-4.47-2.67-8.53-6.07-12.06-10.09-3.36-3.83-5.65-7.67-7-11.72-.41-1.24-.72-2.55-.92-3.89-.37-2.57-.76-5.62-.77-8.67v-3.78c-.02-1.22.14-2.48.46-3.73.18-.72.33-1.37.44-1.98.3-1.61-.43-3.18-1.86-3.99-.43-.24-.91-.45-1.44-.64-1.19-.41-2.4-.8-3.6-1.18-3.33-1.07-6.4-2.57-9.14-4.47-1.17-.82-2.09-1.53-2.91-2.26-2.71-2.43-4.65-4.43-6.3-6.49-3.55-4.46-6.04-8.75-7.61-13.11-.55-1.52-.95-2.9-1.22-4.22-.35-1.68-.49-3.36-.39-4.99l.02-.33c.09-1.62.19-3.24.31-4.86.14-1.8.5-3.56.86-5.22.26-1.2.57-2.42.87-3.6l.19-.74c1.05-4.19,2.59-7.77,4.68-10.97.33-.5.65-1.01.98-1.52.32-.51.52-1.08.59-1.67.11-1.04-.2-1.94-.9-2.6-.39-.36-.8-.69-1.23-.97-.63-.41-1.3-.81-2.19-1.32-1.37-.78-2.79-1.71-4.61-3.01-1.44-1.03-2.71-2.22-3.76-3.55-1.38-1.74-2.73-3.57-3.9-5.14-1.52-2.06-2.84-4.49-4.03-7.4-.86-2.12-1.39-4.33-1.58-6.57l-.05-.62c-.11-1.24-.21-2.41-.18-3.61.11-4.01.72-7.88,1.82-11.49.33-1.09.75-2.1,1.25-3,1.29-2.32,2.51-4.12,3.83-5.68.69-.81,1.36-1.64,2.03-2.47.57-.71,1.15-1.42,1.74-2.12,2.77-3.29,5.54-5.8,8.46-7.69l.79-.51c.8-.51,1.6-1.03,2.39-1.56.52-.35,1.06-.74,1.52-1.23,1.01-1.07,1.26-2.42.68-3.8-.21-.51-.49-1.03-.83-1.54-.61-.93-1.24-1.8-1.77-2.54-2.72-3.76-4.64-8.13-5.69-12.97-.33-1.52-.72-3.53-.84-5.56-.03-.46-.07-.92-.12-1.38-.05-.49-.1-.98-.12-1.47-.07-1.53.15-3.03.38-4.62l.11-.79c.47-3.41,1.54-6.74,3.27-10.16l.4-.79c.47-.95.96-1.92,1.49-2.85,1.53-2.7,3.25-4.9,5.28-6.71,3.17-2.83,6.02-4.8,8.97-6.21.49-.23.98-.46,1.47-.68.49-.22.98-.45,1.47-.68,2.29-1.09,4.93-1.72,8.07-1.91h.23c.63-.05,1.28-.08,1.95-.37,1.56-.65,2.46-2.01,2.41-3.65-.01-.34-.06-.67-.1-.98-.07-.46-.14-.92-.21-1.38-.14-.89-.28-1.8-.39-2.7-.2-1.74-.41-3.61-.53-5.51-.22-3.33.4-6.53,1.04-9.22.26-1.09.57-2.36.99-3.56,1.86-5.27,4.77-9.9,8.65-13.76.9-.9,1.77-1.61,2.65-2.19l1.13-.74c1.01-.66,2.05-1.35,3.09-1.98.89-.54,1.88-1.07,2.94-1.57l.2-.09c2.11-.99,4.29-2.02,6.49-2.86,1.37-.52,2.45-.85,3.49-1.08,1.58-.34,3.16-.68,4.74-1.01.91-.19,1.84-.21,2.71-.21,2.54.01,5.07.29,7.52.82.82.18,1.65.36,2.47.52.27.06.44.19.56.45.05.1.09.2.14.3.05.12.11.23.16.35.5,1.03,1.01,2.07,1.52,3.1,1.1,2.25,2.21,4.5,3.28,6.76,1.73,3.65,3.45,7.38,5.11,11l.44.96c.54,1.2,1.1,2.43,1.94,3.55.2.26.36.58.53.92.07.13.13.27.2.39,1.21,2.29,2.35,4.79,3.69,8.12,1.66,4.14,3.56,8.16,5.03,11.2,2.2,4.55,4.25,9.28,6.28,14.47,2.24,5.73,4.83,11.67,7.92,18.19,1.36,2.86,2.79,5.91,4.05,8.98.4.98.84,1.95,1.27,2.92.23.51.46,1.03.68,1.54.03.07.04.08-.05.16l-.86.88c-.72.74-1.44,1.48-2.15,2.24-4.63,5.01-8.47,10.58-11.4,16.58l-.76,1.54c-.95,1.93-1.94,3.93-2.8,5.97-1.43,3.38-2.64,7.03-3.6,10.85-.78,3.11-1.31,6.23-1.84,9.41-.15.93-.24,1.86-.32,2.76-.08.91-.17,1.86-.32,2.77v.14c-.11,2.79-.21,5.67.14,8.53.04.34.08.68.1,1.03.21,3.44.85,7.08,2,11.47,1.54,5.85,3.58,11.78,6.25,18.1,1.03,2.45,2.03,4.61,3.06,6.58,2,3.85,4.26,7.15,6.91,10.07l.88.97c.74.82,1.51,1.68,2.29,2.5,1.82,1.91,3.9,3.58,5.9,5.18l.26.21c2.04,1.64,4.17,3.25,6,4.64,2.69,2.03,5.58,3.97,8.58,5.76,1.82,1.08,3.7,2.21,5.67,3.23,3.03,1.57,6.33,2.8,10.08,3.76,1.72.44,3.57.86,5.81,1.33.96.2,1.94.36,2.88.52.58.1,1.16.2,1.74.3.63.11,1.25.24,1.88.36,1.13.22,2.29.45,3.45.62l.72.11c1.23.19,2.51.39,3.8.47.49.03.98.07,1.47.1,1.71.12,3.48.25,5.3.22,2.48.11,5.02-.02,7.57-.37,1.64-.23,3.24-.46,4.84-.81,3.35-.73,6.89-1.54,10.53-2.42,2.86-.69,5.19-1.36,7.33-2.09,2.86-.99,5.34-2.01,7.56-3.14,3.78-1.91,7.45-4.09,10.91-6.47,1.19-.82,2.39-1.64,3.58-2.46,1.28-.88,2.56-1.75,3.84-2.63,2.19-1.51,4.39-3.16,6.52-4.89,6.13-4.98,10.97-11.4,14.37-19.06,1.12-2.51,2.4-5.49,3.48-8.55,1.2-3.41,2.21-6.99,2.99-10.65.71-3.32,1.22-6.64,1.52-9.86.23-2.41.21-4.99-.04-7.86-.22-2.53-.43-4.47-.67-6.3-.37-2.75-.89-5.61-1.58-8.73-1.19-5.4-2.53-10.3-4.09-14.99-1.24-3.73-2.89-7.54-5.03-11.66-1.23-2.36-2.71-4.52-3.99-6.32-1.8-2.52-3.34-4.54-4.85-6.33-2.31-2.75-4.54-5.06-6.8-7.08-3.76-3.34-7.9-6.36-12.31-8.97-2.58-1.53-5.42-3.04-8.94-4.77-1-.49-2.09-.93-3.42-1.38-2.72-.93-5.38-1.81-8.15-2.47-.84-.2-1.69-.49-2.51-.77-3.69-1.25-7.36-2.2-10.81-3.04-.25-.06-.5-.12-.78-.15l-.4-.04c-3.11-.34-6.33-.69-9.54-.71h-.13c-.16,0-.32,0-.42.01-.15-.22-.3-.47-.47-.82-2.65-5.54-5.07-11.12-7.2-16.61-.94-2.43-2.01-4.83-3.18-7.13-2.95-5.83-5.84-11.82-8.63-17.62l-2.02-4.19c-2.65-5.48-5.83-11.92-9.36-18.1-.67-1.18-1.35-2.35-2.03-3.53-.76-1.32-1.52-2.63-2.28-3.96-2.99-5.26-5.74-10.76-8.17-16.33-1.69-3.88-3.95-8.95-6.52-14.04.39.13.77.26,1.14.41.93.39,1.83.78,2.67,1.27,1.11.65,2.23,1.37,3.3,2.06l1.38.88c.46.29.9.57,1.3.88,1.18.92,2.53,1.32,3.84,1.71l.18.05c1.28.38,2.47-.02,3.36-1.12.19-.24.34-.48.48-.71l.07-.11c.25-.4.48-.8.75-1.24,2.4-4.04,5.7-7.66,9.8-10.76,2.69-2.04,5.74-3.74,9.07-5.05,1.76-.7,3.7-1.16,6.09-1.45,3.45-.41,6.83-.12,9.69.22,1.3.16,2.84.36,4.34.73,3.54.85,7.08,2.28,11.12,4.49,2.65,1.45,4.9,3.05,6.87,4.89,1.04.97,2.03,2.06,2.99,3.11l.33.36c.62.68,1.2,1.43,1.79,2.18.71.91,1.15,1.65,1.45,2.43.15.4.38.79.64,1.13,1.07,1.36,2.29,1.41,3.11,1.22.4-.09.78-.11,1.16-.07.74.1,1.48-.07,2.2-.48l.3-.18c.42-.25.85-.49,1.26-.75,2.76-1.7,5.71-3.12,8.76-4.2,1.82-.65,3.71-1.09,5.6-1.32,1.52-.18,3.17-.35,4.75-.35,1.42,0,2.5.07,3.5.19.6.08,1.2.13,1.8.19.93.09,1.89.17,2.81.34,3.78.68,7.09,1.69,10.11,3.08,1.62.75,3.27,1.7,5.05,2.9.22.15.44.3.65.47,2.14,1.82,4.37,3.78,6.17,6.07.99,1.25,1.89,2.71,2.75,4.45,2.07,4.18,3.44,7.7,4.33,11.07.2.76.47,1.51.72,2.23l.08.22c.23.65.57,1.25,1,1.79.82,1.01,1.84,1.52,3.05,1.54.53,0,.94,0,1.33-.03.96-.08,1.93-.16,2.89-.27,1.67-.18,3.23-.26,4.77-.26,1.9,0,3.95.22,6.47.7,2.91.56,5.79,1.4,8.82,2.59,2.98,1.17,5.28,2.32,7.24,3.63,2.93,1.95,5.22,4.01,7,6.32.44.57.9,1.14,1.35,1.71.48.6.96,1.21,1.44,1.82.85,1.1,1.62,2.31,2.34,3.68l.26.48c.64,1.22,1.28,2.43,1.91,3.65,1.12,2.2,1.93,4.65,2.4,7.28.4,2.23.56,4.12.52,5.94-.06,2.67-.17,4.7-.34,6.6-.04.41-.06.83-.09,1.24-.06.96-.11,1.88-.33,2.76-.16.65.02,1.27.17,1.67.24.65.69,1.15,1.3,1.46.33.17.7.29,1.05.36.51.09,1.01.17,1.52.25.44.07.88.14,1.32.22.47.08.97.19,1.53.32l.6.15c1.25.3,2.5.61,3.74.93,2.79.73,5.49,2.06,8.26,4.06,2.5,1.81,4.77,3.93,6.95,6.5,2.81,3.31,5.25,6.98,7.27,10.91,1.13,2.2,1.99,4.7,2.62,7.61.22,1,.38,2.04.54,3.05l.1.64c.07.43.11.88.13,1.33v.29c.07,2.13.14,4.33,0,6.48-.14,2.21-.51,4.16-1.14,5.97-.91,2.66-2.08,5.26-3.47,7.75-.46.82-.94,1.63-1.42,2.45-.31.53-.62,1.06-.93,1.59-.28.49-.61,1.05-.88,1.64-.17.37-.29.78-.35,1.24-.15,1.04.12,2,.77,2.77.34.41.72.83,1.13,1.24.62.63,1.24,1.25,1.87,1.87.82.82,1.64,1.63,2.45,2.46,3.9,3.96,7.14,8.58,9.64,13.73,1.24,2.56,2.12,5.24,2.61,7.98.39,2.14.62,4.45.71,7.05.11,2.95-.44,5.79-1,8.17-.73,3.13-2.1,6.25-4.45,10.1-1.71,2.81-3.64,5.47-5.46,7.96-1.81,2.46-3.9,4.51-6.23,6.07ZM156.27,6.82c1.62.05,3.24.09,4.85.12l2.42.04c2.8.04,5.7.08,8.54.18,2.3.08,4.63.09,6.89.09,1.13,0,2.26,0,3.44.02,1.15.01,2.35.02,3.51.08,1.5.07,3,.14,4.5.22,1.98.1,3.95.2,5.93.28,1.27.05,2.56.07,3.8.09.6,0,1.2.02,1.8.03h.9c1.45.03,2.83.05,4.2.28.24.04.49.05.74.06h.24c2.99.17,5.68.55,8.22,1.16.48.12.96.23,1.45.35,1.03.24,2.06.49,3.08.76,2.35.63,4.81,1.6,7.53,2.98,1.59.81,3.16,1.73,4.68,2.62l.92.54c.94.55,1.8,1.27,2.57,2.14,1.22,1.39,2.49,2.82,3.59,4.39,1.06,1.51,1.86,3.25,2.45,5.3.28.97.4,1.88.38,2.79-.04,1.45-.03,2.92-.02,4.34,0,1.71-.22,3.51-.7,5.52-.86,3.62-2.42,7.26-4.77,11.15-.58.96-1.3,1.84-2.14,2.6-.82.75-1.75,1.52-2.99,2.5-1.74,1.37-3.81,2.33-6.35,2.95-2.26.55-4.61.95-6.98,1.19-1.26.13-2.53.27-3.79.41l-1.65.19-2.62.2c-1.55.12-3.09.24-4.64.36-3.91.31-7.91.37-11.78.43-1.22.02-2.43.04-3.65.07l-1.87.05c-2.1.05-4.26.11-6.39.09-3.64-.03-7.35-.11-10.93-.2l-1.47-.04c-1.92-.04-3.87-.13-5.76-.22-2.65-.12-5.4-.24-8.11-.25-.73,0-1.48-.04-2.12-.08-3.17-.18-6.3-.22-8.67-.24-1.65-.01-3.29-.05-4.93-.08-1.23-.03-2.47-.05-3.7-.07-.89-.01-1.77,0-2.66.02h-.96c-.23.02-.45.03-.68.05h-.08c-1.94.14-3.18,1.46-3.23,3.46-.01.51.07,1.04.23,1.5.28.79.61,1.59.99,2.39,1.11,2.36,2.19,4.85,3.18,7.39.37.94.73,1.88,1.09,2.82.65,1.69,1.31,3.38,1.99,5.06.53,1.31,1.11,2.62,1.66,3.88.26.58.51,1.16.77,1.75l1.7,3.92c1.51,3.48,3.01,6.96,4.51,10.44,1.07,2.49,2.3,5.02,3.65,7.5,3.51,6.46,6.81,13.24,9.81,20.15,2.76,6.38,5.83,12.51,9.13,18.25.54.94,1.09,1.88,1.64,2.82,1,1.72,2.04,3.51,3.02,5.28,1.14,2.05,2.24,4.17,3.31,6.21l.82,1.56c1.49,2.84,2.91,5.78,4.28,8.62.71,1.48,1.43,2.96,2.15,4.43.95,1.92,1.88,3.86,2.82,5.79,1.75,3.62,3.57,7.37,5.45,11.01,1.49,2.89,2.74,5.94,3.88,8.82,1.2,3,2.55,6.41,4.06,9.65.83,1.8,1.65,3.6,2.47,5.4.6,1.31,1.19,2.62,1.79,3.92.63,1.37,1.26,2.73,1.9,4.1,1.13,2.44,2.26,4.88,3.37,7.33.99,2.2,2.07,4.4,3.11,6.53l1.08,2.2c.19.38.38.77.55,1.16.48,1.12.96,2.25,1.44,3.38.91,2.15,1.85,4.38,2.83,6.55,1.66,3.68,3.1,7.53,4.49,11.25.6,1.59,1.19,3.19,1.8,4.78.59,1.51,1.18,3.03,1.77,4.54.46,1.17.91,2.34,1.37,3.51,1.52,3.91,2.76,7.98,3.7,12.09.72,3.19,1.18,6.12,1.39,8.95.04.56.07,1.17.09,1.94.02,1.16-.17,2.32-.57,3.43-.31.85-.61,1.7-.91,2.55-.38,1.07-.76,2.13-1.15,3.2-.44,1.21-1.09,2.47-1.97,3.86-.42.66-.97,1.27-1.5,1.84-1.09,1.17-2.4,2.24-4.03,3.28-1.08.69-2.18,1.35-3.2,1.96-.84.5-1.72.87-2.61,1.08-1.7.42-3.73.85-5.86.85h-.58c-1.42,0-2.77.02-4.1-.27-4.88-1.05-8.86-3.16-12.15-6.45-1.62-1.62-3.23-3.51-5.05-5.95-3.49-4.66-6.73-9.8-9.91-15.72-2.22-4.13-4.45-8.72-6.83-14.02-1.98-4.42-4.12-8.62-5.96-12.15-.97-1.87-1.95-3.73-2.94-5.59-1.43-2.7-2.9-5.5-4.31-8.27-2.45-4.82-4.84-9.73-7.08-14.34-.55-1.14-1.06-2.33-1.55-3.48-.28-.64-.55-1.29-.84-1.93l-.68-1.53c-.68-1.55-1.39-3.16-2.14-4.72-2.15-4.5-3.97-8.51-5.57-12.25-1.2-2.81-2.33-5.65-3.38-8.31-1.88-4.76-4.08-9.72-6.73-15.18-1.65-3.4-3.12-6.88-4.33-9.83-1.03-2.5-2.16-4.91-3.27-7.25-.54-1.14-1.1-2.26-1.66-3.39-.56-1.13-1.12-2.26-1.66-3.39-.62-1.32-1.22-2.66-1.81-3.99-.43-.96-.86-1.93-1.29-2.88-.53-1.16-1-2.09-1.47-2.95-3.27-5.89-5.53-10.5-7.32-14.93-2.89-7.14-6.43-14.04-9.52-19.85-.92-1.73-1.87-3.61-2.6-5.61-.36-.98-.85-1.86-1.34-2.72l-.33-.59c-2.36-4.3-4.56-8.98-6.53-13.91-.35-.87-.68-1.64-1.02-2.35l-.29-.61c-1.69-3.53-3.38-7.06-5.1-10.58-1.06-2.17-2.13-4.34-3.2-6.51-1.16-2.35-2.32-4.69-3.47-7.05-.38-.78-.81-1.55-1.22-2.28-.17-.3-.34-.6-.51-.91-.8-1.46-1.49-3-2.16-4.48-1.22-2.71-2.21-5.71-3.11-9.42-.55-2.26-.96-4.26-1.24-6.1-.33-2.12-.46-4.3-.58-6.42l-.02-.31c-.04-.71-.04-1.44-.04-2.15,0-.47,0-.95-.01-1.42-.06-2.48.36-5.04,1.32-8.05,1.32-4.14,3.06-7.71,5.31-10.92,1.17-1.67,2.47-3.31,3.85-4.86.51-.57.97-.99,1.45-1.29.74-.47,1.33-1.06,1.75-1.75.29-.47.74-.83,1.21-1.19l.06-.05c.75-.57,1.49-1.14,2.23-1.72,1.8-1.42,3.86-2.49,6.1-3.19,1.88-.59,3.91-1.08,6.38-1.54.75-.14,1.55-.22,2.32-.29l2.04-.21c2.17-.23,4.42-.46,6.63-.56,2.58-.11,5.1-.12,7.89-.13h.63c5.01-.02,10.02-.03,15.03-.06.78,0,1.55-.03,2.33-.06.72-.02,1.45-.05,2.17-.06,4.26-.04,8.52-.07,12.77-.08.13,0,.26,0,.39,0,1.44,0,2.89.02,4.33.04l1.35.02v.09s2.92.08,2.92.08ZM149.25,250.63c.14.23.27.47.39.71.46.93.92,1.86,1.38,2.79.6,1.22,1.21,2.44,1.82,3.66.73,1.46,1.49,2.9,2.24,4.35l.49.93c.79,1.52,1.58,3.04,2.37,4.56,1.56,3,3.13,6,4.67,9,2.07,4.04,3.99,8.24,5.85,12.31l.08.17c2.1,4.6,4.53,9.3,7.2,13.97,3.44,5.99,6.93,11.13,10.67,15.71,1.64,2,3.45,3.85,5.38,5.49,1.15.98,2.47,1.86,4.16,2.78,2.41,1.31,4.63,2.24,6.78,2.82,1.74.47,3.3.72,4.79.75,1.81.04,3.44.07,5.1-.03,1.91-.11,3.75-.41,5.47-.89,1.37-.38,2.7-.93,3.98-1.65,1.56-.88,3.17-1.89,4.78-2.99,1.57-1.07,3.09-2.44,4.8-4.31.63-.68,1.19-1.47,1.67-2.34,1.09-1.97,2.21-4.13,2.96-6.51.37-1.17.81-2.35,1.25-3.52.93-2.47,1.26-5.08.98-7.77l-.11-1.07c-.14-1.42-.29-2.88-.51-4.32-.24-1.6-.6-3.21-.91-4.63-.83-3.75-1.81-7.17-3.01-10.46l-.18-.49c-.15-.41-.29-.81-.45-1.22l-.03-.08c-1.98-5.07-4.03-10.32-5.92-15.52-1.54-4.22-3.35-8.39-5.11-12.42l-.18-.42c-.32-.74-.64-1.49-.96-2.23-.41-.97-.82-1.94-1.25-2.9l-.08-.19c-.67-1.51-1.36-3.07-2.11-4.58-1.64-3.27-3.28-6.77-5.32-11.37-.35-.79-.71-1.58-1.06-2.36l-.43-.96c1.93.08,3.96.2,5.96.49,1.13.16,2.28.41,3.42.72l1.68.46c2.39.65,4.87,1.33,7.25,2.15,1.31.45,2.65.81,4.03,1.17,2.49.65,4.98,1.53,7.11,2.3.35.13.7.28,1.09.46,4.67,2.24,8.69,4.5,12.28,6.91,2.71,1.81,5.31,3.82,7.75,5.97,1.82,1.6,3.62,3.47,5.68,5.87,2.89,3.36,5.47,6.89,7.68,10.49,1.29,2.09,2.32,4.39,3.32,6.61l.1.22c1.44,3.19,2.48,6.45,3.31,9.21,1.04,3.46,1.99,7.14,2.91,11.26.51,2.28.93,4.58,1.24,6.83.37,2.63.73,5.46.88,8.34.17,3.13-.03,6.33-.58,9.51l-.17,1c-.22,1.29-.45,2.63-.72,3.92-1.04,4.92-2.4,9.37-4.15,13.61l-.1.24c-1.02,2.47-2.07,5.02-3.34,7.4-1.96,3.69-4.37,7.09-7.15,10.08-1.09,1.17-2.35,2.23-3.57,3.25l-.78.65c-2.25,1.9-4.72,3.6-7.11,5.25l-.51.35c-1.21.84-2.43,1.67-3.65,2.49-.96.65-1.93,1.31-2.89,1.97-2.88,1.98-6.06,3.82-9.71,5.62-2.81,1.39-5.9,2.55-9.45,3.55-3.1.87-6.29,1.6-9.38,2.3-.82.19-1.64.37-2.46.56-2.75.64-5.27,1.08-7.7,1.35-1.91.22-3.87.3-5.99.25l-1.85-.12c-1.42-.09-2.83-.19-4.25-.27-1.97-.11-3.95-.49-5.87-.86l-.43-.08c-1.85-.36-3.66-.67-5.67-1.02-3.07-.53-6.22-1.27-9.37-2.19-2.86-.84-5.63-2.02-8.25-3.52-3.52-2.02-6.44-3.77-9.24-5.77-3.46-2.47-6.83-5.13-9.67-7.42-2.12-1.71-4.15-3.62-6.19-5.84-3.44-3.74-6.25-8-8.36-12.65-1.75-3.85-3.16-7.31-4.34-10.59-1.6-4.47-2.73-8.16-3.55-11.61-1.15-4.81-1.77-9.55-1.83-14.07-.04-2.74.18-5.59.65-8.47.27-1.66.58-3.59.95-5.46.87-4.43,2.02-8.45,3.54-12.29,1.72-4.35,3.87-8.48,5.56-11.59,1.45-2.69,3.26-5.39,5.51-8.27.91-1.16,1.9-2.28,2.86-3.37.53-.6,1.05-1.19,1.57-1.8.1-.11.21-.22.33-.33Z"/><path d="M340.24,387.98c-.45-.91-1.03-1.77-1.74-2.54-1.39-1.53-3.17-2.74-5.42-3.7-2.17-.93-4.5-1.56-6.94-1.89-.52-.07-1-.15-1.46-.3-.02-.11-.01-.22,0-.4.06-1.01.13-2.03.21-3.04.19-2.7-.01-5.12-.64-7.38-.83-3.04-2.33-5.35-4.58-7.07-1.14-.88-2.42-1.6-3.91-2.22-3.14-1.31-6.43-1.62-9.77-.93-1.34.28-2.57.74-3.71,1.2-1.08.43-2.15,1.05-3.27,1.9-1.23.93-2.39,2.11-3.54,3.59-2.08,2.7-3.38,5.14-4.07,7.68-.81,2.95-1.11,5.27-.99,7.51.03.57.04,1.14.05,1.74l-.07.02c-.09.03-.17.06-.26.07-.37.05-.74.1-1.11.15-.91.13-1.85.26-2.76.31-.77.04-1.53.15-2.26.25-.51.07-1.01.15-1.52.2-.57.05-1.14.27-1.68.63-.72.48-1.22,1.27-1.34,2.11-.11.76.12,1.52.64,2.12.26.3.57.56.91.74.77.4,1.57.54,2.38.41l.43-.07c.32-.05.63-.11.95-.14l1.08-.11c1.88-.19,3.83-.38,5.75-.68.03,0,.05,0,.06,0,.02.04.04.08.06.12.07.15.15.31.2.47.82,2.58,1.97,5.23,3.62,8.36l.07.13c.26.5.53,1.01.86,1.5,1.3,1.94,2.31,3.41,3.27,4.76.41.58.9,1.08,1.37,1.57.5.52,1.15.84,1.87.93,1.62.2,2.48-.57,2.92-1.25.63-.98.64-2.1.02-3.16-.13-.22-.28-.44-.5-.69-1.24-1.46-2.32-3.07-3.41-4.74-1.53-2.34-2.82-5.02-4.04-8.41-.06-.16-.11-.33-.16-.49l.93-.13c1.7-.24,3.4-.48,5.1-.71l.52-.07c.75-.1,1.53-.21,2.29-.27,1.57-.11,3.13-.19,4.7-.28l6.06-.34c.08,0,.16,0,.24,0l-.12.84c-.12.82-.25,1.64-.35,2.46-.09.71-.15,1.46-.18,2.21-.07,1.66.15,3.25.34,4.44.22,1.36.55,2.69.99,3.95.65,1.86,1.66,3.43,3,4.65,1.82,1.65,3.72,2.77,5.81,3.42.93.29,1.87.43,2.84.43s1.9-.14,2.89-.41c3.54-.97,7.02-4.36,8.08-7.88.41-1.37.68-2.68.83-4,.12-1.06.07-2.16-.13-3.27-.27-1.46-.74-2.85-1.44-4.27ZM318.97,374.86l-.11,1.19c-.1,1.08-.2,2.15-.3,3.22-.01,0-.02,0-.03,0-.69.06-1.38.1-2.07.13l-5.66.31c-.22.02-.44.03-.66.04-3.53.07-7.07.57-10.11,1.03-1.15.18-2.3.32-3.47.46-.14-1.41-.14-2.57.01-3.64.4-2.86,1.13-5.01,2.32-6.76.72-1.07,1.47-2.06,2.22-2.95,1.51-1.79,3.59-2.93,6.37-3.5.66-.13,1.32-.2,1.98-.2,2.16,0,4.29.73,6.47,2.21.56.38,1.01.86,1.38,1.46.66,1.07,1.08,2.12,1.29,3.23.26,1.37.38,2.6.39,3.77ZM329.43,386.82c1.04.37,2.03.83,2.95,1.38,1.5.89,2.49,2.15,3.02,3.86.7,2.25.45,4.51-.74,6.71-.86,1.59-2.26,2.58-4.15,2.93-.4.08-.75.07-1.09-.02-1.82-.48-3.35-1.44-4.54-2.87-.37-.44-.66-1.02-.91-1.81-.63-2.03-.93-3.92-.9-5.77.03-1.91.37-3.79.72-5.55,0-.03.01-.06.02-.08,1.87.28,3.8.57,5.63,1.23Z"/><path d="M271.07,432.68c-1.06-1.05-2.16-1.8-3.36-2.27-.88-.35-1.83-.66-2.82-.92-2.11-.55-4.28-.7-6.38-.84l-.89-.06c-.58-.04-1.14.01-1.57.06-1.73.2-3.46.42-5.19.64-2.42.31-4.93.63-7.42.6h-.6c-1.98-.03-3.84-.05-5.71-.43-1.59-.32-2.97-.79-4.21-1.44-.96-.5-1.67-1.1-2.15-1.83-1-1.53-1.45-3.21-1.32-5,.15-2.11.87-3.97,2.14-5.53,1.23-1.51,2.52-2.66,3.95-3.52l.53-.33c.38-.23.76-.46,1.14-.68,2.65-1.5,5.25-2.57,7.94-3.27.79-.2,1.46-.3,2.12-.3.72,0,1.35.01,1.92.05.99.07,1.98.28,2.95.63,3.12,1.12,5.99,2.91,8.54,5.32.23.22.46.46.68.7.14.15.28.3.42.45.62.63,1.44.94,2.37.9,1.05-.05,1.88-.6,2.35-1.55.56-1.14.44-2.34-.34-3.48-.35-.51-.79-.95-1.18-1.31-1.8-1.73-3.78-3.22-5.87-4.44-3.2-1.86-6.01-2.87-8.86-3.19-2.67-.3-4.92-.15-7.06.46-3.73,1.08-7.27,2.67-10.81,4.86-1.48.92-2.89,2.08-4.43,3.65-2.37,2.42-3.86,5.44-4.41,8.99-.39,2.51-.15,4.9.72,7.11,1.26,3.22,3.36,5.55,6.25,6.92,1.09.52,2.29.95,3.67,1.33,1.87.51,3.78.81,5.83.92,3.15.17,6.01.1,8.75-.2,1.17-.13,2.33-.28,3.49-.44,1.09-.15,2.19-.3,3.29-.42,1.36-.15,2.6-.16,3.78-.03.17.02.35.04.52.06.43.06.88.11,1.35.12.87,0,1.71.22,2.65.46,1.71.44,3.04,1.36,4.06,2.81,1.48,2.1,1.99,4.5,1.52,7.15-.51,2.9-1.93,5.3-4.21,7.12-1.45,1.16-3.1,2.2-5.19,3.27-1.93.98-3.9,1.5-5.88,1.46-.47,0-.94,0-1.41,0-1.01,0-2.04,0-3.06-.03-2.14-.09-4.08-.67-5.78-1.71-2.25-1.4-3.72-2.74-4.76-4.35-.19-.3-.44-.68-.77-.99-.38-.36-.77-.65-1.17-.86-.96-.5-2.23-.32-3.04.43-.61.57-.94,1.27-.99,2.08-.04.73.16,1.46.6,2.15.84,1.33,1.9,2.85,3.36,4.04.82.67,1.7,1.38,2.61,2.01,2.18,1.52,4.56,2.49,7.07,2.91,2.01.33,3.81.47,5.51.42.2,0,.4,0,.61,0,.21,0,.42,0,.64,0,.25,0,.51,0,.76-.02,3.18-.16,5.99-.88,8.6-2.23,2.16-1.11,4.24-2.44,6.17-3.93,4.6-3.55,6.78-9.74,6.56-14.02-.21-4.15-1.75-7.68-4.56-10.47Z"/><path d="M369.52,297.6c-1.39-1.43-3-2.48-4.77-3.1-1.16-.41-2.12-.69-3.02-.89-2.24-.49-3.99-.53-5.68-.12-1.22.3-2.52.67-3.73,1.35-2.25,1.28-4.03,2.98-5.3,5.04-.62,1.01-1.21,2.08-1.77,3.2-1,1.98-1.71,4.1-2.4,6.14l-.11.32c-.28.83-.55,1.67-.82,2.51-.24.76-.49,1.52-.74,2.27-.95,2.84-2.09,5.29-3.48,7.48-1.16,1.83-2.49,3.25-4.07,4.35-1.13.79-2.3,1.17-3.58,1.17h-.02c-2.87,0-5.55-.77-7.98-2.26-2.07-1.27-3.24-3.16-3.48-5.61-.3-3.04-.15-5.77.47-8.32.69-2.83,1.41-5.14,2.28-7.26.31-.77.7-1.67,1.18-2.52,1.69-3.01,4.18-4.95,7.38-5.78.47-.12.94-.25,1.41-.38l.41-.11c.22-.06.45-.13.66-.2.53-.19.99-.52,1.46-1.03.48-.53.72-1.37.62-2.2-.1-.82-.51-1.52-1.16-1.96-.9-.6-1.91-.77-3.01-.5-1.44.36-2.84.72-4.22,1.28-3.16,1.27-5.79,3.38-7.8,6.26-1.11,1.59-2.04,3.42-2.85,5.6-.89,2.39-1.65,4.91-2.25,7.49-.6,2.58-.83,4.74-.73,6.78v.65c0,.5,0,1,0,1.5.02,1.33.26,2.7.76,4.44.27.93.68,1.81,1.24,2.64,1.3,1.95,2.89,3.49,4.73,4.57,1.15.68,2.34,1.24,3.54,1.66,2,.71,4.13,1.16,6.33,1.32,2.9.22,5.57-.52,7.96-2.19,1.79-1.25,3.33-2.72,4.58-4.36,2.04-2.69,3.67-5.82,5.01-9.56.48-1.35.93-2.73,1.36-4.07l.46-1.41c.65-1.98,1.19-3.48,1.76-4.84.61-1.47,1.36-2.86,2.22-4.15.71-1.06,1.58-1.89,2.59-2.49,1.45-.85,2.91-1.19,4.35-1.01,1.06.13,1.98.34,2.8.65,1.78.65,3,1.51,3.84,2.69l.29.4c.43.6.84,1.17,1.2,1.77.98,1.63,1.45,3.45,1.39,5.43-.04,1.51-.21,3.04-.52,4.7-.44,2.36-1.21,4.67-1.91,6.62-.41,1.15-1.04,2.34-1.93,3.63-.67.98-1.5,1.8-2.47,2.44-1.52,1.01-2.92,1.75-4.29,2.24-.61.22-1.23.42-1.84.62-.55.17-1.02.44-1.38.8-1.24,1.22-1.29,2.9-.13,4.1.62.64,1.43.98,2.3.98.08,0,.16,0,.24,0,.54-.04,1.05-.18,1.39-.28,2.67-.8,5.25-2.11,7.88-3.98.92-.66,1.76-1.46,2.48-2.39,1.65-2.11,2.82-4.23,3.59-6.48.78-2.29,1.35-4.23,1.79-6.1.36-1.54.57-2.92.63-4.22.02-.52.06-1.03.1-1.55l.03-.4c.23-3.18-.43-6.17-1.96-8.9-.92-1.64-2.04-3.15-3.32-4.47Z"/><path d="M152.24,406.56c-.08-.48-.16-.95-.21-1.43-.24-2.32-.92-4.69-2.14-7.45-.73-1.65-1.73-3.18-2.98-4.55-1.58-1.73-3.37-3.33-5.45-4.9-1.54-1.15-3.37-1.89-5.47-2.2l-.28-.04c-1.75-.26-3.56-.53-5.37-.39h-.63c-.47,0-.92,0-1.38,0-1.44.02-2.85.32-4.06.6-3.11.73-6.02,2.24-9.16,4.77-2.96,2.38-5.81,5.14-8.49,8.21-1.78,2.04-3.27,3.96-4.58,5.9-1.48,2.2-2.47,4.35-3.02,6.59-.65,2.63-.96,5.08-.95,7.48,0,3.87.4,6.78,1.27,9.45.66,2.03,1.43,3.64,2.42,5.05.55.79,1.15,1.55,1.73,2.29l.36.46c.83,1.07,1.92,2,3.33,2.85,3.73,2.25,7.89,3.75,12.37,4.45.62.1,1.25.15,1.89.15,1.16,0,2.38-.16,3.73-.47,2.73-.63,5.4-1.82,8.41-3.72,3.56-2.26,6.87-5.15,10.42-9.11,1.79-2,3.36-4.22,4.66-6.59,1.58-2.88,2.7-6.12,3.52-10.2.41-2.03.47-4.1.2-6.15-.05-.35-.1-.69-.16-1.04ZM146.06,413.6c-1.08,5.13-3.49,9.72-7.15,13.63-1.99,2.13-3.72,3.74-5.43,5.07-1.74,1.36-3.42,2.47-5.14,3.41-1.2.65-2.51,1.19-4.01,1.65-1.78.54-3.67.55-5.63.04-1.39-.37-2.74-.81-4.25-1.3-1.56-.51-3-1.35-4.35-2.16-.65-.39-1.21-.89-1.67-1.48-.19-.24-.38-.48-.57-.72l-.33-.41c-1.65-2.08-2.67-4.54-3.12-7.52-.15-1.01-.25-1.93-.31-2.8-.14-2.21.08-4.6.67-7.29.42-1.92,1.24-3.75,2.42-5.45.91-1.3,1.78-2.46,2.66-3.55,2.72-3.35,5.67-6.31,8.76-8.79,1.02-.82,2.08-1.56,3.16-2.18,2.37-1.38,4.75-2.06,7.25-2.06.08,0,.16,0,.23,0,.29,0,.58,0,.87,0h.39c1.54.02,3.05.07,4.52.36,1.37.27,2.49.75,3.42,1.49,1.24.98,2.47,2.1,3.65,3.32,1.04,1.08,1.88,2.36,2.48,3.81.82,1.97,1.28,3.67,1.46,5.32.03.31.09.63.14.94.39,2.21.34,4.39-.14,6.68Z"/><path d="M256.06,166.65c.31-2.04.49-4.05.55-5.98.1-1.71-.12-3.35-.41-5.16-.41-2.61-1.18-5.16-2.29-7.58-1.59-3.45-3.49-6.09-5.83-8.07-.89-.75-1.95-1.62-3.1-2.34-1.27-.79-3.22-1.85-5.56-1.95-.2,0-.42-.05-.71-.13-1.65-.46-3.42-.67-5.72-.67h-.02c-3.11,0-6.07.72-8.8,2.13-2,1.03-3.87,2.35-5.73,4.03-3.07,2.78-5.32,5.59-6.88,8.58-.82,1.56-1.53,3.21-2.11,4.88-1.47,4.24-2.21,8.54-2.19,12.77v.29c0,.57,0,1.14.03,1.71v.13c.02.51.04,1.04.13,1.58l.21,1.32c.29,1.79.58,3.65,1.03,5.46.53,2.16.99,3.96,1.69,5.78.84,2.2,2.15,4.07,3.9,5.55l.33.28c.26.23.52.45.8.67,2.15,1.69,4.12,2.76,6.2,3.39,1.61.48,3.25.83,4.8,1.12,1,.19,2,.29,2.94.36.42.03.84.05,1.27.05,1.06,0,2.18-.1,3.38-.3,1.71-.28,3-.64,4.15-1.16,2.33-1.05,4.32-2.16,6.09-3.38,2.62-1.82,4.65-4.1,6.05-6.78,1-1.92,2-3.93,2.97-5.99.64-1.35,1.16-2.84,1.6-4.54.6-2.34,1-4.26,1.27-6.05ZM250.48,162.38c-.09,1.36-.23,2.96-.6,4.5-.17.69-.31,1.39-.46,2.09-.09.42-.17.84-.27,1.26-.38,1.74-.98,3.46-1.82,5.27-.74,1.59-1.54,3.17-2.29,4.65-.41.81-.97,1.65-1.71,2.55-.51.62-1.06,1.15-1.68,1.63-1.48,1.13-3.08,2.12-4.92,3.02-2.32,1.14-4.77,1.59-7.27,1.35-1.82-.18-3.68-.52-5.52-1.02-2.3-.62-4.42-1.93-6.47-3.99-.66-.66-1.16-1.49-1.49-2.46-.82-2.37-1.41-4.6-1.82-6.83-.05-.29-.1-.57-.15-.86-.1-.61-.21-1.22-.34-1.82-.24-1.12-.28-2.28-.31-3.21-.01-.38-.02-.72-.05-1.02.03-4.14.64-7.73,1.91-11.29.63-1.78,1.35-3.34,2.18-4.77.38-.64.7-1.15,1.03-1.59,1.6-2.18,3.58-4.17,6.05-6.07.99-.77,2.16-1.43,3.58-2.01,1.38-.57,2.88-.88,4.45-.93,1.37-.04,3.18,0,4.93.52.29.09.68.19,1.09.19,1.4,0,2.6.67,3.59,1.32,2.41,1.57,4.31,3.71,5.67,6.34,1.14,2.21,1.95,4.6,2.42,7.08.33,1.77.41,3.71.26,6.09Z"/><path d="M54.21,231.87c.05,2.05.64,3.91,1.15,5.31.57,1.55,1.42,2.98,2.52,4.23.44.5.91,1,1.4,1.48,2.52,2.46,5.64,3.73,9.28,3.77,1.95.01,3.87-.37,5.89-1.18,2.27-.91,4.35-2.17,6.18-3.74,1.94-1.67,3.89-3.58,5.96-5.86,1.25-1.37,2.45-2.76,3.46-3.94.75-.88,1.63-1.71,2.77-2.62.92-.74,1.95-1.35,3.06-1.81,1.36-.57,2.6-.76,3.82-.58,1.27.19,2.29.42,3.2.72,1.75.59,3.28,1.71,4.66,3.43.18.22.33.51.46.78.86,1.75,1.3,3.7,1.33,5.94,0,.3-.02.62-.07.94-.33,1.97-.93,3.71-1.85,5.32-1.43,2.49-5.63,6.83-8.91,8.69-2.2,1.24-4.37,2-6.65,2.33-1.1.16-2.28.31-3.46.28-.82-.03-1.52.16-2.13.53-.75.46-1.25,1.21-1.36,2.06-.11.85.17,1.71.78,2.35.7.74,1.61,1.15,2.6,1.17.17,0,.36,0,.55,0,.52,0,1.12-.02,1.71-.1,1.13-.15,2.35-.32,3.6-.57,2.43-.48,4.69-1.31,6.93-2.56,3.29-1.83,6.26-4.34,9.08-7.68,1.57-1.86,2.74-3.7,3.58-5.63,1.11-2.57,1.65-4.95,1.64-7.26,0-2.93-.67-5.79-1.95-8.49-.47-.98-.98-1.78-1.57-2.44-2.08-2.35-4.34-3.9-6.91-4.76-1.11-.37-2.32-.68-3.91-.99-1.87-.37-3.78-.24-6.03.42-2.65.78-5.06,2.2-7.36,4.34-.94.87-1.8,1.83-2.64,2.75l-.14.15c-.46.5-.9,1.02-1.34,1.53-.42.49-.84.98-1.27,1.45-1.74,1.92-3.65,3.93-5.83,5.7-1.09.89-2.34,1.66-3.81,2.35-1.55.73-3.26,1-5.22.82-.57-.05-1.12-.2-1.67-.44-1.92-.84-3.42-2.37-4.57-4.67-.44-.88-.72-1.89-.83-3.01-.18-1.8-.17-3.57.02-5.41.21-2.09.79-3.87,1.75-5.45.73-1.2,1.5-2.34,2.27-3.38,1.06-1.43,2.4-2.52,3.99-3.24,2.29-1.05,4.24-1.66,6.12-1.94l.27-.04c1.75-.26,3.4-.51,5.08-.3.44.06.87,0,1.24-.05l.19-.02c.79-.09,1.46-.5,2-1.2.64-.84.75-1.83.3-2.81-.42-.92-1.16-1.52-2.13-1.74-.26-.06-.53-.09-.8-.13l-.32-.04c-1.63-.23-3.23-.07-4.84.09-3.77.37-7.43,1.49-10.87,3.32-1.76.93-3.31,2.24-4.6,3.89-1.11,1.41-2.1,2.92-3.01,4.35-.99,1.54-1.7,3.3-2.25,5.54-.41,1.69-.61,3.5-.63,5.88l.03.73c.02.48.05.97.06,1.45Z"/><path d="M293.01,232.05c.76-.02,1.42-.31,1.95-.86.62-.64.89-1.43,1.09-2.01,1.86-5.5,3.73-11,5.62-16.5.37-1.07.76-2.14,1.16-3.21.44-1.18.87-2.37,1.28-3.56.95-2.8,1.88-5.61,2.81-8.41.58-1.74,1.16-3.49,1.74-5.23,1.64-4.91,2.91-9.02,3.97-12.92.32-1.18.58-2.48.8-3.96.16-1.08.05-2.15-.3-3.19-.74-2.14-2.81-3.27-5.03-2.76-.8.19-1.55.47-2.21.84-.44.25-.88.49-1.32.73-1.12.62-2.28,1.26-3.39,1.97-3.71,2.36-7.77,4.65-12.78,7.2-2.03,1.04-4.06,2.07-6.08,3.14-2.71,1.43-5.36,3.03-7.93,4.58-.99.6-1.98,1.19-2.97,1.78-1.99,1.18-3.98,2.41-5.91,3.59-3.03,1.87-6.17,3.8-9.32,5.56-.49.27-.94.62-1.31,1-.93.96-1.08,2.43-.37,3.57.62.99,2.15,1.7,3.44,1.19l.26-.1c.26-.1.54-.21.81-.35l.32-.17c.74-.39,1.51-.79,2.24-1.24,1.92-1.16,3.83-2.33,5.74-3.5,1.36-.83,2.72-1.66,4.08-2.49.59-.36,1.19-.71,1.79-1.05l.55-.32.95.69c.99.72,1.98,1.43,2.95,2.17,1.15.87,2.28,1.75,3.42,2.62,1.19.92,2.38,1.83,3.57,2.74,2.75,2.08,5.97,4.58,9.05,7.3.54.48,1.06.99,1.63,1.55-.11.38-.24.75-.37,1.12l-1.09,3.16c-.69,2-1.38,4-2.06,6.01-.3.88-.59,1.77-.88,2.66-.21.65-.42,1.3-.64,1.95-.25.74-.33,1.42-.25,2.09.17,1.49,1.4,2.58,2.89,2.58.03,0,.07,0,.1,0ZM296.64,205.5c-3.31-2.88-6.85-5.56-9.9-7.84-.74-.55-1.47-1.12-2.19-1.68-.41-.31-.81-.63-1.22-.94l-3.99-3.05c.35-.22.69-.43,1.05-.63,3.47-1.99,6.4-3.62,9.43-5.1,3.62-1.77,7.36-3.79,11.11-6,.71-.42,1.41-.86,2.1-1.29.57-.36,1.14-.72,1.72-1.07.75-.45,1.53-.89,2.3-1.32-.04.2-.09.4-.14.6-.38,1.4-.77,2.86-1.2,4.3-.55,1.82-1.2,3.97-1.92,6.15-1.41,4.29-2.84,8.58-4.27,12.86l-.82,2.47c-.32.96-.66,1.92-1,2.87-.05.14-.11.28-.17.43-.31-.24-.61-.49-.9-.74Z"/><path d="M305,239.26c-1.02.45-2.04.91-3.05,1.38-.55.25-1.07.56-1.53.91-1.34,1.02-1.37,2.77-.72,3.89.4.69,1.02,1.13,1.79,1.27.8.15,1.6.04,2.38-.31.66-.3,1.33-.6,1.99-.89.65-.29,1.3-.58,1.95-.87l.4-.18c1.73-.79,3.53-1.61,5.33-2.32,1.62-.64,3.23-1.32,4.84-1.99.83-.34,1.65-.69,2.48-1.03.55-.23,1.11-.45,1.67-.67-.21,1.02-.42,2.04-.63,3.07-.84,4.05-1.87,8.13-2.86,12.08-.36,1.44-.72,2.88-1.08,4.33l-.09.38c-.67,2.74-1.37,5.57-1.99,8.38l-.28,1.27c-.65,2.97-1.32,6.04-2.09,9.04-.11.43-.2.87-.26,1.21l-.07.33-.02.12c-.04.86.05,1.45.32,2.01.49,1.02,1.5,1.62,2.56,1.62.38,0,.77-.08,1.15-.24.77-.34,1.34-.92,1.62-1.68.19-.5.35-1.03.49-1.63l.15-.63c.54-2.24,1.08-4.48,1.6-6.73.2-.86.37-1.72.55-2.58.22-1.05.44-2.15.7-3.2.72-2.99,1.46-5.97,2.2-8.95.44-1.79.89-3.57,1.32-5.36l.12-.51c.69-2.82,1.41-5.73,2-8.62.14-.7.32-1.4.49-2.09l.09-.35c.09.04.18.09.27.14,2.59,1.5,5.19,3,7.78,4.5l1.23.71c1.33.77,2.7,1.56,4.03,2.37,4.37,2.68,9.26,5.45,15.36,8.72.98.53,1.96,1.06,2.94,1.6l2.11,1.16c.58.32,1.16.64,1.76.94.57.29,1.09.51,1.59.67,1.32.43,2.87-.18,3.53-1.39.67-1.22.34-2.82-.76-3.71-.33-.27-.71-.52-1.16-.76-2.69-1.46-5.38-2.91-8.07-4.35-3.49-1.87-7.6-4.11-11.57-6.49-4.93-2.95-10.2-6.09-15.5-9.11,2.89-1,5.99-2.15,9.72-3.6,1.58-.61,3.16-1.22,4.73-1.83,1.94-.75,3.88-1.5,5.82-2.26.6-.23,1.23-.52,1.87-.85.84-.43,1.39-1.19,1.61-2.21.15-.72,0-1.5-.43-2.12-.43-.62-1.09-1.05-1.83-1.16-.77-.13-1.55-.04-2.32.26l-1.24.47c-.65.25-1.31.49-1.96.74-1.36.52-2.72,1.05-4.08,1.58l-4.75,1.84c-1.52.59-3.04,1.18-4.57,1.75-.87.32-1.75.63-2.63.94-1.2.42-2.43.85-3.64,1.32-3.84,1.5-6.97,2.76-9.85,3.98-1.39.59-2.81,1.15-4.19,1.7-2.13.85-4.33,1.72-6.46,2.7-.95.43-1.9.86-2.85,1.28Z"/><path d="M53,313.86c2,.13,4.01.26,6.01.42.75.06,1.51.14,2.26.22,1.44.15,2.93.31,4.43.33.11,0,.21.02.32.03.12.02.23.03.35.04l.3.02c.92.07,1.84.14,2.76.2.77.05,1.53.09,2.3.12l1.09.06c.74.04,1.48.08,2.22.09,3.41.04,6.83.08,10.24.11l5.1.05c.92,0,1.79,0,2.64.21.2.05.4.07.6.07.54,0,1.07-.17,1.54-.49.68-.47,1.17-1.23,1.27-1.99l.09-.61c.11-.75.22-1.53.25-2.31.14-3.08.25-6.15.36-9.23l.08-2.28c.03-.71.04-1.43.06-1.96l.16-3.53c.13-2.53.24-4.9.35-7.26.06-1.38.1-2.77.13-4.15,0-.41,0-.89-.07-1.39-.15-.96-.68-1.74-1.54-2.25-1.18-.7-2.71-.43-3.57.64-.47.59-.74,1.21-.8,1.86-.05.56-.09,1.16-.12,1.84-.07,1.68-.13,3.36-.19,5.04l-.19,4.85c-.15,3.77-.3,7.55-.46,11.32-.07,1.67-.16,3.33-.24,5v.2c-.02.14-.03.29-.06.4-.05,0-.13,0-.21,0h-1.67c-1.9-.02-3.8-.03-5.7-.05-2.24-.03-4.59-.08-7.18-.16-1.91-.05-3.83-.14-5.74-.22-.15,0-.3-.04-.46-.07,0-.03,0-.07,0-.1l.03-1.45c.03-1.55.07-3.1.13-4.65.03-.79.07-1.58.1-2.38.11-2.58.23-5.26.25-7.9,0-.75.05-1.51.1-2.26.03-.5.06-.99.08-1.49.07-1.68.13-3.36.17-5.05.01-.55-.04-1.03-.15-1.46-.34-1.28-1.6-2.49-3.29-2.2-1.15.19-1.98.95-2.35,2.11-.15.47-.18.94-.2,1.43l-.06,1.2c-.12,2.66-.25,5.32-.34,7.98-.13,3.47-.24,6.94-.35,10.41l-.17,5.05c0,.11-.01.21-.03.32h-.08c-.27-.01-.53-.02-.79-.05-1.03-.14-2.06-.2-3.06-.27-.66-.04-1.33-.08-1.99-.15-1.84-.18-3.73-.3-5.78-.39-.09,0-.18-.01-.27-.02-.08,0-.17-.02-.25-.02l-1.34-.1c-.81-.06-1.62-.11-2.42-.18-1.45-.11-2.9-.24-4.36-.36h-.09c-.01-.28-.03-.56-.03-.83-.01-1.47.08-2.97.17-4.42l.07-1.1c.08-1.49.13-2.99.18-4.45.05-1.45.1-2.9.18-4.36.19-3.42.32-6.89.45-10.25l.13-3.25c.02-.5-.01-.97-.1-1.42-.21-1.13-1.19-2.08-2.33-2.25-1.21-.19-2.25.26-2.92,1.25-.4.59-.62,1.23-.65,1.89-.03.54-.07,1.08-.1,1.62-.05.78-.1,1.56-.14,2.34-.04,1-.07,2-.1,3-.03.98-.06,1.96-.1,2.94-.15,3.65-.31,7.31-.48,10.96-.03.66-.07,1.32-.11,1.98-.05.78-.09,1.56-.13,2.34-.04,1.07-.07,2.13-.1,3.2-.02.67-.04,1.35-.06,2.02-.04,1.06.29,2.05,1.03,3.13.62.91,1.49,1.45,2.59,1.61.2.03.41.04.61.05l2.37.16c1.47.1,2.95.2,4.42.31,1.64.12,3.29.23,4.93.33Z"/><path d="M107.5,371.54c1.68-.68,3.33-1.49,4.93-2.28l1.3-.64c.42-.2.82-.52,1.21-.95.58-.65.82-1.51.66-2.36-.16-.87-.71-1.6-1.5-2.01-.7-.36-1.4-.47-2.08-.31-.6.14-1.16.32-1.67.54-.47.21-.93.44-1.4.67-.35.17-.69.35-1.05.51-1.19.55-2.39,1.09-3.59,1.61-.49.21-.98.42-1.47.62-.73.3-1.46.61-2.18.94-2.3,1.06-4.6,2.13-6.9,3.2l-2.37,1.1.14-.66c.33-1.57.65-3.13,1.01-4.69l.3-1.32c1.22-5.3,2.48-10.79,3.88-16.13.48-1.84.89-3.73,1.29-5.56l.36-1.65c.55-2.51,1.1-5.03,1.64-7.54l.3-1.42c.2-.91.25-1.67.16-2.39-.11-.91-.64-1.69-1.45-2.14-.81-.45-1.75-.48-2.59-.09-.6.28-1.06.71-1.38,1.26-.37.66-.53,1.33-.69,2.09l-.47,2.26c-.36,1.71-.72,3.42-1.09,5.13l-.36,1.67c-.43,2.04-.88,4.14-1.42,6.19-.38,1.45-.74,2.91-1.1,4.37-.38,1.58-.77,3.16-1.15,4.74l-.92,3.82c-.79,3.24-1.46,6.5-1.97,8.97-.21,1.03-.47,2.08-.71,3.1l-.02.06s-.07-.04-.1-.06l-1.19-.64c-.93-.5-1.85-1-2.79-1.48-.96-.49-1.92-.97-2.88-1.46-1.18-.59-2.36-1.19-3.53-1.8-1.88-.98-3.77-2.01-5.6-3l-1.43-.78c-1.48-.8-3-1.62-4.48-2.47-4.24-2.43-7.76-4.26-11.07-5.74-.77-.34-1.57-.68-2.36-.98-.4-.15-.83-.25-1.24-.29-1.3-.11-2.62.7-3.06,1.9-.41,1.12-.03,2.47.94,3.27.24.2.48.36.73.49.28.14.56.26.85.38l.19.08c3.27,1.4,6.44,2.98,9.43,4.67l1.47.84c1.78,1.01,3.61,2.06,5.45,3.05,5.35,2.87,10.05,5.31,14.39,7.46.82.41,1.64.87,2.44,1.32l.4.23c-.83.48-1.65.94-2.49,1.39-4.28,2.27-8.97,4.61-14.77,7.36-.21.1-.44.17-.69.25-.2.06-.41.13-.61.21l-.11.04c-.43.17-.87.34-1.3.58-.73.41-1.18,1.1-1.32,1.99-.15.94.11,1.88.72,2.55.57.63,1.37.98,2.29.98.05,0,.1,0,.15,0,.72-.03,1.41-.19,2.03-.49l.56-.27c.78-.37,1.56-.74,2.35-1.09,2.65-1.17,5.27-2.49,7.8-3.77,1.23-.62,2.46-1.25,3.69-1.85.63-.31,1.24-.66,1.83-1l.26-.15c3.74-2.13,7.65-4.13,11.43-6.05l.14-.07c1.19-.61,2.44-1.18,3.64-1.73.68-.31,1.36-.62,2.03-.94,3-1.42,5.67-2.6,8.18-3.62Z"/><path d="M206.74,411.07c-.63-.72-1.57-1.09-2.5-.97-.94.12-1.76.71-2.19,1.57-.28.56-.45,1.17-.5,1.82-.16,1.86-.42,3.76-.68,5.59l-.16,1.13c-.13.93-.26,1.89-.43,2.83-.63,3.48-1.31,7.19-2.03,10.95l-.02.11c-.07.37-.14.75-.21.93-.19,0-.58-.07-.98-.14-.13-.02-.26-.05-.4-.08l-.28-.06c-.43-.09-.85-.18-1.28-.27-.97-.21-1.97-.42-2.97-.59-1.8-.31-4.18-.71-6.59-1.05-1.16-.16-2.34-.27-3.49-.38-.51-.05-1.03-.1-1.54-.15h-.05s-.05,0-.05,0c-.73.01-1.44.11-2.13.2-.38.05-.77.1-1.16.14-2.16.2-4.43.7-7.16,1.57-2.3.73-4.43,2.05-6.5,4.01-.87.82-1.58,1.74-2.12,2.72-1.03,1.86-1.68,3.51-2.04,5.2-.14.64-.21,1.28-.27,1.89-.04.34-.07.67-.12,1.01-.2,1.38-.17,2.85.08,4.51.44,2.94,1.75,5.45,3.89,7.47.85.8,1.81,1.49,2.92,2.1,1.63.9,3.3,1.67,4.98,2.32,2.03.78,4.13,1.39,6.16,1.98.65.19,1.3.38,1.94.57.7.21,1.42.33,2.12.44l.61.1c2.51.44,5.07.69,7.54.93l.55.05c.31.03.63.06.95.09,1.24.11,2.42.21,3.58.5.4.1.8.12,1.2.12.21,0,.42,0,.62-.02,1.5-.07,2.66-.82,3.36-2.18.24-.48.43-1.03.58-1.71.13-.6.21-1.21.29-1.8l.39-2.95c.17-1.28.34-2.57.51-3.85.04-.32.11-.64.17-.96.07-.39.15-.78.2-1.17.17-1.36.33-2.72.49-4.08.1-.84.2-1.68.3-2.52.04-.34.09-.68.14-1.01.09-.61.18-1.24.22-1.88.14-1.95.44-3.92.73-5.83.15-1.01.31-2.02.44-3.03.26-1.99.66-4,1.04-5.94.14-.72.28-1.43.42-2.15.64-3.38,1.23-7,1.92-11.74.15-1.03.26-2.06.36-3.06.04-.36.05-.74.03-1.19-.03-.76-.33-1.46-.87-2.08ZM197.11,441.07c.01.24.01.47-.01.68-.27,2.2-.54,4.39-.82,6.59l-.36,2.86c-.05.4-.1.8-.14,1.19-.08.73-.17,1.45-.27,2.18-.13.9-.27,1.79-.41,2.69l-.22,1.38c-.02.11-.04.22-.06.33-.06.31-.12.67-.12,1.04,0,.81-.12,1.61-.26,2.45-.08.48-.15.97-.21,1.49-.01,0-.03,0-.04,0-.54-.08-1.08-.15-1.62-.21-.14-.02-.29-.02-.43-.03-.1,0-.19,0-.29-.02-1.84-.2-3.69-.41-5.53-.61l-.87-.09c-.93-.1-1.89-.2-2.85-.39-1.23-.24-2.39-.47-3.53-.85-1.07-.36-2.16-.67-3.21-.98l-.76-.22c-2.04-.6-3.92-1.5-5.99-2.52-1-.5-1.88-1.17-2.61-2-.77-.87-1.21-1.79-1.36-2.8-.08-.57-.15-1.14-.22-1.69l-.08-.64c.04-.38.07-.75.1-1.12.06-.82.12-1.6.29-2.34.81-3.53,2.75-5.87,5.92-7.17,2.17-.88,4.46-1.31,6.61-1.63,2-.3,4.14-.26,6.57.13,2.36.38,4.73.77,7.09,1.16.72.12,1.43.26,2.15.4l.12.02c1.11.22,2.22.45,3.33.68.04,0,.08.02.11.03Z"/></svg>