<?xml version="1.0" encoding="UTF-8"?><svg id="Layer_1" xmlns="http://www.w3.org/2000/svg" viewBox="0 0 1840 1580.44"><defs><style>.cls-1{fill:#fff;}</style></defs><path id="background" d="M1838.94,1130.12c-2.11,21.17-21.09,21.82-37.89,23.69-58.01,6.73-117.72,6.17-175.89,11.2-14.52,1.3-29.53,2.51-43.32,7.06-101.9,200.55-285.17,360.21-511.19,399.15-92.89,15.98-188.22,9.65-280.46-7.06-212.96-38.62-416.03-146.68-526.85-337.82-10.71-18.34-19.47-37.64-29.77-56.22-15.25-4.22-31.64-5.11-47.46-6.08-34.72-2.27-69.53-2.19-104.17-4.06-14.6-.73-48.27-1.14-60.12-6.57-28.39-13.22-24.18-71.56-14.68-95.57,7.14-18.01,16.14-23.93,35.37-25.23,49-3.41,92.32,10.55,138.57,12.09,1.54,0,8.19.16,8.68-1.7l-10.22-50.95-67.34,10.95-4.54-18.33,68.39-14.77-4.62-43.57-72.77,6.08-1.95-19.15,73.75-8.11-2.03-47.54-75.12,3.08c-.65-.24-1.7-2.27-1.7-2.6v-16.71l77.88-2.03.97-43.4c-18.66-.49-39.27,1.38-57.44-3.81-10.3-2.92-22.55-9.9-19.47-22.07l78.94.57,4.06-39.51c-17.28-1.87-34.8-1.79-51.6-6.49-12.41-3.57-26.61-10.47-24.26-25.8,26.2,2.84,52.98,2.35,78.86,8.11l6.08-40.48c-17.52-2.11-61.98-7.79-70.18-25.39-2.03-4.46-1.79-8.19-1.62-13.06l76.83,14.12,9.01-42.35-70.66-21.34c-.65-5.44,4.79-9.41,9.41-11.28,20.12-8.11,48.92,3.65,68.39,10.3l12.17-40.4-65.63-26.45c3.25-15.74,28.8-11.6,40.56-8.76,11.93,3.08,22.88,9.01,34.24,12.9l14.68-38.45-60.28-31.8c12.33-17.36,41.13-5.35,56.71,1.95,2.6,1.3,13.63,8.68,15.09,7.63l18.17-36.75-53.46-35.45c9.57-12.17,28.72-5.68,40.73-.49,9.25,4.06,17.12,10.14,25.96,14.6l20.2-31.32c-13.87-11.03-41.62-27.91-38.37-48.51.49-2.92,2.35-5.84,4.54-7.71l49.49,35.37,24.66-30.99c0-1.62-16.87-16.39-19.55-19.55-7.54-8.68-16.87-21.09-11.84-33.02.81-1.78,2.68-6.25,5.27-4.87l44.86,36.83,31.96-29.77-39.51-42.35-.89-3.57c2.35-.41,4.62-2.19,6.98-2.68,17.04-3.41,40.97,19.63,51.27,31.8l33.75-24.18-36.91-48.51.49-2.51c10.95-6.25,23.93,1.95,32.37,9.09,9.49,7.95,16.87,18.17,24.74,27.66l31.88-19.06c-4.22-8.11-10.3-15.17-14.68-23.28-7.14-12.9-16.96-33.34-1.87-44.38l38.86,54.44,39.35-17.61-30.91-61.17-.41-1.46c.41-1.79,5.76-2.68,7.54-2.68,19.55.49,40.65,39.02,46.08,55.65l37.4-12.09c-4.79-9.9-10.14-19.71-13.95-30.02-5.27-14.6-14.6-42.92,5.76-48.84l31.56,70.66,39.27-9.01c-3-10.79-8.11-20.85-11.36-31.56-4.87-15.9-14.12-48.11,8.36-53.38l27.99,79.83,38.7-6c1.3-1.14-6.73-25.15-7.79-29.13-3.57-14.36-13.95-59.47,9.41-61.82,2.27-.24,1.14.16,1.46,1.38,5.6,18.17,11.28,38.94,15.5,57.36,2.19,9.65,4.46,19.31,4.71,29.12l43.48-4.06-12.09-92.97c13.22-.89,20.12,12.01,24.26,22.72,8.11,20.93,9.25,46.16,7.06,68.31l44.54-1.05-5.11-96.06,18.66-1.05c1.87.32,1.38,13.47,1.62,15.66,2.6,27.1,7.38,54.44,3,81.45l42.51,1.05c-3-22.31-3.73-46.32,2.03-68.15,3.16-11.93,9.25-27.75,23.2-28.96l-6,98.08,44.46,4.06c-2.68-21.82-.32-46.41,7.06-67.26,3.89-11.03,12.25-28.56,26.29-26.77l-14.04,95.97,42.43,6.17c.57-21.34,4.38-43.48,13.22-63.04,5.11-11.28,13.87-27.02,28.15-25.96l-21.26,93.54,41.46,9.57c5.92-30.67,19.96-58.74,30.42-87.94,21.17,4.46,13.39,33.02,9.09,48.03-4.71,16.23-12.49,31.23-18.25,47.05l39.43,12.09c3.33-21.09,21.42-64.9,41.21-74.64,2.68-1.38,15.01-4.62,13.95-.16l-35.94,82.91,39.51,15.74c11.52-26.77,28.8-50.14,42.92-75.45,2.27-2.92,7.22,2.6,8.6,4.54,8.19,12.01-2.51,34.48-8.6,46.08-6.08,11.68-13.95,22.47-20.93,33.67l.16,2.19,33.83,17.61c10.47-18.66,21.34-37.89,38.05-52,8.19-6.98,16.96-12.33,28.23-8.52l-46,72.77,34.4,22.23c11.11-17.52,32.78-47.87,53.71-53.54,4.54-1.22,19.15-2.76,13.95,4.95l-48.76,61.25,33.67,25.56,55.57-54.44,2.6-.57c3.49,3.65,5.11,7.22,5.11,12.25.41,20.77-29.69,45.27-43.4,58.82l28.72,27.58,58.09-48.03,1.46-.41c8.36,7.79,4.79,19.06-.65,27.58-9.74,15.5-26.2,26.2-39.75,38.13-.49.65,0,1.05.32,1.7,2.43,5.68,20.53,20.04,24.99,26.37,15.09-11.93,46.81-35.86,66.77-29.13,2.11.65,6.9,3.33,5.35,6l-56.3,40.65.24,1.95,24.58,31.15c1.78.57,12.9-7.54,15.82-9.09,12.41-6.81,34.48-16.87,48.43-12.74,2.19.65,10.06,4.38,6.81,7.3l-56.46,33.99v2.19l21.74,33.02c17.28-6.81,43.48-21.17,62.31-14.85,3,1.05,10.63,5.52,6.25,8.76l-55.98,27.99,20.61,38.62,56.95-19.8c3.08-1.22,4.14,4.14,4.22,6.49.32,19.39-35.29,32.37-50.46,36.83l14.12,38.37,59.71-15.09c4.87,26.77-31.48,33.51-50.46,39.43l9.01,36.26c14.52-1.22,28.15-4.22,42.84-1.87,8.36,1.46,18.5,4.38,20.85,13.55l-57.68,13.22,8.03,42.51,57.2-3.41c2.43.49,1.54,6.25,1.05,7.87-4.22,17.77-40.32,21.26-55.17,22.23l2.03,39.51,59.71,1.95,1.05,21.34-60.76.89-3,48.6,62.71,3v17.69l-1.54,1.54h-63.2l-6,43.4,64.66,8.19-2.11,19.15-66.53-4.87-8.19,39.27c10.22,2.03,20.53,3.57,30.5,6.41,13.95,3.89,36.99,10.87,35.13,29.04l-71.72-14.2-10.71,38.45c1.38,3.08,17.6,2.27,21.42,2.03,20.36-1.05,41.94-5.44,62.63-7.06,24.01-2.03,73.75-5.76,94.6,5.52,27.1,14.77,27.91,62.06,25.15,89Z"/><path id="stem" class="cls-1" d="M962.19,1534.62c-.41,10.87-.24,21.9-.89,32.86-10.3-.32-20.69.32-30.91.08-2.19-.08-4.14-.97-6-1.05-5.27-.24-36.83-.81-38.54-3-6.98-32.05-6.57-65.06-9.57-97.68-.41-28.88-2.11-57.68,2.11-86.4,11.2-1.78,22.55-.89,33.91-1.05,7.22-.08,12.49-.24,20.12,0,4.54.16,15.98-1.05,19.15,1.05,3.24,2.27,7.79,30.34,8.52,35.94,5.11,39.19,3.57,79.91,2.11,119.26Z"/><path id="left_grip" class="cls-1" d="M1827.99,1113.89c-.08,6.49-1.7,13.39-1.62,19.8-3.16,4.79-61.66,8.27-70.82,10.06l-256.28,18.17c4.14-26.53.97-54.44-4.95-80.48-.65-2.84-4.62-10.38-1.46-11.36l250.6-22.39c25.8-.24,69.36-8.44,79.91,23.28,3.57,10.87,4.62,31.32,4.62,42.92Z"/><path id="bars" class="cls-1" d="M1484.81,1152.59c-24.66,10.47-50.54,21.99-72.85,36.83-100.76,67.26-151.47,157.71-284.52,175.64-79.67,10.79-169.96-.24-251.74,1.14-82.99,1.3-167.12,11.52-245.49-23.36-87.21-38.86-141.16-122.67-224.48-168.91-15.41-8.52-31.23-16.23-47.22-23.53-4.62-7.14.49-58.57,4.14-61.17,19.88,6.33,40,14.36,58.9,23.36,118.45,55.65,162.26,178.81,308.69,193.98,85.02,8.84,178.16.16,264.8,2.03,62.23,1.46,127.29,7.87,186.84-14.44,102.95-38.45,158.61-148.3,257.99-192.03,5.27-2.27,38.54-15.09,41.05-12.9,4.87,20.36,11.36,42.84,3.89,63.36Z"/><path id="right_grip" class="cls-1" d="M344.4,1161.92l-123.88-7.06c-59.22-5.76-131.83.65-189.43-13.87-4.38-1.05-13.95-3.08-15.17-8.11.41-17.6-1.54-36.83.97-54.19,5.84-40.65,39.83-31.4,71.15-31.96l264.48,24.26c-11.11,28.8-9.9,60.68-8.11,90.94Z"/><path class="cls-1" d="M550.95,339.38h48.42c15.06,0,26.73,4.91,35.01,14.72,8.27,9.81,12.41,24.8,12.41,44.96,0,8.49-.37,15.25-1.12,20.29-.75,5.04-2.36,9.55-4.84,13.53s-5.3,7.39-8.44,10.21c-1.33,1.24-3.15,2.43-5.46,3.58-2.32,1.15-3.89,2.17-4.72,3.05-.83.89-1.24,2.92-1.24,6.1,0,4.42.54,8.67,1.61,12.73,1.07,4.07,2.52,6.99,4.35,8.75,1.82,1.77,3.64,2.65,5.46,2.65.99,0,2.03-.09,3.1-.27,1.07-.17,2.11-.4,3.1-.66s1.57-.4,1.74-.4c2.81,0,5.05,1.15,6.7,3.45,1.65,2.3,2.48,7.6,2.48,15.91l-.25,20.95c0,3.18-1.04,5.66-3.1,7.43-2.07,1.77-6,2.65-11.79,2.65-5.46,0-10.84-1.24-16.14-3.71-5.3-2.47-10.02-6.8-14.15-13-4.14-6.19-7.12-13.17-8.94-20.95-1.33-5.66-2.94-10.78-4.84-15.38-1.9-4.6-3.85-8-5.83-10.21-1.99-2.21-3.4-3.32-4.22-3.32-1.33,0-1.99,2.12-1.99,6.37v37.66c0,5.13-.37,9.2-1.12,12.2-.75,3.01-2.32,5.26-4.72,6.76-2.4,1.5-5.42,2.25-9.06,2.25h-17.38c-2.15,0-4.1-.7-5.83-2.12-1.74-1.41-2.85-3.67-3.35-6.76-.5-3.09-.75-7.2-.75-12.33v-145.88c0-5.13.37-9.19,1.12-12.2.75-3,2.32-5.26,4.72-6.76,2.4-1.5,5.42-2.25,9.06-2.25ZM589.43,375.18c-3.64,0-6.46.49-8.44,1.46-1.99.97-2.98,4.29-2.98,9.95l.25,15.12-.25,13.26c0,3.36.45,5.93,1.37,7.69.91,1.77,4.26,2.65,10.06,2.65,9.1,0,13.66-7.87,13.66-23.61,0-5.13-.54-9.85-1.61-14.19-1.08-4.33-2.73-7.47-4.97-9.42-2.23-1.94-4.59-2.92-7.08-2.92Z"/><path class="cls-1" d="M758.76,360.59c1.49,9.55,3.19,20.07,5.09,31.56,1.9,11.5,4.01,23.78,6.33,36.87,2.32,13.09,5.34,29.35,9.06,48.8,3.72,19.45,5.59,31.65,5.59,36.6,0,4.24-1.2,7.52-3.6,9.81-2.4,2.3-8.48,3.45-18.25,3.45h-13.16c-2.65,0-4.88-1.33-6.7-3.98-1.82-2.65-3.15-7.51-3.97-14.59-.83-7.07-1.45-11.71-1.86-13.92-.42-2.21-1.08-3.98-1.99-5.3-.91-1.33-1.95-1.99-3.1-1.99h-19.86c-1.49,0-2.77.93-3.85,2.78-1.08,1.86-2.07,5.79-2.98,11.8-.91,6.01-1.7,10.26-2.36,12.73-.66,2.48-1.33,4.51-1.99,6.1-.66,1.59-1.61,3.05-2.86,4.38-1.24,1.33-2.94,1.99-5.09,1.99h-11.67c-8.94,0-14.61-1.15-17.01-3.45-2.4-2.3-3.6-5.57-3.6-9.81,0-1.41.12-3.62.37-6.63.25-3,3.02-19.05,8.32-48.14,5.3-29.08,10.84-62.11,16.64-99.06,2.15-14.14,7.78-21.22,16.88-21.22h38.24c8.94,0,14.73,7.07,17.38,21.22ZM712.83,439.9l-.25,3.98c0,1.59.37,2.7,1.12,3.32.74.62,3.6.93,8.57.93,4.14,0,6.79-.22,7.95-.66,1.16-.44,1.74-1.55,1.74-3.32l-.25-4.24c-.5-4.24-1.28-12.42-2.36-24.53-1.08-12.11-2.15-20.73-3.23-25.86-1.08-5.13-2.36-7.69-3.85-7.69-1.33,0-2.61,2.48-3.85,7.43-1.24,4.95-2.44,14.37-3.6,28.25-1.16,13.88-1.82,21.35-1.99,22.41Z"/><path class="cls-1" d="M848.15,489.76l24.33-.53c3.64,0,6.49.89,8.57,2.65,2.07,1.77,3.1,5.48,3.1,11.14v3.45c0,5.13-.37,9.2-1.12,12.2-.75,3.01-2.32,5.26-4.72,6.76-2.4,1.5-5.42,2.25-9.06,2.25h-56.11c-3.64,0-6.67-.75-9.06-2.25-2.4-1.5-3.97-3.75-4.72-6.76-.74-3-1.12-7.07-1.12-12.2v-145.88c0-5.13.37-9.19,1.12-12.2.75-3,2.32-5.26,4.72-6.76,2.4-1.5,5.42-2.25,9.06-2.25h12.41c3.64,0,6.66.75,9.06,2.25,2.4,1.5,3.97,3.76,4.72,6.76.74,3.01,1.12,7.07,1.12,12.2v114.31c0,5.66.62,9.51,1.86,11.54,1.24,2.04,3.19,3.14,5.83,3.32Z"/><path class="cls-1" d="M938.27,460.59v18.57c.16,2.83,1.37,5,3.6,6.5,2.23,1.5,4.51,2.25,6.83,2.25l24.08-.53c4.97,0,8.48.84,10.55,2.52,2.07,1.68,3.1,4.55,3.1,8.62v18.57c0,3.01-.54,5.53-1.61,7.56-1.08,2.04-3.85,3.05-8.32,3.05h-65.55c-9.93,0-14.9-7.07-14.9-21.22v-145.88c0-5.13.37-9.19,1.12-12.2.75-3,2.32-5.26,4.72-6.76,2.4-1.5,5.42-2.25,9.06-2.25h64.06c3.31,0,6.08.71,8.32,2.12,2.24,1.42,3.35,3.36,3.35,5.83v22.54c0,2.12-.71,3.76-2.11,4.91-1.41,1.15-4.43,1.72-9.06,1.72l-23.59-.53c-3.15,0-5.88.4-8.19,1.19-2.32.8-3.81,2.12-4.47,3.98-.66,1.86-.99,4.73-.99,8.62,0,9.2.54,14.94,1.61,17.24,1.07,2.3,2.86,3.63,5.34,3.98,2.48.36,4.3.53,5.46.53l23.59-.53c2.81,0,5.05,1.06,6.7,3.18,1.65,2.12,2.48,5.13,2.48,9.02v16.97c0,2.65-.71,4.73-2.11,6.23-1.41,1.5-4.51,2.25-9.31,2.25l-25.82-.53c-3.64,0-5.88.84-6.7,2.52-.83,1.68-1.24,5-1.24,9.95Z"/><path class="cls-1" d="M1043.54,360.59v145.88c0,5.13-.37,9.2-1.12,12.2-.75,3.01-2.32,5.26-4.72,6.76-2.4,1.5-5.42,2.25-9.06,2.25h-12.41c-3.64,0-6.67-.75-9.06-2.25-2.4-1.5-3.97-3.75-4.72-6.76-.75-3-1.12-7.07-1.12-12.2v-145.88c0-5.13.37-9.19,1.12-12.2.74-3,2.32-5.26,4.72-6.76,2.4-1.5,5.42-2.25,9.06-2.25h12.41c3.64,0,6.66.75,9.06,2.25,2.4,1.5,3.97,3.76,4.72,6.76.75,3.01,1.12,7.07,1.12,12.2Z"/><path class="cls-1" d="M1137.65,478.62v-23.61c0-2.83-.58-4.95-1.74-6.37-1.16-1.41-3.64-2.12-7.45-2.12-2.82,0-5.05-.66-6.7-1.99-1.66-1.33-2.48-4.46-2.48-9.42v-2.65c0-8.84.29-14.59.87-17.24.58-2.65,1.82-4.24,3.72-4.77,1.9-.53,4.35-.8,7.33-.8h35.5c2.32,0,4.67.49,7.08,1.46,2.4.97,3.6,4.02,3.6,9.15v82.75c0,8.84-2.77,15.38-8.32,19.63-5.55,4.24-15.52,6.37-29.92,6.37-13.58,0-25.54-2.21-35.88-6.63-10.35-4.42-18.87-10.65-25.57-18.7-6.7-8.04-11.88-17.94-15.52-29.71-3.64-11.76-5.46-25.86-5.46-42.3,0-21.92,3.56-39.78,10.68-53.58,7.12-13.79,16.39-23.91,27.81-30.37,11.42-6.45,24-9.68,37.74-9.68,12.91,0,22.18.84,27.81,2.52,5.63,1.68,8.44,4.55,8.44,8.62v20.95c0,4.24-2.4,6.37-7.2,6.37-2.15,0-6.17-.57-12.04-1.72-5.88-1.15-10.72-1.72-14.52-1.72-7.12,0-13.37,2.52-18.75,7.56-5.38,5.04-9.48,12.38-12.29,22.01-2.82,9.64-4.22,19.06-4.22,28.25,0,12.91,1.2,23.92,3.6,33.02,2.4,9.11,5.79,15.83,10.18,20.16,4.38,4.33,9.47,6.5,15.27,6.5s8.44-3.98,8.44-11.94Z"/><path class="cls-1" d="M1233.98,360.59v33.15c0,5.66.29,9.37.87,11.14.58,1.77,1.94,2.79,4.1,3.05,2.15.27,5.05.4,8.69.4,5.29,0,8.77-.31,10.43-.93,1.65-.62,2.61-1.99,2.86-4.11s.37-5.04.37-8.75v-33.95c0-5.13.37-9.19,1.12-12.2.74-3,2.32-5.26,4.72-6.76,2.4-1.5,5.42-2.25,9.06-2.25h12.41c3.64,0,6.66.75,9.06,2.25,2.4,1.5,3.97,3.76,4.72,6.76.75,3.01,1.12,7.07,1.12,12.2v145.88c0,5.13-.37,9.2-1.12,12.2-.75,3.01-2.32,5.26-4.72,6.76-2.4,1.5-5.42,2.25-9.06,2.25h-12.41c-3.64,0-6.67-.75-9.06-2.25-2.4-1.5-3.97-3.75-4.72-6.76-.75-3-1.12-7.07-1.12-12.2v-39.78c0-6.72-.37-11.27-1.12-13.66-.74-2.39-2.2-3.8-4.34-4.24-2.15-.44-4.88-.66-8.19-.66h-2.73c-3.48,0-5.88.27-7.2.8-1.33.53-2.28,1.77-2.86,3.71-.58,1.95-.87,4.95-.87,9.02v44.82c0,5.13-.37,9.2-1.12,12.2-.75,3.01-2.32,5.26-4.72,6.76-2.4,1.5-5.42,2.25-9.06,2.25h-12.41c-3.64,0-6.67-.75-9.06-2.25-2.4-1.5-3.97-3.75-4.72-6.76-.75-3-1.12-7.07-1.12-12.2v-145.88c0-5.13.37-9.19,1.12-12.2.74-3,2.32-5.26,4.72-6.76,2.4-1.5,5.42-2.25,9.06-2.25h12.41c3.64,0,6.66.75,9.06,2.25,2.4,1.5,3.97,3.76,4.72,6.76.75,3.01,1.12,7.07,1.12,12.2Z"/><path class="cls-1" d="M381.24,674.01c0-30.24,6.58-53.27,19.74-69.09,13.16-15.82,31.99-23.74,56.49-23.74,2.98,0,5.3.75,6.95,2.25,1.65,1.5,2.48,3.58,2.48,6.23v23.34c0,2.48-.79,4.2-2.36,5.17-1.58.97-3.93,1.46-7.08,1.46l-7.95-.53c-7.78,0-13.66,4.91-17.63,14.72s-5.96,23.39-5.96,40.71c0,8.31.5,16.18,1.49,23.61.99,7.43,2.4,13.62,4.22,18.57,1.82,4.95,4.14,8.89,6.95,11.8,2.81,2.92,6.12,4.38,9.93,4.38l8.94-.53c6.29,0,9.44,4.07,9.44,12.2v17.77c0,6.54-3.15,9.81-9.44,9.81-24.67,0-43.54-8.26-56.61-24.8-13.08-16.53-19.62-40.98-19.62-73.34Z"/><path class="cls-1" d="M480.3,676.66l-.25-21.48c0-15.56.87-27.67,2.61-36.34,1.74-8.66,4.88-15.91,9.44-21.75,4.55-5.83,10.72-9.95,18.5-12.33,7.78-2.39,16.3-3.58,25.57-3.58s16.59,1.02,22.97,3.05c6.37,2.03,11.83,5.22,16.39,9.55,4.55,4.33,8.03,10.79,10.43,19.36,2.4,8.58,3.6,22.24,3.6,40.98l.74,45.62c0,17.86-1.58,31.74-4.72,41.64-3.15,9.9-8.61,17.51-16.39,22.81-7.78,5.3-18.79,7.96-33.02,7.96-12.41,0-22.47-1.81-30.17-5.44-7.7-3.62-13.41-8.62-17.13-14.99-3.72-6.37-6.13-13.79-7.2-22.28-1.08-8.49-1.61-18.83-1.61-31.03l.25-21.75ZM534.93,618.31c-4.14,0-7.12.89-8.94,2.65-1.82,1.77-2.86,3.8-3.1,6.1-.25,2.3-.37,4.24-.37,5.83v83.55c0,7.25,1.03,12.16,3.1,14.72,2.07,2.57,5.17,3.85,9.31,3.85s7.24-1.28,9.31-3.85c2.07-2.56,3.1-7.47,3.1-14.72v-83.55c0-4.6-.58-7.91-1.74-9.95-1.16-2.03-2.86-3.32-5.09-3.85-2.23-.53-4.1-.8-5.59-.8Z"/><path class="cls-1" d="M681.17,644.3l18.62-46.95c1.82-4.77,4.05-8.44,6.7-11.01,2.65-2.56,7.12-3.85,13.41-3.85h13.41c3.64,0,6.66.75,9.06,2.25,2.4,1.5,3.97,3.76,4.72,6.76.74,3.01,1.12,7.07,1.12,12.2v145.88c0,5.13-.37,9.2-1.12,12.2-.75,3.01-2.32,5.26-4.72,6.76-2.4,1.5-5.42,2.25-9.06,2.25h-12.41c-3.64,0-6.67-.75-9.06-2.25-2.4-1.5-3.97-3.75-4.72-6.76-.74-3-1.12-7.07-1.12-12.2v-72.94c0-1.77-.42-2.65-1.24-2.65-.66,0-1.41.89-2.23,2.65-1.49,3.18-3.02,6.5-4.59,9.95-1.58,3.45-4.31,9.64-8.19,18.57-3.89,8.93-6.62,14.15-8.19,15.65-1.58,1.5-3.35,2.25-5.34,2.25-2.48,0-4.55-1.06-6.21-3.18-1.66-2.12-4.64-8.18-8.94-18.17-4.31-9.99-8.03-18.34-11.17-25.06-.5-1.06-1.24-1.94-2.23-2.65-.83,0-1.24.89-1.24,2.65v72.94c0,5.13-.37,9.2-1.12,12.2-.75,3.01-2.32,5.26-4.72,6.76-2.4,1.5-5.42,2.25-9.06,2.25h-12.41c-3.64,0-6.67-.75-9.06-2.25-2.4-1.5-3.97-3.75-4.72-6.76-.74-3-1.12-7.07-1.12-12.2v-145.88c0-5.13.37-9.19,1.12-12.2.75-3,2.32-5.26,4.72-6.76,2.4-1.5,5.42-2.25,9.06-2.25h13.16c5.13,0,9.19.93,12.17,2.79,2.98,1.86,5.71,5.88,8.19,12.07l18.62,46.95c1.99,4.95,3.64,7.43,4.97,7.43s2.98-2.47,4.97-7.43Z"/><path class="cls-1" d="M840.32,644.3l18.62-46.95c1.82-4.77,4.05-8.44,6.7-11.01,2.65-2.56,7.12-3.85,13.41-3.85h13.41c3.64,0,6.66.75,9.06,2.25,2.4,1.5,3.97,3.76,4.72,6.76.74,3.01,1.12,7.07,1.12,12.2v145.88c0,5.13-.37,9.2-1.12,12.2-.75,3.01-2.32,5.26-4.72,6.76-2.4,1.5-5.42,2.25-9.06,2.25h-12.41c-3.64,0-6.67-.75-9.06-2.25-2.4-1.5-3.97-3.75-4.72-6.76-.74-3-1.12-7.07-1.12-12.2v-72.94c0-1.77-.42-2.65-1.24-2.65-.66,0-1.41.89-2.23,2.65-1.49,3.18-3.02,6.5-4.59,9.95-1.58,3.45-4.31,9.64-8.19,18.57-3.89,8.93-6.62,14.15-8.19,15.65-1.58,1.5-3.35,2.25-5.34,2.25-2.48,0-4.55-1.06-6.21-3.18-1.66-2.12-4.64-8.18-8.94-18.17-4.31-9.99-8.03-18.34-11.17-25.06-.5-1.06-1.24-1.94-2.23-2.65-.83,0-1.24.89-1.24,2.65v72.94c0,5.13-.37,9.2-1.12,12.2-.75,3.01-2.32,5.26-4.72,6.76-2.4,1.5-5.42,2.25-9.06,2.25h-12.41c-3.64,0-6.67-.75-9.06-2.25-2.4-1.5-3.97-3.75-4.72-6.76-.74-3-1.12-7.07-1.12-12.2v-145.88c0-5.13.37-9.19,1.12-12.2.75-3,2.32-5.26,4.72-6.76,2.4-1.5,5.42-2.25,9.06-2.25h13.16c5.13,0,9.19.93,12.17,2.79,2.98,1.86,5.71,5.88,8.19,12.07l18.62,46.95c1.99,4.95,3.64,7.43,4.97,7.43s2.98-2.47,4.97-7.43Z"/><path class="cls-1" d="M1031.5,603.46v113.52c0,12.03-.83,21.26-2.48,27.72-1.66,6.46-4.64,11.76-8.94,15.91-4.31,4.16-10.14,7.12-17.5,8.89-7.37,1.77-15.52,2.65-24.46,2.65-9.44,0-17.5-.75-24.21-2.25-6.7-1.5-12.41-3.89-17.13-7.16-4.72-3.27-8.36-8.26-10.92-14.99-2.57-6.72-3.85-17.59-3.85-32.62l.25-111.4c0-5.13.37-9.19,1.12-12.2.75-3,2.32-5.26,4.72-6.76,2.4-1.5,5.42-2.25,9.06-2.25h12.42c3.64,0,6.66.75,9.06,2.25,2.4,1.5,3.97,3.76,4.72,6.76.74,3.01,1.12,7.07,1.12,12.2v116.7c0,3.89.29,6.72.87,8.49.58,1.77,1.86,3.23,3.85,4.38,1.99,1.15,4.97,1.72,8.94,1.72s6.49-.8,8.07-2.39c1.57-1.59,2.48-3.4,2.73-5.44.25-2.03.37-4.29.37-6.76v-116.97c0-4.95.37-8.93,1.12-11.94.75-3,2.32-5.26,4.72-6.76,2.4-1.5,5.42-2.25,9.06-2.25h12.41c3.64,0,6.66.75,9.06,2.25,2.4,1.5,3.97,3.76,4.72,6.76.75,3.01,1.12,6.99,1.12,11.94Z"/><path class="cls-1" d="M1120.89,664.73c.66,1.77,1.4,2.65,2.23,2.65s1.24-.88,1.24-2.65v-61c0-5.13.37-9.19,1.12-12.2.75-3,2.32-5.26,4.72-6.76,2.4-1.5,5.42-2.25,9.06-2.25h12.42c3.64,0,6.66.75,9.06,2.25,2.4,1.5,3.97,3.76,4.72,6.76.74,3.01,1.12,7.07,1.12,12.2v145.88c0,5.13-.37,9.2-1.12,12.2-.75,3.01-2.32,5.26-4.72,6.76-2.4,1.5-5.42,2.25-9.06,2.25-5.3,0-9.93-.31-13.9-.93-3.97-.62-6.87-1.77-8.69-3.45-1.82-1.68-3.48-4.29-4.97-7.82l-33.02-76.65-1.99-2.65c-.66,0-.99.89-.99,2.65l.25,67.63c0,5.13-.37,9.2-1.12,12.2-.75,3.01-2.32,5.26-4.72,6.76-2.4,1.5-5.42,2.25-9.06,2.25h-12.41c-3.64,0-6.67-.75-9.06-2.25-2.4-1.5-3.97-3.75-4.72-6.76-.75-3-1.12-7.07-1.12-12.2v-145.88c0-5.13.37-9.19,1.12-12.2.74-3,2.32-5.26,4.72-6.76,2.4-1.5,5.42-2.25,9.06-2.25h13.16c3.14,0,5.83.36,8.07,1.06,2.23.71,4.43,3.45,6.58,8.22l32.03,72.94Z"/><path class="cls-1" d="M1223.93,603.72v145.88c0,5.13-.37,9.2-1.12,12.2-.75,3.01-2.32,5.26-4.72,6.76-2.4,1.5-5.42,2.25-9.06,2.25h-12.41c-3.64,0-6.67-.75-9.06-2.25-2.4-1.5-3.97-3.75-4.72-6.76-.75-3-1.12-7.07-1.12-12.2v-145.88c0-5.13.37-9.19,1.12-12.2.74-3,2.32-5.26,4.72-6.76,2.4-1.5,5.42-2.25,9.06-2.25h12.41c3.64,0,6.66.75,9.06,2.25,2.4,1.5,3.97,3.76,4.72,6.76.75,3.01,1.12,7.07,1.12,12.2Z"/><path class="cls-1" d="M1304.12,628.39v123.07c-.33,8.14-1.74,13.39-4.22,15.78-2.48,2.39-6.04,3.58-10.68,3.58h-12.41c-3.64,0-6.67-.75-9.06-2.25-2.4-1.5-3.97-3.75-4.72-6.76-.75-3-1.12-7.07-1.12-12.2v-121.21c0-2.47-.29-4.46-.87-5.97-.58-1.5-2.44-2.25-5.59-2.25l-7.2.27c-3.48,0-6.21-.53-8.19-1.59s-2.98-3-2.98-5.84v-22.54c0-2.47,1.12-4.42,3.35-5.83,2.23-1.41,5-2.12,8.32-2.12h68.53c3.31,0,6.08.71,8.32,2.12,2.23,1.42,3.35,3.36,3.35,5.83v22.54c0,2.12-.75,3.89-2.23,5.3-1.49,1.42-4.47,2.12-8.94,2.12l-6.95-.27c-2.32,0-4.02.36-5.09,1.06-1.08.71-1.61,3.1-1.61,7.16Z"/><path class="cls-1" d="M1404.43,770.82h-12.42c-3.64,0-6.67-.75-9.06-2.25-2.4-1.5-3.97-3.75-4.72-6.76-.75-3-1.12-7.07-1.12-12.2v-40.05c0-4.77-1.49-12.29-4.47-22.54-2.98-10.25-7.29-22.28-12.91-36.07l-.75-1.86c-3.15-7.78-7.2-18.87-12.17-33.29-4.97-14.41-7.45-23.21-7.45-26.39,0-4.6,2.4-6.9,7.2-6.9h28.31c2.65,0,4.97,1.46,6.95,4.38s3.81,8.53,5.46,16.84c.66,3.36,2.56,10.92,5.71,22.68,3.14,11.76,4.72,17.73,4.72,17.9.33,1.95,1.16,2.92,2.48,2.92,1.49,0,2.32-.88,2.48-2.65.16-.88,3.39-14.5,9.68-40.85,1.82-8.31,3.89-13.92,6.21-16.84,2.32-2.92,4.97-4.38,7.95-4.38h22.1c4.14,0,6.87.36,8.19,1.06,1.32.71,1.99,2.65,1.99,5.83,0,3.36-2.48,12.38-7.45,27.05-4.97,14.68-8.94,25.55-11.92,32.62l-11.67,31.3c-2.98,8.14-5.13,14.63-6.46,19.49-1.33,4.87-1.99,13.92-1.99,27.19v23.61c0,4.95-.37,8.84-1.12,11.67-.74,2.83-2.32,4.95-4.72,6.37-2.4,1.42-5.42,2.12-9.06,2.12Z"/><path class="cls-1" d="M503.89,914.75c22.18,52.16,33.52,82.58,34.02,91.24,0,2.48-1.08,4.42-3.23,5.83-2.15,1.42-5.38,2.12-9.68,2.12h-12.91c-7.45,0-12.33-1.19-14.65-3.58-2.32-2.39-4.88-8.18-7.7-17.37-1.99-6.01-4.93-15.69-8.81-29.04-3.89-13.35-6.75-21.62-8.57-24.8-1.82-3.18-3.56-4.77-5.21-4.77-1.33,0-1.99,1.95-1.99,5.83l.5,12.73v39.78c0,5.13-.37,9.2-1.12,12.2-.75,3.01-2.32,5.26-4.72,6.76-2.4,1.5-5.42,2.25-9.06,2.25h-12.41c-3.64,0-6.67-.75-9.06-2.25-2.4-1.5-3.97-3.75-4.72-6.76-.74-3-1.12-7.07-1.12-12.2v-145.88c0-5.13.37-9.19,1.12-12.2.75-3,2.32-5.26,4.72-6.76,2.4-1.5,5.42-2.25,9.06-2.25h12.41c3.64,0,6.66.75,9.06,2.25,2.4,1.5,3.97,3.76,4.72,6.76.74,3.01,1.12,7.07,1.12,12.2,0,23.34.04,37,.12,40.98.08,3.98.45,5.97,1.12,5.97.83,0,1.9-.66,3.23-1.99,1.32-1.33,2.89-4.2,4.72-8.62,1.82-4.42,3.68-9.81,5.59-16.18,1.9-6.37,3.02-9.99,3.35-10.87.83-2.12,2.36-6.23,4.59-12.33,2.23-6.1,4.01-10.12,5.34-12.07,1.32-1.94,2.81-3.45,4.47-4.51,1.65-1.06,4.05-1.59,7.2-1.59h14.4c6.62,0,10.84.62,12.66,1.86,1.82,1.24,2.73,3.1,2.73,5.57,0,3.36-1.41,8.05-4.22,14.06-2.65,5.83-8.28,17.33-16.88,34.48-8.61,17.15-12.91,25.99-12.91,26.52,0,.18.91,2.39,2.73,6.63Z"/><path class="cls-1" d="M594.77,846.85v145.88c0,5.13-.37,9.2-1.12,12.2-.75,3.01-2.32,5.26-4.72,6.76-2.4,1.5-5.42,2.25-9.06,2.25h-12.41c-3.64,0-6.67-.75-9.06-2.25-2.4-1.5-3.97-3.75-4.72-6.76-.74-3-1.12-7.07-1.12-12.2v-145.88c0-5.13.37-9.19,1.12-12.2.75-3,2.32-5.26,4.72-6.76,2.4-1.5,5.42-2.25,9.06-2.25h12.41c3.64,0,6.66.75,9.06,2.25,2.4,1.5,3.97,3.76,4.72,6.76.74,3.01,1.12,7.07,1.12,12.2Z"/><path class="cls-1" d="M607.92,917.14c0-30.24,6.58-53.27,19.74-69.09,13.16-15.82,31.99-23.74,56.49-23.74,2.98,0,5.3.75,6.95,2.25,1.65,1.5,2.48,3.58,2.48,6.23v23.34c0,2.48-.79,4.2-2.36,5.17-1.58.97-3.93,1.46-7.08,1.46l-7.95-.53c-7.78,0-13.66,4.91-17.63,14.72s-5.96,23.39-5.96,40.71c0,8.31.5,16.18,1.49,23.61.99,7.43,2.4,13.62,4.22,18.57,1.82,4.95,4.14,8.89,6.95,11.8,2.81,2.92,6.12,4.38,9.93,4.38l8.94-.53c6.29,0,9.44,4.07,9.44,12.2v17.77c0,6.54-3.15,9.81-9.44,9.81-24.67,0-43.54-8.26-56.61-24.8-13.08-16.53-19.62-40.98-19.62-73.34Z"/><path class="cls-1" d="M788.18,914.75c22.18,52.16,33.52,82.58,34.02,91.24,0,2.48-1.08,4.42-3.23,5.83-2.15,1.42-5.38,2.12-9.68,2.12h-12.91c-7.45,0-12.33-1.19-14.65-3.58-2.32-2.39-4.88-8.18-7.7-17.37-1.99-6.01-4.93-15.69-8.81-29.04-3.89-13.35-6.75-21.62-8.57-24.8-1.82-3.18-3.56-4.77-5.21-4.77-1.33,0-1.99,1.95-1.99,5.83l.5,12.73v39.78c0,5.13-.37,9.2-1.12,12.2-.75,3.01-2.32,5.26-4.72,6.76-2.4,1.5-5.42,2.25-9.06,2.25h-12.41c-3.64,0-6.67-.75-9.06-2.25-2.4-1.5-3.97-3.75-4.72-6.76-.74-3-1.12-7.07-1.12-12.2v-145.88c0-5.13.37-9.19,1.12-12.2.75-3,2.32-5.26,4.72-6.76,2.4-1.5,5.42-2.25,9.06-2.25h12.41c3.64,0,6.66.75,9.06,2.25,2.4,1.5,3.97,3.76,4.72,6.76.74,3.01,1.12,7.07,1.12,12.2,0,23.34.04,37,.12,40.98.08,3.98.45,5.97,1.12,5.97.83,0,1.9-.66,3.23-1.99,1.32-1.33,2.89-4.2,4.72-8.62,1.82-4.42,3.68-9.81,5.59-16.18,1.9-6.37,3.02-9.99,3.35-10.87.83-2.12,2.36-6.23,4.59-12.33,2.23-6.1,4.01-10.12,5.34-12.07,1.32-1.94,2.81-3.45,4.47-4.51,1.65-1.06,4.05-1.59,7.2-1.59h14.4c6.62,0,10.84.62,12.66,1.86,1.82,1.24,2.73,3.1,2.73,5.57,0,3.36-1.41,8.05-4.22,14.06-2.65,5.83-8.28,17.33-16.88,34.48-8.61,17.15-12.91,25.99-12.91,26.52,0,.18.91,2.39,2.73,6.63Z"/><path class="cls-1" d="M837.09,880.54c0-17.68,3.89-31.47,11.67-41.38,7.78-9.9,21.02-14.85,39.73-14.85,10.43,0,18.78,1.02,25.08,3.05,6.29,2.03,9.43,4.82,9.43,8.35v20.42c0,5.3-3.15,7.96-9.43,7.96h-1.99c-.99,0-3.97-.48-8.94-1.46-4.97-.97-8.69-1.46-11.17-1.46-7.12,0-10.68,3.54-10.68,10.61,0,4.07.78,7.56,2.36,10.48,1.57,2.92,4.76,6.41,9.56,10.48,12.25,10.79,21.23,21.18,26.94,31.17,5.71,9.99,8.57,21.62,8.57,34.88,0,6.9-.37,13.04-1.12,18.43-.74,5.4-2.61,10.48-5.59,15.25-2.82,4.42-6.5,8.4-11.05,11.94-4.55,3.54-9.73,6.19-15.52,7.96-6.95,1.94-14.9,2.92-23.84,2.92-10.1,0-18.66-1.19-25.7-3.58-7.04-2.39-10.55-5.97-10.55-10.74v-20.42c0-1.77.75-3.27,2.23-4.51,1.49-1.24,3.81-1.86,6.95-1.86,1.49,0,4.88.66,10.18,1.99,5.3,1.33,10.59,1.99,15.89,1.99,1.65,0,3.72-.44,6.21-1.33,2.48-.88,4.8-2.52,6.95-4.91,2.15-2.39,3.23-4.99,3.23-7.82,0-2.65-.37-5.13-1.12-7.43-.75-2.3-2.36-5.08-4.84-8.35-2.48-3.27-5.63-6.85-9.44-10.74-10.43-10.96-17.67-18.96-21.73-24-4.06-5.04-7.12-10.17-9.19-15.38-2.07-5.21-3.1-11.09-3.1-17.64Z"/><path class="cls-1" d="M1006.42,871.52v123.07c-.33,8.14-1.74,13.39-4.22,15.78-2.48,2.39-6.04,3.58-10.68,3.58h-12.41c-3.64,0-6.67-.75-9.06-2.25-2.4-1.5-3.97-3.75-4.72-6.76-.75-3-1.12-7.07-1.12-12.2v-121.21c0-2.47-.29-4.46-.87-5.97-.58-1.5-2.44-2.25-5.59-2.25l-7.2.27c-3.48,0-6.21-.53-8.19-1.59s-2.98-3-2.98-5.84v-22.54c0-2.47,1.12-4.42,3.35-5.83,2.23-1.41,5-2.12,8.32-2.12h68.53c3.31,0,6.08.71,8.32,2.12,2.23,1.42,3.35,3.36,3.35,5.83v22.54c0,2.12-.75,3.89-2.23,5.3-1.49,1.42-4.47,2.12-8.94,2.12l-6.95-.27c-2.32,0-4.02.36-5.09,1.06-1.08.71-1.61,3.1-1.61,7.16Z"/><path class="cls-1" d="M1127.84,846.85c1.49,9.55,3.19,20.07,5.09,31.56,1.9,11.5,4.01,23.78,6.33,36.87,2.32,13.09,5.34,29.35,9.06,48.8,3.72,19.45,5.59,31.65,5.59,36.6,0,4.24-1.2,7.52-3.6,9.81-2.4,2.3-8.48,3.45-18.25,3.45h-13.16c-2.65,0-4.88-1.33-6.7-3.98-1.82-2.65-3.15-7.51-3.97-14.59-.83-7.07-1.45-11.71-1.86-13.92-.42-2.21-1.08-3.98-1.99-5.3-.91-1.33-1.95-1.99-3.1-1.99h-19.86c-1.49,0-2.77.93-3.85,2.79-1.08,1.86-2.07,5.79-2.98,11.8-.91,6.01-1.7,10.26-2.36,12.73-.66,2.48-1.33,4.51-1.99,6.1-.66,1.59-1.61,3.05-2.86,4.38-1.24,1.33-2.94,1.99-5.09,1.99h-11.67c-8.94,0-14.61-1.15-17.01-3.45-2.4-2.3-3.6-5.57-3.6-9.81,0-1.41.12-3.62.37-6.63.25-3,3.02-19.05,8.32-48.14,5.29-29.08,10.84-62.11,16.63-99.06,2.15-14.14,7.78-21.22,16.88-21.22h38.24c8.94,0,14.73,7.07,17.38,21.22ZM1081.91,926.16l-.25,3.98c0,1.59.37,2.7,1.12,3.32.75.62,3.6.93,8.57.93,4.13,0,6.79-.22,7.95-.66,1.16-.44,1.74-1.55,1.74-3.32l-.25-4.24c-.5-4.24-1.28-12.42-2.36-24.53-1.08-12.11-2.15-20.73-3.23-25.86-1.08-5.13-2.36-7.69-3.85-7.69-1.33,0-2.61,2.48-3.85,7.43-1.24,4.95-2.44,14.37-3.6,28.25-1.16,13.88-1.82,21.35-1.99,22.41Z"/><path class="cls-1" d="M1242.05,907.86c.66,1.77,1.4,2.65,2.23,2.65s1.24-.88,1.24-2.65v-61c0-5.13.37-9.19,1.12-12.2.75-3,2.32-5.26,4.72-6.76,2.4-1.5,5.42-2.25,9.06-2.25h12.42c3.64,0,6.66.75,9.06,2.25,2.4,1.5,3.97,3.76,4.72,6.76.74,3.01,1.12,7.07,1.12,12.2v145.88c0,5.13-.37,9.2-1.12,12.2-.75,3.01-2.32,5.26-4.72,6.76-2.4,1.5-5.42,2.25-9.06,2.25-5.3,0-9.93-.31-13.9-.93-3.97-.62-6.87-1.76-8.69-3.45-1.82-1.68-3.48-4.29-4.97-7.82l-33.02-76.65-1.99-2.65c-.66,0-.99.89-.99,2.65l.25,67.63c0,5.13-.37,9.2-1.12,12.2-.75,3.01-2.32,5.26-4.72,6.76-2.4,1.5-5.42,2.25-9.06,2.25h-12.41c-3.64,0-6.67-.75-9.06-2.25-2.4-1.5-3.97-3.75-4.72-6.76-.75-3-1.12-7.07-1.12-12.2v-145.88c0-5.13.37-9.19,1.12-12.2.74-3,2.32-5.26,4.72-6.76,2.4-1.5,5.42-2.25,9.06-2.25h13.16c3.14,0,5.83.36,8.07,1.06,2.23.71,4.43,3.45,6.58,8.22l32.03,72.94Z"/><path class="cls-1" d="M1317.78,825.63h37.24c16.22,0,28.84,3.32,37.86,9.95,9.02,6.63,15.31,16.31,18.87,29.04,3.56,12.73,5.34,31.12,5.34,55.17,0,15.56-.66,28.74-1.99,39.52-1.33,10.79-4.02,20.29-8.07,28.51-4.06,8.22-10.35,14.63-18.87,19.23-8.53,4.6-19.58,6.9-33.15,6.9h-37.24c-3.64,0-6.67-.75-9.06-2.25-2.4-1.5-3.97-3.75-4.72-6.76-.75-3-1.12-7.07-1.12-12.2v-145.88c0-5.13.37-9.19,1.12-12.2.74-3,2.32-5.26,4.72-6.76,2.4-1.5,5.42-2.25,9.06-2.25ZM1350.06,861.44c-1.66,0-2.94.44-3.85,1.33-.91.89-1.37,3.18-1.37,6.9l.25,93.89c0,4.07.33,7.29.99,9.68.66,2.39,1.99,3.58,3.97,3.58,4.63,0,8.44-1.19,11.42-3.58,2.98-2.39,5.13-6.98,6.46-13.79,1.32-6.8,1.99-20.46,1.99-40.98,0-15.91-.5-27.54-1.49-34.88-.99-7.33-2.9-12.86-5.71-16.58-2.82-3.71-7.04-5.57-12.66-5.57Z"/></svg>