<?xml version="1.0" encoding="UTF-8"?>
<svg id="Layer_1" data-name="Layer 1" xmlns="http://www.w3.org/2000/svg" viewBox="0 0 1840 1580.44">
  <path d="M1100.78,926.15c-.5-4.24-1.29-12.42-2.36-24.53-1.08-12.11-2.16-20.73-3.23-25.86-1.08-5.13-2.36-7.69-3.85-7.69-1.33,0-2.61,2.47-3.85,7.42-1.24,4.96-2.44,14.37-3.6,28.25-1.16,13.88-1.82,21.35-1.98,22.41l-.25,3.98c0,1.59.37,2.7,1.12,3.32.74.62,3.6.92,8.56.92,4.14,0,6.79-.21,7.95-.66,1.15-.44,1.73-1.54,1.73-3.31l-.24-4.25ZM1100.78,926.15c-.5-4.24-1.29-12.42-2.36-24.53-1.08-12.11-2.16-20.73-3.23-25.86-1.08-5.13-2.36-7.69-3.85-7.69-1.33,0-2.61,2.47-3.85,7.42-1.24,4.96-2.44,14.37-3.6,28.25-1.16,13.88-1.82,21.35-1.98,22.41l-.25,3.98c0,1.59.37,2.7,1.12,3.32.74.62,3.6.92,8.56.92,4.14,0,6.79-.21,7.95-.66,1.15-.44,1.73-1.54,1.73-3.31l-.24-4.25ZM1100.78,926.15c-.5-4.24-1.29-12.42-2.36-24.53-1.08-12.11-2.16-20.73-3.23-25.86-1.08-5.13-2.36-7.69-3.85-7.69-1.33,0-2.61,2.47-3.85,7.42-1.24,4.96-2.44,14.37-3.6,28.25-1.16,13.88-1.82,21.35-1.98,22.41l-.25,3.98c0,1.59.37,2.7,1.12,3.32.74.62,3.6.92,8.56.92,4.14,0,6.79-.21,7.95-.66,1.15-.44,1.73-1.54,1.73-3.31l-.24-4.25ZM1368.43,883.58c-.99-7.33-2.9-12.86-5.71-16.57-2.81-3.72-7.04-5.57-12.66-5.57-1.66,0-2.94.44-3.85,1.32-.91.89-1.37,3.19-1.37,6.9l.25,93.89c0,4.07.33,7.29,1,9.68.66,2.39,1.98,3.58,3.97,3.58,4.63,0,8.44-1.19,11.42-3.58,2.98-2.39,5.13-6.98,6.46-13.79,1.32-6.81,1.98-20.47,1.98-40.98,0-15.91-.49-27.54-1.49-34.88ZM1368.43,883.58c-.99-7.33-2.9-12.86-5.71-16.57-2.81-3.72-7.04-5.57-12.66-5.57-1.66,0-2.94.44-3.85,1.32-.91.89-1.37,3.19-1.37,6.9l.25,93.89c0,4.07.33,7.29,1,9.68.66,2.39,1.98,3.58,3.97,3.58,4.63,0,8.44-1.19,11.42-3.58,2.98-2.39,5.13-6.98,6.46-13.79,1.32-6.81,1.98-20.47,1.98-40.98,0-15.91-.49-27.54-1.49-34.88ZM1100.78,926.15c-.5-4.24-1.29-12.42-2.36-24.53-1.08-12.11-2.16-20.73-3.23-25.86-1.08-5.13-2.36-7.69-3.85-7.69-1.33,0-2.61,2.47-3.85,7.42-1.24,4.96-2.44,14.37-3.6,28.25-1.16,13.88-1.82,21.35-1.98,22.41l-.25,3.98c0,1.59.37,2.7,1.12,3.32.74.62,3.6.92,8.56.92,4.14,0,6.79-.21,7.95-.66,1.15-.44,1.73-1.54,1.73-3.31l-.24-4.25ZM1100.78,926.15c-.5-4.24-1.29-12.42-2.36-24.53-1.08-12.11-2.16-20.73-3.23-25.86-1.08-5.13-2.36-7.69-3.85-7.69-1.33,0-2.61,2.47-3.85,7.42-1.24,4.96-2.44,14.37-3.6,28.25-1.16,13.88-1.82,21.35-1.98,22.41l-.25,3.98c0,1.59.37,2.7,1.12,3.32.74.62,3.6.92,8.56.92,4.14,0,6.79-.21,7.95-.66,1.15-.44,1.73-1.54,1.73-3.31l-.24-4.25ZM1368.43,883.58c-.99-7.33-2.9-12.86-5.71-16.57-2.81-3.72-7.04-5.57-12.66-5.57-1.66,0-2.94.44-3.85,1.32-.91.89-1.37,3.19-1.37,6.9l.25,93.89c0,4.07.33,7.29,1,9.68.66,2.39,1.98,3.58,3.97,3.58,4.63,0,8.44-1.19,11.42-3.58,2.98-2.39,5.13-6.98,6.46-13.79,1.32-6.81,1.98-20.47,1.98-40.98,0-15.91-.49-27.54-1.49-34.88ZM1100.78,926.15c-.5-4.24-1.29-12.42-2.36-24.53-1.08-12.11-2.16-20.73-3.23-25.86-1.08-5.13-2.36-7.69-3.85-7.69-1.33,0-2.61,2.47-3.85,7.42-1.24,4.96-2.44,14.37-3.6,28.25-1.16,13.88-1.82,21.35-1.98,22.41l-.25,3.98c0,1.59.37,2.7,1.12,3.32.74.62,3.6.92,8.56.92,4.14,0,6.79-.21,7.95-.66,1.15-.44,1.73-1.54,1.73-3.31l-.24-4.25ZM1368.43,883.58c-.99-7.33-2.9-12.86-5.71-16.57-2.81-3.72-7.04-5.57-12.66-5.57-1.66,0-2.94.44-3.85,1.32-.91.89-1.37,3.19-1.37,6.9l.25,93.89c0,4.07.33,7.29,1,9.68.66,2.39,1.98,3.58,3.97,3.58,4.63,0,8.44-1.19,11.42-3.58,2.98-2.39,5.13-6.98,6.46-13.79,1.32-6.81,1.98-20.47,1.98-40.98,0-15.91-.49-27.54-1.49-34.88ZM1100.78,926.15c-.5-4.24-1.29-12.42-2.36-24.53-1.08-12.11-2.16-20.73-3.23-25.86-1.08-5.13-2.36-7.69-3.85-7.69-1.33,0-2.61,2.47-3.85,7.42-1.24,4.96-2.44,14.37-3.6,28.25-1.16,13.88-1.82,21.35-1.98,22.41l-.25,3.98c0,1.59.37,2.7,1.12,3.32.74.62,3.6.92,8.56.92,4.14,0,6.79-.21,7.95-.66,1.15-.44,1.73-1.54,1.73-3.31l-.24-4.25ZM1368.43,883.58c-.99-7.33-2.9-12.86-5.71-16.57-2.81-3.72-7.04-5.57-12.66-5.57-1.66,0-2.94.44-3.85,1.32-.91.89-1.37,3.19-1.37,6.9l.25,93.89c0,4.07.33,7.29,1,9.68.66,2.39,1.98,3.58,3.97,3.58,4.63,0,8.44-1.19,11.42-3.58,2.98-2.39,5.13-6.98,6.46-13.79,1.32-6.81,1.98-20.47,1.98-40.98,0-15.91-.49-27.54-1.49-34.88ZM1100.78,926.15c-.5-4.24-1.29-12.42-2.36-24.53-1.08-12.11-2.16-20.73-3.23-25.86-1.08-5.13-2.36-7.69-3.85-7.69-1.33,0-2.61,2.47-3.85,7.42-1.24,4.96-2.44,14.37-3.6,28.25-1.16,13.88-1.82,21.35-1.98,22.41l-.25,3.98c0,1.59.37,2.7,1.12,3.32.74.62,3.6.92,8.56.92,4.14,0,6.79-.21,7.95-.66,1.15-.44,1.73-1.54,1.73-3.31l-.24-4.25ZM1368.43,883.58c-.99-7.33-2.9-12.86-5.71-16.57-2.81-3.72-7.04-5.57-12.66-5.57-1.66,0-2.94.44-3.85,1.32-.91.89-1.37,3.19-1.37,6.9l.25,93.89c0,4.07.33,7.29,1,9.68.66,2.39,1.98,3.58,3.97,3.58,4.63,0,8.44-1.19,11.42-3.58,2.98-2.39,5.13-6.98,6.46-13.79,1.32-6.81,1.98-20.47,1.98-40.98,0-15.91-.49-27.54-1.49-34.88ZM1100.78,926.15c-.5-4.24-1.29-12.42-2.36-24.53-1.08-12.11-2.16-20.73-3.23-25.86-1.08-5.13-2.36-7.69-3.85-7.69-1.33,0-2.61,2.47-3.85,7.42-1.24,4.96-2.44,14.37-3.6,28.25-1.16,13.88-1.82,21.35-1.98,22.41l-.25,3.98c0,1.59.37,2.7,1.12,3.32.74.62,3.6.92,8.56.92,4.14,0,6.79-.21,7.95-.66,1.15-.44,1.73-1.54,1.73-3.31l-.24-4.25ZM1368.43,883.58c-.99-7.33-2.9-12.86-5.71-16.57-2.81-3.72-7.04-5.57-12.66-5.57-1.66,0-2.94.44-3.85,1.32-.91.89-1.37,3.19-1.37,6.9l.25,93.89c0,4.07.33,7.29,1,9.68.66,2.39,1.98,3.58,3.97,3.58,4.63,0,8.44-1.19,11.42-3.58,2.98-2.39,5.13-6.98,6.46-13.79,1.32-6.81,1.98-20.47,1.98-40.98,0-15.91-.49-27.54-1.49-34.88ZM1100.78,926.15c-.5-4.24-1.29-12.42-2.36-24.53-1.08-12.11-2.16-20.73-3.23-25.86-1.08-5.13-2.36-7.69-3.85-7.69-1.33,0-2.61,2.47-3.85,7.42-1.24,4.96-2.44,14.37-3.6,28.25-1.16,13.88-1.82,21.35-1.98,22.41l-.25,3.98c0,1.59.37,2.7,1.12,3.32.74.62,3.6.92,8.56.92,4.14,0,6.79-.21,7.95-.66,1.15-.44,1.73-1.54,1.73-3.31l-.24-4.25ZM1368.43,883.58c-.99-7.33-2.9-12.86-5.71-16.57-2.81-3.72-7.04-5.57-12.66-5.57-1.66,0-2.94.44-3.85,1.32-.91.89-1.37,3.19-1.37,6.9l.25,93.89c0,4.07.33,7.29,1,9.68.66,2.39,1.98,3.58,3.97,3.58,4.63,0,8.44-1.19,11.42-3.58,2.98-2.39,5.13-6.98,6.46-13.79,1.32-6.81,1.98-20.47,1.98-40.98,0-15.91-.49-27.54-1.49-34.88ZM545.6,622.95c-1.16-2.03-2.85-3.32-5.09-3.85-2.23-.53-4.09-.79-5.58-.79-4.14,0-7.12.88-8.94,2.65-1.83,1.77-2.86,3.8-3.11,6.1-.24,2.3-.37,4.24-.37,5.83v83.55c0,7.26,1.03,12.16,3.11,14.72,2.06,2.57,5.17,3.85,9.31,3.85s7.24-1.28,9.31-3.85c2.06-2.56,3.1-7.46,3.1-14.72v-83.55c0-4.59-.58-7.91-1.74-9.94ZM1100.78,926.15c-.5-4.24-1.29-12.42-2.36-24.53-1.08-12.11-2.16-20.73-3.23-25.86-1.08-5.13-2.36-7.69-3.85-7.69-1.33,0-2.61,2.47-3.85,7.42-1.24,4.96-2.44,14.37-3.6,28.25-1.16,13.88-1.82,21.35-1.98,22.41l-.25,3.98c0,1.59.37,2.7,1.12,3.32.74.62,3.6.92,8.56.92,4.14,0,6.79-.21,7.95-.66,1.15-.44,1.73-1.54,1.73-3.31l-.24-4.25ZM1368.43,883.58c-.99-7.33-2.9-12.86-5.71-16.57-2.81-3.72-7.04-5.57-12.66-5.57-1.66,0-2.94.44-3.85,1.32-.91.89-1.37,3.19-1.37,6.9l.25,93.89c0,4.07.33,7.29,1,9.68.66,2.39,1.98,3.58,3.97,3.58,4.63,0,8.44-1.19,11.42-3.58,2.98-2.39,5.13-6.98,6.46-13.79,1.32-6.81,1.98-20.47,1.98-40.98,0-15.91-.49-27.54-1.49-34.88ZM545.6,622.95c-1.16-2.03-2.85-3.32-5.09-3.85-2.23-.53-4.09-.79-5.58-.79-4.14,0-7.12.88-8.94,2.65-1.83,1.77-2.86,3.8-3.11,6.1-.24,2.3-.37,4.24-.37,5.83v83.55c0,7.26,1.03,12.16,3.11,14.72,2.06,2.57,5.17,3.85,9.31,3.85s7.24-1.28,9.31-3.85c2.06-2.56,3.1-7.46,3.1-14.72v-83.55c0-4.59-.58-7.91-1.74-9.94ZM1100.78,926.15c-.5-4.24-1.29-12.42-2.36-24.53-1.08-12.11-2.16-20.73-3.23-25.86-1.08-5.13-2.36-7.69-3.85-7.69-1.33,0-2.61,2.47-3.85,7.42-1.24,4.96-2.44,14.37-3.6,28.25-1.16,13.88-1.82,21.35-1.98,22.41l-.25,3.98c0,1.59.37,2.7,1.12,3.32.74.62,3.6.92,8.56.92,4.14,0,6.79-.21,7.95-.66,1.15-.44,1.73-1.54,1.73-3.31l-.24-4.25ZM1368.43,883.58c-.99-7.33-2.9-12.86-5.71-16.57-2.81-3.72-7.04-5.57-12.66-5.57-1.66,0-2.94.44-3.85,1.32-.91.89-1.37,3.19-1.37,6.9l.25,93.89c0,4.07.33,7.29,1,9.68.66,2.39,1.98,3.58,3.97,3.58,4.63,0,8.44-1.19,11.42-3.58,2.98-2.39,5.13-6.98,6.46-13.79,1.32-6.81,1.98-20.47,1.98-40.98,0-15.91-.49-27.54-1.49-34.88ZM545.6,622.95c-1.16-2.03-2.85-3.32-5.09-3.85-2.23-.53-4.09-.79-5.58-.79-4.14,0-7.12.88-8.94,2.65-1.83,1.77-2.86,3.8-3.11,6.1-.24,2.3-.37,4.24-.37,5.83v83.55c0,7.26,1.03,12.16,3.11,14.72,2.06,2.57,5.17,3.85,9.31,3.85s7.24-1.28,9.31-3.85c2.06-2.56,3.1-7.46,3.1-14.72v-83.55c0-4.59-.58-7.91-1.74-9.94ZM601.47,387.51c-1.08-4.33-2.73-7.47-4.96-9.41-2.24-1.95-4.6-2.92-7.08-2.92-3.64,0-6.45.49-8.44,1.46-1.99.97-2.98,4.29-2.98,9.94l.25,15.12-.25,13.26c0,3.36.45,5.93,1.37,7.69.9,1.77,4.25,2.66,10.05,2.66,9.1,0,13.66-7.87,13.66-23.61,0-5.13-.54-9.85-1.62-14.19ZM731.7,439.89c-.5-4.24-1.29-12.42-2.36-24.53-1.08-12.11-2.15-20.73-3.23-25.86-1.08-5.13-2.36-7.69-3.85-7.69-1.32,0-2.6,2.48-3.85,7.43-1.24,4.95-2.44,14.36-3.6,28.24-1.16,13.89-1.82,21.35-1.98,22.41l-.25,3.98c0,1.59.37,2.7,1.12,3.32.74.62,3.6.93,8.56.93,4.14,0,6.79-.22,7.95-.67,1.15-.44,1.74-1.54,1.74-3.31l-.25-4.25ZM1100.78,926.15c-.5-4.24-1.29-12.42-2.36-24.53-1.08-12.11-2.16-20.73-3.23-25.86-1.08-5.13-2.36-7.69-3.85-7.69-1.33,0-2.61,2.47-3.85,7.42-1.24,4.96-2.44,14.37-3.6,28.25-1.16,13.88-1.82,21.35-1.98,22.41l-.25,3.98c0,1.59.37,2.7,1.12,3.32.74.62,3.6.92,8.56.92,4.14,0,6.79-.21,7.95-.66,1.15-.44,1.73-1.54,1.73-3.31l-.24-4.25ZM1368.43,883.58c-.99-7.33-2.9-12.86-5.71-16.57-2.81-3.72-7.04-5.57-12.66-5.57-1.66,0-2.94.44-3.85,1.32-.91.89-1.37,3.19-1.37,6.9l.25,93.89c0,4.07.33,7.29,1,9.68.66,2.39,1.98,3.58,3.97,3.58,4.63,0,8.44-1.19,11.42-3.58,2.98-2.39,5.13-6.98,6.46-13.79,1.32-6.81,1.98-20.47,1.98-40.98,0-15.91-.49-27.54-1.49-34.88ZM545.6,622.95c-1.16-2.03-2.85-3.32-5.09-3.85-2.23-.53-4.09-.79-5.58-.79-4.14,0-7.12.88-8.94,2.65-1.83,1.77-2.86,3.8-3.11,6.1-.24,2.3-.37,4.24-.37,5.83v83.55c0,7.26,1.03,12.16,3.11,14.72,2.06,2.57,5.17,3.85,9.31,3.85s7.24-1.28,9.31-3.85c2.06-2.56,3.1-7.46,3.1-14.72v-83.55c0-4.59-.58-7.91-1.74-9.94ZM601.47,387.51c-1.08-4.33-2.73-7.47-4.96-9.41-2.24-1.95-4.6-2.92-7.08-2.92-3.64,0-6.45.49-8.44,1.46-1.99.97-2.98,4.29-2.98,9.94l.25,15.12-.25,13.26c0,3.36.45,5.93,1.37,7.69.9,1.77,4.25,2.66,10.05,2.66,9.1,0,13.66-7.87,13.66-23.61,0-5.13-.54-9.85-1.62-14.19ZM731.7,439.89c-.5-4.24-1.29-12.42-2.36-24.53-1.08-12.11-2.15-20.73-3.23-25.86-1.08-5.13-2.36-7.69-3.85-7.69-1.32,0-2.6,2.48-3.85,7.43-1.24,4.95-2.44,14.36-3.6,28.24-1.16,13.89-1.82,21.35-1.98,22.41l-.25,3.98c0,1.59.37,2.7,1.12,3.32.74.62,3.6.93,8.56.93,4.14,0,6.79-.22,7.95-.67,1.15-.44,1.74-1.54,1.74-3.31l-.25-4.25ZM1100.78,926.15c-.5-4.24-1.29-12.42-2.36-24.53-1.08-12.11-2.16-20.73-3.23-25.86-1.08-5.13-2.36-7.69-3.85-7.69-1.33,0-2.61,2.47-3.85,7.42-1.24,4.96-2.44,14.37-3.6,28.25-1.16,13.88-1.82,21.35-1.98,22.41l-.25,3.98c0,1.59.37,2.7,1.12,3.32.74.62,3.6.92,8.56.92,4.14,0,6.79-.21,7.95-.66,1.15-.44,1.73-1.54,1.73-3.31l-.24-4.25ZM1368.43,883.58c-.99-7.33-2.9-12.86-5.71-16.57-2.81-3.72-7.04-5.57-12.66-5.57-1.66,0-2.94.44-3.85,1.32-.91.89-1.37,3.19-1.37,6.9l.25,93.89c0,4.07.33,7.29,1,9.68.66,2.39,1.98,3.58,3.97,3.58,4.63,0,8.44-1.19,11.42-3.58,2.98-2.39,5.13-6.98,6.46-13.79,1.32-6.81,1.98-20.47,1.98-40.98,0-15.91-.49-27.54-1.49-34.88ZM545.6,622.95c-1.16-2.03-2.85-3.32-5.09-3.85-2.23-.53-4.09-.79-5.58-.79-4.14,0-7.12.88-8.94,2.65-1.83,1.77-2.86,3.8-3.11,6.1-.24,2.3-.37,4.24-.37,5.83v83.55c0,7.26,1.03,12.16,3.11,14.72,2.06,2.57,5.17,3.85,9.31,3.85s7.24-1.28,9.31-3.85c2.06-2.56,3.1-7.46,3.1-14.72v-83.55c0-4.59-.58-7.91-1.74-9.94ZM601.47,387.51c-1.08-4.33-2.73-7.47-4.96-9.41-2.24-1.95-4.6-2.92-7.08-2.92-3.64,0-6.45.49-8.44,1.46-1.99.97-2.98,4.29-2.98,9.94l.25,15.12-.25,13.26c0,3.36.45,5.93,1.37,7.69.9,1.77,4.25,2.66,10.05,2.66,9.1,0,13.66-7.87,13.66-23.61,0-5.13-.54-9.85-1.62-14.19ZM731.7,439.89c-.5-4.24-1.29-12.42-2.36-24.53-1.08-12.11-2.15-20.73-3.23-25.86-1.08-5.13-2.36-7.69-3.85-7.69-1.32,0-2.6,2.48-3.85,7.43-1.24,4.95-2.44,14.36-3.6,28.24-1.16,13.89-1.82,21.35-1.98,22.41l-.25,3.98c0,1.59.37,2.7,1.12,3.32.74.62,3.6.93,8.56.93,4.14,0,6.79-.22,7.95-.67,1.15-.44,1.74-1.54,1.74-3.31l-.25-4.25ZM1100.78,926.15c-.5-4.24-1.29-12.42-2.36-24.53-1.08-12.11-2.16-20.73-3.23-25.86-1.08-5.13-2.36-7.69-3.85-7.69-1.33,0-2.61,2.47-3.85,7.42-1.24,4.96-2.44,14.37-3.6,28.25-1.16,13.88-1.82,21.35-1.98,22.41l-.25,3.98c0,1.59.37,2.7,1.12,3.32.74.62,3.6.92,8.56.92,4.14,0,6.79-.21,7.95-.66,1.15-.44,1.73-1.54,1.73-3.31l-.24-4.25ZM1368.43,883.58c-.99-7.33-2.9-12.86-5.71-16.57-2.81-3.72-7.04-5.57-12.66-5.57-1.66,0-2.94.44-3.85,1.32-.91.89-1.37,3.19-1.37,6.9l.25,93.89c0,4.07.33,7.29,1,9.68.66,2.39,1.98,3.58,3.97,3.58,4.63,0,8.44-1.19,11.42-3.58,2.98-2.39,5.13-6.98,6.46-13.79,1.32-6.81,1.98-20.47,1.98-40.98,0-15.91-.49-27.54-1.49-34.88ZM545.6,622.95c-1.16-2.03-2.85-3.32-5.09-3.85-2.23-.53-4.09-.79-5.58-.79-4.14,0-7.12.88-8.94,2.65-1.83,1.77-2.86,3.8-3.11,6.1-.24,2.3-.37,4.24-.37,5.83v83.55c0,7.26,1.03,12.16,3.11,14.72,2.06,2.57,5.17,3.85,9.31,3.85s7.24-1.28,9.31-3.85c2.06-2.56,3.1-7.46,3.1-14.72v-83.55c0-4.59-.58-7.91-1.74-9.94ZM601.47,387.51c-1.08-4.33-2.73-7.47-4.96-9.41-2.24-1.95-4.6-2.92-7.08-2.92-3.64,0-6.45.49-8.44,1.46-1.99.97-2.98,4.29-2.98,9.94l.25,15.12-.25,13.26c0,3.36.45,5.93,1.37,7.69.9,1.77,4.25,2.66,10.05,2.66,9.1,0,13.66-7.87,13.66-23.61,0-5.13-.54-9.85-1.62-14.19ZM731.7,439.89c-.5-4.24-1.29-12.42-2.36-24.53-1.08-12.11-2.15-20.73-3.23-25.86-1.08-5.13-2.36-7.69-3.85-7.69-1.32,0-2.6,2.48-3.85,7.43-1.24,4.95-2.44,14.36-3.6,28.24-1.16,13.89-1.82,21.35-1.98,22.41l-.25,3.98c0,1.59.37,2.7,1.12,3.32.74.62,3.6.93,8.56.93,4.14,0,6.79-.22,7.95-.67,1.15-.44,1.74-1.54,1.74-3.31l-.25-4.25ZM1100.78,926.15c-.5-4.24-1.29-12.42-2.36-24.53-1.08-12.11-2.16-20.73-3.23-25.86-1.08-5.13-2.36-7.69-3.85-7.69-1.33,0-2.61,2.47-3.85,7.42-1.24,4.96-2.44,14.37-3.6,28.25-1.16,13.88-1.82,21.35-1.98,22.41l-.25,3.98c0,1.59.37,2.7,1.12,3.32.74.62,3.6.92,8.56.92,4.14,0,6.79-.21,7.95-.66,1.15-.44,1.73-1.54,1.73-3.31l-.24-4.25ZM1368.43,883.58c-.99-7.33-2.9-12.86-5.71-16.57-2.81-3.72-7.04-5.57-12.66-5.57-1.66,0-2.94.44-3.85,1.32-.91.89-1.37,3.19-1.37,6.9l.25,93.89c0,4.07.33,7.29,1,9.68.66,2.39,1.98,3.58,3.97,3.58,4.63,0,8.44-1.19,11.42-3.58,2.98-2.39,5.13-6.98,6.46-13.79,1.32-6.81,1.98-20.47,1.98-40.98,0-15.91-.49-27.54-1.49-34.88ZM545.6,622.95c-1.16-2.03-2.85-3.32-5.09-3.85-2.23-.53-4.09-.79-5.58-.79-4.14,0-7.12.88-8.94,2.65-1.83,1.77-2.86,3.8-3.11,6.1-.24,2.3-.37,4.24-.37,5.83v83.55c0,7.26,1.03,12.16,3.11,14.72,2.06,2.57,5.17,3.85,9.31,3.85s7.24-1.28,9.31-3.85c2.06-2.56,3.1-7.46,3.1-14.72v-83.55c0-4.59-.58-7.91-1.74-9.94ZM601.47,387.51c-1.08-4.33-2.73-7.47-4.96-9.41-2.24-1.95-4.6-2.92-7.08-2.92-3.64,0-6.45.49-8.44,1.46-1.99.97-2.98,4.29-2.98,9.94l.25,15.12-.25,13.26c0,3.36.45,5.93,1.37,7.69.9,1.77,4.25,2.66,10.05,2.66,9.1,0,13.66-7.87,13.66-23.61,0-5.13-.54-9.85-1.62-14.19ZM731.7,439.89c-.5-4.24-1.29-12.42-2.36-24.53-1.08-12.11-2.15-20.73-3.23-25.86-1.08-5.13-2.36-7.69-3.85-7.69-1.32,0-2.6,2.48-3.85,7.43-1.24,4.95-2.44,14.36-3.6,28.24-1.16,13.89-1.82,21.35-1.98,22.41l-.25,3.98c0,1.59.37,2.7,1.12,3.32.74.62,3.6.93,8.56.93,4.14,0,6.79-.22,7.95-.67,1.15-.44,1.74-1.54,1.74-3.31l-.25-4.25ZM1100.78,926.15c-.5-4.24-1.29-12.42-2.36-24.53-1.08-12.11-2.16-20.73-3.23-25.86-1.08-5.13-2.36-7.69-3.85-7.69-1.33,0-2.61,2.47-3.85,7.42-1.24,4.96-2.44,14.37-3.6,28.25-1.16,13.88-1.82,21.35-1.98,22.41l-.25,3.98c0,1.59.37,2.7,1.12,3.32.74.62,3.6.92,8.56.92,4.14,0,6.79-.21,7.95-.66,1.15-.44,1.73-1.54,1.73-3.31l-.24-4.25ZM1368.43,883.58c-.99-7.33-2.9-12.86-5.71-16.57-2.81-3.72-7.04-5.57-12.66-5.57-1.66,0-2.94.44-3.85,1.32-.91.89-1.37,3.19-1.37,6.9l.25,93.89c0,4.07.33,7.29,1,9.68.66,2.39,1.98,3.58,3.97,3.58,4.63,0,8.44-1.19,11.42-3.58,2.98-2.39,5.13-6.98,6.46-13.79,1.32-6.81,1.98-20.47,1.98-40.98,0-15.91-.49-27.54-1.49-34.88ZM545.6,622.95c-1.16-2.03-2.85-3.32-5.09-3.85-2.23-.53-4.09-.79-5.58-.79-4.14,0-7.12.88-8.94,2.65-1.83,1.77-2.86,3.8-3.11,6.1-.24,2.3-.37,4.24-.37,5.83v83.55c0,7.26,1.03,12.16,3.11,14.72,2.06,2.57,5.17,3.85,9.31,3.85s7.24-1.28,9.31-3.85c2.06-2.56,3.1-7.46,3.1-14.72v-83.55c0-4.59-.58-7.91-1.74-9.94ZM601.47,387.51c-1.08-4.33-2.73-7.47-4.96-9.41-2.24-1.95-4.6-2.92-7.08-2.92-3.64,0-6.45.49-8.44,1.46-1.99.97-2.98,4.29-2.98,9.94l.25,15.12-.25,13.26c0,3.36.45,5.93,1.37,7.69.9,1.77,4.25,2.66,10.05,2.66,9.1,0,13.66-7.87,13.66-23.61,0-5.13-.54-9.85-1.62-14.19ZM731.7,439.89c-.5-4.24-1.29-12.42-2.36-24.53-1.08-12.11-2.15-20.73-3.23-25.86-1.08-5.13-2.36-7.69-3.85-7.69-1.32,0-2.6,2.48-3.85,7.43-1.24,4.95-2.44,14.36-3.6,28.24-1.16,13.89-1.82,21.35-1.98,22.41l-.25,3.98c0,1.59.37,2.7,1.12,3.32.74.62,3.6.93,8.56.93,4.14,0,6.79-.22,7.95-.67,1.15-.44,1.74-1.54,1.74-3.31l-.25-4.25ZM1100.78,926.15c-.5-4.24-1.29-12.42-2.36-24.53-1.08-12.11-2.16-20.73-3.23-25.86-1.08-5.13-2.36-7.69-3.85-7.69-1.33,0-2.61,2.47-3.85,7.42-1.24,4.96-2.44,14.37-3.6,28.25-1.16,13.88-1.82,21.35-1.98,22.41l-.25,3.98c0,1.59.37,2.7,1.12,3.32.74.62,3.6.92,8.56.92,4.14,0,6.79-.21,7.95-.66,1.15-.44,1.73-1.54,1.73-3.31l-.24-4.25ZM1368.43,883.58c-.99-7.33-2.9-12.86-5.71-16.57-2.81-3.72-7.04-5.57-12.66-5.57-1.66,0-2.94.44-3.85,1.32-.91.89-1.37,3.19-1.37,6.9l.25,93.89c0,4.07.33,7.29,1,9.68.66,2.39,1.98,3.58,3.97,3.58,4.63,0,8.44-1.19,11.42-3.58,2.98-2.39,5.13-6.98,6.46-13.79,1.32-6.81,1.98-20.47,1.98-40.98,0-15.91-.49-27.54-1.49-34.88ZM1813.79,1041.11c-20.85-11.27-70.58-7.54-94.6-5.51-20.68,1.62-42.26,6-62.63,7.05-3.81.25-20.04,1.06-21.41-2.02l10.7-38.46,71.72,14.2c1.87-18.17-21.17-25.15-35.13-29.04-9.98-2.84-20.28-4.39-30.5-6.41l8.19-39.27,66.53,4.87,2.11-19.15-64.66-8.19,6-43.41h63.2l1.54-1.54v-17.68l-62.71-3.01,3-48.59,60.77-.89-1.06-21.34-59.71-1.95-2.03-39.51c14.85-.97,50.95-4.46,55.17-22.23.49-1.62,1.38-7.38-1.05-7.86l-57.2,3.4-8.03-42.51,57.68-13.22c-2.35-9.17-12.49-12.09-20.85-13.55-14.68-2.35-28.31.65-42.84,1.86l-9-36.26c18.98-5.92,55.33-12.66,50.46-39.43l-59.71,15.09-14.12-38.37c15.18-4.46,50.79-17.44,50.47-36.83-.08-2.36-1.14-7.71-4.22-6.49l-56.95,19.79-20.61-38.62,55.98-27.98c4.38-3.25-3.25-7.71-6.25-8.77-18.82-6.32-45.03,8.04-62.31,14.85l-21.74-33.02v-2.19l56.47-33.99c3.24-2.92-4.63-6.65-6.82-7.3-13.95-4.14-36.02,5.92-48.43,12.73-2.92,1.54-14.04,9.66-15.82,9.09l-24.58-31.15-.25-1.95,56.31-40.65c1.54-2.67-3.25-5.35-5.36-6-19.96-6.73-51.68,17.2-66.77,29.13-4.46-6.33-22.55-20.69-24.98-26.37-.33-.65-.81-1.06-.33-1.7,13.55-11.93,30.02-22.64,39.75-38.14,5.44-8.51,9.01-19.79.65-27.58l-1.46.41-58.08,48.02-28.72-27.58c13.71-13.55,43.81-38.05,43.4-58.82,0-5.03-1.62-8.6-5.11-12.25l-2.6.57-55.57,54.44-33.67-25.56,48.76-61.25c5.19-7.71-9.41-6.16-13.95-4.95-20.94,5.68-42.6,36.02-53.71,53.55l-34.4-22.23,46-72.77c-11.28-3.82-20.04,1.54-28.23,8.51-16.71,14.12-27.59,33.35-38.05,52.01l-33.83-17.61-.16-2.19c6.97-11.19,14.84-21.98,20.93-33.67,6.08-11.6,16.79-34.07,8.6-46.08-1.38-1.94-6.33-7.46-8.6-4.54-14.12,25.31-31.4,48.68-42.92,75.45l-39.51-15.74,35.94-82.91c1.06-4.46-11.28-1.22-13.95.16-19.8,9.73-37.89,53.54-41.22,74.64l-39.42-12.09c5.75-15.82,13.54-30.83,18.25-47.06,4.3-15,12.09-43.56-9.09-48.02-10.46,29.2-24.5,57.27-30.42,87.94l-41.46-9.57,21.26-93.54c-14.28-1.06-23.04,14.68-28.15,25.96-8.85,19.55-12.66,41.7-13.23,63.03l-42.43-6.16,14.04-95.98c-14.04-1.78-22.39,15.74-26.29,26.78-7.38,20.85-9.73,45.43-7.06,67.25l-44.45-4.06,6-98.08c-13.95,1.22-20.04,17.04-23.2,28.96-5.76,21.83-5.03,45.84-2.03,68.15l-42.51-1.05c4.38-27.02-.41-54.36-3-81.46-.25-2.19.24-15.33-1.63-15.65l-18.66,1.05,5.12,96.06-44.54,1.05c2.19-22.15,1.05-47.38-7.06-68.31-4.14-10.71-11.04-23.61-24.26-22.72l12.09,92.98-43.49,4.05c-.24-9.81-2.51-19.47-4.7-29.12-4.22-18.42-9.9-39.19-15.5-57.36-.32-1.22.81-1.62-1.46-1.38-23.36,2.36-12.98,47.46-9.41,61.82,1.06,3.98,9.09,27.99,7.79,29.13l-38.7,6-27.99-79.83c-22.47,5.27-13.22,37.48-8.35,53.38,3.24,10.71,8.35,20.77,11.35,31.56l-39.26,9.01-31.56-70.67c-20.36,5.93-11.03,34.24-5.76,48.84,3.81,10.31,9.17,20.12,13.95,30.02l-37.4,12.09c-5.43-16.63-26.53-55.17-46.08-55.66-1.78,0-7.14.9-7.54,2.68l.4,1.46,30.91,61.17-39.34,17.61-38.86-54.44c-15.09,11.03-5.28,31.48,1.86,44.38,4.38,8.11,10.47,15.17,14.69,23.28l-31.89,19.07c-7.87-9.49-15.25-19.72-24.74-27.67-8.44-7.14-21.42-15.33-32.37-9.08l-.49,2.51,36.91,48.52-33.74,24.17c-10.31-12.17-34.24-35.21-51.28-31.8-2.35.49-4.62,2.27-6.97,2.68l.89,3.57,39.51,42.35-31.97,29.77-44.86-36.83c-2.6-1.38-4.46,3.08-5.27,4.86-5.03,11.93,4.3,24.34,11.84,33.02,2.68,3.17,19.55,17.93,19.55,19.56l-24.66,30.99-49.49-35.38c-2.19,1.87-4.06,4.79-4.54,7.71-3.25,20.61,24.5,37.48,38.37,48.52l-20.2,31.31c-8.84-4.46-16.71-10.54-25.96-14.6-12.01-5.19-31.15-11.68-40.73.49l53.47,35.45-18.18,36.75c-1.46,1.05-12.49-6.33-15.09-7.63-15.57-7.3-44.37-19.3-56.7-1.94l60.27,31.8-14.68,38.45c-11.36-3.89-22.31-9.81-34.24-12.9-11.76-2.84-37.32-6.97-40.56,8.77l65.63,26.44-12.17,40.41c-19.47-6.66-48.27-18.42-68.39-10.31-4.62,1.87-10.06,5.84-9.41,11.28l70.66,21.34-9,42.34-76.83-14.11c-.16,4.87-.41,8.6,1.62,13.06,8.2,17.61,52.65,23.28,70.18,25.39l-6.09,40.49c-25.88-5.76-52.65-5.28-78.85-8.12-2.36,15.34,11.84,22.23,24.25,25.8,16.8,4.71,34.32,4.63,51.6,6.49l-4.05,39.51-78.94-.57c-3.09,12.17,9.17,19.15,19.47,22.07,18.17,5.19,38.78,3.33,57.44,3.81l-.98,43.41-77.88,2.03v16.71c0,.32,1.06,2.35,1.7,2.59l75.13-3.08,2.03,47.54-73.75,8.12,1.95,19.14,72.77-6.08,4.63,43.56-68.4,14.77,4.55,18.33,67.33-10.95,10.23,50.95c-.49,1.87-7.14,1.7-8.69,1.7-46.24-1.54-89.56-15.49-138.56-12.09-19.23,1.3-28.23,7.23-35.37,25.24-9.5,24.01-13.71,82.34,14.68,95.56,11.85,5.44,45.51,5.85,60.12,6.58,34.64,1.86,69.44,1.78,104.16,4.05,15.82.98,32.21,1.87,47.47,6.09,10.3,18.58,19.06,37.88,29.77,56.22,110.82,191.14,313.88,299.2,526.85,337.82,92.24,16.71,187.56,23.04,280.46,7.05,226.02-38.94,409.29-198.6,511.18-399.15,13.8-4.54,28.8-5.76,43.33-7.05,58.17-5.03,117.88-4.47,175.88-11.2,16.8-1.87,35.78-2.51,37.89-23.69,2.76-26.93,1.95-74.23-25.15-89ZM1346.58,582.5h28.31c2.64,0,4.96,1.46,6.95,4.38,1.98,2.91,3.8,8.53,5.46,16.84.66,3.36,2.56,10.92,5.71,22.68,3.14,11.76,4.72,17.73,4.72,17.9.33,1.95,1.15,2.92,2.48,2.92,1.49,0,2.32-.89,2.48-2.65.17-.89,3.39-14.5,9.69-40.85,1.82-8.31,3.88-13.93,6.2-16.84,2.32-2.92,4.97-4.38,7.95-4.38h22.1c4.13,0,6.87.36,8.19,1.06,1.32.71,1.99,2.65,1.99,5.84,0,3.36-2.48,12.38-7.45,27.05-4.97,14.68-8.94,25.55-11.92,32.62l-11.67,31.3c-2.98,8.14-5.13,14.63-6.45,19.5-1.33,4.86-1.99,13.92-1.99,27.18v23.61c0,4.95-.37,8.84-1.12,11.67-.74,2.83-2.32,4.95-4.71,6.36-2.41,1.42-5.43,2.13-9.07,2.13h-12.41c-3.64,0-6.67-.75-9.06-2.26-2.41-1.5-3.98-3.75-4.72-6.76-.75-3.01-1.12-7.07-1.12-12.2v-40.05c0-4.78-1.49-12.29-4.47-22.55-2.98-10.25-7.28-22.28-12.91-36.07l-.74-1.86c-3.15-7.77-7.21-18.87-12.17-33.28-4.97-14.41-7.45-23.21-7.45-26.39,0-4.6,2.4-6.9,7.2-6.9ZM1417.1,919.79c0,15.56-.67,28.73-1.99,39.52-1.33,10.78-4.01,20.29-8.07,28.51-4.06,8.22-10.35,14.63-18.87,19.23-8.53,4.6-19.58,6.89-33.15,6.89h-37.24c-3.64,0-6.66-.75-9.06-2.25-2.4-1.5-3.97-3.75-4.72-6.76-.74-3.01-1.12-7.07-1.12-12.2v-145.88c0-5.13.38-9.19,1.12-12.2.75-3.01,2.32-5.26,4.72-6.77,2.4-1.5,5.42-2.25,9.06-2.25h37.24c16.23,0,28.85,3.32,37.87,9.95,9.02,6.63,15.31,16.31,18.87,29.04,3.56,12.73,5.34,31.12,5.34,55.17ZM1325.6,584.62c2.24,1.42,3.35,3.36,3.35,5.84v22.54c0,2.12-.74,3.89-2.23,5.31-1.49,1.41-4.47,2.12-8.94,2.12l-6.95-.27c-2.32,0-4.02.36-5.09,1.06-1.08.71-1.62,3.1-1.62,7.17v123.06c-.33,8.14-1.73,13.4-4.22,15.78-2.48,2.39-6.04,3.59-10.67,3.59h-12.42c-3.64,0-6.66-.75-9.06-2.26-2.4-1.5-3.97-3.75-4.72-6.76-.74-3.01-1.11-7.07-1.11-12.2v-121.21c0-2.48-.3-4.47-.87-5.97-.59-1.5-2.45-2.26-5.59-2.26l-7.2.27c-3.48,0-6.21-.53-8.19-1.59-1.99-1.06-2.98-3.01-2.98-5.84v-22.54c0-2.48,1.11-4.42,3.35-5.84,2.23-1.41,5-2.12,8.31-2.12h68.53c3.31,0,6.09.71,8.32,2.12ZM1209.53,992.73c0,5.13-.37,9.19-1.12,12.2-.74,3.01-2.32,5.26-4.72,6.76s-5.42,2.25-9.06,2.25h-12.41c-3.65,0-6.67-.75-9.07-2.25-2.4-1.5-3.97-3.75-4.71-6.76-.75-3.01-1.12-7.07-1.12-12.2v-145.88c0-5.13.37-9.19,1.12-12.2.74-3.01,2.31-5.26,4.71-6.77,2.4-1.5,5.42-2.25,9.07-2.25h13.16c3.14,0,5.83.36,8.06,1.06,2.24.71,4.43,3.45,6.58,8.22l32.03,72.94c.66,1.77,1.41,2.65,2.24,2.65s1.24-.88,1.24-2.65v-61c0-5.13.37-9.19,1.12-12.2.74-3.01,2.31-5.26,4.71-6.77,2.4-1.5,5.42-2.25,9.07-2.25h12.41c3.64,0,6.66.75,9.06,2.25,2.4,1.51,3.98,3.76,4.72,6.77.75,3.01,1.12,7.07,1.12,12.2v145.88c0,5.13-.37,9.19-1.12,12.2-.74,3.01-2.32,5.26-4.72,6.76-2.4,1.5-5.42,2.25-9.06,2.25-5.3,0-9.93-.3-13.9-.92-3.98-.62-6.87-1.77-8.69-3.45-1.83-1.68-3.48-4.29-4.97-7.83l-33.02-76.65-1.99-2.65c-.66,0-.99.89-.99,2.65l.25,67.64ZM1191.77,360.59c0-5.13.37-9.19,1.12-12.2.74-3,2.31-5.26,4.71-6.76,2.4-1.5,5.42-2.26,9.07-2.26h12.41c3.64,0,6.66.76,9.06,2.26,2.4,1.5,3.98,3.76,4.72,6.76.75,3.01,1.12,7.07,1.12,12.2v33.15c0,5.67.29,9.38.87,11.14.58,1.77,1.94,2.79,4.09,3.05,2.15.27,5.05.4,8.69.4,5.3,0,8.78-.3,10.43-.93,1.66-.61,2.61-1.99,2.86-4.11s.37-5.04.37-8.75v-33.95c0-5.13.37-9.19,1.12-12.2.74-3,2.31-5.26,4.71-6.76s5.42-2.26,9.07-2.26h12.41c3.64,0,6.66.76,9.07,2.26,2.39,1.5,3.97,3.76,4.71,6.76.75,3.01,1.12,7.07,1.12,12.2v145.88c0,5.13-.37,9.19-1.12,12.2-.74,3.01-2.32,5.26-4.71,6.76-2.41,1.51-5.43,2.26-9.07,2.26h-12.41c-3.65,0-6.67-.75-9.07-2.26-2.4-1.5-3.97-3.75-4.71-6.76-.75-3.01-1.12-7.07-1.12-12.2v-39.79c0-6.71-.37-11.27-1.12-13.66-.74-2.38-2.19-3.8-4.34-4.24-2.16-.44-4.89-.66-8.2-.66h-2.73c-3.47,0-5.87.26-7.2.79-1.32.53-2.27,1.77-2.85,3.72-.58,1.94-.87,4.95-.87,9.01v44.83c0,5.13-.37,9.19-1.12,12.2-.74,3.01-2.32,5.26-4.72,6.76-2.4,1.51-5.42,2.26-9.06,2.26h-12.41c-3.65,0-6.67-.75-9.07-2.26-2.4-1.5-3.97-3.75-4.71-6.76-.75-3.01-1.12-7.07-1.12-12.2v-145.88ZM1181.72,603.72c0-5.13.37-9.19,1.12-12.2.74-3.01,2.31-5.26,4.71-6.76,2.4-1.5,5.42-2.26,9.07-2.26h12.41c3.64,0,6.66.76,9.06,2.26,2.4,1.5,3.98,3.75,4.72,6.76.75,3.01,1.12,7.07,1.12,12.2v145.88c0,5.13-.37,9.19-1.12,12.2-.74,3.01-2.32,5.26-4.72,6.76-2.4,1.51-5.42,2.26-9.06,2.26h-12.41c-3.65,0-6.67-.75-9.07-2.26-2.4-1.5-3.97-3.75-4.71-6.76-.75-3.01-1.12-7.07-1.12-12.2v-145.88ZM1067.38,378.1c7.11-13.8,16.39-23.92,27.81-30.37,11.42-6.46,24-9.68,37.74-9.68,12.91,0,22.18.84,27.81,2.52,5.62,1.68,8.44,4.55,8.44,8.62v20.95c0,4.24-2.4,6.36-7.2,6.36-2.15,0-6.17-.57-12.04-1.72-5.88-1.15-10.72-1.72-14.53-1.72-7.12,0-13.37,2.52-18.74,7.56-5.39,5.04-9.48,12.37-12.29,22.01-2.82,9.64-4.23,19.05-4.23,28.25,0,12.91,1.2,23.91,3.6,33.02s5.8,15.82,10.18,20.16c4.39,4.33,9.48,6.49,15.27,6.49s8.45-3.97,8.45-11.93v-23.61c0-2.82-.59-4.95-1.74-6.36-1.16-1.42-3.65-2.12-7.45-2.12-2.82,0-5.05-.67-6.71-1.99-1.65-1.33-2.48-4.47-2.48-9.42v-2.65c0-8.84.29-14.59.87-17.24.58-2.65,1.82-4.25,3.73-4.78,1.9-.53,4.34-.79,7.32-.79h35.51c2.31,0,4.67.49,7.07,1.46,2.4.97,3.6,4.02,3.6,9.15v82.75c0,8.84-2.77,15.38-8.32,19.63-5.54,4.24-15.51,6.36-29.91,6.36-13.58,0-25.54-2.21-35.88-6.63-10.35-4.42-18.87-10.65-25.58-18.7-6.7-8.04-11.88-17.94-15.51-29.7-3.65-11.76-5.47-25.86-5.47-42.31,0-21.92,3.56-39.78,10.68-53.57ZM1046.15,603.72c0-5.13.38-9.19,1.12-12.2s2.32-5.26,4.72-6.76c2.39-1.5,5.42-2.26,9.06-2.26h13.16c3.14,0,5.83.36,8.07,1.06,2.23.71,4.43,3.45,6.58,8.22l32.03,72.94c.66,1.77,1.4,2.65,2.23,2.65s1.24-.88,1.24-2.65v-61c0-5.13.38-9.19,1.12-12.2.75-3.01,2.32-5.26,4.72-6.76,2.4-1.5,5.42-2.26,9.06-2.26h12.42c3.64,0,6.66.76,9.06,2.26,2.4,1.5,3.97,3.75,4.72,6.76.74,3.01,1.11,7.07,1.11,12.2v145.88c0,5.13-.37,9.19-1.11,12.2-.75,3.01-2.32,5.26-4.72,6.76-2.4,1.51-5.42,2.26-9.06,2.26-5.3,0-9.93-.31-13.91-.93-3.97-.62-6.87-1.77-8.69-3.45-1.82-1.68-3.47-4.29-4.96-7.83l-33.03-76.65-1.98-2.65c-.67,0-1,.89-1,2.65l.25,67.64c0,5.13-.37,9.19-1.11,12.2-.75,3.01-2.33,5.26-4.72,6.76-2.4,1.51-5.43,2.26-9.07,2.26h-12.41c-3.64,0-6.67-.75-9.06-2.26-2.4-1.5-3.98-3.75-4.72-6.76s-1.12-7.07-1.12-12.2v-145.88ZM963.35,865.55c-.59-1.5-2.45-2.26-5.59-2.26l-7.2.27c-3.48,0-6.21-.53-8.19-1.59-1.99-1.06-2.98-3.01-2.98-5.84v-22.54c0-2.48,1.11-4.42,3.35-5.84,2.23-1.41,5-2.12,8.32-2.12h68.52c3.31,0,6.09.71,8.32,2.12,2.24,1.42,3.35,3.36,3.35,5.84v22.54c0,2.12-.74,3.89-2.23,5.31-1.49,1.41-4.47,2.12-8.94,2.12l-6.95-.27c-2.32,0-4.02.36-5.09,1.06-1.08.71-1.62,3.1-1.62,7.16v123.07c-.33,8.14-1.73,13.4-4.22,15.78-2.48,2.39-6.04,3.58-10.67,3.58h-12.42c-3.64,0-6.66-.75-9.06-2.25-2.4-1.5-3.97-3.75-4.72-6.76-.74-3.01-1.11-7.07-1.11-12.2v-121.22c0-2.47-.3-4.46-.87-5.96ZM1030.39,994.05c.24-3,3.01-19.05,8.31-48.14,5.3-29.08,10.84-62.1,16.64-99.06,2.15-14.15,7.78-21.22,16.88-21.22h38.24c8.94,0,14.73,7.07,17.38,21.22,1.49,9.55,3.19,20.07,5.09,31.56,1.9,11.5,4.01,23.79,6.33,36.87,2.32,13.09,5.34,29.35,9.06,48.8,3.73,19.45,5.59,31.65,5.59,36.6,0,4.25-1.2,7.52-3.6,9.82-2.4,2.3-8.48,3.44-18.25,3.44h-13.16c-2.65,0-4.88-1.32-6.7-3.97-1.83-2.66-3.15-7.52-3.97-14.59-.84-7.07-1.46-11.71-1.87-13.93-.41-2.21-1.08-3.98-1.98-5.3-.92-1.33-1.95-1.99-3.11-1.99h-19.86c-1.49,0-2.77.93-3.85,2.78-1.08,1.86-2.07,5.8-2.98,11.81-.91,6.01-1.7,10.25-2.36,12.73-.66,2.48-1.32,4.51-1.98,6.1-.67,1.59-1.62,3.05-2.86,4.37-1.24,1.33-2.94,1.99-5.09,1.99h-11.67c-8.94,0-14.61-1.14-17.01-3.44-2.4-2.3-3.6-5.57-3.6-9.82,0-1.41.13-3.62.38-6.63ZM1001.34,360.59c0-5.13.37-9.19,1.11-12.2.75-3,2.32-5.26,4.72-6.76,2.4-1.5,5.42-2.26,9.06-2.26h12.42c3.64,0,6.66.76,9.06,2.26,2.4,1.5,3.97,3.76,4.72,6.76.74,3.01,1.11,7.07,1.11,12.2v145.88c0,5.13-.37,9.19-1.11,12.2-.75,3.01-2.32,5.26-4.72,6.76-2.4,1.51-5.42,2.26-9.06,2.26h-12.42c-3.64,0-6.66-.75-9.06-2.26-2.4-1.5-3.97-3.75-4.72-6.76-.74-3.01-1.11-7.07-1.11-12.2v-145.88ZM989.3,720.42v-116.97c0-4.94.37-8.92,1.11-11.93.75-3.01,2.32-5.26,4.72-6.76s5.42-2.26,9.06-2.26h12.42c3.64,0,6.66.76,9.06,2.26,2.4,1.5,3.97,3.75,4.72,6.76.74,3.01,1.11,6.99,1.11,11.93v113.52c0,12.03-.83,21.27-2.48,27.72-1.65,6.46-4.63,11.76-8.94,15.91-4.3,4.16-10.14,7.12-17.5,8.89-7.37,1.76-15.52,2.65-24.46,2.65-9.43,0-17.5-.75-24.21-2.25-6.7-1.5-12.41-3.89-17.13-7.16-4.72-3.27-8.36-8.27-10.92-14.99-2.57-6.72-3.85-17.59-3.85-32.62l.25-111.4c0-5.13.37-9.19,1.11-12.2.75-3.01,2.32-5.26,4.72-6.76,2.4-1.5,5.42-2.26,9.06-2.26h12.42c3.64,0,6.66.76,9.06,2.26s3.97,3.75,4.72,6.76c.74,3.01,1.12,7.07,1.12,12.2v116.7c0,3.89.28,6.72.87,8.49.57,1.77,1.86,3.23,3.84,4.37,1.99,1.16,4.97,1.73,8.94,1.73s6.5-.8,8.07-2.39c1.57-1.59,2.48-3.4,2.73-5.44.25-2.03.38-4.28.38-6.76ZM885.38,956.65c-.74-2.29-2.35-5.08-4.84-8.35-2.48-3.27-5.63-6.85-9.43-10.74-10.43-10.96-17.67-18.97-21.73-24.01-4.06-5.04-7.12-10.16-9.18-15.38-2.08-5.21-3.11-11.09-3.11-17.64,0-17.68,3.89-31.47,11.67-41.37,7.78-9.9,21.02-14.86,39.73-14.86,10.43,0,18.78,1.02,25.08,3.05,6.28,2.04,9.43,4.82,9.43,8.36v20.42c0,5.31-3.15,7.96-9.43,7.96h-1.99c-.99,0-3.97-.49-8.94-1.46-4.97-.97-8.69-1.46-11.17-1.46-7.12,0-10.68,3.54-10.68,10.61,0,4.07.78,7.56,2.36,10.48,1.57,2.91,4.76,6.41,9.56,10.47,12.25,10.79,21.23,21.18,26.94,31.17,5.71,9.99,8.56,21.61,8.56,34.88,0,6.89-.37,13.04-1.11,18.43-.75,5.4-2.61,10.48-5.59,15.25-2.82,4.42-6.5,8.4-11.05,11.94-4.55,3.54-9.72,6.19-15.52,7.95-6.95,1.95-14.89,2.92-23.83,2.92-10.1,0-18.67-1.19-25.7-3.58-7.04-2.39-10.55-5.97-10.55-10.74v-20.42c0-1.77.74-3.28,2.23-4.51,1.49-1.24,3.81-1.86,6.95-1.86,1.49,0,4.88.66,10.18,1.99,5.3,1.32,10.59,1.99,15.89,1.99,1.66,0,3.73-.44,6.21-1.33,2.48-.88,4.8-2.52,6.95-4.9,2.15-2.39,3.23-5,3.23-7.83,0-2.65-.37-5.13-1.12-7.43ZM896.06,360.59c0-5.13.38-9.19,1.12-12.2.75-3,2.32-5.26,4.72-6.76,2.4-1.5,5.42-2.26,9.06-2.26h64.06c3.31,0,6.08.71,8.32,2.12,2.23,1.42,3.35,3.36,3.35,5.84v22.54c0,2.13-.71,3.76-2.11,4.91-1.41,1.15-4.43,1.72-9.06,1.72l-23.59-.53c-3.15,0-5.88.4-8.19,1.2-2.32.79-3.82,2.12-4.47,3.98-.67,1.85-1,4.73-1,8.62,0,9.19.54,14.94,1.62,17.24,1.07,2.3,2.85,3.62,5.33,3.97,2.49.36,4.31.53,5.47.53l23.58-.53c2.82,0,5.05,1.07,6.71,3.19,1.65,2.12,2.48,5.13,2.48,9.02v16.97c0,2.65-.7,4.73-2.11,6.23-1.41,1.51-4.51,2.26-9.31,2.26l-25.82-.53c-3.64,0-5.88.84-6.71,2.52s-1.24,4.99-1.24,9.94v18.57c.17,2.83,1.37,5,3.6,6.5,2.24,1.5,4.51,2.25,6.83,2.25l24.09-.53c4.96,0,8.48.84,10.55,2.52,2.07,1.68,3.1,4.56,3.1,8.62v18.57c0,3.01-.54,5.53-1.61,7.56-1.08,2.03-3.85,3.05-8.32,3.05h-65.55c-9.93,0-14.9-7.07-14.9-21.22v-145.88ZM798.24,360.59c0-5.13.37-9.19,1.12-12.2.74-3,2.31-5.26,4.71-6.76,2.4-1.5,5.42-2.26,9.07-2.26h12.41c3.64,0,6.66.76,9.06,2.26,2.4,1.5,3.98,3.76,4.72,6.76.75,3.01,1.12,7.07,1.12,12.2v114.32c0,5.66.62,9.5,1.86,11.53,1.24,2.04,3.19,3.14,5.84,3.32l24.33-.53c3.64,0,6.49.88,8.56,2.65,2.07,1.77,3.11,5.48,3.11,11.14v3.45c0,5.13-.37,9.19-1.12,12.2-.74,3.01-2.32,5.26-4.72,6.76-2.4,1.51-5.42,2.26-9.06,2.26h-56.11c-3.65,0-6.67-.75-9.07-2.26-2.4-1.5-3.97-3.75-4.71-6.76-.75-3.01-1.12-7.07-1.12-12.2v-145.88ZM803.57,585.29c2.98,1.85,5.72,5.88,8.2,12.06l18.62,46.95c1.99,4.95,3.64,7.43,4.97,7.43s2.98-2.48,4.96-7.43l18.62-46.95c1.82-4.77,4.06-8.44,6.71-11,2.64-2.56,7.11-3.85,13.41-3.85h13.4c3.64,0,6.66.76,9.07,2.26,2.39,1.5,3.97,3.75,4.71,6.76.75,3.01,1.12,7.07,1.12,12.2v145.88c0,5.13-.37,9.19-1.12,12.2-.74,3.01-2.32,5.26-4.71,6.76-2.41,1.51-5.43,2.26-9.07,2.26h-12.41c-3.64,0-6.67-.75-9.06-2.26-2.41-1.5-3.98-3.75-4.72-6.76-.75-3.01-1.12-7.07-1.12-12.2v-72.94c0-1.77-.41-2.65-1.24-2.65-.66,0-1.41.88-2.24,2.65-1.48,3.18-3.02,6.5-4.59,9.94-1.57,3.45-4.3,9.64-8.19,18.57s-6.62,14.15-8.2,15.65c-1.57,1.5-3.35,2.25-5.33,2.25-2.49,0-4.56-1.06-6.21-3.18-1.66-2.12-4.64-8.18-8.94-18.17-4.31-9.99-8.03-18.34-11.17-25.06-.5-1.06-1.24-1.95-2.24-2.65-.83,0-1.24.88-1.24,2.65v72.94c0,5.13-.37,9.19-1.12,12.2-.74,3.01-2.32,5.26-4.71,6.76-2.41,1.51-5.43,2.26-9.07,2.26h-12.41c-3.64,0-6.67-.75-9.06-2.26-2.4-1.5-3.98-3.75-4.72-6.76-.75-3.01-1.12-7.07-1.12-12.2v-145.88c0-5.13.37-9.19,1.12-12.2.74-3.01,2.32-5.26,4.72-6.76,2.39-1.5,5.42-2.26,9.06-2.26h13.16c5.13,0,9.19.93,12.16,2.79ZM749.94,952.94v39.79c0,5.13-.37,9.19-1.11,12.2-.75,3.01-2.33,5.26-4.72,6.76-2.4,1.5-5.43,2.25-9.07,2.25h-12.41c-3.64,0-6.66-.75-9.06-2.25-2.4-1.5-3.97-3.75-4.72-6.76-.74-3.01-1.12-7.07-1.12-12.2v-145.88c0-5.13.38-9.19,1.12-12.2.75-3.01,2.32-5.26,4.72-6.77,2.4-1.5,5.42-2.25,9.06-2.25h12.41c3.64,0,6.67.75,9.07,2.25,2.39,1.51,3.97,3.76,4.72,6.77.74,3.01,1.11,7.07,1.11,12.2,0,23.34.04,37,.13,40.98.08,3.98.45,5.96,1.11,5.96.83,0,1.9-.66,3.23-1.98,1.32-1.33,2.9-4.2,4.72-8.62,1.82-4.42,3.68-9.82,5.59-16.18,1.9-6.37,3.01-9.99,3.35-10.88.82-2.12,2.36-6.23,4.59-12.33,2.24-6.1,4.01-10.12,5.34-12.07,1.32-1.94,2.81-3.45,4.47-4.51,1.65-1.06,4.05-1.59,7.2-1.59h14.4c6.62,0,10.84.62,12.66,1.86s2.73,3.09,2.73,5.57c0,3.36-1.4,8.04-4.22,14.05-2.65,5.84-8.28,17.33-16.88,34.48-8.61,17.16-12.91,26-12.91,26.53,0,.17.91,2.38,2.73,6.63,22.18,52.16,33.52,82.58,34.02,91.24,0,2.48-1.08,4.42-3.23,5.83-2.16,1.42-5.38,2.12-9.69,2.12h-12.91c-7.45,0-12.33-1.19-14.65-3.58-2.32-2.38-4.88-8.17-7.69-17.37-1.99-6.01-4.93-15.69-8.82-29.04-3.89-13.35-6.74-21.62-8.56-24.8-1.83-3.18-3.57-4.78-5.22-4.78-1.32,0-1.98,1.95-1.98,5.84l.49,12.73ZM661.31,507.79c.25-3,3.02-19.05,8.32-48.14,5.29-29.08,10.83-62.1,16.63-99.06,2.15-14.14,7.78-21.22,16.89-21.22h38.23c8.94,0,14.73,7.08,17.38,21.22,1.49,9.55,3.19,20.07,5.09,31.56,1.9,11.5,4.01,23.79,6.33,36.87,2.32,13.09,5.34,29.35,9.07,48.8,3.72,19.46,5.58,31.66,5.58,36.6,0,4.25-1.2,7.52-3.6,9.82-2.4,2.3-8.48,3.45-18.25,3.45h-13.16c-2.65,0-4.88-1.33-6.7-3.98-1.82-2.65-3.15-7.52-3.97-14.59-.83-7.07-1.45-11.71-1.87-13.92-.41-2.21-1.07-3.98-1.98-5.31-.91-1.33-1.95-1.99-3.11-1.99h-19.86c-1.49,0-2.77.93-3.85,2.79-1.08,1.85-2.07,5.79-2.98,11.8s-1.7,10.26-2.35,12.73c-.67,2.48-1.33,4.51-1.99,6.1-.66,1.59-1.62,3.05-2.86,4.38-1.24,1.32-2.94,1.99-5.09,1.99h-11.67c-8.94,0-14.61-1.15-17-3.45-2.41-2.3-3.6-5.57-3.6-9.82,0-1.41.12-3.62.37-6.63ZM671.24,644.3c1.98,4.95,3.64,7.43,4.96,7.43s2.98-2.48,4.97-7.43l18.62-46.95c1.82-4.77,4.05-8.44,6.7-11,2.65-2.56,7.12-3.85,13.41-3.85h13.41c3.64,0,6.66.76,9.06,2.26s3.97,3.75,4.72,6.76c.74,3.01,1.12,7.07,1.12,12.2v145.88c0,5.13-.38,9.19-1.12,12.2-.75,3.01-2.32,5.26-4.72,6.76-2.4,1.51-5.42,2.26-9.06,2.26h-12.42c-3.64,0-6.66-.75-9.06-2.26-2.4-1.5-3.97-3.75-4.72-6.76-.74-3.01-1.11-7.07-1.11-12.2v-72.94c0-1.77-.42-2.65-1.24-2.65-.67,0-1.41.88-2.24,2.65-1.49,3.18-3.02,6.5-4.59,9.94-1.58,3.45-4.31,9.64-8.2,18.57-3.89,8.93-6.62,14.15-8.19,15.65s-3.35,2.25-5.34,2.25c-2.48,0-4.55-1.06-6.2-3.18-1.66-2.12-4.64-8.18-8.94-18.17-4.31-9.99-8.03-18.34-11.18-25.06-.49-1.06-1.24-1.95-2.23-2.65-.83,0-1.24.88-1.24,2.65v72.94c0,5.13-.38,9.19-1.12,12.2-.75,3.01-2.32,5.26-4.72,6.76-2.4,1.51-5.42,2.26-9.06,2.26h-12.41c-3.65,0-6.67-.75-9.07-2.26-2.4-1.5-3.97-3.75-4.72-6.76-.74-3.01-1.11-7.07-1.11-12.2v-145.88c0-5.13.37-9.19,1.11-12.2.75-3.01,2.32-5.26,4.72-6.76,2.4-1.5,5.42-2.26,9.07-2.26h13.15c5.13,0,9.19.93,12.17,2.79,2.98,1.85,5.71,5.88,8.19,12.06l18.63,46.95ZM654.1,941.27c1,7.43,2.4,13.62,4.23,18.57,1.82,4.95,4.13,8.88,6.95,11.8,2.81,2.92,6.12,4.38,9.93,4.38l8.94-.53c6.29,0,9.43,4.07,9.43,12.2v17.77c0,6.54-3.14,9.81-9.43,9.81-24.67,0-43.54-8.26-56.61-24.8-13.08-16.53-19.62-40.98-19.62-73.34,0-30.23,6.58-53.26,19.74-69.09,13.16-15.82,31.99-23.74,56.49-23.74,2.98,0,5.29.76,6.95,2.26,1.65,1.5,2.48,3.58,2.48,6.23v23.34c0,2.48-.78,4.2-2.36,5.17-1.57.98-3.93,1.46-7.07,1.46l-7.95-.53c-7.78,0-13.65,4.91-17.63,14.72-3.97,9.82-5.95,23.39-5.95,40.71,0,8.32.49,16.18,1.48,23.61ZM536.05,360.59c0-5.13.37-9.19,1.12-12.2.74-3,2.31-5.26,4.71-6.76s5.42-2.26,9.07-2.26h48.41c15.06,0,26.73,4.91,35.01,14.72,8.28,9.82,12.42,24.8,12.42,44.96,0,8.49-.38,15.25-1.12,20.29-.75,5.04-2.36,9.55-4.84,13.53-2.49,3.97-5.3,7.38-8.44,10.21-1.33,1.24-3.15,2.43-5.47,3.58s-3.89,2.17-4.71,3.05c-.83.88-1.25,2.92-1.25,6.1,0,4.42.54,8.66,1.62,12.73,1.07,4.07,2.52,6.99,4.34,8.75,1.82,1.77,3.64,2.65,5.47,2.65.99,0,2.02-.08,3.1-.26,1.07-.17,2.11-.4,3.1-.66,1-.27,1.57-.4,1.74-.4,2.81,0,5.05,1.15,6.7,3.45,1.66,2.3,2.49,7.6,2.49,15.91l-.25,20.95c0,3.19-1.04,5.66-3.1,7.43-2.08,1.77-6.01,2.65-11.8,2.65-5.46,0-10.84-1.24-16.14-3.71-5.3-2.48-10.01-6.81-14.15-13-4.14-6.18-7.12-13.17-8.94-20.95-1.33-5.66-2.94-10.78-4.84-15.38-1.9-4.6-3.85-8-5.83-10.22-1.99-2.2-3.4-3.31-4.23-3.31-1.32,0-1.98,2.12-1.98,6.36v37.67c0,5.13-.37,9.19-1.12,12.2-.74,3.01-2.32,5.26-4.72,6.76-2.4,1.51-5.42,2.26-9.06,2.26h-17.38c-2.15,0-4.1-.71-5.83-2.13-1.74-1.41-2.86-3.66-3.36-6.76-.49-3.09-.74-7.2-.74-12.33v-145.88ZM594.77,846.85v145.88c0,5.13-.38,9.19-1.12,12.2-.75,3.01-2.32,5.26-4.72,6.76-2.4,1.5-5.42,2.25-9.06,2.25h-12.42c-3.64,0-6.66-.75-9.06-2.25-2.4-1.5-3.97-3.75-4.72-6.76-.74-3.01-1.11-7.07-1.11-12.2v-145.88c0-5.13.37-9.19,1.11-12.2.75-3.01,2.32-5.26,4.72-6.77,2.4-1.5,5.42-2.25,9.06-2.25h12.42c3.64,0,6.66.75,9.06,2.25,2.4,1.51,3.97,3.76,4.72,6.77.74,3.01,1.12,7.07,1.12,12.2ZM480.05,655.17c0-15.55.87-27.67,2.61-36.33,1.74-8.66,4.88-15.92,9.44-21.75,4.55-5.84,10.71-9.95,18.49-12.33,7.78-2.39,16.31-3.59,25.58-3.59s16.59,1.02,22.96,3.05c6.37,2.04,11.84,5.22,16.39,9.55,4.55,4.34,8.03,10.79,10.43,19.37,2.4,8.57,3.6,22.23,3.6,40.97l.74,45.62c0,17.86-1.57,31.74-4.71,41.64-3.15,9.91-8.61,17.51-16.39,22.81-7.78,5.31-18.79,7.96-33.02,7.96-12.42,0-22.47-1.81-30.17-5.44-7.7-3.62-13.41-8.62-17.13-14.98-3.73-6.37-6.13-13.79-7.2-22.28-1.08-8.49-1.62-18.83-1.62-31.03l.25-21.75-.25-21.49ZM470.12,891.81c1.33-1.33,2.9-4.2,4.72-8.62,1.82-4.42,3.68-9.82,5.59-16.18,1.9-6.37,3.02-9.99,3.35-10.88.83-2.12,2.36-6.23,4.59-12.33,2.24-6.1,4.01-10.12,5.34-12.07,1.32-1.94,2.81-3.45,4.47-4.51,1.65-1.06,4.05-1.59,7.2-1.59h14.4c6.62,0,10.84.62,12.67,1.86,1.81,1.24,2.73,3.09,2.73,5.57,0,3.36-1.41,8.04-4.22,14.05-2.65,5.84-8.28,17.33-16.89,34.48-8.61,17.16-12.91,26-12.91,26.53,0,.17.91,2.38,2.73,6.63,22.18,52.16,33.52,82.58,34.02,91.24,0,2.48-1.08,4.42-3.23,5.83-2.15,1.42-5.38,2.12-9.68,2.12h-12.91c-7.45,0-12.34-1.19-14.65-3.58-2.32-2.38-4.89-8.17-7.7-17.37-1.99-6.01-4.93-15.69-8.82-29.04-3.89-13.35-6.74-21.62-8.56-24.8s-3.56-4.78-5.22-4.78c-1.32,0-1.98,1.95-1.98,5.84l.49,12.73v39.79c0,5.13-.37,9.19-1.11,12.2-.75,3.01-2.32,5.26-4.72,6.76-2.4,1.5-5.42,2.25-9.06,2.25h-12.42c-3.64,0-6.66-.75-9.06-2.25-2.4-1.5-3.97-3.75-4.72-6.76-.74-3.01-1.11-7.07-1.11-12.2v-145.88c0-5.13.37-9.19,1.11-12.2.75-3.01,2.32-5.26,4.72-6.77,2.4-1.5,5.42-2.25,9.06-2.25h12.42c3.64,0,6.66.75,9.06,2.25,2.4,1.51,3.97,3.76,4.72,6.77.74,3.01,1.11,7.07,1.11,12.2,0,23.34.04,37,.13,40.98.08,3.98.45,5.96,1.12,5.96.82,0,1.9-.66,3.22-1.98ZM400.98,604.91c13.16-15.82,31.98-23.74,56.48-23.74,2.98,0,5.3.76,6.95,2.26,1.66,1.5,2.49,3.58,2.49,6.23v23.34c0,2.48-.79,4.2-2.36,5.17-1.58.98-3.94,1.46-7.08,1.46l-7.94-.53c-7.79,0-13.66,4.91-17.63,14.72-3.97,9.82-5.96,23.39-5.96,40.72,0,8.31.5,16.18,1.49,23.6.99,7.43,2.4,13.62,4.22,18.57s4.14,8.88,6.95,11.8c2.81,2.92,6.12,4.38,9.93,4.38l8.94-.53c6.29,0,9.44,4.07,9.44,12.2v17.77c0,6.54-3.15,9.81-9.44,9.81-24.66,0-43.53-8.26-56.61-24.8-13.08-16.53-19.61-40.98-19.61-73.33,0-30.24,6.58-53.27,19.74-69.1ZM344.4,1161.91l-123.89-7.06c-59.22-5.76-131.83.65-189.43-13.87-4.38-1.05-13.95-3.08-15.17-8.11.4-17.61-1.54-36.83.97-54.19,5.84-40.65,39.84-31.4,71.15-31.97l264.48,24.26c-11.12,28.8-9.9,60.68-8.11,90.94ZM962.19,1534.62c-.41,10.87-.25,21.9-.9,32.85-10.3-.32-20.68.33-30.91.08-2.19-.08-4.13-.97-6-1.05-5.27-.24-36.83-.81-38.53-3-6.98-32.05-6.58-65.07-9.58-97.68-.4-28.88-2.11-57.68,2.11-86.4,11.2-1.79,22.56-.89,33.91-1.06,7.22-.08,12.5-.24,20.12,0,4.55.17,15.99-1.05,19.15,1.06,3.24,2.27,7.79,30.34,8.52,35.94,5.11,39.18,3.57,79.91,2.11,119.26ZM1484.81,1152.58c-24.66,10.47-50.54,21.99-72.85,36.84-100.76,67.25-151.47,157.71-284.51,175.64-79.67,10.79-169.97-.25-251.75,1.13-82.99,1.3-167.12,11.52-245.49-23.36-87.21-38.86-141.16-122.67-224.48-168.91-15.42-8.52-31.24-16.23-47.22-23.53-4.62-7.14.49-58.57,4.14-61.17,19.88,6.33,40,14.36,58.9,23.37,118.45,55.65,162.26,178.8,308.69,193.97,85.02,8.85,178.16.17,264.8,2.03,62.23,1.46,127.29,7.87,186.84-14.44,102.95-38.45,158.61-148.3,257.99-192.03,5.27-2.27,38.54-15.09,41.05-12.9,4.87,20.37,11.36,42.84,3.89,63.36ZM1826.36,1133.68c-3.16,4.79-61.65,8.28-70.82,10.06l-256.28,18.17c4.13-26.53.97-54.43-4.95-80.48-.65-2.84-4.63-10.38-1.46-11.35l250.6-22.4c25.8-.24,69.37-8.43,79.91,23.29,3.57,10.87,4.63,31.31,4.63,42.92-.08,6.49-1.71,13.38-1.63,19.79ZM1362.72,867.01c-2.81-3.72-7.04-5.57-12.66-5.57-1.66,0-2.94.44-3.85,1.32-.91.89-1.37,3.19-1.37,6.9l.25,93.89c0,4.07.33,7.29,1,9.68.66,2.39,1.98,3.58,3.97,3.58,4.63,0,8.44-1.19,11.42-3.58,2.98-2.39,5.13-6.98,6.46-13.79,1.32-6.81,1.98-20.47,1.98-40.98,0-15.91-.49-27.54-1.49-34.88-.99-7.33-2.9-12.86-5.71-16.57ZM1091.34,934.37c4.14,0,6.79-.21,7.95-.66,1.15-.44,1.73-1.54,1.73-3.31l-.24-4.25c-.5-4.24-1.29-12.42-2.36-24.53-1.08-12.11-2.16-20.73-3.23-25.86-1.08-5.13-2.36-7.69-3.85-7.69-1.33,0-2.61,2.47-3.85,7.42-1.24,4.96-2.44,14.37-3.6,28.25-1.16,13.88-1.82,21.35-1.98,22.41l-.25,3.98c0,1.59.37,2.7,1.12,3.32.74.62,3.6.92,8.56.92ZM722.26,448.12c4.14,0,6.79-.22,7.95-.67,1.15-.44,1.74-1.54,1.74-3.31l-.25-4.25c-.5-4.24-1.29-12.42-2.36-24.53-1.08-12.11-2.15-20.73-3.23-25.86-1.08-5.13-2.36-7.69-3.85-7.69-1.32,0-2.6,2.48-3.85,7.43-1.24,4.95-2.44,14.36-3.6,28.24-1.16,13.89-1.82,21.35-1.98,22.41l-.25,3.98c0,1.59.37,2.7,1.12,3.32.74.62,3.6.93,8.56.93ZM579.38,422.65c.9,1.77,4.25,2.66,10.05,2.66,9.1,0,13.66-7.87,13.66-23.61,0-5.13-.54-9.85-1.62-14.19-1.08-4.33-2.73-7.47-4.96-9.41-2.24-1.95-4.6-2.92-7.08-2.92-3.64,0-6.45.49-8.44,1.46-1.99.97-2.98,4.29-2.98,9.94l.25,15.12-.25,13.26c0,3.36.45,5.93,1.37,7.69ZM534.93,735.01c4.13,0,7.24-1.28,9.31-3.85,2.06-2.56,3.1-7.46,3.1-14.72v-83.55c0-4.59-.58-7.91-1.74-9.94-1.16-2.03-2.85-3.32-5.09-3.85-2.23-.53-4.09-.79-5.58-.79-4.14,0-7.12.88-8.94,2.65-1.83,1.77-2.86,3.8-3.11,6.1-.24,2.3-.37,4.24-.37,5.83v83.55c0,7.26,1.03,12.16,3.11,14.72,2.06,2.57,5.17,3.85,9.31,3.85ZM1368.43,883.58c-.99-7.33-2.9-12.86-5.71-16.57-2.81-3.72-7.04-5.57-12.66-5.57-1.66,0-2.94.44-3.85,1.32-.91.89-1.37,3.19-1.37,6.9l.25,93.89c0,4.07.33,7.29,1,9.68.66,2.39,1.98,3.58,3.97,3.58,4.63,0,8.44-1.19,11.42-3.58,2.98-2.39,5.13-6.98,6.46-13.79,1.32-6.81,1.98-20.47,1.98-40.98,0-15.91-.49-27.54-1.49-34.88ZM1100.78,926.15c-.5-4.24-1.29-12.42-2.36-24.53-1.08-12.11-2.16-20.73-3.23-25.86-1.08-5.13-2.36-7.69-3.85-7.69-1.33,0-2.61,2.47-3.85,7.42-1.24,4.96-2.44,14.37-3.6,28.25-1.16,13.88-1.82,21.35-1.98,22.41l-.25,3.98c0,1.59.37,2.7,1.12,3.32.74.62,3.6.92,8.56.92,4.14,0,6.79-.21,7.95-.66,1.15-.44,1.73-1.54,1.73-3.31l-.24-4.25ZM731.7,439.89c-.5-4.24-1.29-12.42-2.36-24.53-1.08-12.11-2.15-20.73-3.23-25.86-1.08-5.13-2.36-7.69-3.85-7.69-1.32,0-2.6,2.48-3.85,7.43-1.24,4.95-2.44,14.36-3.6,28.24-1.16,13.89-1.82,21.35-1.98,22.41l-.25,3.98c0,1.59.37,2.7,1.12,3.32.74.62,3.6.93,8.56.93,4.14,0,6.79-.22,7.95-.67,1.15-.44,1.74-1.54,1.74-3.31l-.25-4.25ZM601.47,387.51c-1.08-4.33-2.73-7.47-4.96-9.41-2.24-1.95-4.6-2.92-7.08-2.92-3.64,0-6.45.49-8.44,1.46-1.99.97-2.98,4.29-2.98,9.94l.25,15.12-.25,13.26c0,3.36.45,5.93,1.37,7.69.9,1.77,4.25,2.66,10.05,2.66,9.1,0,13.66-7.87,13.66-23.61,0-5.13-.54-9.85-1.62-14.19ZM545.6,622.95c-1.16-2.03-2.85-3.32-5.09-3.85-2.23-.53-4.09-.79-5.58-.79-4.14,0-7.12.88-8.94,2.65-1.83,1.77-2.86,3.8-3.11,6.1-.24,2.3-.37,4.24-.37,5.83v83.55c0,7.26,1.03,12.16,3.11,14.72,2.06,2.57,5.17,3.85,9.31,3.85s7.24-1.28,9.31-3.85c2.06-2.56,3.1-7.46,3.1-14.72v-83.55c0-4.59-.58-7.91-1.74-9.94ZM1368.43,883.58c-.99-7.33-2.9-12.86-5.71-16.57-2.81-3.72-7.04-5.57-12.66-5.57-1.66,0-2.94.44-3.85,1.32-.91.89-1.37,3.19-1.37,6.9l.25,93.89c0,4.07.33,7.29,1,9.68.66,2.39,1.98,3.58,3.97,3.58,4.63,0,8.44-1.19,11.42-3.58,2.98-2.39,5.13-6.98,6.46-13.79,1.32-6.81,1.98-20.47,1.98-40.98,0-15.91-.49-27.54-1.49-34.88ZM1100.78,926.15c-.5-4.24-1.29-12.42-2.36-24.53-1.08-12.11-2.16-20.73-3.23-25.86-1.08-5.13-2.36-7.69-3.85-7.69-1.33,0-2.61,2.47-3.85,7.42-1.24,4.96-2.44,14.37-3.6,28.25-1.16,13.88-1.82,21.35-1.98,22.41l-.25,3.98c0,1.59.37,2.7,1.12,3.32.74.62,3.6.92,8.56.92,4.14,0,6.79-.21,7.95-.66,1.15-.44,1.73-1.54,1.73-3.31l-.24-4.25ZM731.7,439.89c-.5-4.24-1.29-12.42-2.36-24.53-1.08-12.11-2.15-20.73-3.23-25.86-1.08-5.13-2.36-7.69-3.85-7.69-1.32,0-2.6,2.48-3.85,7.43-1.24,4.95-2.44,14.36-3.6,28.24-1.16,13.89-1.82,21.35-1.98,22.41l-.25,3.98c0,1.59.37,2.7,1.12,3.32.74.62,3.6.93,8.56.93,4.14,0,6.79-.22,7.95-.67,1.15-.44,1.74-1.54,1.74-3.31l-.25-4.25ZM601.47,387.51c-1.08-4.33-2.73-7.47-4.96-9.41-2.24-1.95-4.6-2.92-7.08-2.92-3.64,0-6.45.49-8.44,1.46-1.99.97-2.98,4.29-2.98,9.94l.25,15.12-.25,13.26c0,3.36.45,5.93,1.37,7.69.9,1.77,4.25,2.66,10.05,2.66,9.1,0,13.66-7.87,13.66-23.61,0-5.13-.54-9.85-1.62-14.19ZM545.6,622.95c-1.16-2.03-2.85-3.32-5.09-3.85-2.23-.53-4.09-.79-5.58-.79-4.14,0-7.12.88-8.94,2.65-1.83,1.77-2.86,3.8-3.11,6.1-.24,2.3-.37,4.24-.37,5.83v83.55c0,7.26,1.03,12.16,3.11,14.72,2.06,2.57,5.17,3.85,9.31,3.85s7.24-1.28,9.31-3.85c2.06-2.56,3.1-7.46,3.1-14.72v-83.55c0-4.59-.58-7.91-1.74-9.94ZM1368.43,883.58c-.99-7.33-2.9-12.86-5.71-16.57-2.81-3.72-7.04-5.57-12.66-5.57-1.66,0-2.94.44-3.85,1.32-.91.89-1.37,3.19-1.37,6.9l.25,93.89c0,4.07.33,7.29,1,9.68.66,2.39,1.98,3.58,3.97,3.58,4.63,0,8.44-1.19,11.42-3.58,2.98-2.39,5.13-6.98,6.46-13.79,1.32-6.81,1.98-20.47,1.98-40.98,0-15.91-.49-27.54-1.49-34.88ZM1100.78,926.15c-.5-4.24-1.29-12.42-2.36-24.53-1.08-12.11-2.16-20.73-3.23-25.86-1.08-5.13-2.36-7.69-3.85-7.69-1.33,0-2.61,2.47-3.85,7.42-1.24,4.96-2.44,14.37-3.6,28.25-1.16,13.88-1.82,21.35-1.98,22.41l-.25,3.98c0,1.59.37,2.7,1.12,3.32.74.62,3.6.92,8.56.92,4.14,0,6.79-.21,7.95-.66,1.15-.44,1.73-1.54,1.73-3.31l-.24-4.25ZM731.7,439.89c-.5-4.24-1.29-12.42-2.36-24.53-1.08-12.11-2.15-20.73-3.23-25.86-1.08-5.13-2.36-7.69-3.85-7.69-1.32,0-2.6,2.48-3.85,7.43-1.24,4.95-2.44,14.36-3.6,28.24-1.16,13.89-1.82,21.35-1.98,22.41l-.25,3.98c0,1.59.37,2.7,1.12,3.32.74.62,3.6.93,8.56.93,4.14,0,6.79-.22,7.95-.67,1.15-.44,1.74-1.54,1.74-3.31l-.25-4.25ZM601.47,387.51c-1.08-4.33-2.73-7.47-4.96-9.41-2.24-1.95-4.6-2.92-7.08-2.92-3.64,0-6.45.49-8.44,1.46-1.99.97-2.98,4.29-2.98,9.94l.25,15.12-.25,13.26c0,3.36.45,5.93,1.37,7.69.9,1.77,4.25,2.66,10.05,2.66,9.1,0,13.66-7.87,13.66-23.61,0-5.13-.54-9.85-1.62-14.19ZM545.6,622.95c-1.16-2.03-2.85-3.32-5.09-3.85-2.23-.53-4.09-.79-5.58-.79-4.14,0-7.12.88-8.94,2.65-1.83,1.77-2.86,3.8-3.11,6.1-.24,2.3-.37,4.24-.37,5.83v83.55c0,7.26,1.03,12.16,3.11,14.72,2.06,2.57,5.17,3.85,9.31,3.85s7.24-1.28,9.31-3.85c2.06-2.56,3.1-7.46,3.1-14.72v-83.55c0-4.59-.58-7.91-1.74-9.94ZM1368.43,883.58c-.99-7.33-2.9-12.86-5.71-16.57-2.81-3.72-7.04-5.57-12.66-5.57-1.66,0-2.94.44-3.85,1.32-.91.89-1.37,3.19-1.37,6.9l.25,93.89c0,4.07.33,7.29,1,9.68.66,2.39,1.98,3.58,3.97,3.58,4.63,0,8.44-1.19,11.42-3.58,2.98-2.39,5.13-6.98,6.46-13.79,1.32-6.81,1.98-20.47,1.98-40.98,0-15.91-.49-27.54-1.49-34.88ZM1100.78,926.15c-.5-4.24-1.29-12.42-2.36-24.53-1.08-12.11-2.16-20.73-3.23-25.86-1.08-5.13-2.36-7.69-3.85-7.69-1.33,0-2.61,2.47-3.85,7.42-1.24,4.96-2.44,14.37-3.6,28.25-1.16,13.88-1.82,21.35-1.98,22.41l-.25,3.98c0,1.59.37,2.7,1.12,3.32.74.62,3.6.92,8.56.92,4.14,0,6.79-.21,7.95-.66,1.15-.44,1.73-1.54,1.73-3.31l-.24-4.25ZM731.7,439.89c-.5-4.24-1.29-12.42-2.36-24.53-1.08-12.11-2.15-20.73-3.23-25.86-1.08-5.13-2.36-7.69-3.85-7.69-1.32,0-2.6,2.48-3.85,7.43-1.24,4.95-2.44,14.36-3.6,28.24-1.16,13.89-1.82,21.35-1.98,22.41l-.25,3.98c0,1.59.37,2.7,1.12,3.32.74.62,3.6.93,8.56.93,4.14,0,6.79-.22,7.95-.67,1.15-.44,1.74-1.54,1.74-3.31l-.25-4.25ZM601.47,387.51c-1.08-4.33-2.73-7.47-4.96-9.41-2.24-1.95-4.6-2.92-7.08-2.92-3.64,0-6.45.49-8.44,1.46-1.99.97-2.98,4.29-2.98,9.94l.25,15.12-.25,13.26c0,3.36.45,5.93,1.37,7.69.9,1.77,4.25,2.66,10.05,2.66,9.1,0,13.66-7.87,13.66-23.61,0-5.13-.54-9.85-1.62-14.19ZM545.6,622.95c-1.16-2.03-2.85-3.32-5.09-3.85-2.23-.53-4.09-.79-5.58-.79-4.14,0-7.12.88-8.94,2.65-1.83,1.77-2.86,3.8-3.11,6.1-.24,2.3-.37,4.24-.37,5.83v83.55c0,7.26,1.03,12.16,3.11,14.72,2.06,2.57,5.17,3.85,9.31,3.85s7.24-1.28,9.31-3.85c2.06-2.56,3.1-7.46,3.1-14.72v-83.55c0-4.59-.58-7.91-1.74-9.94ZM1368.43,883.58c-.99-7.33-2.9-12.86-5.71-16.57-2.81-3.72-7.04-5.57-12.66-5.57-1.66,0-2.94.44-3.85,1.32-.91.89-1.37,3.19-1.37,6.9l.25,93.89c0,4.07.33,7.29,1,9.68.66,2.39,1.98,3.58,3.97,3.58,4.63,0,8.44-1.19,11.42-3.58,2.98-2.39,5.13-6.98,6.46-13.79,1.32-6.81,1.98-20.47,1.98-40.98,0-15.91-.49-27.54-1.49-34.88ZM1100.78,926.15c-.5-4.24-1.29-12.42-2.36-24.53-1.08-12.11-2.16-20.73-3.23-25.86-1.08-5.13-2.36-7.69-3.85-7.69-1.33,0-2.61,2.47-3.85,7.42-1.24,4.96-2.44,14.37-3.6,28.25-1.16,13.88-1.82,21.35-1.98,22.41l-.25,3.98c0,1.59.37,2.7,1.12,3.32.74.62,3.6.92,8.56.92,4.14,0,6.79-.21,7.95-.66,1.15-.44,1.73-1.54,1.73-3.31l-.24-4.25ZM601.47,387.51c-1.08-4.33-2.73-7.47-4.96-9.41-2.24-1.95-4.6-2.92-7.08-2.92-3.64,0-6.45.49-8.44,1.46-1.99.97-2.98,4.29-2.98,9.94l.25,15.12-.25,13.26c0,3.36.45,5.93,1.37,7.69.9,1.77,4.25,2.66,10.05,2.66,9.1,0,13.66-7.87,13.66-23.61,0-5.13-.54-9.85-1.62-14.19ZM545.6,622.95c-1.16-2.03-2.85-3.32-5.09-3.85-2.23-.53-4.09-.79-5.58-.79-4.14,0-7.12.88-8.94,2.65-1.83,1.77-2.86,3.8-3.11,6.1-.24,2.3-.37,4.24-.37,5.83v83.55c0,7.26,1.03,12.16,3.11,14.72,2.06,2.57,5.17,3.85,9.31,3.85s7.24-1.28,9.31-3.85c2.06-2.56,3.1-7.46,3.1-14.72v-83.55c0-4.59-.58-7.91-1.74-9.94ZM1368.43,883.58c-.99-7.33-2.9-12.86-5.71-16.57-2.81-3.72-7.04-5.57-12.66-5.57-1.66,0-2.94.44-3.85,1.32-.91.89-1.37,3.19-1.37,6.9l.25,93.89c0,4.07.33,7.29,1,9.68.66,2.39,1.98,3.58,3.97,3.58,4.63,0,8.44-1.19,11.42-3.58,2.98-2.39,5.13-6.98,6.46-13.79,1.32-6.81,1.98-20.47,1.98-40.98,0-15.91-.49-27.54-1.49-34.88ZM1100.78,926.15c-.5-4.24-1.29-12.42-2.36-24.53-1.08-12.11-2.16-20.73-3.23-25.86-1.08-5.13-2.36-7.69-3.85-7.69-1.33,0-2.61,2.47-3.85,7.42-1.24,4.96-2.44,14.37-3.6,28.25-1.16,13.88-1.82,21.35-1.98,22.41l-.25,3.98c0,1.59.37,2.7,1.12,3.32.74.62,3.6.92,8.56.92,4.14,0,6.79-.21,7.95-.66,1.15-.44,1.73-1.54,1.73-3.31l-.24-4.25ZM601.47,387.51c-1.08-4.33-2.73-7.47-4.96-9.41-2.24-1.95-4.6-2.92-7.08-2.92-3.64,0-6.45.49-8.44,1.46-1.99.97-2.98,4.29-2.98,9.94l.25,15.12-.25,13.26c0,3.36.45,5.93,1.37,7.69.9,1.77,4.25,2.66,10.05,2.66,9.1,0,13.66-7.87,13.66-23.61,0-5.13-.54-9.85-1.62-14.19ZM545.6,622.95c-1.16-2.03-2.85-3.32-5.09-3.85-2.23-.53-4.09-.79-5.58-.79-4.14,0-7.12.88-8.94,2.65-1.83,1.77-2.86,3.8-3.11,6.1-.24,2.3-.37,4.24-.37,5.83v83.55c0,7.26,1.03,12.16,3.11,14.72,2.06,2.57,5.17,3.85,9.31,3.85s7.24-1.28,9.31-3.85c2.06-2.56,3.1-7.46,3.1-14.72v-83.55c0-4.59-.58-7.91-1.74-9.94ZM1368.43,883.58c-.99-7.33-2.9-12.86-5.71-16.57-2.81-3.72-7.04-5.57-12.66-5.57-1.66,0-2.94.44-3.85,1.32-.91.89-1.37,3.19-1.37,6.9l.25,93.89c0,4.07.33,7.29,1,9.68.66,2.39,1.98,3.58,3.97,3.58,4.63,0,8.44-1.19,11.42-3.58,2.98-2.39,5.13-6.98,6.46-13.79,1.32-6.81,1.98-20.47,1.98-40.98,0-15.91-.49-27.54-1.49-34.88ZM1100.78,926.15c-.5-4.24-1.29-12.42-2.36-24.53-1.08-12.11-2.16-20.73-3.23-25.86-1.08-5.13-2.36-7.69-3.85-7.69-1.33,0-2.61,2.47-3.85,7.42-1.24,4.96-2.44,14.37-3.6,28.25-1.16,13.88-1.82,21.35-1.98,22.41l-.25,3.98c0,1.59.37,2.7,1.12,3.32.74.62,3.6.92,8.56.92,4.14,0,6.79-.21,7.95-.66,1.15-.44,1.73-1.54,1.73-3.31l-.24-4.25ZM545.6,622.95c-1.16-2.03-2.85-3.32-5.09-3.85-2.23-.53-4.09-.79-5.58-.79-4.14,0-7.12.88-8.94,2.65-1.83,1.77-2.86,3.8-3.11,6.1-.24,2.3-.37,4.24-.37,5.83v83.55c0,7.26,1.03,12.16,3.11,14.72,2.06,2.57,5.17,3.85,9.31,3.85s7.24-1.28,9.31-3.85c2.06-2.56,3.1-7.46,3.1-14.72v-83.55c0-4.59-.58-7.91-1.74-9.94ZM1368.43,883.58c-.99-7.33-2.9-12.86-5.71-16.57-2.81-3.72-7.04-5.57-12.66-5.57-1.66,0-2.94.44-3.85,1.32-.91.89-1.37,3.19-1.37,6.9l.25,93.89c0,4.07.33,7.29,1,9.68.66,2.39,1.98,3.58,3.97,3.58,4.63,0,8.44-1.19,11.42-3.58,2.98-2.39,5.13-6.98,6.46-13.79,1.32-6.81,1.98-20.47,1.98-40.98,0-15.91-.49-27.54-1.49-34.88ZM1100.78,926.15c-.5-4.24-1.29-12.42-2.36-24.53-1.08-12.11-2.16-20.73-3.23-25.86-1.08-5.13-2.36-7.69-3.85-7.69-1.33,0-2.61,2.47-3.85,7.42-1.24,4.96-2.44,14.37-3.6,28.25-1.16,13.88-1.82,21.35-1.98,22.41l-.25,3.98c0,1.59.37,2.7,1.12,3.32.74.62,3.6.92,8.56.92,4.14,0,6.79-.21,7.95-.66,1.15-.44,1.73-1.54,1.73-3.31l-.24-4.25ZM545.6,622.95c-1.16-2.03-2.85-3.32-5.09-3.85-2.23-.53-4.09-.79-5.58-.79-4.14,0-7.12.88-8.94,2.65-1.83,1.77-2.86,3.8-3.11,6.1-.24,2.3-.37,4.24-.37,5.83v83.55c0,7.26,1.03,12.16,3.11,14.72,2.06,2.57,5.17,3.85,9.31,3.85s7.24-1.28,9.31-3.85c2.06-2.56,3.1-7.46,3.1-14.72v-83.55c0-4.59-.58-7.91-1.74-9.94ZM1368.43,883.58c-.99-7.33-2.9-12.86-5.71-16.57-2.81-3.72-7.04-5.57-12.66-5.57-1.66,0-2.94.44-3.85,1.32-.91.89-1.37,3.19-1.37,6.9l.25,93.89c0,4.07.33,7.29,1,9.68.66,2.39,1.98,3.58,3.97,3.58,4.63,0,8.44-1.19,11.42-3.58,2.98-2.39,5.13-6.98,6.46-13.79,1.32-6.81,1.98-20.47,1.98-40.98,0-15.91-.49-27.54-1.49-34.88ZM1100.78,926.15c-.5-4.24-1.29-12.42-2.36-24.53-1.08-12.11-2.16-20.73-3.23-25.86-1.08-5.13-2.36-7.69-3.85-7.69-1.33,0-2.61,2.47-3.85,7.42-1.24,4.96-2.44,14.37-3.6,28.25-1.16,13.88-1.82,21.35-1.98,22.41l-.25,3.98c0,1.59.37,2.7,1.12,3.32.74.62,3.6.92,8.56.92,4.14,0,6.79-.21,7.95-.66,1.15-.44,1.73-1.54,1.73-3.31l-.24-4.25ZM1368.43,883.58c-.99-7.33-2.9-12.86-5.71-16.57-2.81-3.72-7.04-5.57-12.66-5.57-1.66,0-2.94.44-3.85,1.32-.91.89-1.37,3.19-1.37,6.9l.25,93.89c0,4.07.33,7.29,1,9.68.66,2.39,1.98,3.58,3.97,3.58,4.63,0,8.44-1.19,11.42-3.58,2.98-2.39,5.13-6.98,6.46-13.79,1.32-6.81,1.98-20.47,1.98-40.98,0-15.91-.49-27.54-1.49-34.88ZM1100.78,926.15c-.5-4.24-1.29-12.42-2.36-24.53-1.08-12.11-2.16-20.73-3.23-25.86-1.08-5.13-2.36-7.69-3.85-7.69-1.33,0-2.61,2.47-3.85,7.42-1.24,4.96-2.44,14.37-3.6,28.25-1.16,13.88-1.82,21.35-1.98,22.41l-.25,3.98c0,1.59.37,2.7,1.12,3.32.74.62,3.6.92,8.56.92,4.14,0,6.79-.21,7.95-.66,1.15-.44,1.73-1.54,1.73-3.31l-.24-4.25ZM1368.43,883.58c-.99-7.33-2.9-12.86-5.71-16.57-2.81-3.72-7.04-5.57-12.66-5.57-1.66,0-2.94.44-3.85,1.32-.91.89-1.37,3.19-1.37,6.9l.25,93.89c0,4.07.33,7.29,1,9.68.66,2.39,1.98,3.58,3.97,3.58,4.63,0,8.44-1.19,11.42-3.58,2.98-2.39,5.13-6.98,6.46-13.79,1.32-6.81,1.98-20.47,1.98-40.98,0-15.91-.49-27.54-1.49-34.88ZM1100.78,926.15c-.5-4.24-1.29-12.42-2.36-24.53-1.08-12.11-2.16-20.73-3.23-25.86-1.08-5.13-2.36-7.69-3.85-7.69-1.33,0-2.61,2.47-3.85,7.42-1.24,4.96-2.44,14.37-3.6,28.25-1.16,13.88-1.82,21.35-1.98,22.41l-.25,3.98c0,1.59.37,2.7,1.12,3.32.74.62,3.6.92,8.56.92,4.14,0,6.79-.21,7.95-.66,1.15-.44,1.73-1.54,1.73-3.31l-.24-4.25ZM1368.43,883.58c-.99-7.33-2.9-12.86-5.71-16.57-2.81-3.72-7.04-5.57-12.66-5.57-1.66,0-2.94.44-3.85,1.32-.91.89-1.37,3.19-1.37,6.9l.25,93.89c0,4.07.33,7.29,1,9.68.66,2.39,1.98,3.58,3.97,3.58,4.63,0,8.44-1.19,11.42-3.58,2.98-2.39,5.13-6.98,6.46-13.79,1.32-6.81,1.98-20.47,1.98-40.98,0-15.91-.49-27.54-1.49-34.88ZM1100.78,926.15c-.5-4.24-1.29-12.42-2.36-24.53-1.08-12.11-2.16-20.73-3.23-25.86-1.08-5.13-2.36-7.69-3.85-7.69-1.33,0-2.61,2.47-3.85,7.42-1.24,4.96-2.44,14.37-3.6,28.25-1.16,13.88-1.82,21.35-1.98,22.41l-.25,3.98c0,1.59.37,2.7,1.12,3.32.74.62,3.6.92,8.56.92,4.14,0,6.79-.21,7.95-.66,1.15-.44,1.73-1.54,1.73-3.31l-.24-4.25ZM1368.43,883.58c-.99-7.33-2.9-12.86-5.71-16.57-2.81-3.72-7.04-5.57-12.66-5.57-1.66,0-2.94.44-3.85,1.32-.91.89-1.37,3.19-1.37,6.9l.25,93.89c0,4.07.33,7.29,1,9.68.66,2.39,1.98,3.58,3.97,3.58,4.63,0,8.44-1.19,11.42-3.58,2.98-2.39,5.13-6.98,6.46-13.79,1.32-6.81,1.98-20.47,1.98-40.98,0-15.91-.49-27.54-1.49-34.88ZM1100.78,926.15c-.5-4.24-1.29-12.42-2.36-24.53-1.08-12.11-2.16-20.73-3.23-25.86-1.08-5.13-2.36-7.69-3.85-7.69-1.33,0-2.61,2.47-3.85,7.42-1.24,4.96-2.44,14.37-3.6,28.25-1.16,13.88-1.82,21.35-1.98,22.41l-.25,3.98c0,1.59.37,2.7,1.12,3.32.74.62,3.6.92,8.56.92,4.14,0,6.79-.21,7.95-.66,1.15-.44,1.73-1.54,1.73-3.31l-.24-4.25ZM1368.43,883.58c-.99-7.33-2.9-12.86-5.71-16.57-2.81-3.72-7.04-5.57-12.66-5.57-1.66,0-2.94.44-3.85,1.32-.91.89-1.37,3.19-1.37,6.9l.25,93.89c0,4.07.33,7.29,1,9.68.66,2.39,1.98,3.58,3.97,3.58,4.63,0,8.44-1.19,11.42-3.58,2.98-2.39,5.13-6.98,6.46-13.79,1.32-6.81,1.98-20.47,1.98-40.98,0-15.91-.49-27.54-1.49-34.88ZM1100.78,926.15c-.5-4.24-1.29-12.42-2.36-24.53-1.08-12.11-2.16-20.73-3.23-25.86-1.08-5.13-2.36-7.69-3.85-7.69-1.33,0-2.61,2.47-3.85,7.42-1.24,4.96-2.44,14.37-3.6,28.25-1.16,13.88-1.82,21.35-1.98,22.41l-.25,3.98c0,1.59.37,2.7,1.12,3.32.74.62,3.6.92,8.56.92,4.14,0,6.79-.21,7.95-.66,1.15-.44,1.73-1.54,1.73-3.31l-.24-4.25ZM1100.78,926.15c-.5-4.24-1.29-12.42-2.36-24.53-1.08-12.11-2.16-20.73-3.23-25.86-1.08-5.13-2.36-7.69-3.85-7.69-1.33,0-2.61,2.47-3.85,7.42-1.24,4.96-2.44,14.37-3.6,28.25-1.16,13.88-1.82,21.35-1.98,22.41l-.25,3.98c0,1.59.37,2.7,1.12,3.32.74.62,3.6.92,8.56.92,4.14,0,6.79-.21,7.95-.66,1.15-.44,1.73-1.54,1.73-3.31l-.24-4.25ZM1368.43,883.58c-.99-7.33-2.9-12.86-5.71-16.57-2.81-3.72-7.04-5.57-12.66-5.57-1.66,0-2.94.44-3.85,1.32-.91.89-1.37,3.19-1.37,6.9l.25,93.89c0,4.07.33,7.29,1,9.68.66,2.39,1.98,3.58,3.97,3.58,4.63,0,8.44-1.19,11.42-3.58,2.98-2.39,5.13-6.98,6.46-13.79,1.32-6.81,1.98-20.47,1.98-40.98,0-15.91-.49-27.54-1.49-34.88ZM1368.43,883.58c-.99-7.33-2.9-12.86-5.71-16.57-2.81-3.72-7.04-5.57-12.66-5.57-1.66,0-2.94.44-3.85,1.32-.91.89-1.37,3.19-1.37,6.9l.25,93.89c0,4.07.33,7.29,1,9.68.66,2.39,1.98,3.58,3.97,3.58,4.63,0,8.44-1.19,11.42-3.58,2.98-2.39,5.13-6.98,6.46-13.79,1.32-6.81,1.98-20.47,1.98-40.98,0-15.91-.49-27.54-1.49-34.88ZM1100.78,926.15c-.5-4.24-1.29-12.42-2.36-24.53-1.08-12.11-2.16-20.73-3.23-25.86-1.08-5.13-2.36-7.69-3.85-7.69-1.33,0-2.61,2.47-3.85,7.42-1.24,4.96-2.44,14.37-3.6,28.25-1.16,13.88-1.82,21.35-1.98,22.41l-.25,3.98c0,1.59.37,2.7,1.12,3.32.74.62,3.6.92,8.56.92,4.14,0,6.79-.21,7.95-.66,1.15-.44,1.73-1.54,1.73-3.31l-.24-4.25ZM1100.78,926.15c-.5-4.24-1.29-12.42-2.36-24.53-1.08-12.11-2.16-20.73-3.23-25.86-1.08-5.13-2.36-7.69-3.85-7.69-1.33,0-2.61,2.47-3.85,7.42-1.24,4.96-2.44,14.37-3.6,28.25-1.16,13.88-1.82,21.35-1.98,22.41l-.25,3.98c0,1.59.37,2.7,1.12,3.32.74.62,3.6.92,8.56.92,4.14,0,6.79-.21,7.95-.66,1.15-.44,1.73-1.54,1.73-3.31l-.24-4.25ZM1100.78,926.15c-.5-4.24-1.29-12.42-2.36-24.53-1.08-12.11-2.16-20.73-3.23-25.86-1.08-5.13-2.36-7.69-3.85-7.69-1.33,0-2.61,2.47-3.85,7.42-1.24,4.96-2.44,14.37-3.6,28.25-1.16,13.88-1.82,21.35-1.98,22.41l-.25,3.98c0,1.59.37,2.7,1.12,3.32.74.62,3.6.92,8.56.92,4.14,0,6.79-.21,7.95-.66,1.15-.44,1.73-1.54,1.73-3.31l-.24-4.25Z"/>
</svg>