<?xml version="1.0" encoding="UTF-8"?><svg id="Layer_1" xmlns="http://www.w3.org/2000/svg" viewBox="0 0 557.43 729.37"><path d="M279.11,404.66c-8.7-5.02-18.21-7.39-27.58-7.38,0,0,0,0,0,0s0,0,0,0c9.38,0,18.88-2.36,27.58-7.38,26.38-15.23,35.42-48.97,20.19-75.36-15.23-26.38-48.97-35.42-75.36-20.19-8.71,5.03-15.51,12.08-20.19,20.2,0,0,0,0-.01,0,4.7-8.12,7.4-17.53,7.4-27.59,0-30.47-24.7-55.16-55.16-55.16s-55.16,24.7-55.16,55.16c0,10.05,2.7,19.47,7.4,27.59,0,0,0,0-.01,0-4.68-8.13-11.48-15.18-20.19-20.2-26.38-15.23-60.12-6.19-75.36,20.19-15.23,26.38-6.19,60.12,20.19,75.36,8.7,5.02,18.21,7.39,27.58,7.38,0,0,0,0,0,0s0,0,0,0c-9.38,0-18.88,2.36-27.58,7.38-26.38,15.23-35.42,48.97-20.19,75.36,15.23,26.38,48.97,35.42,75.36,20.19,8.71-5.03,15.51-12.08,20.19-20.2,0,0,0,0,.01,0-4.7,8.12-7.4,17.53-7.4,27.59,0,30.47,24.7,55.16,55.16,55.16s55.16-24.7,55.16-55.16c0-10.05-2.7-19.47-7.4-27.59,0,0,0,0,.01,0,4.68,8.13,11.48,15.18,20.19,20.2,26.38,15.23,60.12,6.19,75.36-20.19,15.23-26.38,6.19-60.12-20.19-75.36Z" style="fill:#f4b8ff;"/><circle cx="155.99" cy="397.26" r="55.16" style="fill:#fffb00;"/><path d="M540.43,397.26c-27.09-91.39-92.33-165.47-145.72-165.47s-74.72,74.08-47.63,165.47c27.09,91.39,92.33,165.47,145.72,165.47s74.72-74.08,47.63-165.47Z" style="fill:#00bf6c;"/><path d="M30.23,394.42c1.81,1.05,3.67,2,5.58,2.84-1.9.85-3.76,1.8-5.58,2.84-28.85,16.66-38.77,53.68-22.11,82.53,8.07,13.98,21.1,23.97,36.68,28.15,15.59,4.18,31.87,2.03,45.84-6.04,1.81-1.05,3.56-2.18,5.25-3.41-.22,2.07-.33,4.16-.33,6.25,0,33.31,27.1,60.41,60.41,60.41s60.41-27.1,60.41-60.41c0-2.09-.11-4.18-.33-6.25,1.69,1.22,3.44,2.36,5.25,3.41,13.98,8.07,30.26,10.21,45.84,6.04,15.59-4.18,28.62-14.17,36.68-28.15,15.9-27.53,7.57-62.5-18.3-80.11h57.67c13.45,43.5,35.69,84.29,62.92,115.21,28.54,32.4,59.31,50.25,86.67,50.25,18.25,0,33.87-7.99,45.16-23.12,22.83-30.57,25.7-87.71,7.5-149.1-13.31-44.92-36.08-87.17-64.09-118.98-11.34-12.88-23.04-23.45-34.74-31.52v-75.85h54.47c2.9,0,5.25-2.35,5.25-5.25s-2.35-5.25-5.25-5.25h-119.43c-2.9,0-5.25,2.35-5.25,5.25s2.35,5.25,5.25,5.25h54.47v69.28c-14.18-7.97-28.21-12.15-41.43-12.15h-140.14l-32.98-57.13h53.84c2.9,0,5.25-2.35,5.25-5.25s-2.35-5.25-5.25-5.25h-119.43c-2.9,0-5.25,2.35-5.25,5.25s2.35,5.25,5.25,5.25h53.47l36.01,62.38-29.25,50.67c-2.3-31.22-28.43-55.93-60.23-55.93s-60.41,27.1-60.41,60.41c0,2.09.11,4.18.33,6.25-1.69-1.22-3.44-2.36-5.25-3.41-13.98-8.07-30.25-10.21-45.84-6.04-15.59,4.18-28.62,14.17-36.68,28.15-8.07,13.98-10.21,30.26-6.04,45.84,4.18,15.59,14.17,28.61,28.15,36.68ZM216.16,392.02c-1.58-18.27-11.32-34.23-25.55-44.22l17.69-30.63s0-.01.01-.02c4.36-7.58,10.68-13.9,18.27-18.28,11.55-6.67,25-8.44,37.88-4.99,12.81,3.43,23.53,11.63,30.2,23.09l.2.34c6.58,11.51,8.33,24.89,4.89,37.7-3.45,12.88-11.71,23.64-23.26,30.31-7.57,4.37-16.18,6.68-24.91,6.68-.02,0-.04,0-.05,0-.05,0-.11.01-.16.02h-35.21ZM151.44,399.9c.94,1.62,2.67,2.62,4.55,2.62h49.63c-2.64,25.06-23.89,44.65-49.63,44.65-27.52,0-49.91-22.39-49.91-49.91s22.39-49.91,49.91-49.91c7.21,0,14.07,1.55,20.27,4.32l-24.82,42.98c-.94,1.62-.94,3.63,0,5.25ZM165.08,392.02l20.26-35.09c11.12,8.11,18.77,20.7,20.28,35.09h-40.54ZM309.89,357.74c.98-3.68,1.61-7.39,1.89-11.1l26.21,45.39h-52.46c11.99-8.14,20.57-20.15,24.36-34.29ZM441.39,402.52c2.9,0,5.25-2.35,5.25-5.25v-139.07c8.99,6.92,18,15.46,26.86,25.51,27.03,30.69,49.02,71.55,61.91,115.03,17.27,58.28,15.03,111.86-5.85,139.83-9.36,12.54-21.72,18.9-36.74,18.9-24.29,0-52.27-16.58-78.79-46.69-27.03-30.69-49.02-71.55-61.91-115.03-17.27-58.28-15.03-111.86,5.85-139.83,9.36-12.54,21.72-18.9,36.74-18.9,13.02,0,27.09,4.76,41.43,13.81v146.43c0,2.9,2.35,5.25,5.25,5.25ZM362.12,237.03c-4.62,3.41-8.83,7.61-12.57,12.62-18.43,24.68-23.84,66.68-15.67,114.26l-29.93-51.84c-.03-.06-.06-.12-.09-.17-.03-.06-.07-.11-.1-.17l-43.12-74.69h101.49ZM277.73,287.66c-3.36-1.61-6.89-2.93-10.56-3.91-14.13-3.79-28.82-2.36-41.85,3.94l26.21-45.4,26.2,45.37ZM17.21,317.14c6.67-11.55,17.43-19.81,30.31-23.26,12.88-3.45,26.33-1.68,37.88,4.99,7.59,4.38,13.9,10.7,18.27,18.28.7,1.22,1.87,2.1,3.24,2.46,1.36.35,2.82.14,4.03-.58,2.46-1.48,3.28-4.65,1.84-7.13-4.38-7.57-6.7-16.2-6.7-24.96,0-27.52,22.39-49.91,49.91-49.91s49.91,22.39,49.91,49.91c0,8.76-2.32,17.39-6.7,24.96-.02.03-.03.07-.05.1l-17.63,30.54c-7.76-3.64-16.42-5.68-25.54-5.68-33.31,0-60.41,27.1-60.41,60.41s27.1,60.41,60.41,60.41c31.54,0,57.49-24.3,60.17-55.15h35.52c8.69.02,17.27,2.32,24.82,6.68,23.83,13.76,32.03,44.35,18.27,68.18-6.67,11.55-17.43,19.81-30.31,23.26-12.88,3.45-26.33,1.68-37.88-4.99-7.59-4.38-13.9-10.7-18.27-18.28-.7-1.22-1.87-2.1-3.24-2.46-1.36-.35-2.82-.14-4.03.58-2.46,1.48-3.28,4.65-1.84,7.13,4.38,7.57,6.7,16.2,6.7,24.96,0,27.52-22.39,49.91-49.91,49.91s-49.91-22.39-49.91-49.91c0-8.76,2.32-17.39,6.7-24.96,1.44-2.48.6-5.66-1.85-7.14-.82-.49-1.76-.75-2.7-.75-.44,0-.88.06-1.32.17-1.36.35-2.53,1.24-3.23,2.46-4.36,7.58-10.68,13.9-18.27,18.28-11.55,6.67-25,8.44-37.88,4.99-12.88-3.45-23.64-11.71-30.31-23.26-13.76-23.84-5.57-54.42,18.27-68.18,7.57-4.37,16.18-6.68,24.91-6.68.02,0,.03,0,.05,0,1.39,0,2.73-.56,3.71-1.54.99-.99,1.54-2.33,1.54-3.72s-.55-2.73-1.54-3.71c-.98-.98-2.32-1.54-3.71-1.54-.02,0-.04,0-.05,0-8.72,0-17.33-2.31-24.91-6.68-11.55-6.67-19.81-17.43-23.26-30.31-3.45-12.88-1.68-26.33,4.99-37.88Z"/><path d="M188.22,133.4c2.9,0,5.25-2.35,5.25-5.25V5.25C193.47,2.35,191.12,0,188.22,0s-5.25,2.35-5.25,5.25v122.9c0,2.9,2.35,5.25,5.25,5.25Z"/><path d="M5.27,133.4h119.56c19.84,0,35.98-16.14,35.98-35.98,0-12.99-6.92-24.4-17.28-30.73,10.35-6.32,17.28-17.73,17.28-30.73C160.8,16.14,144.66,0,124.82,0H5.27C2.37,0,.02,2.35.02,5.25v122.9c0,2.9,2.35,5.25,5.25,5.25ZM150.3,97.43c0,14.05-11.43,25.48-25.48,25.48H10.52v-50.95h114.31c14.05,0,25.48,11.43,25.48,25.48ZM124.82,10.5c14.05,0,25.48,11.43,25.48,25.48s-11.43,25.48-25.48,25.48H10.52V10.5h114.31Z"/><path d="M223.88,133.4c2.9,0,5.25-2.35,5.25-5.25v-50.78l143.19,55.67c.62.24,1.27.36,1.9.36,2.1,0,4.09-1.27,4.89-3.35,1.05-2.7-.29-5.74-2.99-6.8l-145.47-56.56L376.13,10.15c2.7-1.05,4.04-4.09,2.99-6.8-1.05-2.7-4.09-4.04-6.8-2.99l-143.19,55.67V5.25C229.13,2.35,226.78,0,223.88,0s-5.25,2.35-5.25,5.25v122.9c0,2.9,2.35,5.25,5.25,5.25Z"/><path d="M552.18,122.9h-145.18v-48.7h140.68c2.9,0,5.25-2.35,5.25-5.25s-2.35-5.25-5.25-5.25h-140.68V10.5h145.18c2.9,0,5.25-2.35,5.25-5.25S555.08,0,552.18,0h-150.43c-2.9,0-5.25,2.35-5.25,5.25v122.9c0,2.9,2.35,5.25,5.25,5.25h150.43c2.9,0,5.25-2.35,5.25-5.25s-2.35-5.25-5.25-5.25Z"/><path d="M115.66,594.85c-2.42-.52-4.88.74-5.89,3l-49.87,112.11-49.83-112.11c-1.01-2.27-3.46-3.52-5.89-3-2.43.51-4.16,2.66-4.16,5.14v122.9c0,2.9,2.35,5.25,5.25,5.25s5.25-2.35,5.25-5.25v-98.17l44.58,100.3c.84,1.9,2.72,3.12,4.8,3.12h0c2.07,0,3.95-1.22,4.8-3.12l44.62-100.3-.03,98.16c0,2.9,2.35,5.25,5.25,5.25h0c2.9,0,5.25-2.35,5.25-5.25l.04-122.9c0-2.48-1.73-4.62-4.16-5.14Z"/><path d="M354.93,594.74c-2.9,0-5.25,2.35-5.25,5.25v102.65s-58.48-105.2-58.48-105.2c-1.16-2.09-3.59-3.13-5.91-2.53-2.32.6-3.93,2.69-3.93,5.08v122.9c0,2.9,2.35,5.25,5.25,5.25s5.25-2.35,5.25-5.25v-102.66l58.5,105.21c.94,1.69,2.72,2.7,4.59,2.7.44,0,.88-.05,1.32-.17,2.32-.6,3.93-2.69,3.93-5.08v-122.9c-.01-2.9-2.36-5.25-5.26-5.25Z"/><path d="M460.36,594.74h-82.08c-2.9,0-5.25,2.35-5.25,5.25s2.35,5.25,5.25,5.25h35.74v117.65c0,2.9,2.35,5.25,5.25,5.25s5.25-2.35,5.25-5.25v-117.65h35.84c2.9,0,5.25-2.35,5.25-5.25s-2.35-5.25-5.25-5.25Z"/><path d="M552.18,594.74c-2.9,0-5.25,2.35-5.25,5.25v53.95h-57.98v-53.95c0-2.9-2.35-5.25-5.25-5.25s-5.25,2.35-5.25,5.25v122.9c0,2.9,2.35,5.25,5.25,5.25s5.25-2.35,5.25-5.25v-58.45h57.98v58.45c0,2.9,2.35,5.25,5.25,5.25s5.25-2.35,5.25-5.25v-122.9c0-2.9-2.35-5.25-5.25-5.25Z"/><path d="M200.59,593.51c-37.46,0-67.93,30.47-67.93,67.93s30.47,67.93,67.93,67.93,67.93-30.47,67.93-67.93-30.47-67.93-67.93-67.93ZM200.59,718.87c-31.67,0-57.43-25.76-57.43-57.43s25.76-57.43,57.43-57.43,57.43,25.76,57.43,57.43-25.76,57.43-57.43,57.43Z"/></svg>