<?xml version="1.0" encoding="UTF-8"?><svg id="BGs" xmlns="http://www.w3.org/2000/svg" viewBox="0 0 1080 1080"><path d="M237.93,567.4c-5.92-3.42-12.38-5.03-18.75-5.02,0,0,0,0,0,0s0,0,0,0c6.37,0,12.83-1.6,18.75-5.02,17.94-10.36,24.08-33.29,13.73-51.23-10.36-17.94-33.29-24.08-51.23-13.73-5.92,3.42-10.54,8.21-13.73,13.74,0,0,0,0,0,0,3.19-5.52,5.03-11.92,5.03-18.75,0-20.71-16.79-37.5-37.5-37.5s-37.5,16.79-37.5,37.5c0,6.83,1.84,13.24,5.03,18.75,0,0,0,0,0,0-3.18-5.53-7.81-10.32-13.73-13.74-17.94-10.36-40.87-4.21-51.23,13.73-10.36,17.94-4.21,40.87,13.73,51.23,5.92,3.42,12.38,5.03,18.75,5.02,0,0,0,0,0,0s0,0,0,0c-6.37,0-12.83,1.6-18.75,5.02-17.94,10.36-24.08,33.29-13.73,51.23,10.36,17.94,33.29,24.08,51.23,13.73,5.92-3.42,10.54-8.21,13.73-13.74,0,0,0,0,0,0-3.19,5.52-5.03,11.92-5.03,18.75,0,20.71,16.79,37.5,37.5,37.5s37.5-16.79,37.5-37.5c0-6.83-1.84-13.24-5.03-18.75,0,0,0,0,0,0,3.18,5.53,7.81,10.32,13.73,13.74,17.94,10.36,40.87,4.21,51.23-13.73,10.36-17.94,4.21-40.87-13.73-51.23Z" style="fill:#f4b8ff; stroke:#000; stroke-linecap:round; stroke-linejoin:round; stroke-width:10.5px;"/><circle cx="154.22" cy="562.38" r="37.5" style="fill:#fffb00; stroke:#000; stroke-linecap:round; stroke-linejoin:round; stroke-width:10.5px;"/><polyline points="284.13 562.38 154.22 562.38 219.18 449.88 316.5 449.88" style="fill:none; stroke:#000; stroke-linecap:round; stroke-linejoin:round; stroke-width:10.5px;"/><line x1="192.63" y1="403.91" x2="284.13" y2="562.38" style="fill:none; stroke:#000; stroke-linecap:round; stroke-linejoin:round; stroke-width:10.5px;"/><line x1="235.41" y1="403.91" x2="154.22" y2="403.91" style="fill:none; stroke:#000; stroke-linecap:round; stroke-linejoin:round; stroke-width:10.5px;"/><line x1="388.83" y1="403.91" x2="307.64" y2="403.91" style="fill:none; stroke:#000; stroke-linecap:round; stroke-linejoin:round; stroke-width:10.5px;"/><path d="M415.57,562.37c-18.41-62.13-62.77-112.49-99.06-112.49s-50.79,50.36-32.38,112.49c18.41,62.13,62.77,112.49,99.06,112.49s50.79-50.36,32.38-112.49Z" style="fill:#00bf6c; stroke:#000; stroke-linecap:round; stroke-linejoin:round; stroke-width:10.5px;"/><line x1="348.24" y1="562.38" x2="348.24" y2="403.91" style="fill:none; stroke:#000; stroke-linecap:round; stroke-linejoin:round; stroke-width:10.5px;"/><line x1="664.27" y1="403.91" x2="664.27" y2="526.81" style="fill:none; stroke:#000; stroke-linecap:round; stroke-linejoin:round; stroke-width:10.5px;"/><path d="M600.87,403.91c16.97,0,30.73,13.76,30.73,30.73s-13.76,30.73-30.73,30.73c16.97,0,30.73,13.76,30.73,30.73s-13.76,30.73-30.73,30.73h-119.56v-122.9h119.56Z" style="fill:none; stroke:#000; stroke-linecap:round; stroke-linejoin:round; stroke-width:10.5px;"/><line x1="600.87" y1="465.36" x2="481.32" y2="465.36" style="fill:none; stroke:#000; stroke-linecap:round; stroke-linejoin:round; stroke-width:10.5px;"/><line x1="699.93" y1="526.81" x2="699.93" y2="403.91" style="fill:none; stroke:#000; stroke-linecap:round; stroke-linejoin:round; stroke-width:10.5px;"/><line x1="699.93" y1="468.36" x2="850.28" y2="526.81" style="fill:none; stroke:#000; stroke-linecap:round; stroke-linejoin:round; stroke-width:10.5px;"/><line x1="850.28" y1="403.91" x2="699.93" y2="462.36" style="fill:none; stroke:#000; stroke-linecap:round; stroke-linejoin:round; stroke-width:10.5px;"/><polyline points="1028.23 403.91 877.81 403.91 877.81 526.81 1028.23 526.81" style="fill:none; stroke:#000; stroke-linecap:round; stroke-linejoin:round; stroke-width:10.5px;"/><line x1="877.81" y1="467.61" x2="1023.73" y2="467.61" style="fill:none; stroke:#000; stroke-linecap:round; stroke-linejoin:round; stroke-width:10.5px;"/><polyline points="481.32 674.86 481.32 551.96 535.95 674.86 590.62 551.96 590.58 674.86" style="fill:none; stroke:#000; stroke-linecap:round; stroke-linejoin:round; stroke-width:10.5px;"/><polyline points="762.66 674.86 762.66 551.96 830.99 674.86 830.98 551.96" style="fill:none; stroke:#000; stroke-linecap:round; stroke-linejoin:round; stroke-width:10.5px;"/><line x1="854.33" y1="551.96" x2="936.41" y2="551.96" style="fill:none; stroke:#000; stroke-linecap:round; stroke-linejoin:round; stroke-width:10.5px;"/><line x1="895.32" y1="551.96" x2="895.32" y2="674.86" style="fill:none; stroke:#000; stroke-linecap:round; stroke-linejoin:round; stroke-width:10.5px;"/><line x1="959.75" y1="551.96" x2="959.75" y2="674.86" style="fill:none; stroke:#000; stroke-linecap:round; stroke-linejoin:round; stroke-width:10.5px;"/><line x1="1028.23" y1="551.96" x2="1028.23" y2="674.86" style="fill:none; stroke:#000; stroke-linecap:round; stroke-linejoin:round; stroke-width:10.5px;"/><line x1="1028.23" y1="611.16" x2="959.75" y2="611.16" style="fill:none; stroke:#000; stroke-linecap:round; stroke-linejoin:round; stroke-width:10.5px;"/><circle cx="676.64" cy="613.41" r="62.68" style="fill:none; stroke:#000; stroke-linecap:round; stroke-linejoin:round; stroke-width:10.5px;"/></svg>