<?xml version="1.0" encoding="UTF-8"?><svg id="BGs" xmlns="http://www.w3.org/2000/svg" viewBox="0 0 1080 1080"><path d="M540.39,579.97c-8.7-5.02-18.21-7.39-27.58-7.38,0,0,0,0,0,0s0,0,0,0c9.38,0,18.88-2.36,27.58-7.38,26.38-15.23,35.42-48.97,20.19-75.36-15.23-26.38-48.97-35.42-75.36-20.19-8.71,5.03-15.51,12.08-20.19,20.2,0,0,0,0-.01,0,4.7-8.12,7.4-17.53,7.4-27.59,0-30.47-24.7-55.16-55.16-55.16s-55.16,24.7-55.16,55.16c0,10.05,2.7,19.47,7.4,27.59,0,0,0,0-.01,0-4.68-8.13-11.48-15.18-20.19-20.2-26.38-15.23-60.12-6.19-75.36,20.19-15.23,26.38-6.19,60.12,20.19,75.36,8.7,5.02,18.21,7.39,27.58,7.38,0,0,0,0,0,0s0,0,0,0c-9.38,0-18.88,2.36-27.58,7.38-26.38,15.23-35.42,48.97-20.19,75.36,15.23,26.38,48.97,35.42,75.36,20.19,8.71-5.03,15.51-12.08,20.19-20.2,0,0,0,0,.01,0-4.7,8.12-7.4,17.53-7.4,27.59,0,30.47,24.7,55.16,55.16,55.16s55.16-24.7,55.16-55.16c0-10.05-2.7-19.47-7.4-27.59,0,0,0,0,.01,0,4.68,8.13,11.48,15.18,20.19,20.2,26.38,15.23,60.12,6.19,75.36-20.19,15.23-26.38,6.19-60.12-20.19-75.36Z" style="fill:#f4b8ff; stroke:#000; stroke-linecap:round; stroke-linejoin:round; stroke-width:10.5px;"/><circle cx="417.26" cy="572.58" r="55.16" style="fill:#fffb00; stroke:#000; stroke-linecap:round; stroke-linejoin:round; stroke-width:10.5px;"/><polyline points="608.35 572.59 417.26 572.59 512.81 407.1 655.98 407.1" style="fill:none; stroke:#000; stroke-linecap:round; stroke-linejoin:round; stroke-width:10.5px;"/><line x1="473.76" y1="339.47" x2="608.35" y2="572.59" style="fill:none; stroke:#000; stroke-linecap:round; stroke-linejoin:round; stroke-width:10.5px;"/><line x1="536.69" y1="339.47" x2="417.26" y2="339.47" style="fill:none; stroke:#000; stroke-linecap:round; stroke-linejoin:round; stroke-width:10.5px;"/><line x1="762.38" y1="339.47" x2="642.94" y2="339.47" style="fill:none; stroke:#000; stroke-linecap:round; stroke-linejoin:round; stroke-width:10.5px;"/><path d="M801.7,572.57c-27.09-91.39-92.33-165.47-145.72-165.47s-74.72,74.08-47.63,165.47c27.09,91.39,92.33,165.47,145.72,165.47s74.72-74.08,47.63-165.47Z" style="fill:#00bf6c; stroke:#000; stroke-linecap:round; stroke-linejoin:round; stroke-width:10.5px;"/><line x1="702.66" y1="572.59" x2="702.66" y2="339.47" style="fill:none; stroke:#000; stroke-linecap:round; stroke-linejoin:round; stroke-width:10.5px;"/><line x1="449.49" y1="180.57" x2="449.49" y2="303.47" style="fill:none; stroke:#000; stroke-linecap:round; stroke-linejoin:round; stroke-width:10.5px;"/><path d="M386.1,180.57c16.97,0,30.73,13.76,30.73,30.73s-13.76,30.73-30.73,30.73c16.97,0,30.73,13.76,30.73,30.73s-13.76,30.73-30.73,30.73h-119.56v-122.9h119.56Z" style="fill:none; stroke:#000; stroke-linecap:round; stroke-linejoin:round; stroke-width:10.5px;"/><line x1="386.1" y1="242.02" x2="266.54" y2="242.02" style="fill:none; stroke:#000; stroke-linecap:round; stroke-linejoin:round; stroke-width:10.5px;"/><line x1="485.16" y1="303.47" x2="485.16" y2="180.57" style="fill:none; stroke:#000; stroke-linecap:round; stroke-linejoin:round; stroke-width:10.5px;"/><line x1="485.16" y1="245.02" x2="635.5" y2="303.47" style="fill:none; stroke:#000; stroke-linecap:round; stroke-linejoin:round; stroke-width:10.5px;"/><line x1="635.5" y1="180.57" x2="485.16" y2="239.02" style="fill:none; stroke:#000; stroke-linecap:round; stroke-linejoin:round; stroke-width:10.5px;"/><polyline points="813.46 180.57 663.03 180.57 663.03 303.47 813.46 303.47" style="fill:none; stroke:#000; stroke-linecap:round; stroke-linejoin:round; stroke-width:10.5px;"/><line x1="663.03" y1="244.27" x2="808.96" y2="244.27" style="fill:none; stroke:#000; stroke-linecap:round; stroke-linejoin:round; stroke-width:10.5px;"/><polyline points="266.54 898.2 266.54 775.3 321.17 898.2 375.84 775.3 375.8 898.2" style="fill:none; stroke:#000; stroke-linecap:round; stroke-linejoin:round; stroke-width:10.5px;"/><polyline points="547.88 898.2 547.88 775.3 616.21 898.2 616.2 775.3" style="fill:none; stroke:#000; stroke-linecap:round; stroke-linejoin:round; stroke-width:10.5px;"/><line x1="639.55" y1="775.3" x2="721.64" y2="775.3" style="fill:none; stroke:#000; stroke-linecap:round; stroke-linejoin:round; stroke-width:10.5px;"/><line x1="680.55" y1="775.3" x2="680.55" y2="898.2" style="fill:none; stroke:#000; stroke-linecap:round; stroke-linejoin:round; stroke-width:10.5px;"/><line x1="744.98" y1="775.3" x2="744.98" y2="898.2" style="fill:none; stroke:#000; stroke-linecap:round; stroke-linejoin:round; stroke-width:10.5px;"/><line x1="813.46" y1="775.3" x2="813.46" y2="898.2" style="fill:none; stroke:#000; stroke-linecap:round; stroke-linejoin:round; stroke-width:10.5px;"/><line x1="813.46" y1="834.5" x2="744.98" y2="834.5" style="fill:none; stroke:#000; stroke-linecap:round; stroke-linejoin:round; stroke-width:10.5px;"/><circle cx="461.86" cy="836.75" r="62.68" style="fill:none; stroke:#000; stroke-linecap:round; stroke-linejoin:round; stroke-width:10.5px;"/></svg>