<?xml version="1.0" encoding="UTF-8"?><svg id="BGs" xmlns="http://www.w3.org/2000/svg" viewBox="0 0 1080 1080"><path d="M540.26,568.01c-5.92-3.42-12.38-5.03-18.75-5.02,0,0,0,0,0,0s0,0,0,0c6.37,0,12.83-1.6,18.75-5.02,17.94-10.36,24.08-33.29,13.73-51.23-10.36-17.94-33.29-24.08-51.23-13.73-5.92,3.42-10.54,8.21-13.73,13.74,0,0,0,0,0,0,3.19-5.52,5.03-11.92,5.03-18.75,0-20.71-16.79-37.5-37.5-37.5s-37.5,16.79-37.5,37.5c0,6.83,1.84,13.24,5.03,18.75,0,0,0,0,0,0-3.18-5.53-7.81-10.32-13.73-13.74-17.94-10.36-40.87-4.21-51.23,13.73-10.36,17.94-4.21,40.87,13.73,51.23,5.92,3.42,12.38,5.03,18.75,5.02,0,0,0,0,0,0s0,0,0,0c-6.37,0-12.83,1.6-18.75,5.02-17.94,10.36-24.08,33.29-13.73,51.23,10.36,17.94,33.29,24.08,51.23,13.73,5.92-3.42,10.54-8.21,13.73-13.74,0,0,0,0,0,0-3.19,5.52-5.03,11.92-5.03,18.75,0,20.71,16.79,37.5,37.5,37.5s37.5-16.79,37.5-37.5c0-6.83-1.84-13.24-5.03-18.75,0,0,0,0,0,0,3.18,5.53,7.81,10.32,13.73,13.74,17.94,10.36,40.87,4.21,51.23-13.73,10.36-17.94,4.21-40.87-13.73-51.23Z" style="fill:none; stroke:#000; stroke-linecap:round; stroke-linejoin:round; stroke-width:10.5px;"/><circle cx="456.56" cy="562.98" r="37.5" style="fill:none; stroke:#000; stroke-linecap:round; stroke-linejoin:round; stroke-width:10.5px;"/><polyline points="586.47 562.99 456.56 562.99 521.51 450.49 618.84 450.49" style="fill:none; stroke:#000; stroke-linecap:round; stroke-linejoin:round; stroke-width:10.5px;"/><line x1="494.97" y1="404.52" x2="586.47" y2="562.99" style="fill:none; stroke:#000; stroke-linecap:round; stroke-linejoin:round; stroke-width:10.5px;"/><line x1="537.75" y1="404.52" x2="456.56" y2="404.52" style="fill:none; stroke:#000; stroke-linecap:round; stroke-linejoin:round; stroke-width:10.5px;"/><line x1="691.17" y1="404.52" x2="609.98" y2="404.52" style="fill:none; stroke:#000; stroke-linecap:round; stroke-linejoin:round; stroke-width:10.5px;"/><path d="M717.91,562.98c-18.41-62.13-62.77-112.49-99.06-112.49s-50.79,50.36-32.38,112.49c18.41,62.13,62.77,112.49,99.06,112.49s50.79-50.36,32.38-112.49Z" style="fill:none; stroke:#000; stroke-linecap:round; stroke-linejoin:round; stroke-width:10.5px;"/><line x1="650.58" y1="562.99" x2="650.58" y2="404.52" style="fill:none; stroke:#000; stroke-linecap:round; stroke-linejoin:round; stroke-width:10.5px;"/></svg>