<?xml version="1.0" encoding="UTF-8"?><svg id="Layer_1" xmlns="http://www.w3.org/2000/svg" viewBox="0 0 1050.8 598.27"><path d="M251.5,196.77c-110.46,0-200,89.54-200,200s89.54,200,200,200,200-89.54,200-200-89.54-200-200-200ZM251.5,546.77c-82.84,0-150-67.16-150-150s67.16-150,150-150,150,67.16,150,150-67.16,150-150,150Z" style="fill:#ff6a00;"/><path d="M251.5,598.27c-111.11,0-201.5-90.39-201.5-201.5s90.39-201.5,201.5-201.5,201.5,90.39,201.5,201.5-90.39,201.5-201.5,201.5ZM251.5,198.27c-109.45,0-198.5,89.05-198.5,198.5s89.05,198.5,198.5,198.5,198.5-89.05,198.5-198.5-89.05-198.5-198.5-198.5ZM251.5,548.27c-83.54,0-151.5-67.96-151.5-151.5s67.96-151.5,151.5-151.5,151.5,67.96,151.5,151.5-67.96,151.5-151.5,151.5ZM251.5,248.27c-81.88,0-148.5,66.62-148.5,148.5s66.62,148.5,148.5,148.5,148.5-66.62,148.5-148.5-66.62-148.5-148.5-148.5Z"/><path d="M278.17,383.03h0S108.17,53.03,108.17,53.03l-53.34,27.48,34.13,66.26H26.5v30h77.92l-54.51,76.45,24.43,17.42,45.54-63.87,104.96,203.74h0c4.98,9.66,15.05,16.26,26.67,16.26,16.57,0,30-13.43,30-30,0-4.95-1.21-9.62-3.33-13.74Z" style="fill:#ff6a00;"/><path d="M251.5,428.27c-11.83,0-22.56-6.54-28-17.07l-103.83-201.55-44.11,61.86c-.48.67-1.42.83-2.09.35l-24.43-17.42c-.67-.48-.83-1.42-.35-2.09l52.82-74.08H26.5c-.83,0-1.5-.67-1.5-1.5v-30c0-.83.67-1.5,1.5-1.5h60.01l-33.01-64.08c-.18-.35-.22-.76-.1-1.14s.39-.69.74-.88l53.34-27.48c.74-.38,1.64-.09,2.02.65l170,330s.02.05.04.07c2.3,4.48,3.46,9.31,3.46,14.35,0,17.37-14.13,31.5-31.5,31.5ZM119.88,205.27s.07,0,.11,0c.52.04.99.34,1.23.81l104.96,203.74c4.92,9.53,14.63,15.45,25.34,15.45,15.71,0,28.5-12.79,28.5-28.5,0-4.59-1.06-8.98-3.17-13.05-.01-.02-.02-.05-.04-.07L107.52,55.05l-50.67,26.1,33.45,64.93c.24.46.22,1.02-.05,1.47-.27.45-.76.72-1.28.72H28v27h76.42c.56,0,1.08.31,1.33.81.26.5.21,1.1-.11,1.56l-53.64,75.23,21.98,15.67,44.67-62.65c.28-.4.74-.63,1.22-.63Z"/><path d="M321.5,106.77c0-38.66-31.34-70-70-70H81.5c-16.57,0-30,13.43-30,30s13.43,30,30,30h170c5.52,0,10,4.48,10,10s-4.48,10-10,10h0s-61.3,0-61.3,0h0c-16.57,0-30,13.43-30,30s13.43,30,30,30h61.3c38.66,0,70-31.34,70-70Z" style="fill:#ff6a00;"/><path d="M251.5,178.27h-61.3c-17.37,0-31.5-14.13-31.5-31.5s14.13-31.5,31.5-31.5h61.3c2.27,0,4.4-.88,6.01-2.49,1.61-1.61,2.49-3.74,2.49-6.01,0-4.69-3.81-8.5-8.5-8.5H81.5c-17.37,0-31.5-14.13-31.5-31.5s14.13-31.5,31.5-31.5h170c39.43,0,71.5,32.08,71.5,71.5s-32.07,71.5-71.5,71.5ZM190.2,118.27c-15.71,0-28.5,12.79-28.5,28.5s12.79,28.5,28.5,28.5h61.3c37.77,0,68.5-30.73,68.5-68.5s-30.73-68.5-68.5-68.5H81.5c-15.72,0-28.5,12.79-28.5,28.5s12.79,28.5,28.5,28.5h170c6.34,0,11.5,5.16,11.5,11.5s-5.16,11.5-11.5,11.5h-61.3Z"/><path d="M81.5,98.27c-.83,0-1.5-.67-1.5-1.5v-60c0-.83.67-1.5,1.5-1.5s1.5.67,1.5,1.5v60c0,.83-.67,1.5-1.5,1.5Z"/><path d="M251.5,98.27c-.83,0-1.5-.67-1.5-1.5v-60c0-.83.67-1.5,1.5-1.5s1.5.67,1.5,1.5v60c0,.83-.67,1.5-1.5,1.5Z"/><path d="M251.5,178.27c-.83,0-1.5-.67-1.5-1.5v-60c0-.83.67-1.5,1.5-1.5s1.5.67,1.5,1.5v60c0,.83-.67,1.5-1.5,1.5Z"/><path d="M312.12,143.27c-.25,0-.51-.06-.75-.2l-51.96-30c-.72-.41-.96-1.33-.55-2.05s1.33-.96,2.05-.55l51.96,30c.72.41.96,1.33.55,2.05-.28.48-.78.75-1.3.75Z"/><path d="M260.16,103.27c-.52,0-1.02-.27-1.3-.75-.41-.72-.17-1.63.55-2.05l51.96-30c.72-.42,1.64-.17,2.05.55.41.72.17,1.63-.55,2.05l-51.96,30c-.24.14-.49.2-.75.2Z"/><path d="M138.17,98.27c-.83,0-1.5-.67-1.5-1.5v-60c0-.83.67-1.5,1.5-1.5s1.5.67,1.5,1.5v60c0,.83-.67,1.5-1.5,1.5Z"/><path d="M194.83,98.27c-.83,0-1.5-.67-1.5-1.5v-60c0-.83.67-1.5,1.5-1.5s1.5.67,1.5,1.5v60c0,.83-.67,1.5-1.5,1.5Z"/><path d="M194.83,178.27c-.83,0-1.5-.67-1.5-1.5v-60c0-.83.67-1.5,1.5-1.5s1.5.67,1.5,1.5v60c0,.83-.67,1.5-1.5,1.5Z"/><path d="M451.5,598.27c-.83,0-1.5-.67-1.5-1.5v-339.22c0-.83.67-1.5,1.5-1.5s1.5.67,1.5,1.5v339.22c0,.83-.67,1.5-1.5,1.5Z"/><path d="M251.5,598.27c-.83,0-1.5-.67-1.5-1.5v-57.55c0-.83.67-1.5,1.5-1.5s1.5.67,1.5,1.5v57.55c0,.83-.67,1.5-1.5,1.5Z"/><path d="M51.5,598.27c-.83,0-1.5-.67-1.5-1.5v-309.8c0-.83.67-1.5,1.5-1.5s1.5.67,1.5,1.5v309.8c0,.83-.67,1.5-1.5,1.5Z"/><path d="M101.5,598.27c-.83,0-1.5-.67-1.5-1.5v-145.1c0-.83.67-1.5,1.5-1.5s1.5.67,1.5,1.5v145.1c0,.83-.67,1.5-1.5,1.5Z"/><path d="M151.5,598.27c-.83,0-1.5-.67-1.5-1.5v-273.2c0-.83.67-1.5,1.5-1.5s1.5.67,1.5,1.5v273.2c0,.83-.67,1.5-1.5,1.5Z"/><path d="M201.5,598.27c-.83,0-1.5-.67-1.5-1.5v-172.55c0-.83.67-1.5,1.5-1.5s1.5.67,1.5,1.5v172.55c0,.83-.67,1.5-1.5,1.5Z"/><path d="M301.5,598.27c-.83,0-1.5-.67-1.5-1.5v-250c0-.83.67-1.5,1.5-1.5s1.5.67,1.5,1.5v250c0,.83-.67,1.5-1.5,1.5Z"/><path d="M351.5,598.27c-.83,0-1.5-.67-1.5-1.5v-127.55c0-.83.67-1.5,1.5-1.5s1.5.67,1.5,1.5v127.55c0,.83-.67,1.5-1.5,1.5Z"/><path d="M401.5,598.27c-.83,0-1.5-.67-1.5-1.5v-200c0-.83.67-1.5,1.5-1.5s1.5.67,1.5,1.5v200c0,.83-.67,1.5-1.5,1.5Z"/><path d="M71.92,260.74c-1.44-.83-3.02-1.23-4.58-1.22,0,0,0,0,0,0s0,0,0,0c1.56,0,3.13-.39,4.58-1.22,4.38-2.53,5.88-8.12,3.35-12.5-2.53-4.38-8.12-5.88-12.5-3.35-1.44.83-2.57,2-3.35,3.35,0,0,0,0,0,0,.78-1.35,1.23-2.91,1.23-4.58,0-5.05-4.1-9.15-9.15-9.15s-9.15,4.1-9.15,9.15c0,1.67.45,3.23,1.23,4.58,0,0,0,0,0,0-.78-1.35-1.9-2.52-3.35-3.35-4.38-2.53-9.97-1.03-12.5,3.35s-1.03,9.97,3.35,12.5c1.44.83,3.02,1.23,4.58,1.22,0,0,0,0,0,0s0,0,0,0c-1.56,0-3.13.39-4.58,1.22-4.38,2.53-5.88,8.12-3.35,12.5s8.12,5.88,12.5,3.35c1.44-.83,2.57-2,3.35-3.35,0,0,0,0,0,0-.78,1.35-1.23,2.91-1.23,4.58,0,5.05,4.1,9.15,9.15,9.15s9.15-4.1,9.15-9.15c0-1.67-.45-3.23-1.23-4.58,0,0,0,0,0,0,.78,1.35,1.9,2.52,3.35,3.35,4.38,2.53,9.97,1.03,12.5-3.35,2.53-4.38,1.03-9.97-3.35-12.5Z" style="fill:#f4b8ff;"/><path d="M51.5,288.46c-5.82,0-10.57-4.7-10.65-10.5-2.43,1.36-5.26,1.71-7.96.99-2.75-.74-5.04-2.5-6.47-4.96-1.42-2.46-1.8-5.33-1.06-8.08.72-2.7,2.44-4.97,4.84-6.39-2.4-1.43-4.11-3.69-4.84-6.39-.74-2.75-.36-5.62,1.06-8.08,1.42-2.46,3.72-4.23,6.47-4.96,2.7-.72,5.52-.37,7.96.99.08-5.81,4.83-10.5,10.65-10.5s10.57,4.7,10.65,10.51c5.07-2.84,11.51-1.07,14.42,3.97,1.42,2.46,1.8,5.33,1.06,8.08-.72,2.7-2.44,4.97-4.84,6.39,2.4,1.43,4.11,3.69,4.84,6.39.74,2.75.36,5.62-1.06,8.08-1.42,2.46-3.72,4.23-6.47,4.96-2.7.73-5.52.37-7.96-.99-.08,5.81-4.82,10.51-10.65,10.51ZM43.58,271.74c.57,0,1.09.32,1.34.83.23.45.21.99-.04,1.42-.67,1.16-1.03,2.48-1.03,3.82,0,4.22,3.43,7.65,7.65,7.65s7.65-3.43,7.65-7.65c0-1.34-.35-2.67-1.03-3.82-.25-.44-.27-.97-.04-1.42.25-.51.78-.83,1.34-.83.54,0,1.03.29,1.3.75.67,1.16,1.64,2.13,2.8,2.8,1.77,1.02,3.83,1.29,5.81.77,1.97-.53,3.62-1.79,4.65-3.56,1.02-1.77,1.29-3.83.76-5.81-.53-1.97-1.79-3.62-3.56-4.64h0c-1.16-.67-2.48-1.02-3.82-1.02h0s0,0,0,0c-.83,0-1.5-.67-1.5-1.5s.67-1.5,1.5-1.5c.05,0,.09,0,.13,0,1.29-.02,2.57-.38,3.7-1.02,1.77-1.02,3.04-2.67,3.56-4.65s.26-4.04-.76-5.8c-2.11-3.65-6.8-4.91-10.45-2.8-1.16.67-2.13,1.64-2.8,2.8h0s0,0,0,0c-.42.72-1.33.96-2.05.55-.72-.41-.96-1.33-.55-2.05h0s0,0,0,0c.67-1.16,1.03-2.48,1.03-3.83,0-4.22-3.43-7.65-7.65-7.65s-7.65,3.43-7.65,7.65c0,1.34.35,2.67,1.03,3.83h0s0,0,0,0c.41.72.17,1.63-.55,2.05-.72.41-1.63.17-2.05-.55,0,0,0,0,0,0h0c-.67-1.16-1.64-2.13-2.8-2.8-1.77-1.02-3.83-1.29-5.81-.76-1.97.53-3.62,1.79-4.64,3.56-1.02,1.77-1.29,3.83-.76,5.8s1.79,3.62,3.56,4.65c1.16.67,2.48,1.02,3.81,1.02h0s0,0,0,0c.83,0,1.5.67,1.5,1.5,0,.87-.76,1.53-1.63,1.5-1.3.02-2.57.38-3.7,1.03-1.77,1.02-3.04,2.67-3.56,4.64-.53,1.97-.26,4.04.76,5.81,1.02,1.77,2.67,3.04,4.65,3.56,1.98.53,4.04.26,5.81-.76,1.16-.67,2.13-1.64,2.8-2.8.27-.46.76-.75,1.3-.75Z"/><path d="M171.92,297.34c-1.44-.83-3.02-1.23-4.58-1.22,0,0,0,0,0,0s0,0,0,0c1.56,0,3.13-.39,4.58-1.22,4.38-2.53,5.88-8.12,3.35-12.5-2.53-4.38-8.12-5.88-12.5-3.35-1.44.83-2.57,2-3.35,3.35,0,0,0,0,0,0,.78-1.35,1.23-2.91,1.23-4.58,0-5.05-4.1-9.15-9.15-9.15s-9.15,4.1-9.15,9.15c0,1.67.45,3.23,1.23,4.58,0,0,0,0,0,0-.78-1.35-1.9-2.52-3.35-3.35-4.38-2.53-9.97-1.03-12.5,3.35-2.53,4.38-1.03,9.97,3.35,12.5,1.44.83,3.02,1.23,4.58,1.22,0,0,0,0,0,0s0,0,0,0c-1.56,0-3.13.39-4.58,1.22-4.38,2.53-5.88,8.12-3.35,12.5,2.53,4.38,8.12,5.88,12.5,3.35,1.44-.83,2.57-2,3.35-3.35,0,0,0,0,0,0-.78,1.35-1.23,2.91-1.23,4.58,0,5.05,4.1,9.15,9.15,9.15s9.15-4.1,9.15-9.15c0-1.67-.45-3.23-1.23-4.58,0,0,0,0,0,0,.78,1.35,1.9,2.52,3.35,3.35,4.38,2.53,9.97,1.03,12.5-3.35,2.53-4.38,1.03-9.97-3.35-12.5Z" style="fill:#f4b8ff;"/><path d="M151.5,325.07c-5.82,0-10.57-4.7-10.65-10.5-5.07,2.83-11.51,1.07-14.42-3.97-2.91-5.04-1.22-11.5,3.77-14.48-4.99-2.97-6.69-9.43-3.77-14.47,1.42-2.46,3.72-4.23,6.47-4.96,2.7-.72,5.52-.37,7.96.99.08-5.81,4.83-10.5,10.65-10.5s10.57,4.7,10.65,10.51c5.07-2.84,11.51-1.07,14.42,3.97,2.91,5.04,1.22,11.5-3.77,14.47,4.99,2.97,6.68,9.43,3.77,14.48-2.91,5.04-9.36,6.81-14.42,3.97-.08,5.81-4.82,10.51-10.65,10.51ZM144.25,308.5c.26.13.48.33.63.59.27.46.27,1.04,0,1.5-.67,1.16-1.03,2.48-1.03,3.83,0,4.22,3.43,7.65,7.65,7.65s7.65-3.43,7.65-7.65c0-1.34-.35-2.67-1.03-3.83-.27-.46-.27-1.04,0-1.5.15-.26.37-.46.63-.59.27-.13.57-.19.87-.15.46.06.87.33,1.1.74.67,1.16,1.64,2.13,2.8,2.8,3.65,2.11,8.34.85,10.45-2.8s.85-8.34-2.8-10.45h0c-1.16-.67-2.48-1.02-3.82-1.02,0,0,0,0,0,0-.83,0-1.5-.67-1.5-1.5h0c0-.83.67-1.5,1.5-1.5.04.02.08,0,.13,0,1.3-.02,2.57-.38,3.7-1.02,3.65-2.11,4.91-6.8,2.8-10.45-2.11-3.65-6.8-4.91-10.45-2.8-1.16.67-2.13,1.64-2.8,2.8-.23.4-.64.68-1.1.74-.3.04-.61-.01-.87-.15-.26-.13-.48-.33-.63-.59-.27-.46-.27-1.04,0-1.5.67-1.16,1.03-2.48,1.03-3.83,0-4.22-3.43-7.65-7.65-7.65s-7.65,3.43-7.65,7.65c0,1.34.35,2.67,1.03,3.83.27.46.27,1.04,0,1.5-.15.26-.37.46-.63.59-.19.1-.41.15-.63.16-.56.02-1.07-.27-1.34-.75-.67-1.16-1.64-2.13-2.8-2.8-1.77-1.02-3.83-1.29-5.81-.76-1.97.53-3.62,1.79-4.64,3.56-2.11,3.65-.85,8.34,2.8,10.45,1.16.67,2.48,1.02,3.82,1.02,0,0,0,0,0,0,.83,0,1.5.67,1.5,1.5h0c0,.83-.67,1.5-1.5,1.5-.05.04-.08,0-.13,0-1.3.02-2.57.38-3.7,1.02-3.65,2.11-4.91,6.8-2.8,10.45,2.11,3.65,6.8,4.91,10.45,2.8,1.16-.67,2.13-1.64,2.8-2.8.28-.48.8-.79,1.34-.75.22,0,.44.06.63.16Z"/><path d="M221.92,395.54c-1.44.83-3.02,1.23-4.58,1.22,0,0,0,0,0,0s0,0,0,0c1.56,0,3.13.39,4.58,1.22,4.38,2.53,5.88,8.12,3.35,12.5-2.53,4.38-8.12,5.88-12.5,3.35-1.44-.83-2.57-2-3.35-3.35,0,0,0,0,0,0,.78,1.35,1.23,2.91,1.23,4.58,0,5.05-4.1,9.15-9.15,9.15s-9.15-4.1-9.15-9.15c0-1.67.45-3.23,1.23-4.58,0,0,0,0,0,0-.78,1.35-1.9,2.52-3.35,3.35-4.38,2.53-9.97,1.03-12.5-3.35-2.53-4.38-1.03-9.97,3.35-12.5,1.44-.83,3.02-1.23,4.58-1.22,0,0,0,0,0,0s0,0,0,0c-1.56,0-3.13-.39-4.58-1.22-4.38-2.53-5.88-8.12-3.35-12.5s8.12-5.88,12.5-3.35c1.44.83,2.57,2,3.35,3.35,0,0,0,0,0,0-.78-1.35-1.23-2.91-1.23-4.58,0-5.05,4.1-9.15,9.15-9.15s9.15,4.1,9.15,9.15c0,1.67-.45,3.23-1.23,4.58,0,0,0,0,0,0,.78-1.35,1.9-2.52,3.35-3.35,4.38-2.53,9.97-1.03,12.5,3.35,2.53,4.38,1.03,9.97-3.35,12.5Z" style="fill:#f4b8ff;"/><path d="M201.5,425.72c-5.82,0-10.57-4.7-10.65-10.5-5.07,2.83-11.51,1.07-14.42-3.97-1.42-2.46-1.8-5.33-1.06-8.08.72-2.7,2.44-4.97,4.84-6.39-2.4-1.43-4.11-3.69-4.84-6.39-.74-2.75-.36-5.62,1.06-8.08,1.42-2.46,3.72-4.23,6.47-4.96,2.7-.72,5.52-.37,7.96.99.08-5.81,4.83-10.5,10.65-10.5s10.57,4.7,10.65,10.51c5.07-2.84,11.51-1.07,14.42,3.97,1.42,2.46,1.8,5.33,1.06,8.08-.72,2.7-2.44,4.97-4.84,6.39,2.4,1.43,4.11,3.69,4.84,6.39.74,2.75.36,5.62-1.06,8.08-2.91,5.04-9.35,6.81-14.42,3.97-.08,5.81-4.82,10.5-10.65,10.5ZM193.58,408.99c.57,0,1.09.32,1.34.83.23.45.21.99-.04,1.42-.67,1.16-1.03,2.48-1.03,3.83,0,4.22,3.43,7.65,7.65,7.65s7.65-3.43,7.65-7.65c0-1.34-.35-2.67-1.03-3.83-.25-.44-.27-.97-.04-1.42.25-.51.78-.83,1.34-.83.54,0,1.03.29,1.3.75.67,1.16,1.64,2.13,2.8,2.8,3.65,2.11,8.34.85,10.45-2.8,1.02-1.77,1.29-3.83.76-5.81-.53-1.97-1.79-3.62-3.56-4.64-1.16-.67-2.48-1.02-3.81-1.02,0,0,0,0-.01,0-.4,0-.78-.16-1.06-.44-.28-.28-.44-.66-.44-1.06s.16-.78.44-1.06c.28-.28.66-.44,1.06-.44,0,0,0,0,.01,0,1.34,0,2.65-.35,3.81-1.02h0c1.77-1.02,3.04-2.67,3.56-4.65s.26-4.04-.76-5.8c-2.11-3.65-6.8-4.91-10.45-2.8-1.16.67-2.13,1.64-2.8,2.8h0s0,0,0,0c-.42.72-1.33.96-2.05.55-.72-.41-.96-1.33-.55-2.05,0,0,0,0,0,0h0c.67-1.16,1.03-2.48,1.03-3.83,0-4.22-3.43-7.65-7.65-7.65s-7.65,3.43-7.65,7.65c0,1.34.35,2.67,1.03,3.83h0s0,0,0,0c.41.72.17,1.63-.55,2.05-.72.41-1.63.17-2.05-.55,0,0,0,0,0,0h0c-.67-1.16-1.64-2.13-2.8-2.8-1.77-1.02-3.83-1.29-5.81-.76-1.97.53-3.62,1.79-4.64,3.56-1.02,1.77-1.29,3.83-.76,5.8s1.79,3.62,3.56,4.65c1.16.67,2.48,1.02,3.81,1.02,0,0,0,0,.01,0,.4,0,.78.16,1.06.44.28.28.44.66.44,1.06s-.16.78-.44,1.06c-.28.28-.66.44-1.06.44,0,0,0,0-.01,0-1.34,0-2.65.35-3.81,1.02-1.77,1.02-3.04,2.67-3.56,4.64-.53,1.97-.26,4.04.76,5.81,2.11,3.65,6.8,4.91,10.45,2.8,1.16-.67,2.13-1.64,2.8-2.8.27-.46.76-.75,1.3-.75Z"/><circle cx="51.5" cy="259.51" r="9.15" style="fill:#ff6a00;"/><path d="M51.5,270.17c-5.87,0-10.65-4.78-10.65-10.65s4.78-10.65,10.65-10.65,10.65,4.78,10.65,10.65-4.78,10.65-10.65,10.65ZM51.5,251.87c-4.22,0-7.65,3.43-7.65,7.65s3.43,7.65,7.65,7.65,7.65-3.43,7.65-7.65-3.43-7.65-7.65-7.65Z"/><path d="M471.92,231.32c-1.44-.83-3.02-1.23-4.58-1.22,0,0,0,0,0,0s0,0,0,0c1.56,0,3.13-.39,4.58-1.22,4.38-2.53,5.88-8.12,3.35-12.5-2.53-4.38-8.12-5.88-12.5-3.35-1.44.83-2.57,2-3.35,3.35,0,0,0,0,0,0,.78-1.35,1.23-2.91,1.23-4.58,0-5.05-4.1-9.15-9.15-9.15s-9.15,4.1-9.15,9.15c0,1.67.45,3.23,1.23,4.58,0,0,0,0,0,0-.78-1.35-1.9-2.52-3.35-3.35-4.38-2.53-9.97-1.03-12.5,3.35-2.53,4.38-1.03,9.97,3.35,12.5,1.44.83,3.02,1.23,4.58,1.22,0,0,0,0,0,0s0,0,0,0c-1.56,0-3.13.39-4.58,1.22-4.38,2.53-5.88,8.12-3.35,12.5,2.53,4.38,8.12,5.88,12.5,3.35,1.44-.83,2.57-2,3.35-3.35,0,0,0,0,0,0-.78,1.35-1.23,2.91-1.23,4.58,0,5.05,4.1,9.15,9.15,9.15s9.15-4.1,9.15-9.15c0-1.67-.45-3.23-1.23-4.58,0,0,0,0,0,0,.78,1.35,1.9,2.52,3.35,3.35,4.38,2.53,9.97,1.03,12.5-3.35,2.53-4.38,1.03-9.97-3.35-12.5Z" style="fill:#f4b8ff;"/><path d="M451.5,259.05c-5.82,0-10.57-4.7-10.65-10.5-2.44,1.36-5.26,1.71-7.96.99-2.75-.74-5.04-2.5-6.47-4.96-1.42-2.46-1.8-5.33-1.06-8.08.72-2.7,2.44-4.97,4.84-6.39-4.99-2.97-6.68-9.43-3.77-14.48,1.42-2.46,3.72-4.23,6.47-4.96,2.7-.72,5.52-.37,7.96.99.08-5.81,4.82-10.5,10.65-10.5s10.57,4.7,10.65,10.51c2.44-1.36,5.25-1.72,7.96-.99,2.75.74,5.04,2.5,6.47,4.96,2.91,5.04,1.22,11.5-3.77,14.48,2.4,1.43,4.11,3.69,4.84,6.39.74,2.75.36,5.62-1.06,8.08-2.91,5.04-9.35,6.81-14.42,3.97-.08,5.81-4.82,10.51-10.65,10.51ZM444.87,244.57h0c-.67,1.16-1.03,2.48-1.03,3.83,0,4.22,3.43,7.65,7.65,7.65s7.65-3.43,7.65-7.65c0-1.34-.35-2.67-1.03-3.83h0s0,0,0,0c-.41-.72-.17-1.63.55-2.05.72-.41,1.63-.17,2.05.55,0,0,0,0,0,0h0c.67,1.16,1.64,2.13,2.8,2.8,3.65,2.11,8.34.85,10.45-2.8,1.02-1.77,1.29-3.83.76-5.8s-1.79-3.62-3.56-4.65c-1.16-.67-2.48-1.02-3.81-1.02h0s0,0,0,0c-.83,0-1.5-.67-1.5-1.5,0-.87.76-1.52,1.63-1.5,1.3-.02,2.57-.38,3.7-1.02,3.65-2.11,4.91-6.8,2.8-10.45-1.02-1.77-2.67-3.04-4.65-3.56s-4.04-.26-5.8.76c-1.16.67-2.13,1.64-2.8,2.8h0s0,0,0,0c-.41.72-1.33.96-2.05.55-.72-.41-.96-1.33-.55-2.05,0,0,0,0,0,0h0c.67-1.16,1.03-2.48,1.03-3.83,0-4.22-3.43-7.65-7.65-7.65s-7.65,3.43-7.65,7.65c0,1.34.35,2.67,1.03,3.82h0s0,0,0,0c.41.72.17,1.63-.55,2.05-.72.42-1.63.17-2.05-.55,0,0,0,0,0,0h0c-.67-1.16-1.64-2.13-2.8-2.8-1.77-1.02-3.83-1.29-5.81-.76-1.97.53-3.62,1.79-4.65,3.56-2.11,3.65-.85,8.34,2.8,10.45,1.16.67,2.48,1.02,3.82,1.02h0s0,0,0,0c.83,0,1.5.67,1.5,1.5s-.67,1.5-1.5,1.5h0s-.09,0-.13,0c-1.29.02-2.57.38-3.7,1.02-1.77,1.02-3.04,2.67-3.56,4.65s-.26,4.04.76,5.8c1.02,1.77,2.67,3.04,4.65,3.56,1.97.53,4.03.26,5.81-.76,1.16-.67,2.13-1.64,2.8-2.8h0s0,0,0,0c.42-.72,1.33-.96,2.05-.55.72.41.96,1.33.55,2.05h0Z"/><circle cx="451.5" cy="230.1" r="9.15" style="fill:#ff6a00;"/><path d="M451.5,240.75c-5.87,0-10.65-4.78-10.65-10.65s4.78-10.65,10.65-10.65,10.65,4.78,10.65,10.65-4.78,10.65-10.65,10.65ZM451.5,222.45c-4.22,0-7.65,3.43-7.65,7.65s3.43,7.65,7.65,7.65,7.65-3.43,7.65-7.65-3.43-7.65-7.65-7.65Z"/><path d="M121.92,451.07c-1.44.83-3.02,1.23-4.58,1.22,0,0,0,0,0,0s0,0,0,0c1.56,0,3.13.39,4.58,1.22,4.38,2.53,5.88,8.12,3.35,12.5-2.53,4.38-8.12,5.88-12.5,3.35-1.44-.83-2.57-2-3.35-3.35,0,0,0,0,0,0,.78,1.35,1.23,2.91,1.23,4.58,0,5.05-4.1,9.15-9.15,9.15s-9.15-4.1-9.15-9.15c0-1.67.45-3.23,1.23-4.58,0,0,0,0,0,0-.78,1.35-1.9,2.52-3.35,3.35-4.38,2.53-9.97,1.03-12.5-3.35s-1.03-9.97,3.35-12.5c1.44-.83,3.02-1.23,4.58-1.22,0,0,0,0,0,0s0,0,0,0c-1.56,0-3.13-.39-4.58-1.22-4.38-2.53-5.88-8.12-3.35-12.5,2.53-4.38,8.12-5.88,12.5-3.35,1.44.83,2.57,2,3.35,3.35,0,0,0,0,0,0-.78-1.35-1.23-2.91-1.23-4.58,0-5.05,4.1-9.15,9.15-9.15s9.15,4.1,9.15,9.15c0,1.67-.45,3.23-1.23,4.58,0,0,0,0,0,0,.78-1.35,1.9-2.52,3.35-3.35,4.38-2.53,9.97-1.03,12.5,3.35,2.53,4.38,1.03,9.97-3.35,12.5Z" style="fill:#f4b8ff;"/><path d="M101.5,481.24c-5.82,0-10.57-4.7-10.65-10.5-2.44,1.36-5.26,1.71-7.96.99-2.75-.74-5.04-2.5-6.47-4.96-1.42-2.46-1.8-5.33-1.06-8.08.72-2.7,2.44-4.97,4.84-6.39-2.4-1.43-4.11-3.69-4.84-6.39-.74-2.75-.36-5.62,1.06-8.08,1.42-2.46,3.72-4.23,6.47-4.96,2.7-.72,5.52-.37,7.96.99.08-5.81,4.82-10.5,10.65-10.5s10.57,4.7,10.65,10.51c2.43-1.36,5.25-1.72,7.96-.99,2.75.74,5.04,2.5,6.47,4.96,1.42,2.46,1.8,5.33,1.06,8.08-.72,2.7-2.44,4.97-4.84,6.39,2.4,1.43,4.11,3.69,4.84,6.39.74,2.75.36,5.62-1.06,8.08-2.91,5.04-9.35,6.81-14.42,3.97-.08,5.81-4.82,10.51-10.65,10.51ZM94.87,466.77h0c-.67,1.16-1.03,2.48-1.03,3.83,0,4.22,3.43,7.65,7.65,7.65s7.65-3.43,7.65-7.65c0-1.34-.35-2.67-1.03-3.83h0s0,0,0,0c-.41-.72-.17-1.63.55-2.05.72-.41,1.63-.17,2.05.55,0,0,0,0,0,0h0c.67,1.16,1.64,2.13,2.8,2.8,3.65,2.11,8.34.85,10.45-2.8,1.02-1.77,1.29-3.83.76-5.8s-1.79-3.62-3.56-4.65c-1.16-.67-2.48-1.02-3.81-1.02h0c-.8,0-1.5-.67-1.5-1.5s.67-1.5,1.5-1.5c.04,0,.09,0,.13,0,1.3-.02,2.57-.38,3.7-1.03h0c1.77-1.02,3.04-2.67,3.56-4.64.53-1.97.26-4.04-.76-5.81-1.02-1.77-2.67-3.04-4.65-3.56-1.97-.53-4.04-.26-5.8.76-1.16.67-2.13,1.64-2.8,2.8h0s0,0,0,0c-.41.72-1.33.96-2.05.55-.72-.41-.96-1.33-.55-2.05,0,0,0,0,0,0h0c.67-1.16,1.03-2.48,1.03-3.83,0-4.22-3.43-7.65-7.65-7.65s-7.65,3.43-7.65,7.65c0,1.34.35,2.67,1.03,3.82h0s0,0,0,0c.41.72.17,1.63-.55,2.05-.72.42-1.63.17-2.05-.55,0,0,0,0,0,0h0c-.67-1.16-1.64-2.13-2.8-2.8-1.77-1.02-3.83-1.29-5.81-.76-1.97.53-3.62,1.79-4.65,3.56-1.02,1.77-1.29,3.83-.76,5.81.53,1.97,1.79,3.62,3.56,4.64,1.16.67,2.48,1.02,3.82,1.02h0s0,0,0,0c.83,0,1.5.67,1.5,1.5s-.67,1.5-1.5,1.5c-.03-.01-.09,0-.13,0-1.29.02-2.57.38-3.7,1.02-1.77,1.02-3.04,2.67-3.56,4.65s-.26,4.04.76,5.8c1.02,1.77,2.67,3.04,4.65,3.56,1.97.53,4.04.26,5.81-.76,1.16-.67,2.13-1.64,2.8-2.8h0s0,0,0,0c.42-.72,1.33-.96,2.05-.55.72.41.96,1.33.55,2.05h0Z"/><circle cx="101.5" cy="452.29" r="9.15" style="fill:#ff6a00;"/><path d="M101.5,462.94c-5.87,0-10.65-4.78-10.65-10.65s4.78-10.65,10.65-10.65,10.65,4.78,10.65,10.65-4.78,10.65-10.65,10.65ZM101.5,444.64c-4.22,0-7.65,3.43-7.65,7.65s3.43,7.65,7.65,7.65,7.65-3.43,7.65-7.65-3.43-7.65-7.65-7.65Z"/><circle cx="151.5" cy="296.12" r="9.15" style="fill:#ff6a00;"/><path d="M151.5,306.77c-5.87,0-10.65-4.78-10.65-10.65s4.78-10.65,10.65-10.65,10.65,4.78,10.65,10.65-4.78,10.65-10.65,10.65ZM151.5,288.46c-4.22,0-7.65,3.43-7.65,7.65s3.43,7.65,7.65,7.65,7.65-3.43,7.65-7.65-3.43-7.65-7.65-7.65Z"/><circle cx="201.5" cy="396.77" r="9.15" style="fill:#ff6a00;"/><path d="M201.5,407.42c-5.87,0-10.65-4.78-10.65-10.65s4.78-10.65,10.65-10.65,10.65,4.78,10.65,10.65-4.78,10.65-10.65,10.65ZM201.5,389.12c-4.22,0-7.65,3.43-7.65,7.65s3.43,7.65,7.65,7.65,7.65-3.43,7.65-7.65-3.43-7.65-7.65-7.65Z"/><path d="M321.92,320.54c-1.44-.83-3.02-1.23-4.58-1.22,0,0,0,0,0,0s0,0,0,0c1.56,0,3.13-.39,4.58-1.22,4.38-2.53,5.88-8.12,3.35-12.5-2.53-4.38-8.12-5.88-12.5-3.35-1.44.83-2.57,2-3.35,3.35,0,0,0,0,0,0,.78-1.35,1.23-2.91,1.23-4.58,0-5.05-4.1-9.15-9.15-9.15s-9.15,4.1-9.15,9.15c0,1.67.45,3.23,1.23,4.58,0,0,0,0,0,0-.78-1.35-1.9-2.52-3.35-3.35-4.38-2.53-9.97-1.03-12.5,3.35-2.53,4.38-1.03,9.97,3.35,12.5,1.44.83,3.02,1.23,4.58,1.22,0,0,0,0,0,0s0,0,0,0c-1.56,0-3.13.39-4.58,1.22-4.38,2.53-5.88,8.12-3.35,12.5,2.53,4.38,8.12,5.88,12.5,3.35,1.44-.83,2.57-2,3.35-3.35,0,0,0,0,0,0-.78,1.35-1.23,2.91-1.23,4.58,0,5.05,4.1,9.15,9.15,9.15s9.15-4.1,9.15-9.15c0-1.67-.45-3.23-1.23-4.58,0,0,0,0,0,0,.78,1.35,1.9,2.52,3.35,3.35,4.38,2.53,9.97,1.03,12.5-3.35,2.53-4.38,1.03-9.97-3.35-12.5Z" style="fill:#f4b8ff;"/><path d="M301.5,348.27c-5.82,0-10.57-4.7-10.65-10.5-2.44,1.36-5.26,1.71-7.96.99-2.75-.74-5.04-2.5-6.47-4.96-1.42-2.46-1.8-5.33-1.06-8.08.72-2.7,2.44-4.97,4.84-6.39-2.4-1.43-4.11-3.69-4.84-6.39-.74-2.75-.36-5.62,1.06-8.08,1.42-2.46,3.72-4.23,6.47-4.96,2.7-.72,5.52-.37,7.96.99.08-5.81,4.83-10.5,10.65-10.5s10.57,4.7,10.65,10.51c5.07-2.84,11.51-1.07,14.42,3.97,1.42,2.46,1.8,5.33,1.06,8.08-.72,2.7-2.44,4.97-4.84,6.39,2.4,1.43,4.11,3.69,4.84,6.39.74,2.75.36,5.62-1.06,8.08-1.42,2.46-3.72,4.23-6.47,4.96-2.7.73-5.52.37-7.96-.99-.08,5.81-4.82,10.51-10.65,10.51ZM293.58,331.54c.57,0,1.09.32,1.34.83.23.45.21.99-.04,1.42-.67,1.16-1.03,2.48-1.03,3.83,0,4.22,3.43,7.65,7.65,7.65s7.65-3.43,7.65-7.65c0-1.34-.35-2.67-1.03-3.83-.25-.44-.27-.97-.04-1.42.25-.51.78-.83,1.34-.83.54,0,1.03.29,1.3.75.67,1.16,1.64,2.13,2.8,2.8,1.77,1.02,3.83,1.29,5.81.77,1.97-.53,3.62-1.79,4.65-3.56,1.02-1.77,1.29-3.83.76-5.81-.53-1.97-1.79-3.62-3.56-4.64h0c-1.16-.67-2.48-1.02-3.81-1.02,0,0,0,0-.01,0-.4,0-.78-.16-1.06-.44-.28-.28-.44-.66-.44-1.06s.16-.78.44-1.06c.28-.28.66-.44,1.06-.44,0,0,0,0,.01,0,1.34,0,2.65-.35,3.81-1.02,1.77-1.02,3.04-2.67,3.56-4.65s.26-4.04-.76-5.8c-2.11-3.65-6.8-4.91-10.45-2.8-1.16.67-2.13,1.64-2.8,2.8h0s0,0,0,0c-.41.72-1.33.96-2.05.55-.72-.41-.96-1.33-.55-2.05,0,0,0,0,0,0h0c.67-1.16,1.03-2.48,1.03-3.83,0-4.22-3.43-7.65-7.65-7.65s-7.65,3.43-7.65,7.65c0,1.34.35,2.67,1.03,3.83h0s0,0,0,0c.41.72.17,1.63-.55,2.05-.71.41-1.63.17-2.05-.55,0,0,0,0,0,0h0c-.67-1.16-1.64-2.13-2.8-2.8-1.77-1.02-3.83-1.29-5.81-.76-1.97.53-3.62,1.79-4.64,3.56-1.02,1.77-1.29,3.83-.76,5.8s1.79,3.62,3.56,4.65c1.16.67,2.48,1.02,3.81,1.02,0,0,0,0,.01,0,.4,0,.78.16,1.06.44.28.28.44.66.44,1.06s-.16.78-.44,1.06c-.28.28-.66.44-1.06.44,0,0,0,0-.01,0-1.34,0-2.65.35-3.81,1.02-1.77,1.02-3.04,2.67-3.56,4.64-.53,1.97-.26,4.04.76,5.81,1.02,1.77,2.67,3.04,4.65,3.56,1.98.53,4.04.26,5.81-.76,1.16-.67,2.13-1.64,2.8-2.8.27-.46.76-.75,1.3-.75Z"/><circle cx="301.5" cy="319.32" r="9.15" style="fill:#ff6a00;"/><path d="M301.5,329.97c-5.87,0-10.65-4.78-10.65-10.65s4.78-10.65,10.65-10.65,10.65,4.78,10.65,10.65-4.78,10.65-10.65,10.65ZM301.5,311.67c-4.22,0-7.65,3.43-7.65,7.65s3.43,7.65,7.65,7.65,7.65-3.43,7.65-7.65-3.43-7.65-7.65-7.65Z"/><circle cx="351.5" cy="424.22" r="9.15" style="fill:#ff6a00;"/><path d="M351.5,434.87c-5.87,0-10.65-4.78-10.65-10.65s4.78-10.65,10.65-10.65,10.65,4.78,10.65,10.65-4.78,10.65-10.65,10.65ZM351.5,416.57c-4.22,0-7.65,3.43-7.65,7.65s3.43,7.65,7.65,7.65,7.65-3.43,7.65-7.65-3.43-7.65-7.65-7.65Z"/><path d="M271.92,510.54c-1.44.83-3.02,1.23-4.58,1.22,0,0,0,0,0,0s0,0,0,0c1.56,0,3.13.39,4.58,1.22,4.38,2.53,5.88,8.12,3.35,12.5-2.53,4.38-8.12,5.88-12.5,3.35-1.44-.83-2.57-2-3.35-3.35,0,0,0,0,0,0,.78,1.35,1.23,2.91,1.23,4.58,0,5.05-4.1,9.15-9.15,9.15s-9.15-4.1-9.15-9.15c0-1.67.45-3.23,1.23-4.58,0,0,0,0,0,0-.78,1.35-1.9,2.52-3.35,3.35-4.38,2.53-9.97,1.03-12.5-3.35s-1.03-9.97,3.35-12.5c1.44-.83,3.02-1.23,4.58-1.22,0,0,0,0,0,0s0,0,0,0c-1.56,0-3.13-.39-4.58-1.22-4.38-2.53-5.88-8.12-3.35-12.5,2.53-4.38,8.12-5.88,12.5-3.35,1.44.83,2.57,2,3.35,3.35,0,0,0,0,0,0-.78-1.35-1.23-2.91-1.23-4.58,0-5.05,4.1-9.15,9.15-9.15s9.15,4.1,9.15,9.15c0,1.67-.45,3.23-1.23,4.58,0,0,0,0,0,0,.78-1.35,1.9-2.52,3.35-3.35,4.38-2.53,9.97-1.03,12.5,3.35,2.53,4.38,1.03,9.97-3.35,12.5Z" style="fill:#f4b8ff;"/><path d="M251.5,540.72c-5.82,0-10.57-4.7-10.65-10.5-2.44,1.36-5.26,1.72-7.96.99-2.75-.74-5.04-2.5-6.47-4.96-1.42-2.46-1.8-5.33-1.06-8.08.72-2.7,2.44-4.97,4.84-6.39-2.4-1.43-4.11-3.69-4.84-6.39-.74-2.75-.36-5.62,1.06-8.08,2.91-5.04,9.35-6.8,14.42-3.97.08-5.81,4.82-10.5,10.65-10.5s10.57,4.7,10.65,10.5c5.07-2.83,11.51-1.07,14.42,3.97,1.42,2.46,1.8,5.33,1.06,8.08-.72,2.7-2.44,4.97-4.84,6.39,4.99,2.97,6.69,9.43,3.77,14.48-1.42,2.46-3.72,4.23-6.47,4.96-2.7.72-5.52.37-7.96-.99-.08,5.81-4.82,10.5-10.65,10.5ZM243.58,523.99c.4,0,.78.16,1.06.44.48.48.58,1.22.24,1.81-.67,1.16-1.03,2.48-1.03,3.82,0,4.22,3.43,7.65,7.65,7.65s7.65-3.43,7.65-7.65c0-1.34-.35-2.67-1.03-3.82-.34-.59-.24-1.33.24-1.81.66-.66,1.9-.5,2.36.31.67,1.16,1.64,2.13,2.8,2.8,1.77,1.02,3.83,1.29,5.81.77,1.97-.53,3.62-1.79,4.65-3.56,2.11-3.65.85-8.34-2.8-10.45-1.16-.67-2.48-1.02-3.81-1.02,0,0,0,0-.01,0-.4,0-.78-.16-1.06-.44-.28-.28-.44-.66-.44-1.06s.16-.78.44-1.06c.28-.28.66-.44,1.06-.44,0,0,0,0,.01,0,1.34,0,2.65-.35,3.81-1.02h0c1.77-1.02,3.04-2.67,3.56-4.65.53-1.97.26-4.04-.76-5.8-2.11-3.65-6.8-4.91-10.45-2.8-1.16.67-2.13,1.64-2.8,2.8h0s0,0,0,0c-.41.72-1.33.96-2.05.55-.72-.41-.96-1.33-.55-2.05h0s0,0,0,0c.67-1.16,1.03-2.48,1.03-3.82,0-4.22-3.43-7.65-7.65-7.65s-7.65,3.43-7.65,7.65c0,1.34.35,2.67,1.03,3.82h0s0,0,0,0c.41.72.17,1.63-.55,2.05-.71.41-1.63.17-2.05-.55,0,0,0,0,0,0h0c-.67-1.16-1.64-2.13-2.8-2.8-3.65-2.11-8.34-.85-10.45,2.8-1.02,1.77-1.29,3.83-.76,5.8s1.79,3.62,3.56,4.65c1.16.67,2.48,1.02,3.81,1.02,0,0,0,0,.01,0,.4,0,.78.16,1.06.44.28.28.44.66.44,1.06s-.16.78-.44,1.06c-.28.28-.66.44-1.06.44,0,0,0,0-.01,0-1.34,0-2.65.35-3.81,1.02-1.77,1.02-3.04,2.67-3.56,4.64-.53,1.97-.26,4.04.76,5.81,1.02,1.77,2.67,3.04,4.65,3.56,1.97.53,4.04.26,5.81-.76,1.16-.67,2.13-1.64,2.8-2.8.27-.46.76-.75,1.3-.75Z"/><circle cx="251.5" cy="511.77" r="9.15" style="fill:#ff6a00;"/><path d="M251.5,522.42c-5.87,0-10.65-4.78-10.65-10.65s4.78-10.65,10.65-10.65,10.65,4.78,10.65,10.65-4.78,10.65-10.65,10.65ZM251.5,504.12c-4.22,0-7.65,3.43-7.65,7.65s3.43,7.65,7.65,7.65,7.65-3.43,7.65-7.65-3.43-7.65-7.65-7.65Z"/><path d="M371.92,440.54c-1.44.83-3.02,1.23-4.58,1.22,0,0,0,0,0,0s0,0,0,0c1.56,0,3.13.39,4.58,1.22,4.38,2.53,5.88,8.12,3.35,12.5-2.53,4.38-8.12,5.88-12.5,3.35-1.44-.83-2.57-2-3.35-3.35,0,0,0,0,0,0,.78,1.35,1.23,2.91,1.23,4.58,0,5.05-4.1,9.15-9.15,9.15s-9.15-4.1-9.15-9.15c0-1.67.45-3.23,1.23-4.58,0,0,0,0,0,0-.78,1.35-1.9,2.52-3.35,3.35-4.38,2.53-9.97,1.03-12.5-3.35-2.53-4.38-1.03-9.97,3.35-12.5,1.44-.83,3.02-1.23,4.58-1.22,0,0,0,0,0,0s0,0,0,0c-1.56,0-3.13-.39-4.58-1.22-4.38-2.53-5.88-8.12-3.35-12.5,2.53-4.38,8.12-5.88,12.5-3.35,1.44.83,2.57,2,3.35,3.35,0,0,0,0,0,0-.78-1.35-1.23-2.91-1.23-4.58,0-5.05,4.1-9.15,9.15-9.15s9.15,4.1,9.15,9.15c0,1.67-.45,3.23-1.23,4.58,0,0,0,0,0,0,.78-1.35,1.9-2.52,3.35-3.35,4.38-2.53,9.97-1.03,12.5,3.35,2.53,4.38,1.03,9.97-3.35,12.5Z" style="fill:#f4b8ff;"/><path d="M351.5,470.72c-5.82,0-10.57-4.7-10.65-10.5-5.07,2.83-11.51,1.07-14.42-3.97-1.42-2.46-1.8-5.33-1.06-8.08.72-2.7,2.44-4.97,4.84-6.39-2.4-1.43-4.11-3.69-4.84-6.39-.74-2.75-.36-5.62,1.06-8.08,2.91-5.04,9.35-6.8,14.42-3.97.08-5.81,4.82-10.5,10.65-10.5s10.57,4.7,10.65,10.5c5.07-2.83,11.51-1.07,14.42,3.97,1.42,2.46,1.8,5.33,1.06,8.08-.72,2.7-2.44,4.97-4.84,6.39,4.99,2.97,6.69,9.43,3.77,14.48-2.91,5.04-9.36,6.8-14.42,3.97-.08,5.8-4.83,10.5-10.65,10.5ZM343.58,453.99c.4,0,.78.16,1.06.44.48.48.58,1.22.24,1.81-.67,1.16-1.03,2.48-1.03,3.82,0,4.22,3.43,7.65,7.65,7.65s7.65-3.43,7.65-7.65c0-1.34-.35-2.67-1.03-3.82-.34-.59-.24-1.33.24-1.81.66-.66,1.9-.5,2.36.31.67,1.16,1.64,2.13,2.8,2.8,3.65,2.11,8.34.85,10.45-2.8,2.11-3.65.85-8.34-2.8-10.45-1.16-.67-2.48-1.02-3.81-1.02,0,0,0,0-.01,0-.4,0-.78-.16-1.06-.44-.28-.28-.44-.66-.44-1.06s.16-.78.44-1.06c.28-.28.66-.44,1.06-.44,0,0,0,0,.01,0,1.34,0,2.65-.35,3.81-1.02h0c1.77-1.02,3.04-2.67,3.56-4.65.53-1.97.26-4.04-.76-5.8-2.11-3.65-6.8-4.91-10.45-2.8-1.16.67-2.13,1.64-2.8,2.8h0s0,0,0,0c-.41.72-1.33.96-2.05.55-.72-.41-.96-1.33-.55-2.05h0s0,0,0,0c.67-1.16,1.03-2.48,1.03-3.82,0-4.22-3.43-7.65-7.65-7.65s-7.65,3.43-7.65,7.65c0,1.34.35,2.67,1.03,3.82h0s0,0,0,0c.41.72.17,1.63-.55,2.05-.72.41-1.63.17-2.05-.55,0,0,0,0,0,0h0c-.67-1.16-1.64-2.13-2.8-2.8-3.65-2.11-8.34-.85-10.45,2.8-1.02,1.77-1.29,3.83-.76,5.8s1.79,3.62,3.56,4.65c1.16.67,2.48,1.02,3.81,1.02,0,0,0,0,.01,0,.4,0,.78.16,1.06.44.28.28.44.66.44,1.06s-.16.78-.44,1.06c-.28.28-.66.44-1.06.44,0,0,0,0-.01,0-1.34,0-2.65.35-3.81,1.02-1.77,1.02-3.04,2.67-3.56,4.64-.53,1.97-.26,4.04.76,5.81,2.11,3.65,6.8,4.91,10.45,2.8,1.16-.67,2.13-1.64,2.8-2.8.27-.46.76-.75,1.3-.75Z"/><circle cx="351.5" cy="441.77" r="9.15" style="fill:#ff6a00;"/><path d="M351.5,452.42c-5.87,0-10.65-4.78-10.65-10.65s4.78-10.65,10.65-10.65,10.65,4.78,10.65,10.65-4.78,10.65-10.65,10.65ZM351.5,434.12c-4.22,0-7.65,3.43-7.65,7.65s3.43,7.65,7.65,7.65,7.65-3.43,7.65-7.65-3.43-7.65-7.65-7.65Z"/><path d="M53.57,148.27c-.7,0-1.33-.49-1.47-1.21-1.4-7-2.1-14.71-2.1-22.92,0-22.84,8.45-42.2,24.43-55.97,13.95-12.02,33.17-18.92,52.72-18.92,18.38,0,35.33,5.93,47.75,16.71,14.02,12.17,21.44,29.74,21.44,50.81,0,.83-.67,1.5-1.5,1.5s-1.5-.67-1.5-1.5c0-20.17-7.06-36.96-20.4-48.54-11.87-10.3-28.12-15.97-45.78-15.97-36.85,0-74.15,24.69-74.15,71.89,0,8.01.69,15.53,2.04,22.33.16.81-.37,1.6-1.18,1.76-.1.02-.2.03-.29.03Z"/><path d="M119.8,208.12c-.11,0-.21-.01-.32-.04-25.18-5.51-42.9-15.46-54.18-30.42-.5-.66-.37-1.6.29-2.1.66-.5,1.6-.37,2.1.29,10.83,14.36,27.98,23.94,52.43,29.29.81.18,1.32.98,1.14,1.79-.15.7-.77,1.18-1.46,1.18Z"/><path d="M201.5,370.82c-.83,0-1.5-.67-1.5-1.5,0-54.06,20.22-77.67,34.98-94.91,8.39-9.8,15.02-17.54,15.02-27.64,0-22.54-21.64-28.54-59.02-31.29-.83-.06-1.45-.78-1.39-1.61.06-.83.76-1.46,1.61-1.39,32.57,2.39,61.8,6.81,61.8,34.28,0,11.22-6.95,19.33-15.74,29.6-14.46,16.88-34.26,40-34.26,92.95,0,.83-.67,1.5-1.5,1.5Z"/><path d="M271.92,247.99c-1.44-.83-3.02-1.23-4.58-1.22,0,0,0,0,0,0s0,0,0,0c1.56,0,3.13-.39,4.58-1.22,4.38-2.53,5.88-8.12,3.35-12.5-2.53-4.38-8.12-5.88-12.5-3.35-1.44.83-2.57,2-3.35,3.35,0,0,0,0,0,0,.78-1.35,1.23-2.91,1.23-4.58,0-5.05-4.1-9.15-9.15-9.15s-9.15,4.1-9.15,9.15c0,1.67.45,3.23,1.23,4.58,0,0,0,0,0,0-.78-1.35-1.9-2.52-3.35-3.35-4.38-2.53-9.97-1.03-12.5,3.35-2.53,4.38-1.03,9.97,3.35,12.5,1.44.83,3.02,1.23,4.58,1.22,0,0,0,0,0,0s0,0,0,0c-1.56,0-3.13.39-4.58,1.22-4.38,2.53-5.88,8.12-3.35,12.5,2.53,4.38,8.12,5.88,12.5,3.35,1.44-.83,2.57-2,3.35-3.35,0,0,0,0,0,0-.78,1.35-1.23,2.91-1.23,4.58,0,5.05,4.1,9.15,9.15,9.15s9.15-4.1,9.15-9.15c0-1.67-.45-3.23-1.23-4.58,0,0,0,0,0,0,.78,1.35,1.9,2.52,3.35,3.35,4.38,2.53,9.97,1.03,12.5-3.35,2.53-4.38,1.03-9.97-3.35-12.5Z" style="fill:#f4b8ff;"/><path d="M251.5,275.72c-5.82,0-10.57-4.7-10.65-10.5-2.44,1.36-5.26,1.72-7.96.99-2.75-.74-5.04-2.5-6.47-4.96-1.42-2.46-1.8-5.33-1.06-8.08.72-2.7,2.44-4.97,4.84-6.39-2.4-1.43-4.11-3.69-4.84-6.39-.74-2.75-.36-5.62,1.06-8.08,2.91-5.04,9.35-6.8,14.42-3.97.08-5.81,4.82-10.5,10.65-10.5s10.57,4.7,10.65,10.5c5.07-2.83,11.51-1.07,14.42,3.97,1.42,2.46,1.8,5.33,1.06,8.08-.72,2.7-2.44,4.97-4.84,6.39,4.99,2.97,6.69,9.43,3.77,14.47-1.42,2.46-3.72,4.23-6.47,4.96-2.7.72-5.52.37-7.96-.99-.08,5.81-4.82,10.5-10.65,10.5ZM243.58,258.99c.4,0,.78.16,1.06.44.48.48.58,1.22.24,1.81-.67,1.16-1.03,2.48-1.03,3.82,0,4.22,3.43,7.65,7.65,7.65s7.65-3.43,7.65-7.65c0-1.34-.35-2.67-1.03-3.82-.34-.59-.24-1.33.24-1.81.66-.66,1.9-.5,2.36.31.67,1.16,1.64,2.13,2.8,2.8,1.77,1.02,3.83,1.29,5.81.77,1.97-.53,3.62-1.79,4.65-3.56,2.11-3.65.85-8.34-2.8-10.45h0c-1.16-.67-2.48-1.02-3.81-1.02,0,0,0,0-.01,0-.4,0-.78-.16-1.06-.44-.28-.28-.44-.66-.44-1.06s.16-.78.44-1.06c.28-.28.66-.44,1.06-.44,0,0,0,0,.01,0,1.34,0,2.65-.35,3.81-1.02,1.77-1.02,3.04-2.67,3.56-4.65.53-1.97.26-4.04-.76-5.8-2.11-3.65-6.8-4.91-10.45-2.8-1.16.67-2.13,1.64-2.8,2.8h0s0,0,0,0c-.41.72-1.33.96-2.05.55-.72-.41-.96-1.33-.55-2.05h0s0,0,0,0c.67-1.16,1.03-2.48,1.03-3.82,0-4.22-3.43-7.65-7.65-7.65s-7.65,3.43-7.65,7.65c0,1.34.35,2.67,1.03,3.82h0s0,0,0,0c.41.72.17,1.63-.55,2.05-.71.41-1.63.17-2.05-.55,0,0,0,0,0,0h0c-.67-1.16-1.64-2.13-2.8-2.8-3.65-2.11-8.34-.85-10.45,2.8-1.02,1.77-1.29,3.83-.76,5.8s1.79,3.62,3.56,4.65c1.16.67,2.45,1,3.82,1.02h0c.4,0,.78.16,1.06.44.28.28.44.66.44,1.06s-.16.78-.44,1.06c-.28.28-.66.44-1.06.44,0,0,0,0-.01,0-1.34,0-2.65.35-3.81,1.02-1.77,1.02-3.04,2.67-3.56,4.64-.53,1.97-.26,4.04.76,5.81,1.02,1.77,2.67,3.04,4.65,3.56,1.97.53,4.04.26,5.81-.76,1.16-.67,2.13-1.64,2.8-2.8.27-.46.76-.75,1.3-.75Z"/><circle cx="251.5" cy="246.77" r="9.15" style="fill:#ff6a00;"/><path d="M251.5,257.42c-5.87,0-10.65-4.78-10.65-10.65s4.78-10.65,10.65-10.65,10.65,4.78,10.65,10.65-4.78,10.65-10.65,10.65ZM251.5,239.12c-4.22,0-7.65,3.43-7.65,7.65s3.43,7.65,7.65,7.65,7.65-3.43,7.65-7.65-3.43-7.65-7.65-7.65Z"/><path d="M215.26,117.99c-1.44-.83-3.02-1.23-4.58-1.22,0,0,0,0,0,0s0,0,0,0c1.56,0,3.13-.39,4.58-1.22,4.38-2.53,5.88-8.12,3.35-12.5-2.53-4.38-8.12-5.88-12.5-3.35-1.44.83-2.57,2-3.35,3.35,0,0,0,0,0,0,.78-1.35,1.23-2.91,1.23-4.58,0-5.05-4.1-9.15-9.15-9.15s-9.15,4.1-9.15,9.15c0,1.67.45,3.23,1.23,4.58,0,0,0,0,0,0-.78-1.35-1.9-2.52-3.35-3.35-4.38-2.53-9.97-1.03-12.5,3.35s-1.03,9.97,3.35,12.5c1.44.83,3.02,1.23,4.58,1.22,0,0,0,0,0,0s0,0,0,0c-1.56,0-3.13.39-4.58,1.22-4.38,2.53-5.88,8.12-3.35,12.5s8.12,5.88,12.5,3.35c1.44-.83,2.57-2,3.35-3.35,0,0,0,0,0,0-.78,1.35-1.23,2.91-1.23,4.58,0,5.05,4.1,9.15,9.15,9.15s9.15-4.1,9.15-9.15c0-1.67-.45-3.23-1.23-4.58,0,0,0,0,0,0,.78,1.35,1.9,2.52,3.35,3.35,4.38,2.53,9.97,1.03,12.5-3.35,2.53-4.38,1.03-9.97-3.35-12.5Z" style="fill:#f4b8ff;"/><path d="M194.83,145.72c-5.82,0-10.57-4.7-10.65-10.51-5.07,2.84-11.51,1.07-14.42-3.97-1.42-2.46-1.8-5.33-1.06-8.08.72-2.7,2.44-4.97,4.84-6.39-2.4-1.43-4.11-3.69-4.84-6.39-.74-2.75-.36-5.62,1.06-8.08,2.91-5.04,9.36-6.8,14.42-3.97.08-5.81,4.82-10.51,10.65-10.51s10.57,4.7,10.65,10.51c5.07-2.84,11.51-1.07,14.42,3.97,1.42,2.46,1.8,5.33,1.06,8.08-.72,2.7-2.44,4.97-4.84,6.39,2.4,1.43,4.11,3.69,4.84,6.39.74,2.75.36,5.62-1.06,8.08-2.91,5.04-9.35,6.81-14.42,3.97-.08,5.81-4.82,10.51-10.65,10.51ZM188.21,131.24h0c-.67,1.16-1.03,2.48-1.03,3.83,0,4.22,3.43,7.65,7.65,7.65s7.65-3.43,7.65-7.65c0-1.34-.35-2.67-1.03-3.83h0s0,0,0,0c-.41-.72-.17-1.63.55-2.05.72-.41,1.63-.17,2.05.55,0,0,0,0,0,0h0c.67,1.16,1.64,2.13,2.8,2.8,3.65,2.11,8.34.85,10.45-2.8,1.02-1.77,1.29-3.83.76-5.8s-1.79-3.62-3.56-4.65h0c-1.16-.67-2.48-1.02-3.81-1.02,0,0,0,0-.01,0-.4,0-.78-.16-1.06-.44-.28-.28-.44-.66-.44-1.06s.16-.78.44-1.06c.28-.28.66-.44,1.06-.44,0,0,0,0,.01,0,1.34,0,2.65-.35,3.81-1.02,1.77-1.02,3.04-2.67,3.56-4.65s.26-4.04-.76-5.8c-2.11-3.65-6.8-4.91-10.45-2.8-1.16.67-2.13,1.64-2.8,2.8-.27.46-.76.75-1.3.75-.57,0-1.09-.32-1.34-.83-.23-.45-.21-.99.04-1.42.67-1.16,1.03-2.48,1.03-3.83,0-4.22-3.43-7.65-7.65-7.65s-7.65,3.43-7.65,7.65c0,1.34.35,2.67,1.03,3.83.25.44.27.97.04,1.42-.25.51-.78.83-1.34.83-.54,0-1.03-.29-1.3-.75-.67-1.16-1.64-2.13-2.8-2.8-3.65-2.11-8.34-.85-10.45,2.8-1.02,1.77-1.29,3.83-.76,5.8s1.79,3.62,3.56,4.65c1.16.67,2.48,1.02,3.81,1.02,0,0,0,0,.01,0,.4,0,.78.16,1.06.44.28.28.44.66.44,1.06s-.16.78-.44,1.06c-.28.28-.66.44-1.06.44,0,0,0,0-.01,0-1.34,0-2.65.35-3.81,1.02-1.77,1.02-3.04,2.67-3.56,4.65s-.26,4.04.76,5.8c2.11,3.65,6.8,4.91,10.45,2.8,1.16-.67,2.13-1.64,2.8-2.8h0s0,0,0,0c.42-.72,1.33-.96,2.05-.55.72.41.96,1.33.55,2.05,0,0,0,0,0,0ZM202.76,103.04h0,0Z"/><circle cx="194.83" cy="116.77" r="9.15" style="fill:#ff6a00;"/><path d="M194.83,127.42c-5.87,0-10.65-4.78-10.65-10.65s4.78-10.65,10.65-10.65,10.65,4.78,10.65,10.65-4.78,10.65-10.65,10.65ZM194.83,109.12c-4.22,0-7.65,3.43-7.65,7.65s3.43,7.65,7.65,7.65,7.65-3.43,7.65-7.65-3.43-7.65-7.65-7.65Z"/><path d="M381.08,367.89c1.44.83,3.02,1.23,4.58,1.22,0,0,0,0,0,0s0,0,0,0c-1.56,0-3.13.39-4.58,1.22-4.38,2.53-5.88,8.12-3.35,12.5,2.53,4.38,8.12,5.88,12.5,3.35,1.44-.83,2.57-2,3.35-3.35,0,0,0,0,0,0-.78,1.35-1.23,2.91-1.23,4.58,0,5.05,4.1,9.15,9.15,9.15,5.05,0,9.15-4.1,9.15-9.15,0-1.67-.45-3.23-1.23-4.58,0,0,0,0,0,0,.78,1.35,1.9,2.52,3.35,3.35,4.38,2.53,9.97,1.03,12.5-3.35,2.53-4.38,1.03-9.97-3.35-12.5-1.44-.83-3.02-1.23-4.58-1.22,0,0,0,0,0,0s0,0,0,0c1.56,0,3.13-.39,4.58-1.22,4.38-2.53,5.88-8.12,3.35-12.5s-8.12-5.88-12.5-3.35c-1.44.83-2.57,2-3.35,3.35,0,0,0,0,0,0,.78-1.35,1.23-2.91,1.23-4.58,0-5.05-4.1-9.15-9.15-9.15-5.05,0-9.15,4.1-9.15,9.15,0,1.67.45,3.23,1.23,4.58,0,0,0,0,0,0-.78-1.35-1.9-2.52-3.35-3.35-4.38-2.53-9.97-1.03-12.5,3.35-2.53,4.38-1.03,9.97,3.35,12.5Z" style="fill:#f4b8ff;"/><path d="M401.5,398.07c-5.82,0-10.57-4.7-10.65-10.51-2.44,1.36-5.25,1.71-7.96.99-2.75-.74-5.04-2.5-6.47-4.96-1.42-2.46-1.8-5.33-1.06-8.08.72-2.7,2.44-4.97,4.84-6.39-2.4-1.43-4.11-3.69-4.84-6.39-.74-2.75-.36-5.62,1.06-8.08,1.42-2.46,3.72-4.23,6.47-4.96,2.7-.73,5.52-.37,7.96.99.08-5.81,4.82-10.51,10.65-10.51s10.57,4.7,10.65,10.5c2.43-1.36,5.25-1.72,7.96-.99,2.75.74,5.04,2.5,6.47,4.96,2.91,5.04,1.21,11.5-3.77,14.47,2.4,1.43,4.11,3.69,4.84,6.39.74,2.75.36,5.62-1.06,8.08-2.91,5.04-9.35,6.8-14.42,3.97-.08,5.81-4.83,10.5-10.65,10.5ZM394.87,383.59h0c-.67,1.16-1.03,2.48-1.03,3.83,0,4.22,3.43,7.65,7.65,7.65s7.65-3.43,7.65-7.65c0-1.34-.35-2.67-1.03-3.83h0s0,0,0,0c-.41-.72-.17-1.63.55-2.05.72-.41,1.63-.17,2.05.55,0,0,0,0,0,0h0c.67,1.16,1.64,2.13,2.8,2.8,3.65,2.11,8.34.85,10.45-2.8,1.02-1.77,1.29-3.83.76-5.8s-1.79-3.62-3.56-4.65c-1.16-.67-2.48-1.02-3.81-1.02,0,0,0,0-.01,0-.4,0-.78-.16-1.06-.44-.28-.28-.44-.66-.44-1.06s.16-.78.44-1.06c.28-.28.66-.44,1.06-.44,0,0,0,0,.01,0,1.34,0,2.65-.35,3.81-1.02,3.65-2.11,4.91-6.8,2.8-10.45-1.02-1.77-2.67-3.04-4.65-3.56-1.98-.53-4.04-.26-5.81.76-1.16.67-2.13,1.64-2.8,2.8-.27.46-.76.75-1.3.75-.57,0-1.09-.32-1.34-.83-.23-.45-.21-.99.04-1.42.67-1.16,1.03-2.48,1.03-3.83,0-4.22-3.43-7.65-7.65-7.65s-7.65,3.43-7.65,7.65c0,1.34.35,2.67,1.03,3.83.25.44.27.97.04,1.42-.25.51-.78.83-1.34.83-.54,0-1.03-.29-1.3-.75-.67-1.16-1.64-2.13-2.8-2.8-1.77-1.02-3.83-1.3-5.81-.77-1.97.53-3.62,1.79-4.65,3.56-1.02,1.77-1.29,3.83-.76,5.81.53,1.97,1.79,3.62,3.56,4.64h0c1.16.67,2.48,1.02,3.81,1.02,0,0,0,0,.01,0,.4,0,.78.16,1.06.44.28.28.44.66.44,1.06s-.16.78-.44,1.06c-.28.28-.66.44-1.06.44,0,0,0,0-.01,0-1.34,0-2.65.35-3.81,1.02-1.77,1.02-3.04,2.67-3.56,4.65s-.26,4.04.76,5.8c1.02,1.77,2.67,3.04,4.65,3.56,1.97.53,4.04.26,5.8-.76,1.16-.67,2.13-1.64,2.8-2.8h0s0,0,0,0c.42-.72,1.33-.96,2.05-.55.72.41.96,1.33.55,2.05h0ZM409.42,355.39h0,0Z"/><circle cx="401.5" cy="369.12" r="9.15" style="fill:#ff6a00;"/><path d="M401.5,379.77c-5.87,0-10.65-4.78-10.65-10.65s4.78-10.65,10.65-10.65,10.65,4.78,10.65,10.65-4.78,10.65-10.65,10.65ZM401.5,361.47c-4.22,0-7.65,3.43-7.65,7.65s3.43,7.65,7.65,7.65,7.65-3.43,7.65-7.65-3.43-7.65-7.65-7.65Z"/><polygon points="448.49 115.12 483.5 106.77 442.1 82.98 460.95 52.32 414.85 64.78 406.5 29.77 382.71 71.17 352.05 52.32 364.51 98.41 329.5 106.77 370.9 130.55 352.05 161.21 398.15 148.76 406.5 183.77 430.29 142.36 460.95 161.21 448.49 115.12" style="fill:#f4b8ff;"/><path d="M406.5,185.27c-.07,0-.14,0-.22-.02-.61-.09-1.1-.54-1.24-1.14l-7.99-33.51-44.6,12.05c-.59.16-1.22-.06-1.59-.55-.37-.49-.4-1.16-.08-1.68l18.04-29.35-40.06-23.02c-.53-.31-.83-.91-.74-1.52.09-.61.54-1.1,1.14-1.24l33.51-7.99-12.05-44.6c-.16-.59.06-1.23.55-1.59.49-.37,1.16-.4,1.68-.08l29.35,18.04,23.02-40.06c.31-.53.91-.82,1.52-.74.61.09,1.1.54,1.24,1.14l7.99,33.51,44.6-12.05c.59-.16,1.22.06,1.59.55.37.49.4,1.16.08,1.68l-18.04,29.35,40.06,23.02c.53.31.83.91.74,1.52-.09.61-.54,1.1-1.14,1.24l-33.51,7.99,12.05,44.6c.16.59-.06,1.23-.55,1.59s-1.16.4-1.68.08l-29.35-18.04-23.02,40.06c-.27.47-.77.75-1.3.75ZM398.15,147.26c.27,0,.53.07.77.21.35.21.6.55.69.94l7.48,31.33,21.9-38.12c.2-.35.54-.61.93-.71.39-.1.81-.04,1.16.18l27.44,16.87-11.47-42.45c-.11-.39-.05-.81.16-1.16.21-.35.55-.6.94-.69l31.33-7.47-38.12-21.9c-.35-.2-.61-.54-.71-.93-.1-.39-.04-.81.18-1.16l16.87-27.44-42.45,11.47c-.39.1-.81.05-1.16-.16-.35-.21-.6-.55-.69-.94l-7.48-31.33-21.9,38.12c-.2.35-.54.61-.93.71-.39.1-.81.04-1.16-.18l-27.44-16.87,11.47,42.45c.11.39.05.81-.16,1.16-.21.35-.55.6-.94.69l-31.33,7.48,38.12,21.9c.35.2.61.54.71.93.1.39.04.81-.18,1.16l-16.87,27.44,42.45-11.47c.13-.03.26-.05.39-.05Z"/><circle cx="406.5" cy="106.77" r="22" style="fill:#ff6a00;"/><path d="M406.5,130.27c-12.96,0-23.5-10.54-23.5-23.5s10.54-23.5,23.5-23.5,23.5,10.54,23.5,23.5-10.54,23.5-23.5,23.5ZM406.5,86.27c-11.3,0-20.5,9.2-20.5,20.5s9.2,20.5,20.5,20.5,20.5-9.2,20.5-20.5-9.2-20.5-20.5-20.5Z"/><path d="M599.3,396.77c0,110.46,89.54,200,200,200,110.46,0,200-89.54,200-200,0-110.46-89.54-200-200-200s-200,89.54-200,200ZM649.3,396.77c0-82.84,67.16-150,150-150,82.84,0,150,67.16,150,150,0,82.84-67.16,150-150,150-82.84,0-150-67.16-150-150Z" style="fill:#ff6a00;"/><path d="M799.31,598.27c-111.11,0-201.5-90.39-201.5-201.5s90.39-201.5,201.5-201.5,201.5,90.39,201.5,201.5-90.39,201.5-201.5,201.5ZM799.31,198.27c-109.45,0-198.5,89.05-198.5,198.5s89.05,198.5,198.5,198.5,198.5-89.05,198.5-198.5-89.05-198.5-198.5-198.5ZM799.31,548.27c-83.54,0-151.5-67.96-151.5-151.5s67.96-151.5,151.5-151.5,151.5,67.96,151.5,151.5-67.96,151.5-151.5,151.5ZM799.31,248.27c-81.88,0-148.5,66.62-148.5,148.5s66.62,148.5,148.5,148.5,148.5-66.62,148.5-148.5-66.62-148.5-148.5-148.5Z"/><path d="M1024.3,146.77h-62.47l34.14-66.26-53.34-27.48-170,330h0c-2.13,4.12-3.33,8.79-3.33,13.74,0,16.57,13.43,30,30,30,11.62,0,21.68-6.61,26.67-16.26h0s104.96-203.74,104.96-203.74l45.54,63.87,24.43-17.42-54.51-76.45h77.92v-30Z" style="fill:#ff6a00;"/><path d="M799.3,428.27c-17.37,0-31.5-14.13-31.5-31.5,0-5.05,1.16-9.87,3.46-14.35.01-.02.02-.05.04-.07L941.3,52.34c.38-.74,1.28-1.02,2.02-.65l53.34,27.48c.35.18.62.5.74.88s.09.79-.1,1.14l-33.01,64.08h60.01c.83,0,1.5.67,1.5,1.5v30c0,.83-.67,1.5-1.5,1.5h-75.01l52.82,74.08c.48.67.32,1.61-.35,2.09l-24.43,17.42c-.67.48-1.61.32-2.09-.35l-44.11-61.86-103.83,201.55c-5.44,10.53-16.17,17.08-28,17.08ZM774.01,383.64s-.02.05-.04.07c-2.1,4.07-3.17,8.46-3.17,13.05,0,15.71,12.79,28.5,28.5,28.5,10.71,0,20.42-5.92,25.33-15.45l104.96-203.74c.24-.47.7-.77,1.23-.81.52-.04,1.03.2,1.33.62l44.67,62.65,21.98-15.67-53.64-75.23c-.33-.46-.37-1.06-.11-1.56.26-.5.77-.81,1.33-.81h76.42v-27h-60.97c-.52,0-1.01-.27-1.28-.72-.27-.45-.29-1-.05-1.47l33.45-64.93-50.67-26.1-169.28,328.59Z"/><path d="M969.3,36.77h-170c-38.66,0-70,31.34-70,70s31.34,70,70,70h61.3c16.57,0,30-13.43,30-30s-13.43-30-30-30h-61.3c-5.52,0-10-4.48-10-10s4.48-10,10-10h170c16.57,0,30-13.43,30-30s-13.43-30-30-30Z" style="fill:#ff6a00;"/><path d="M860.61,178.27h-61.3c-39.43,0-71.5-32.08-71.5-71.5s32.07-71.5,71.5-71.5h170c17.37,0,31.5,14.13,31.5,31.5s-14.13,31.5-31.5,31.5h-170c-4.69,0-8.5,3.81-8.5,8.5s3.81,8.5,8.5,8.5h61.3c17.37,0,31.5,14.13,31.5,31.5s-14.13,31.5-31.5,31.5ZM799.3,38.27c-37.77,0-68.5,30.73-68.5,68.5s30.73,68.5,68.5,68.5h61.3c15.71,0,28.5-12.79,28.5-28.5s-12.79-28.5-28.5-28.5h-61.3c-3.07,0-5.96-1.2-8.13-3.37s-3.37-5.06-3.37-8.13c0-6.34,5.16-11.5,11.5-11.5h170c15.71,0,28.5-12.79,28.5-28.5s-12.79-28.5-28.5-28.5h-170Z"/><path d="M969.3,98.27c-.83,0-1.5-.67-1.5-1.5v-60c0-.83.67-1.5,1.5-1.5s1.5.67,1.5,1.5v60c0,.83-.67,1.5-1.5,1.5Z"/><path d="M799.3,98.27c-.83,0-1.5-.67-1.5-1.5v-60c0-.83.67-1.5,1.5-1.5s1.5.67,1.5,1.5v60c0,.83-.67,1.5-1.5,1.5Z"/><path d="M799.3,178.27c-.83,0-1.5-.67-1.5-1.5v-60c0-.83.67-1.5,1.5-1.5s1.5.67,1.5,1.5v60c0,.83-.67,1.5-1.5,1.5Z"/><path d="M738.68,143.27c-.52,0-1.02-.27-1.3-.75-.41-.72-.17-1.63.55-2.05l51.96-30c.72-.42,1.64-.17,2.05.55.41.72.17,1.63-.55,2.05l-51.96,30c-.24.14-.49.2-.75.2Z"/><path d="M790.64,103.27c-.25,0-.51-.06-.75-.2l-51.96-30c-.72-.41-.96-1.33-.55-2.05s1.33-.96,2.05-.55l51.96,30c.72.41.96,1.33.55,2.05-.28.48-.78.75-1.3.75Z"/><path d="M912.64,98.27c-.83,0-1.5-.67-1.5-1.5v-60c0-.83.67-1.5,1.5-1.5s1.5.67,1.5,1.5v60c0,.83-.67,1.5-1.5,1.5Z"/><path d="M855.97,98.27c-.83,0-1.5-.67-1.5-1.5v-60c0-.83.67-1.5,1.5-1.5s1.5.67,1.5,1.5v60c0,.83-.67,1.5-1.5,1.5Z"/><path d="M855.97,178.27c-.83,0-1.5-.67-1.5-1.5v-60c0-.83.67-1.5,1.5-1.5s1.5.67,1.5,1.5v60c0,.83-.67,1.5-1.5,1.5Z"/><line x1="599.3" y1="257.55" x2="599.3" y2="596.77" style="fill:#fff;"/><path d="M599.3,598.27c-.83,0-1.5-.67-1.5-1.5v-339.22c0-.83.67-1.5,1.5-1.5s1.5.67,1.5,1.5v339.22c0,.83-.67,1.5-1.5,1.5Z"/><line x1="799.3" y1="539.22" x2="799.3" y2="596.77" style="fill:#fff;"/><path d="M799.3,598.27c-.83,0-1.5-.67-1.5-1.5v-57.55c0-.83.67-1.5,1.5-1.5s1.5.67,1.5,1.5v57.55c0,.83-.67,1.5-1.5,1.5Z"/><line x1="999.3" y1="286.97" x2="999.3" y2="596.77" style="fill:#fff;"/><path d="M999.3,598.27c-.83,0-1.5-.67-1.5-1.5v-309.8c0-.83.67-1.5,1.5-1.5s1.5.67,1.5,1.5v309.8c0,.83-.67,1.5-1.5,1.5Z"/><line x1="949.3" y1="451.67" x2="949.3" y2="596.77" style="fill:#fff;"/><path d="M949.3,598.27c-.83,0-1.5-.67-1.5-1.5v-145.1c0-.83.67-1.5,1.5-1.5s1.5.67,1.5,1.5v145.1c0,.83-.67,1.5-1.5,1.5Z"/><line x1="899.3" y1="323.57" x2="899.3" y2="596.77" style="fill:#fff;"/><path d="M899.3,598.27c-.83,0-1.5-.67-1.5-1.5v-273.2c0-.83.67-1.5,1.5-1.5s1.5.67,1.5,1.5v273.2c0,.83-.67,1.5-1.5,1.5Z"/><line x1="849.3" y1="424.22" x2="849.3" y2="596.77" style="fill:#fff;"/><path d="M849.3,598.27c-.83,0-1.5-.67-1.5-1.5v-172.55c0-.83.67-1.5,1.5-1.5s1.5.67,1.5,1.5v172.55c0,.83-.67,1.5-1.5,1.5Z"/><line x1="749.3" y1="346.77" x2="749.3" y2="596.77" style="fill:#fff;"/><path d="M749.3,598.27c-.83,0-1.5-.67-1.5-1.5v-250c0-.83.67-1.5,1.5-1.5s1.5.67,1.5,1.5v250c0,.83-.67,1.5-1.5,1.5Z"/><line x1="699.3" y1="469.22" x2="699.3" y2="596.77" style="fill:#fff;"/><path d="M699.3,598.27c-.83,0-1.5-.67-1.5-1.5v-127.55c0-.83.67-1.5,1.5-1.5s1.5.67,1.5,1.5v127.55c0,.83-.67,1.5-1.5,1.5Z"/><line x1="649.3" y1="396.77" x2="649.3" y2="596.77" style="fill:#fff;"/><path d="M649.3,598.27c-.83,0-1.5-.67-1.5-1.5v-200c0-.83.67-1.5,1.5-1.5s1.5.67,1.5,1.5v200c0,.83-.67,1.5-1.5,1.5Z"/><path d="M978.88,260.74c1.44-.83,3.02-1.23,4.58-1.22,0,0,0,0,0,0s0,0,0,0c-1.56,0-3.13-.39-4.58-1.22-4.38-2.53-5.88-8.12-3.35-12.5,2.53-4.38,8.12-5.88,12.5-3.35,1.44.83,2.57,2,3.35,3.35,0,0,0,0,0,0-.78-1.35-1.23-2.91-1.23-4.58,0-5.05,4.1-9.15,9.15-9.15,5.05,0,9.15,4.1,9.15,9.15,0,1.67-.45,3.23-1.23,4.58,0,0,0,0,0,0,.78-1.35,1.9-2.52,3.35-3.35,4.38-2.53,9.97-1.03,12.5,3.35s1.03,9.97-3.35,12.5c-1.44.83-3.02,1.23-4.58,1.22,0,0,0,0,0,0s0,0,0,0c1.56,0,3.13.39,4.58,1.22,4.38,2.53,5.88,8.12,3.35,12.5-2.53,4.38-8.12,5.88-12.5,3.35-1.44-.83-2.57-2-3.35-3.35,0,0,0,0,0,0,.78,1.35,1.23,2.91,1.23,4.58,0,5.05-4.1,9.15-9.15,9.15s-9.15-4.1-9.15-9.15c0-1.67.45-3.23,1.23-4.58,0,0,0,0,0,0-.78,1.35-1.9,2.52-3.35,3.35-4.38,2.53-9.97,1.03-12.5-3.35-2.53-4.38-1.03-9.97,3.35-12.5Z" style="fill:#f4b8ff;"/><path d="M999.3,288.46c-5.82,0-10.57-4.7-10.65-10.51-2.44,1.36-5.25,1.72-7.96.99-2.75-.74-5.04-2.5-6.47-4.96-1.42-2.46-1.8-5.33-1.06-8.08.72-2.7,2.44-4.97,4.84-6.39-2.4-1.43-4.11-3.69-4.84-6.39-.74-2.75-.36-5.62,1.06-8.08,2.91-5.04,9.35-6.81,14.42-3.97.08-5.81,4.82-10.51,10.65-10.51s10.57,4.7,10.65,10.5c2.44-1.36,5.25-1.71,7.96-.99,2.75.74,5.04,2.5,6.47,4.96,1.42,2.46,1.8,5.33,1.06,8.08-.72,2.7-2.44,4.97-4.84,6.39,2.4,1.43,4.11,3.69,4.84,6.39.74,2.75.36,5.62-1.06,8.08-1.42,2.46-3.72,4.23-6.47,4.96-2.7.72-5.52.37-7.96-.99-.08,5.81-4.82,10.5-10.65,10.5ZM991.38,271.74c.57,0,1.09.32,1.34.83.23.45.21.99-.04,1.42-.67,1.16-1.03,2.48-1.03,3.82,0,4.22,3.43,7.65,7.65,7.65s7.65-3.43,7.65-7.65c0-1.34-.35-2.67-1.03-3.82-.25-.44-.27-.97-.04-1.42.25-.51.78-.83,1.34-.83.54,0,1.03.29,1.3.75.67,1.16,1.64,2.13,2.8,2.8,1.77,1.02,3.83,1.29,5.81.77,1.97-.53,3.62-1.79,4.65-3.56,1.02-1.77,1.29-3.83.76-5.81-.53-1.97-1.79-3.62-3.56-4.64-1.16-.67-2.48-1.02-3.82-1.02h0s0,0,0,0c-.83,0-1.5-.67-1.5-1.5s.67-1.5,1.5-1.5c.05,0,.09,0,.13,0,1.29-.02,2.57-.38,3.7-1.02,1.77-1.02,3.04-2.67,3.56-4.65s.26-4.04-.76-5.8c-1.02-1.77-2.67-3.04-4.65-3.56-1.98-.53-4.04-.26-5.81.76-1.16.67-2.13,1.64-2.8,2.8h0s0,0,0,0c-.42.72-1.33.96-2.05.55-.72-.41-.96-1.33-.55-2.05h0s0,0,0,0c.67-1.16,1.03-2.48,1.03-3.83,0-4.22-3.43-7.65-7.65-7.65s-7.65,3.43-7.65,7.65c0,1.34.35,2.67,1.03,3.83h0s0,0,0,0c.41.72.17,1.63-.55,2.05-.72.41-1.63.17-2.05-.55,0,0,0,0,0,0h0c-.67-1.16-1.64-2.13-2.8-2.8-3.65-2.11-8.34-.85-10.45,2.8-1.02,1.77-1.29,3.83-.76,5.8s1.79,3.62,3.56,4.65c1.16.67,2.48,1.02,3.81,1.02h0s0,0,0,0c.83,0,1.5.67,1.5,1.5,0,.87-.75,1.53-1.63,1.5-1.3.02-2.57.38-3.7,1.03h0c-1.77,1.02-3.04,2.67-3.56,4.64-.53,1.97-.26,4.04.76,5.81,1.02,1.77,2.67,3.04,4.65,3.56,1.97.53,4.04.26,5.8-.76,1.16-.67,2.13-1.64,2.8-2.8.27-.46.76-.75,1.3-.75ZM978.88,260.74h0,0Z"/><path d="M878.88,297.34c1.44-.83,3.02-1.23,4.58-1.22,0,0,0,0,0,0s0,0,0,0c-1.56,0-3.13-.39-4.58-1.22-4.38-2.53-5.88-8.12-3.35-12.5,2.53-4.38,8.12-5.88,12.5-3.35,1.44.83,2.57,2,3.35,3.35,0,0,0,0,0,0-.78-1.35-1.23-2.91-1.23-4.58,0-5.05,4.1-9.15,9.15-9.15,5.05,0,9.15,4.1,9.15,9.15,0,1.67-.45,3.23-1.23,4.58,0,0,0,0,0,0,.78-1.35,1.9-2.52,3.35-3.35,4.38-2.53,9.97-1.03,12.5,3.35s1.03,9.97-3.35,12.5c-1.44.83-3.02,1.23-4.58,1.22,0,0,0,0,0,0s0,0,0,0c1.56,0,3.13.39,4.58,1.22,4.38,2.53,5.88,8.12,3.35,12.5-2.53,4.38-8.12,5.88-12.5,3.35-1.44-.83-2.57-2-3.35-3.35,0,0,0,0,0,0,.78,1.35,1.23,2.91,1.23,4.58,0,5.05-4.1,9.15-9.15,9.15-5.05,0-9.15-4.1-9.15-9.15,0-1.67.45-3.23,1.23-4.58,0,0,0,0,0,0-.78,1.35-1.9,2.52-3.35,3.35-4.38,2.53-9.97,1.03-12.5-3.35-2.53-4.38-1.03-9.97,3.35-12.5Z" style="fill:#f4b8ff;"/><path d="M899.3,325.07c-5.82,0-10.57-4.7-10.65-10.51-5.07,2.84-11.51,1.07-14.42-3.97-2.91-5.04-1.22-11.5,3.77-14.48-4.99-2.97-6.69-9.43-3.77-14.47,2.91-5.04,9.35-6.81,14.42-3.97.08-5.81,4.82-10.51,10.65-10.51s10.57,4.7,10.65,10.5c2.44-1.36,5.25-1.71,7.96-.99,2.75.74,5.04,2.5,6.47,4.96,2.91,5.04,1.22,11.5-3.77,14.47,4.99,2.97,6.69,9.43,3.77,14.48-2.91,5.04-9.35,6.8-14.42,3.97-.08,5.81-4.83,10.5-10.65,10.5ZM892.06,308.5c.26.13.48.33.63.59.27.46.27,1.04,0,1.5-.67,1.16-1.03,2.48-1.03,3.83,0,4.22,3.43,7.65,7.65,7.65s7.65-3.43,7.65-7.65c0-1.34-.35-2.67-1.03-3.83-.27-.46-.27-1.04,0-1.5.15-.26.37-.46.63-.59.19-.1.41-.15.63-.16.54-.04,1.07.27,1.34.75.67,1.16,1.64,2.13,2.8,2.8,3.65,2.11,8.34.85,10.45-2.8s.85-8.34-2.8-10.45c-1.16-.67-2.48-1.02-3.82-1.02,0,0,0,0,0,0-.83,0-1.5-.67-1.5-1.5h0c0-.83.67-1.5,1.5-1.5.03.02.08,0,.13,0,1.3-.02,2.57-.38,3.7-1.02,3.65-2.11,4.91-6.8,2.8-10.45-1.02-1.77-2.67-3.04-4.65-3.56-1.98-.53-4.04-.26-5.81.76-1.16.67-2.13,1.64-2.8,2.8-.28.48-.78.8-1.34.75-.22,0-.44-.06-.63-.16-.26-.13-.48-.33-.63-.59-.27-.46-.27-1.04,0-1.5.67-1.16,1.03-2.48,1.03-3.83,0-4.22-3.43-7.65-7.65-7.65s-7.65,3.43-7.65,7.65c0,1.34.35,2.67,1.03,3.83.27.46.27,1.04,0,1.5-.15.26-.37.46-.63.59-.27.13-.57.19-.87.15-.46-.06-.87-.33-1.1-.74-.67-1.16-1.64-2.13-2.8-2.8-3.65-2.11-8.34-.85-10.45,2.8-2.11,3.65-.85,8.34,2.8,10.45,1.16.67,2.48,1.02,3.82,1.02,0,0,0,0,0,0,.83,0,1.5.67,1.5,1.5h0c0,.83-.67,1.5-1.5,1.5-.02.04-.08,0-.13,0-1.3.02-2.57.38-3.7,1.02-3.65,2.11-4.91,6.8-2.8,10.45,2.11,3.65,6.8,4.91,10.45,2.8,1.16-.67,2.13-1.64,2.8-2.8.23-.4.64-.68,1.1-.74.3-.04.61.01.87.15Z"/><path d="M828.88,395.54c1.44.83,3.02,1.23,4.58,1.22,0,0,0,0,0,0s0,0,0,0c-1.56,0-3.13.39-4.58,1.22-4.38,2.53-5.88,8.12-3.35,12.5s8.12,5.88,12.5,3.35c1.44-.83,2.57-2,3.35-3.35,0,0,0,0,0,0-.78,1.35-1.23,2.91-1.23,4.58,0,5.05,4.1,9.15,9.15,9.15s9.15-4.1,9.15-9.15c0-1.67-.45-3.23-1.23-4.58,0,0,0,0,0,0,.78,1.35,1.9,2.52,3.35,3.35,4.38,2.53,9.97,1.03,12.5-3.35,2.53-4.38,1.03-9.97-3.35-12.5-1.44-.83-3.02-1.23-4.58-1.22,0,0,0,0,0,0s0,0,0,0c1.56,0,3.13-.39,4.58-1.22,4.38-2.53,5.88-8.12,3.35-12.5-2.53-4.38-8.12-5.88-12.5-3.35-1.44.83-2.57,2-3.35,3.35,0,0,0,0,0,0,.78-1.35,1.23-2.91,1.23-4.58,0-5.05-4.1-9.15-9.15-9.15-5.05,0-9.15,4.1-9.15,9.15,0,1.67.45,3.23,1.23,4.58,0,0,0,0,0,0-.78-1.35-1.9-2.52-3.35-3.35-4.38-2.53-9.97-1.03-12.5,3.35-2.53,4.38-1.03,9.97,3.35,12.5Z" style="fill:#f4b8ff;"/><path d="M849.3,425.72c-5.82,0-10.57-4.7-10.65-10.5-5.07,2.84-11.51,1.07-14.42-3.97-1.42-2.46-1.8-5.33-1.06-8.08.72-2.7,2.44-4.97,4.84-6.39-2.4-1.43-4.11-3.69-4.84-6.39-.74-2.75-.36-5.62,1.06-8.08,2.91-5.04,9.35-6.81,14.42-3.97.08-5.81,4.82-10.51,10.65-10.51s10.57,4.7,10.65,10.5c2.43-1.36,5.25-1.71,7.96-.99,2.75.74,5.04,2.5,6.47,4.96,1.42,2.46,1.8,5.33,1.06,8.08-.72,2.7-2.44,4.97-4.84,6.39,2.4,1.43,4.11,3.69,4.84,6.39.74,2.75.36,5.62-1.06,8.08-2.91,5.04-9.36,6.8-14.42,3.97-.08,5.8-4.83,10.5-10.65,10.5ZM841.38,408.99c.57,0,1.09.32,1.34.83.23.45.21.99-.04,1.42-.67,1.16-1.03,2.48-1.03,3.83,0,4.22,3.43,7.65,7.65,7.65s7.65-3.43,7.65-7.65c0-1.34-.35-2.67-1.03-3.83-.25-.44-.27-.97-.04-1.42.25-.51.78-.83,1.34-.83.54,0,1.03.29,1.3.75.67,1.16,1.64,2.13,2.8,2.8,3.65,2.11,8.34.85,10.45-2.8,1.02-1.77,1.29-3.83.76-5.81-.53-1.97-1.79-3.62-3.56-4.64-1.16-.67-2.48-1.02-3.81-1.02,0,0,0,0-.01,0-.4,0-.78-.16-1.06-.44-.28-.28-.44-.66-.44-1.06s.16-.78.44-1.06c.28-.28.66-.44,1.06-.44,0,0,0,0,.01,0,1.34,0,2.65-.35,3.81-1.02,1.77-1.02,3.04-2.67,3.56-4.65s.26-4.04-.76-5.8c-1.02-1.77-2.67-3.04-4.65-3.56-1.98-.53-4.04-.26-5.81.76-1.16.67-2.13,1.64-2.8,2.8h0s0,0,0,0c-.41.72-1.33.96-2.05.55-.72-.41-.96-1.33-.55-2.05,0,0,0,0,0,0h0c.67-1.16,1.03-2.48,1.03-3.83,0-4.22-3.43-7.65-7.65-7.65s-7.65,3.43-7.65,7.65c0,1.34.35,2.67,1.03,3.83h0s0,0,0,0c.41.72.17,1.63-.55,2.05-.71.41-1.63.17-2.05-.55,0,0,0,0,0,0h0c-.67-1.16-1.64-2.13-2.8-2.8-3.65-2.11-8.34-.85-10.45,2.8-1.02,1.77-1.29,3.83-.76,5.8s1.79,3.62,3.56,4.65h0c1.16.67,2.48,1.02,3.81,1.02,0,0,0,0,.01,0,.4,0,.78.16,1.06.44.28.28.44.66.44,1.06s-.16.78-.44,1.06c-.28.28-.66.44-1.06.44,0,0,0,0-.01,0-1.34,0-2.65.35-3.81,1.02-1.77,1.02-3.04,2.67-3.56,4.64-.53,1.97-.26,4.04.76,5.81,2.11,3.65,6.8,4.91,10.45,2.8,1.16-.67,2.13-1.64,2.8-2.8.27-.46.76-.75,1.3-.75Z"/><circle cx="999.3" cy="259.51" r="9.15" style="fill:#ff6a00;"/><path d="M999.3,270.17c-5.87,0-10.65-4.78-10.65-10.65s4.78-10.65,10.65-10.65,10.65,4.78,10.65,10.65-4.78,10.65-10.65,10.65ZM999.3,251.87c-4.22,0-7.65,3.43-7.65,7.65s3.43,7.65,7.65,7.65,7.65-3.43,7.65-7.65-3.43-7.65-7.65-7.65Z"/><path d="M578.88,231.32c1.44-.83,3.02-1.23,4.58-1.22,0,0,0,0,0,0s0,0,0,0c-1.56,0-3.13-.39-4.58-1.22-4.38-2.53-5.88-8.12-3.35-12.5s8.12-5.88,12.5-3.35c1.44.83,2.57,2,3.35,3.35,0,0,0,0,0,0-.78-1.35-1.23-2.91-1.23-4.58,0-5.05,4.1-9.15,9.15-9.15,5.05,0,9.15,4.1,9.15,9.15,0,1.67-.45,3.23-1.23,4.58,0,0,0,0,0,0,.78-1.35,1.9-2.52,3.35-3.35,4.38-2.53,9.97-1.03,12.5,3.35,2.53,4.38,1.03,9.97-3.35,12.5-1.44.83-3.02,1.23-4.58,1.22,0,0,0,0,0,0s0,0,0,0c1.56,0,3.13.39,4.58,1.22,4.38,2.53,5.88,8.12,3.35,12.5-2.53,4.38-8.12,5.88-12.5,3.35-1.44-.83-2.57-2-3.35-3.35,0,0,0,0,0,0,.78,1.35,1.23,2.91,1.23,4.58,0,5.05-4.1,9.15-9.15,9.15s-9.15-4.1-9.15-9.15c0-1.67.45-3.23,1.23-4.58,0,0,0,0,0,0-.78,1.35-1.9,2.52-3.35,3.35-4.38,2.53-9.97,1.03-12.5-3.35-2.53-4.38-1.03-9.97,3.35-12.5Z" style="fill:#f4b8ff;"/><path d="M599.3,259.05c-5.82,0-10.57-4.7-10.65-10.51-5.07,2.84-11.51,1.07-14.42-3.97-1.42-2.46-1.8-5.33-1.06-8.08.72-2.7,2.44-4.97,4.84-6.39-4.99-2.97-6.68-9.43-3.77-14.48,1.42-2.46,3.72-4.23,6.47-4.96,2.7-.72,5.52-.37,7.96.99.08-5.81,4.82-10.51,10.65-10.51s10.57,4.7,10.65,10.5c2.43-1.36,5.25-1.72,7.96-.99,2.75.74,5.04,2.5,6.47,4.96,2.91,5.04,1.22,11.5-3.77,14.48,2.4,1.43,4.11,3.69,4.84,6.39.74,2.75.36,5.62-1.06,8.08-1.42,2.46-3.72,4.23-6.47,4.96-2.7.72-5.52.37-7.96-.99-.08,5.81-4.83,10.5-10.65,10.5ZM592.68,244.57h0c-.67,1.16-1.03,2.48-1.03,3.83,0,4.22,3.43,7.65,7.65,7.65s7.65-3.43,7.65-7.65c0-1.34-.35-2.67-1.03-3.83h0s0,0,0,0c-.41-.72-.17-1.63.55-2.05.72-.41,1.63-.17,2.05.55,0,0,0,0,0,0h0c.67,1.16,1.64,2.13,2.8,2.8,1.77,1.02,3.83,1.29,5.81.76,1.97-.53,3.62-1.79,4.64-3.56,1.02-1.77,1.29-3.83.76-5.8s-1.79-3.62-3.56-4.65c-1.16-.67-2.48-1.02-3.81-1.02h0s0,0,0,0c-.83,0-1.5-.67-1.5-1.5,0-.87.76-1.52,1.63-1.5,1.3-.02,2.57-.38,3.7-1.02,3.65-2.11,4.91-6.8,2.8-10.45-1.02-1.77-2.67-3.04-4.65-3.56-1.98-.53-4.04-.26-5.81.76-1.16.67-2.13,1.64-2.8,2.8h0s0,0,0,0c-.41.72-1.33.96-2.05.55-.72-.41-.96-1.33-.55-2.05,0,0,0,0,0,0h0c.67-1.16,1.03-2.48,1.03-3.83,0-4.22-3.43-7.65-7.65-7.65s-7.65,3.43-7.65,7.65c0,1.34.35,2.67,1.03,3.82h0s0,0,0,0c.41.72.17,1.63-.55,2.05-.72.42-1.63.17-2.05-.55,0,0,0,0,0,0h0c-.67-1.16-1.64-2.13-2.8-2.8-1.77-1.02-3.83-1.29-5.8-.76-1.97.53-3.62,1.79-4.65,3.56-2.11,3.65-.85,8.34,2.8,10.45,1.16.67,2.48,1.02,3.82,1.02h0s0,0,0,0c.83,0,1.5.67,1.5,1.5s-.67,1.5-1.5,1.5c-.04-.05-.09,0-.13,0-1.29.02-2.57.38-3.7,1.02h0c-1.77,1.02-3.04,2.67-3.56,4.65s-.26,4.04.76,5.8c2.11,3.65,6.8,4.91,10.45,2.8,1.16-.67,2.13-1.64,2.8-2.8h0s0,0,0,0c.42-.72,1.33-.96,2.05-.55.72.41.96,1.33.55,2.05h0Z"/><circle cx="599.3" cy="230.1" r="9.15" style="fill:#ff6a00;"/><path d="M599.3,240.75c-5.87,0-10.65-4.78-10.65-10.65s4.78-10.65,10.65-10.65,10.65,4.78,10.65,10.65-4.78,10.65-10.65,10.65ZM599.3,222.45c-4.22,0-7.65,3.43-7.65,7.65s3.43,7.65,7.65,7.65,7.65-3.43,7.65-7.65-3.43-7.65-7.65-7.65Z"/><path d="M928.88,451.07c1.44.83,3.02,1.23,4.58,1.22,0,0,0,0,0,0s0,0,0,0c-1.56,0-3.13.39-4.58,1.22-4.38,2.53-5.88,8.12-3.35,12.5,2.53,4.38,8.12,5.88,12.5,3.35,1.44-.83,2.57-2,3.35-3.35,0,0,0,0,0,0-.78,1.35-1.23,2.91-1.23,4.58,0,5.05,4.1,9.15,9.15,9.15,5.05,0,9.15-4.1,9.15-9.15,0-1.67-.45-3.23-1.23-4.58,0,0,0,0,0,0,.78,1.35,1.9,2.52,3.35,3.35,4.38,2.53,9.97,1.03,12.5-3.35,2.53-4.38,1.03-9.97-3.35-12.5-1.44-.83-3.02-1.23-4.58-1.22,0,0,0,0,0,0s0,0,0,0c1.56,0,3.13-.39,4.58-1.22,4.38-2.53,5.88-8.12,3.35-12.5-2.53-4.38-8.12-5.88-12.5-3.35-1.44.83-2.57,2-3.35,3.35,0,0,0,0,0,0,.78-1.35,1.23-2.91,1.23-4.58,0-5.05-4.1-9.15-9.15-9.15-5.05,0-9.15,4.1-9.15,9.15,0,1.67.45,3.23,1.23,4.58,0,0,0,0,0,0-.78-1.35-1.9-2.52-3.35-3.35-4.38-2.53-9.97-1.03-12.5,3.35-2.53,4.38-1.03,9.97,3.35,12.5Z" style="fill:#f4b8ff;"/><path d="M949.3,481.24c-5.82,0-10.57-4.7-10.65-10.51-5.07,2.84-11.51,1.07-14.42-3.97-1.42-2.46-1.8-5.33-1.06-8.08.72-2.7,2.44-4.97,4.84-6.39-2.4-1.43-4.11-3.69-4.84-6.39-.74-2.75-.36-5.62,1.06-8.08,1.42-2.46,3.72-4.23,6.47-4.96,2.7-.72,5.52-.37,7.96.99.08-5.81,4.82-10.51,10.65-10.51s10.57,4.7,10.65,10.5c2.43-1.36,5.25-1.72,7.96-.99,2.75.74,5.04,2.5,6.47,4.96,1.42,2.46,1.8,5.33,1.06,8.08-.72,2.7-2.44,4.97-4.84,6.39,2.4,1.43,4.11,3.69,4.84,6.39.74,2.75.36,5.62-1.06,8.08-1.42,2.46-3.72,4.23-6.47,4.96-2.7.72-5.52.37-7.96-.99-.08,5.81-4.83,10.5-10.65,10.5ZM942.68,466.77h0c-.67,1.16-1.03,2.48-1.03,3.83,0,4.22,3.43,7.65,7.65,7.65s7.65-3.43,7.65-7.65c0-1.34-.35-2.67-1.03-3.83h0s0,0,0,0c-.41-.72-.17-1.63.55-2.05.72-.41,1.63-.17,2.05.55,0,0,0,0,0,0h0c.67,1.16,1.64,2.13,2.8,2.8,1.77,1.02,3.83,1.29,5.81.76,1.97-.53,3.62-1.79,4.64-3.56,1.02-1.77,1.29-3.83.76-5.8s-1.79-3.62-3.56-4.65c-1.16-.67-2.48-1.02-3.81-1.02h0c-.85,0-1.5-.67-1.5-1.5s.67-1.5,1.5-1.5c.04,0,.09,0,.13,0,1.3-.02,2.57-.38,3.7-1.03,1.77-1.02,3.04-2.67,3.56-4.64.53-1.97.26-4.04-.76-5.81-1.02-1.77-2.67-3.04-4.65-3.56-1.97-.53-4.04-.26-5.81.76-1.16.67-2.13,1.64-2.8,2.8h0s0,0,0,0c-.41.72-1.33.96-2.05.55-.72-.41-.96-1.33-.55-2.05,0,0,0,0,0,0h0c.67-1.16,1.03-2.48,1.03-3.83,0-4.22-3.43-7.65-7.65-7.65s-7.65,3.43-7.65,7.65c0,1.34.35,2.67,1.03,3.82h0s0,0,0,0c.41.72.17,1.63-.55,2.05-.72.42-1.63.17-2.05-.55,0,0,0,0,0,0h0c-.67-1.16-1.64-2.13-2.8-2.8-1.77-1.02-3.83-1.29-5.8-.76-1.97.53-3.62,1.79-4.65,3.56-1.02,1.77-1.29,3.83-.76,5.81.53,1.97,1.79,3.62,3.56,4.64h0c1.16.67,2.48,1.02,3.82,1.02h0s0,0,0,0c.83,0,1.5.67,1.5,1.5s-.67,1.5-1.5,1.5c-.06-.01-.09,0-.13,0-1.29.02-2.57.38-3.7,1.02-1.77,1.02-3.04,2.67-3.56,4.65s-.26,4.04.76,5.8c2.11,3.65,6.8,4.91,10.45,2.8,1.16-.67,2.13-1.64,2.8-2.8h0s0,0,0,0c.42-.72,1.33-.96,2.05-.55.72.41.96,1.33.55,2.05h0Z"/><circle cx="949.3" cy="452.29" r="9.15" style="fill:#ff6a00;"/><path d="M949.3,462.94c-5.87,0-10.65-4.78-10.65-10.65s4.78-10.65,10.65-10.65,10.65,4.78,10.65,10.65-4.78,10.65-10.65,10.65ZM949.3,444.64c-4.22,0-7.65,3.43-7.65,7.65s3.43,7.65,7.65,7.65,7.65-3.43,7.65-7.65-3.43-7.65-7.65-7.65Z"/><circle cx="899.3" cy="296.12" r="9.15" style="fill:#ff6a00;"/><path d="M899.3,306.77c-5.87,0-10.65-4.78-10.65-10.65s4.78-10.65,10.65-10.65,10.65,4.78,10.65,10.65-4.78,10.65-10.65,10.65ZM899.3,288.46c-4.22,0-7.65,3.43-7.65,7.65s3.43,7.65,7.65,7.65,7.65-3.43,7.65-7.65-3.43-7.65-7.65-7.65Z"/><circle cx="849.3" cy="396.77" r="9.15" style="fill:#ff6a00;"/><path d="M849.3,407.42c-5.87,0-10.65-4.78-10.65-10.65s4.78-10.65,10.65-10.65,10.65,4.78,10.65,10.65-4.78,10.65-10.65,10.65ZM849.3,389.12c-4.22,0-7.65,3.43-7.65,7.65s3.43,7.65,7.65,7.65,7.65-3.43,7.65-7.65-3.43-7.65-7.65-7.65Z"/><path d="M728.88,320.54c1.44-.83,3.02-1.23,4.58-1.22,0,0,0,0,0,0s0,0,0,0c-1.56,0-3.13-.39-4.58-1.22-4.38-2.53-5.88-8.12-3.35-12.5,2.53-4.38,8.12-5.88,12.5-3.35,1.44.83,2.57,2,3.35,3.35,0,0,0,0,0,0-.78-1.35-1.23-2.91-1.23-4.58,0-5.05,4.1-9.15,9.15-9.15,5.05,0,9.15,4.1,9.15,9.15,0,1.67-.45,3.23-1.23,4.58,0,0,0,0,0,0,.78-1.35,1.9-2.52,3.35-3.35,4.38-2.53,9.97-1.03,12.5,3.35,2.53,4.38,1.03,9.97-3.35,12.5-1.44.83-3.02,1.23-4.58,1.22,0,0,0,0,0,0s0,0,0,0c1.56,0,3.13.39,4.58,1.22,4.38,2.53,5.88,8.12,3.35,12.5-2.53,4.38-8.12,5.88-12.5,3.35-1.44-.83-2.57-2-3.35-3.35,0,0,0,0,0,0,.78,1.35,1.23,2.91,1.23,4.58,0,5.05-4.1,9.15-9.15,9.15-5.05,0-9.15-4.1-9.15-9.15,0-1.67.45-3.23,1.23-4.58,0,0,0,0,0,0-.78,1.35-1.9,2.52-3.35,3.35-4.38,2.53-9.97,1.03-12.5-3.35-2.53-4.38-1.03-9.97,3.35-12.5Z" style="fill:#f4b8ff;"/><path d="M749.3,348.27c-5.82,0-10.57-4.7-10.65-10.51-2.44,1.36-5.25,1.72-7.96.99-2.75-.74-5.04-2.5-6.47-4.96-1.42-2.46-1.8-5.33-1.06-8.08.72-2.7,2.44-4.97,4.84-6.39-2.4-1.43-4.11-3.69-4.84-6.39-.74-2.75-.36-5.62,1.06-8.08,2.91-5.04,9.35-6.81,14.42-3.97.08-5.81,4.82-10.51,10.65-10.51s10.57,4.7,10.65,10.5c2.44-1.36,5.25-1.71,7.96-.99,2.75.74,5.04,2.5,6.47,4.96,1.42,2.46,1.8,5.33,1.06,8.08-.72,2.7-2.44,4.97-4.84,6.39,2.4,1.43,4.11,3.69,4.84,6.39.74,2.75.36,5.62-1.06,8.08-1.42,2.46-3.72,4.23-6.47,4.96-2.7.73-5.52.37-7.96-.99-.08,5.81-4.82,10.5-10.65,10.5ZM741.38,331.54c.57,0,1.09.32,1.34.83.23.45.21.99-.04,1.42-.67,1.16-1.03,2.48-1.03,3.83,0,4.22,3.43,7.65,7.65,7.65s7.65-3.43,7.65-7.65c0-1.34-.35-2.67-1.03-3.83-.25-.44-.27-.97-.04-1.42.25-.51.78-.83,1.34-.83.54,0,1.03.29,1.3.75.67,1.16,1.64,2.13,2.8,2.8,1.77,1.02,3.83,1.29,5.81.77,1.97-.53,3.62-1.79,4.65-3.56,1.02-1.77,1.29-3.83.76-5.81-.53-1.97-1.79-3.62-3.56-4.64-1.16-.67-2.48-1.02-3.81-1.02,0,0,0,0-.01,0-.4,0-.78-.16-1.06-.44-.28-.28-.44-.66-.44-1.06s.16-.78.44-1.06c.28-.28.66-.44,1.06-.44,0,0,0,0,.01,0,1.34,0,2.65-.35,3.81-1.02,1.77-1.02,3.04-2.67,3.56-4.65s.26-4.04-.76-5.8c-1.02-1.77-2.67-3.04-4.65-3.56-1.98-.53-4.04-.26-5.81.76-1.16.67-2.13,1.64-2.8,2.8h0s0,0,0,0c-.41.72-1.33.96-2.05.55-.72-.41-.96-1.33-.55-2.05,0,0,0,0,0,0h0c.67-1.16,1.03-2.48,1.03-3.83,0-4.22-3.43-7.65-7.65-7.65s-7.65,3.43-7.65,7.65c0,1.34.35,2.67,1.03,3.83h0s0,0,0,0c.41.72.17,1.63-.55,2.05-.72.41-1.63.17-2.05-.55,0,0,0,0,0,0h0c-.67-1.16-1.64-2.13-2.8-2.8-3.65-2.11-8.34-.85-10.45,2.8-1.02,1.77-1.29,3.83-.76,5.8s1.79,3.62,3.56,4.65c1.16.67,2.48,1.02,3.81,1.02,0,0,0,0,.01,0,.4,0,.78.16,1.06.44.28.28.44.66.44,1.06s-.16.78-.44,1.06c-.28.28-.66.44-1.06.44,0,0,0,0-.01,0-1.34,0-2.65.35-3.81,1.02h0c-1.77,1.02-3.04,2.67-3.56,4.64-.53,1.97-.26,4.04.76,5.81,1.02,1.77,2.67,3.04,4.65,3.56,1.97.53,4.04.26,5.8-.76,1.16-.67,2.13-1.64,2.8-2.8.27-.46.76-.75,1.3-.75ZM728.88,320.54h0,0Z"/><circle cx="749.3" cy="319.32" r="9.15" style="fill:#ff6a00;"/><path d="M749.3,329.97c-5.87,0-10.65-4.78-10.65-10.65s4.78-10.65,10.65-10.65,10.65,4.78,10.65,10.65-4.78,10.65-10.65,10.65ZM749.3,311.67c-4.22,0-7.65,3.43-7.65,7.65s3.43,7.65,7.65,7.65,7.65-3.43,7.65-7.65-3.43-7.65-7.65-7.65Z"/><circle cx="699.3" cy="424.22" r="9.15" style="fill:#ff6a00;"/><path d="M699.3,434.87c-5.87,0-10.65-4.78-10.65-10.65s4.78-10.65,10.65-10.65,10.65,4.78,10.65,10.65-4.78,10.65-10.65,10.65ZM699.3,416.57c-4.22,0-7.65,3.43-7.65,7.65s3.43,7.65,7.65,7.65,7.65-3.43,7.65-7.65-3.43-7.65-7.65-7.65Z"/><path d="M778.88,510.54c1.44.83,3.02,1.23,4.58,1.22,0,0,0,0,0,0s0,0,0,0c-1.56,0-3.13.39-4.58,1.22-4.38,2.53-5.88,8.12-3.35,12.5,2.53,4.38,8.12,5.88,12.5,3.35,1.44-.83,2.57-2,3.35-3.35,0,0,0,0,0,0-.78,1.35-1.23,2.91-1.23,4.58,0,5.05,4.1,9.15,9.15,9.15,5.05,0,9.15-4.1,9.15-9.15,0-1.67-.45-3.23-1.23-4.58,0,0,0,0,0,0,.78,1.35,1.9,2.52,3.35,3.35,4.38,2.53,9.97,1.03,12.5-3.35,2.53-4.38,1.03-9.97-3.35-12.5-1.44-.83-3.02-1.23-4.58-1.22,0,0,0,0,0,0s0,0,0,0c1.56,0,3.13-.39,4.58-1.22,4.38-2.53,5.88-8.12,3.35-12.5-2.53-4.38-8.12-5.88-12.5-3.35-1.44.83-2.57,2-3.35,3.35,0,0,0,0,0,0,.78-1.35,1.23-2.91,1.23-4.58,0-5.05-4.1-9.15-9.15-9.15-5.05,0-9.15,4.1-9.15,9.15,0,1.67.45,3.23,1.23,4.58,0,0,0,0,0,0-.78-1.35-1.9-2.52-3.35-3.35-4.38-2.53-9.97-1.03-12.5,3.35-2.53,4.38-1.03,9.97,3.35,12.5Z" style="fill:#f4b8ff;"/><path d="M799.31,540.72c-5.82,0-10.57-4.7-10.65-10.5-2.43,1.36-5.26,1.72-7.96.99-2.75-.74-5.04-2.5-6.47-4.96-2.91-5.04-1.22-11.51,3.77-14.47-2.4-1.43-4.11-3.69-4.84-6.39-.74-2.75-.36-5.62,1.06-8.08,2.91-5.04,9.35-6.8,14.42-3.97.08-5.81,4.83-10.5,10.65-10.5s10.57,4.7,10.65,10.5c5.07-2.83,11.51-1.07,14.42,3.97,1.42,2.46,1.8,5.33,1.06,8.08-.72,2.7-2.44,4.97-4.84,6.39,2.4,1.43,4.11,3.69,4.84,6.39.74,2.75.36,5.62-1.06,8.08-1.42,2.46-3.72,4.23-6.47,4.96-2.7.72-5.52.37-7.96-.99-.08,5.81-4.82,10.5-10.65,10.5ZM791.38,523.99c.4,0,.78.16,1.06.44.48.48.58,1.22.24,1.81-.67,1.16-1.03,2.48-1.03,3.82,0,4.22,3.43,7.65,7.65,7.65s7.65-3.43,7.65-7.65c0-1.34-.35-2.67-1.03-3.82-.34-.59-.24-1.33.24-1.81.66-.66,1.9-.5,2.36.31.67,1.16,1.64,2.13,2.8,2.8,1.77,1.02,3.83,1.29,5.81.76,1.97-.53,3.62-1.79,4.65-3.56,1.02-1.77,1.29-3.83.76-5.81-.53-1.97-1.79-3.62-3.56-4.64-1.16-.67-2.48-1.02-3.81-1.02,0,0,0,0-.01,0-.4,0-.78-.16-1.06-.44-.28-.28-.44-.66-.44-1.06s.16-.78.44-1.06c.28-.28.64-.42,1.06-.44h0c1.34,0,2.65-.35,3.81-1.02,1.77-1.02,3.04-2.67,3.56-4.65s.26-4.04-.76-5.8c-2.11-3.65-6.8-4.91-10.45-2.8-1.16.67-2.13,1.64-2.8,2.8h0s0,0,0,0c-.41.72-1.33.96-2.05.55-.72-.41-.96-1.33-.55-2.05h0s0,0,0,0c.67-1.16,1.03-2.48,1.03-3.82,0-4.22-3.43-7.65-7.65-7.65s-7.65,3.43-7.65,7.65c0,1.34.35,2.67,1.03,3.82h0s0,0,0,0c.41.72.17,1.63-.55,2.05-.72.41-1.63.17-2.05-.55,0,0,0,0,0,0h0c-.67-1.16-1.64-2.13-2.8-2.8-3.65-2.11-8.34-.85-10.45,2.8-1.02,1.77-1.29,3.83-.76,5.8.53,1.97,1.79,3.62,3.56,4.65h0c1.16.67,2.48,1.02,3.81,1.02,0,0,0,0,.01,0,.4,0,.78.16,1.06.44.28.28.44.66.44,1.06s-.16.78-.44,1.06c-.28.28-.66.44-1.06.44,0,0,0,0-.01,0-1.34,0-2.65.35-3.81,1.02-3.65,2.11-4.91,6.8-2.8,10.45,1.02,1.77,2.67,3.04,4.65,3.56,1.98.53,4.04.26,5.81-.76,1.16-.67,2.13-1.64,2.8-2.8.27-.46.76-.75,1.3-.75Z"/><circle cx="799.3" cy="511.77" r="9.15" style="fill:#ff6a00;"/><path d="M799.31,522.42c-5.87,0-10.65-4.78-10.65-10.65s4.78-10.65,10.65-10.65,10.65,4.78,10.65,10.65-4.78,10.65-10.65,10.65ZM799.31,504.12c-4.22,0-7.65,3.43-7.65,7.65s3.43,7.65,7.65,7.65,7.65-3.43,7.65-7.65-3.43-7.65-7.65-7.65Z"/><path d="M678.88,440.54c1.44.83,3.02,1.23,4.58,1.22,0,0,0,0,0,0s0,0,0,0c-1.56,0-3.13.39-4.58,1.22-4.38,2.53-5.88,8.12-3.35,12.5,2.53,4.38,8.12,5.88,12.5,3.35,1.44-.83,2.57-2,3.35-3.35,0,0,0,0,0,0-.78,1.35-1.23,2.91-1.23,4.58,0,5.05,4.1,9.15,9.15,9.15,5.05,0,9.15-4.1,9.15-9.15,0-1.67-.45-3.23-1.23-4.58,0,0,0,0,0,0,.78,1.35,1.9,2.52,3.35,3.35,4.38,2.53,9.97,1.03,12.5-3.35s1.03-9.97-3.35-12.5c-1.44-.83-3.02-1.23-4.58-1.22,0,0,0,0,0,0s0,0,0,0c1.56,0,3.13-.39,4.58-1.22,4.38-2.53,5.88-8.12,3.35-12.5-2.53-4.38-8.12-5.88-12.5-3.35-1.44.83-2.57,2-3.35,3.35,0,0,0,0,0,0,.78-1.35,1.23-2.91,1.23-4.58,0-5.05-4.1-9.15-9.15-9.15-5.05,0-9.15,4.1-9.15,9.15,0,1.67.45,3.23,1.23,4.58,0,0,0,0,0,0-.78-1.35-1.9-2.52-3.35-3.35-4.38-2.53-9.97-1.03-12.5,3.35s-1.03,9.97,3.35,12.5Z" style="fill:#f4b8ff;"/><path d="M699.31,470.72c-5.82,0-10.57-4.7-10.65-10.5-5.07,2.83-11.51,1.07-14.42-3.97-2.91-5.04-1.22-11.51,3.77-14.47-2.4-1.43-4.11-3.69-4.84-6.39-.74-2.75-.36-5.62,1.06-8.08,2.91-5.04,9.35-6.8,14.42-3.97.08-5.81,4.83-10.5,10.65-10.5s10.57,4.7,10.65,10.5c5.07-2.83,11.51-1.07,14.42,3.97,1.42,2.46,1.8,5.33,1.06,8.08-.72,2.7-2.44,4.97-4.84,6.39,2.4,1.43,4.11,3.69,4.84,6.39.74,2.75.36,5.62-1.06,8.08-2.91,5.04-9.36,6.8-14.42,3.97-.08,5.8-4.82,10.5-10.65,10.5ZM691.38,453.99c.4,0,.78.16,1.06.44.48.48.58,1.22.24,1.81-.67,1.16-1.03,2.48-1.03,3.82,0,4.22,3.43,7.65,7.65,7.65s7.65-3.43,7.65-7.65c0-1.34-.35-2.67-1.03-3.82-.34-.59-.24-1.33.24-1.81.66-.66,1.9-.5,2.36.31.67,1.16,1.64,2.13,2.8,2.8,3.65,2.11,8.34.85,10.45-2.8,1.02-1.77,1.29-3.83.76-5.81-.53-1.97-1.79-3.62-3.56-4.64-1.16-.67-2.48-1.02-3.81-1.02,0,0,0,0-.01,0-.4,0-.78-.16-1.06-.44-.28-.28-.44-.66-.44-1.06s.16-.78.44-1.06c.28-.28.66-.44,1.06-.44,0,0,0,0,.01,0,1.34,0,2.65-.35,3.81-1.02,1.77-1.02,3.04-2.67,3.56-4.65s.26-4.04-.76-5.8c-2.11-3.65-6.8-4.91-10.45-2.8-1.16.67-2.13,1.64-2.8,2.8h0s0,0,0,0c-.41.72-1.33.96-2.05.55-.72-.41-.96-1.33-.55-2.05h0s0,0,0,0c.67-1.16,1.03-2.48,1.03-3.82,0-4.22-3.43-7.65-7.65-7.65s-7.65,3.43-7.65,7.65c0,1.34.35,2.67,1.03,3.82h0s0,0,0,0c.41.72.17,1.63-.55,2.05-.72.41-1.63.17-2.05-.55,0,0,0,0,0,0h0c-.67-1.16-1.64-2.13-2.8-2.8-3.65-2.11-8.34-.85-10.45,2.8-1.02,1.77-1.29,3.83-.76,5.8.53,1.97,1.79,3.62,3.56,4.65h0c1.16.67,2.5,1.03,3.82,1.02.39.03.78.16,1.06.44s.44.66.44,1.06-.16.78-.44,1.06c-.28.28-.66.44-1.06.44,0,0,0,0-.01,0-1.34,0-2.65.35-3.81,1.02-3.65,2.11-4.91,6.8-2.8,10.45,2.11,3.65,6.8,4.91,10.45,2.8,1.16-.67,2.13-1.64,2.8-2.8.27-.46.76-.75,1.3-.75Z"/><circle cx="699.3" cy="441.77" r="9.15" style="fill:#ff6a00;"/><path d="M699.31,452.42c-5.87,0-10.65-4.78-10.65-10.65s4.78-10.65,10.65-10.65,10.65,4.78,10.65,10.65-4.78,10.65-10.65,10.65ZM699.31,434.12c-4.22,0-7.65,3.43-7.65,7.65s3.43,7.65,7.65,7.65,7.65-3.43,7.65-7.65-3.43-7.65-7.65-7.65Z"/><path d="M997.23,148.27c-.1,0-.2,0-.29-.03-.81-.16-1.34-.95-1.18-1.76,1.36-6.8,2.04-14.32,2.04-22.33,0-35.73-25.47-71.89-74.15-71.89-17.65,0-33.91,5.67-45.78,15.97-13.35,11.58-20.4,28.37-20.4,48.54,0,.83-.67,1.5-1.5,1.5s-1.5-.67-1.5-1.5c0-21.07,7.41-38.64,21.44-50.81,12.41-10.77,29.37-16.71,47.75-16.71,19.55,0,38.77,6.9,52.72,18.92,15.98,13.77,24.43,33.13,24.43,55.97,0,8.21-.71,15.92-2.1,22.92-.14.71-.77,1.21-1.47,1.21Z"/><path d="M931,208.12c-.69,0-1.31-.48-1.46-1.18-.18-.81.33-1.61,1.14-1.79,24.45-5.35,41.6-14.94,52.43-29.29.5-.66,1.44-.79,2.1-.29.66.5.79,1.44.29,2.1-11.28,14.95-29.01,24.9-54.18,30.42-.11.02-.22.04-.32.04Z"/><path d="M849.3,370.82c-.83,0-1.5-.67-1.5-1.5,0-52.95-19.8-76.07-34.26-92.95-8.79-10.27-15.74-18.38-15.74-29.6,0-27.46,29.23-31.88,61.8-34.28.82-.06,1.54.56,1.61,1.39.06.83-.56,1.55-1.39,1.61-15.47,1.14-31.32,2.85-42.4,7.63-11.34,4.89-16.62,12.41-16.62,23.66,0,10.11,6.63,17.85,15.02,27.64,14.76,17.24,34.98,40.85,34.98,94.91,0,.83-.67,1.5-1.5,1.5Z"/><path d="M778.88,247.99c1.44-.83,3.02-1.23,4.58-1.22,0,0,0,0,0,0s0,0,0,0c-1.56,0-3.13-.39-4.58-1.22-4.38-2.53-5.88-8.12-3.35-12.5,2.53-4.38,8.12-5.88,12.5-3.35,1.44.83,2.57,2,3.35,3.35,0,0,0,0,0,0-.78-1.35-1.23-2.91-1.23-4.58,0-5.05,4.1-9.15,9.15-9.15,5.05,0,9.15,4.1,9.15,9.15,0,1.67-.45,3.23-1.23,4.58,0,0,0,0,0,0,.78-1.35,1.9-2.52,3.35-3.35,4.38-2.53,9.97-1.03,12.5,3.35s1.03,9.97-3.35,12.5c-1.44.83-3.02,1.23-4.58,1.22,0,0,0,0,0,0s0,0,0,0c1.56,0,3.13.39,4.58,1.22,4.38,2.53,5.88,8.12,3.35,12.5-2.53,4.38-8.12,5.88-12.5,3.35-1.44-.83-2.57-2-3.35-3.35,0,0,0,0,0,0,.78,1.35,1.23,2.91,1.23,4.58,0,5.05-4.1,9.15-9.15,9.15-5.05,0-9.15-4.1-9.15-9.15,0-1.67.45-3.23,1.23-4.58,0,0,0,0,0,0-.78,1.35-1.9,2.52-3.35,3.35-4.38,2.53-9.97,1.03-12.5-3.35-2.53-4.38-1.03-9.97,3.35-12.5Z" style="fill:#f4b8ff;"/><path d="M799.31,275.72c-5.82,0-10.57-4.7-10.65-10.5-2.43,1.36-5.26,1.72-7.96.99-2.75-.74-5.04-2.5-6.47-4.96-2.91-5.04-1.22-11.51,3.77-14.47-2.4-1.43-4.11-3.69-4.84-6.39-.74-2.75-.36-5.62,1.06-8.08,2.91-5.04,9.35-6.8,14.42-3.97.08-5.81,4.83-10.5,10.65-10.5s10.57,4.7,10.65,10.5c5.07-2.83,11.51-1.07,14.42,3.97,1.42,2.46,1.8,5.33,1.06,8.08-.72,2.7-2.44,4.97-4.84,6.39,2.4,1.43,4.11,3.69,4.84,6.39.74,2.75.36,5.62-1.06,8.08-1.42,2.46-3.72,4.23-6.47,4.96-2.7.72-5.52.37-7.96-.99-.08,5.81-4.82,10.5-10.65,10.5ZM791.38,258.99c.4,0,.78.16,1.06.44.48.48.58,1.22.24,1.81-.67,1.16-1.03,2.48-1.03,3.82,0,4.22,3.43,7.65,7.65,7.65s7.65-3.43,7.65-7.65c0-1.34-.35-2.67-1.03-3.82-.34-.59-.24-1.33.24-1.81.66-.66,1.9-.5,2.36.31.67,1.16,1.64,2.13,2.8,2.8,1.77,1.02,3.83,1.29,5.81.76,1.97-.53,3.62-1.79,4.65-3.56,1.02-1.77,1.29-3.83.76-5.81-.53-1.97-1.79-3.62-3.56-4.64-1.16-.67-2.48-1.02-3.81-1.02,0,0,0,0-.01,0-.4,0-.78-.16-1.06-.44-.28-.28-.44-.66-.44-1.06s.16-.78.44-1.06c.28-.28.64-.45,1.06-.44,1.31-.01,2.66-.35,3.82-1.02,1.77-1.02,3.04-2.67,3.56-4.65s.26-4.04-.76-5.8c-2.11-3.65-6.8-4.91-10.45-2.8-1.16.67-2.13,1.64-2.8,2.8h0s0,0,0,0c-.41.72-1.33.96-2.05.55-.72-.41-.96-1.33-.55-2.05h0s0,0,0,0c.67-1.16,1.03-2.48,1.03-3.82,0-4.22-3.43-7.65-7.65-7.65s-7.65,3.43-7.65,7.65c0,1.34.35,2.67,1.03,3.82h0s0,0,0,0c.41.72.17,1.63-.55,2.05-.72.41-1.63.17-2.05-.55,0,0,0,0,0,0h0c-.67-1.16-1.64-2.13-2.8-2.8-3.65-2.11-8.34-.85-10.45,2.8-1.02,1.77-1.29,3.83-.76,5.8.53,1.97,1.79,3.62,3.56,4.65,1.16.67,2.47,1,3.82,1.02h0c.4,0,.78.16,1.06.44.28.28.44.66.44,1.06s-.16.78-.44,1.06c-.28.28-.66.44-1.06.44,0,0,0,0-.01,0-1.34,0-2.65.35-3.81,1.02h0c-3.65,2.11-4.91,6.8-2.8,10.45,1.02,1.77,2.67,3.04,4.65,3.56,1.98.53,4.04.26,5.81-.76,1.16-.67,2.13-1.64,2.8-2.8.27-.46.76-.75,1.3-.75ZM778.88,247.99h0,0Z"/><circle cx="799.3" cy="246.77" r="9.15" style="fill:#ff6a00;"/><path d="M799.31,257.42c-5.87,0-10.65-4.78-10.65-10.65s4.78-10.65,10.65-10.65,10.65,4.78,10.65,10.65-4.78,10.65-10.65,10.65ZM799.31,239.12c-4.22,0-7.65,3.43-7.65,7.65s3.43,7.65,7.65,7.65,7.65-3.43,7.65-7.65-3.43-7.65-7.65-7.65Z"/><path d="M835.55,117.99c1.44-.83,3.02-1.23,4.58-1.22,0,0,0,0,0,0s0,0,0,0c-1.56,0-3.13-.39-4.58-1.22-4.38-2.53-5.88-8.12-3.35-12.5,2.53-4.38,8.12-5.88,12.5-3.35,1.44.83,2.57,2,3.35,3.35,0,0,0,0,0,0-.78-1.35-1.23-2.91-1.23-4.58,0-5.05,4.1-9.15,9.15-9.15,5.05,0,9.15,4.1,9.15,9.15,0,1.67-.45,3.23-1.23,4.58,0,0,0,0,0,0,.78-1.35,1.9-2.52,3.35-3.35,4.38-2.53,9.97-1.03,12.5,3.35,2.53,4.38,1.03,9.97-3.35,12.5-1.44.83-3.02,1.23-4.58,1.22,0,0,0,0,0,0s0,0,0,0c1.56,0,3.13.39,4.58,1.22,4.38,2.53,5.88,8.12,3.35,12.5-2.53,4.38-8.12,5.88-12.5,3.35-1.44-.83-2.57-2-3.35-3.35,0,0,0,0,0,0,.78,1.35,1.23,2.91,1.23,4.58,0,5.05-4.1,9.15-9.15,9.15s-9.15-4.1-9.15-9.15c0-1.67.45-3.23,1.23-4.58,0,0,0,0,0,0-.78,1.35-1.9,2.52-3.35,3.35-4.38,2.53-9.97,1.03-12.5-3.35-2.53-4.38-1.03-9.97,3.35-12.5Z" style="fill:#f4b8ff;"/><path d="M855.97,145.72c-5.82,0-10.57-4.7-10.65-10.51-5.07,2.84-11.51,1.07-14.42-3.97-1.42-2.46-1.8-5.33-1.06-8.08.72-2.7,2.44-4.97,4.84-6.39-2.4-1.43-4.11-3.69-4.84-6.39-.74-2.75-.36-5.62,1.06-8.08,2.91-5.04,9.35-6.81,14.42-3.97.08-5.81,4.82-10.51,10.65-10.51s10.57,4.7,10.65,10.51c5.07-2.84,11.51-1.07,14.42,3.97,1.42,2.46,1.8,5.33,1.06,8.08-.72,2.7-2.44,4.97-4.84,6.39,2.4,1.43,4.11,3.69,4.84,6.39.74,2.75.36,5.62-1.06,8.08-2.91,5.04-9.36,6.81-14.42,3.97-.08,5.81-4.82,10.51-10.65,10.51ZM849.35,131.24h0c-.67,1.16-1.03,2.48-1.03,3.83,0,4.22,3.43,7.65,7.65,7.65s7.65-3.43,7.65-7.65c0-1.34-.35-2.67-1.03-3.83h0s0,0,0,0c-.41-.72-.17-1.63.55-2.05.72-.41,1.63-.17,2.05.55,0,0,0,0,0,0h0c.67,1.16,1.64,2.13,2.8,2.8,3.65,2.11,8.34.85,10.45-2.8,1.02-1.77,1.29-3.83.76-5.8s-1.79-3.62-3.56-4.65c-1.16-.67-2.48-1.02-3.81-1.02,0,0,0,0-.01,0-.4,0-.78-.16-1.06-.44-.28-.28-.44-.66-.44-1.06s.16-.78.44-1.06c.28-.28.66-.44,1.06-.44,0,0,0,0,.01,0,1.34,0,2.65-.35,3.81-1.02,1.77-1.02,3.04-2.67,3.56-4.65s.26-4.04-.76-5.8c-2.11-3.65-6.8-4.91-10.45-2.8-1.16.67-2.13,1.64-2.8,2.8-.27.46-.76.75-1.3.75-.57,0-1.09-.32-1.34-.83-.23-.45-.21-.99.04-1.42.67-1.16,1.03-2.48,1.03-3.83,0-4.22-3.43-7.65-7.65-7.65s-7.65,3.43-7.65,7.65c0,1.34.35,2.67,1.03,3.83.25.44.27.97.04,1.42-.25.51-.78.83-1.34.83-.54,0-1.03-.29-1.3-.75-.67-1.16-1.64-2.13-2.8-2.8-3.65-2.11-8.34-.85-10.45,2.8-1.02,1.77-1.29,3.83-.76,5.8s1.79,3.62,3.56,4.65c1.16.67,2.48,1.02,3.81,1.02,0,0,0,0,.01,0,.4,0,.78.16,1.06.44.28.28.44.66.44,1.06s-.16.78-.44,1.06c-.28.28-.66.44-1.06.44,0,0,0,0-.01,0-1.34,0-2.65.35-3.81,1.02h0c-1.77,1.02-3.04,2.67-3.56,4.65s-.26,4.04.76,5.8c2.11,3.65,6.8,4.91,10.45,2.8,1.16-.67,2.13-1.64,2.8-2.8h0s0,0,0,0c.42-.72,1.33-.96,2.05-.55.72.41.96,1.33.55,2.05,0,0,0,0,0,0ZM835.55,117.99h0,0ZM863.89,103.04h0,0Z"/><circle cx="855.97" cy="116.77" r="9.15" style="fill:#ff6a00;"/><path d="M855.97,127.42c-5.87,0-10.65-4.78-10.65-10.65s4.78-10.65,10.65-10.65,10.65,4.78,10.65,10.65-4.78,10.65-10.65,10.65ZM855.97,109.12c-4.22,0-7.65,3.43-7.65,7.65s3.43,7.65,7.65,7.65,7.65-3.43,7.65-7.65-3.43-7.65-7.65-7.65Z"/><path d="M669.73,367.89c-1.44.83-3.02,1.23-4.58,1.22,0,0,0,0,0,0s0,0,0,0c1.56,0,3.13.39,4.58,1.22,4.38,2.53,5.88,8.12,3.35,12.5-2.53,4.38-8.12,5.88-12.5,3.35-1.44-.83-2.57-2-3.35-3.35,0,0,0,0,0,0,.78,1.35,1.23,2.91,1.23,4.58,0,5.05-4.1,9.15-9.15,9.15s-9.15-4.1-9.15-9.15c0-1.67.45-3.23,1.23-4.58,0,0,0,0,0,0-.78,1.35-1.9,2.52-3.35,3.35-4.38,2.53-9.97,1.03-12.5-3.35-2.53-4.38-1.03-9.97,3.35-12.5,1.44-.83,3.02-1.23,4.58-1.22,0,0,0,0,0,0s0,0,0,0c-1.56,0-3.13-.39-4.58-1.22-4.38-2.53-5.88-8.12-3.35-12.5,2.53-4.38,8.12-5.88,12.5-3.35,1.44.83,2.57,2,3.35,3.35,0,0,0,0,0,0-.78-1.35-1.23-2.91-1.23-4.58,0-5.05,4.1-9.15,9.15-9.15s9.15,4.1,9.15,9.15c0,1.67-.45,3.23-1.23,4.58,0,0,0,0,0,0,.78-1.35,1.9-2.52,3.35-3.35,4.38-2.53,9.97-1.03,12.5,3.35,2.53,4.38,1.03,9.97-3.35,12.5Z" style="fill:#f4b8ff;"/><path d="M649.3,398.07c-5.82,0-10.57-4.7-10.65-10.5-5.07,2.83-11.51,1.07-14.42-3.97-1.42-2.46-1.8-5.33-1.06-8.08.72-2.7,2.44-4.97,4.84-6.39-4.99-2.97-6.69-9.43-3.77-14.48,1.42-2.46,3.72-4.23,6.47-4.96,2.7-.72,5.52-.37,7.96.99.08-5.81,4.82-10.5,10.65-10.5s10.57,4.7,10.65,10.51c2.43-1.36,5.25-1.72,7.96-.99,2.75.74,5.04,2.5,6.47,4.96,1.42,2.46,1.8,5.33,1.06,8.08-.72,2.7-2.44,4.97-4.84,6.39,2.4,1.43,4.11,3.69,4.84,6.39.74,2.75.36,5.62-1.06,8.08-1.42,2.46-3.72,4.23-6.47,4.96-2.7.72-5.52.37-7.96-.99-.08,5.81-4.82,10.51-10.65,10.51ZM642.68,383.59h0c-.67,1.16-1.03,2.48-1.03,3.83,0,4.22,3.43,7.65,7.65,7.65s7.65-3.43,7.65-7.65c0-1.34-.35-2.67-1.03-3.83h0s0,0,0,0c-.41-.72-.17-1.63.55-2.05.72-.41,1.63-.17,2.05.55h0s0,0,0,0c.67,1.16,1.64,2.13,2.8,2.8,1.77,1.02,3.83,1.29,5.8.76,1.97-.53,3.62-1.79,4.65-3.56,1.02-1.77,1.29-3.83.76-5.8s-1.79-3.62-3.56-4.65c-1.16-.67-2.47-.99-3.82-1.02h0c-.4,0-.78-.16-1.06-.44-.28-.28-.44-.66-.44-1.06s.16-.78.44-1.06c.28-.28.66-.44,1.06-.44,0,0,0,0,.01,0,1.34,0,2.65-.35,3.81-1.02h0c1.77-1.02,3.04-2.67,3.56-4.64.53-1.97.26-4.04-.76-5.81-1.02-1.77-2.67-3.04-4.65-3.56-1.98-.53-4.04-.26-5.8.76-1.16.67-2.13,1.64-2.8,2.8-.27.47-.76.75-1.3.75-.57,0-1.09-.32-1.34-.83-.23-.45-.21-.99.04-1.42.67-1.16,1.03-2.48,1.03-3.83,0-4.22-3.43-7.65-7.65-7.65s-7.65,3.43-7.65,7.65c0,1.34.35,2.67,1.03,3.83.25.44.27.97.04,1.42-.25.51-.78.83-1.34.83-.54,0-1.03-.29-1.3-.75-.67-1.16-1.64-2.13-2.8-2.8-1.77-1.02-3.83-1.3-5.81-.77-1.97.53-3.62,1.79-4.65,3.56-2.11,3.65-.85,8.34,2.8,10.45,1.16.67,2.48,1.02,3.81,1.02,0,0,0,0,.01,0,.4,0,.78.16,1.06.44.28.28.44.66.44,1.06s-.16.78-.44,1.06c-.28.28-.66.44-1.06.44,0,0,0,0-.01,0-1.34,0-2.65.35-3.81,1.02-1.77,1.02-3.04,2.67-3.56,4.65s-.26,4.04.76,5.8c2.11,3.65,6.8,4.91,10.45,2.8,1.16-.67,2.13-1.64,2.8-2.8h0s0,0,0,0c.42-.72,1.33-.96,2.05-.55.72.41.96,1.33.55,2.05,0,0,0,0,0,0ZM657.23,355.39h0,0Z"/><circle cx="649.3" cy="369.12" r="9.15" style="fill:#ff6a00;"/><path d="M649.3,379.77c-5.87,0-10.65-4.78-10.65-10.65s4.78-10.65,10.65-10.65,10.65,4.78,10.65,10.65-4.78,10.65-10.65,10.65ZM649.3,361.47c-4.22,0-7.65,3.43-7.65,7.65s3.43,7.65,7.65,7.65,7.65-3.43,7.65-7.65-3.43-7.65-7.65-7.65Z"/><polygon points="602.31 115.12 567.3 106.77 608.71 82.98 589.86 52.32 635.95 64.78 644.3 29.77 668.09 71.17 698.75 52.32 686.3 98.41 721.31 106.77 679.9 130.55 698.75 161.21 652.66 148.76 644.3 183.77 620.52 142.36 589.86 161.21 602.31 115.12" style="fill:#f4b8ff;"/><path d="M644.3,185.27c-.53,0-1.03-.28-1.3-.75l-23.02-40.06-29.35,18.04c-.52.32-1.19.29-1.68-.08-.49-.37-.71-1-.55-1.59l12.05-44.6-33.51-7.99c-.6-.14-1.05-.64-1.14-1.24-.09-.61.2-1.21.74-1.52l40.06-23.02-18.04-29.35c-.32-.52-.29-1.19.08-1.68.37-.49,1-.71,1.59-.55l44.6,12.05,7.99-33.51c.14-.6.64-1.05,1.24-1.14.61-.09,1.21.2,1.52.74l23.02,40.06,29.35-18.04c.52-.32,1.19-.29,1.68.08.49.37.71,1,.55,1.59l-12.05,44.6,33.51,7.99c.6.14,1.05.64,1.14,1.24.09.61-.2,1.21-.74,1.52l-40.06,23.02,18.04,29.35c.32.52.29,1.19-.08,1.68-.37.49-1,.71-1.59.55l-44.6-12.05-7.99,33.51c-.14.6-.64,1.05-1.24,1.14-.07.01-.14.02-.22.02ZM620.52,140.86c.12,0,.25.02.37.05.39.1.73.36.93.71l21.9,38.12,7.48-31.33c.09-.39.34-.73.69-.94.35-.21.77-.26,1.16-.16l42.45,11.47-16.87-27.44c-.21-.34-.28-.76-.18-1.16.1-.39.35-.73.71-.93l38.12-21.9-31.33-7.48c-.39-.09-.73-.34-.94-.69-.21-.35-.26-.77-.16-1.16l11.47-42.45-27.44,16.87c-.35.21-.76.27-1.16.18-.39-.1-.73-.36-.93-.71l-21.9-38.12-7.48,31.33c-.09.39-.34.73-.69.94-.35.21-.77.26-1.16.16l-42.45-11.47,16.87,27.44c.21.34.28.76.18,1.16-.1.39-.35.73-.71.93l-38.12,21.9,31.33,7.47c.39.09.73.34.94.69.21.35.26.77.16,1.16l-11.47,42.45,27.44-16.87c.24-.15.51-.22.79-.22Z"/><circle cx="644.3" cy="106.77" r="22" style="fill:#ff6a00;"/><path d="M644.3,130.27c-12.96,0-23.5-10.54-23.5-23.5s10.54-23.5,23.5-23.5,23.5,10.54,23.5,23.5-10.54,23.5-23.5,23.5ZM644.3,86.27c-11.3,0-20.5,9.2-20.5,20.5s9.2,20.5,20.5,20.5,20.5-9.2,20.5-20.5-9.2-20.5-20.5-20.5Z"/><path d="M496.54,127.47h59.93c.83,0,1.5-.67,1.5-1.5s-.67-1.5-1.5-1.5h-59.93c-.83,0-1.5.67-1.5,1.5s.67,1.5,1.5,1.5Z"/><path d="M511.52,111.54c6.64,0,12.37-3.94,14.98-9.61,2.61,5.67,8.34,9.61,14.98,9.61,9.09,0,16.48-7.39,16.48-16.48v-58.3c0-.83-.67-1.5-1.5-1.5h-59.93c-.83,0-1.5.67-1.5,1.5v58.3c0,9.09,7.39,16.48,16.48,16.48ZM554.96,95.06c0,7.43-6.05,13.48-13.48,13.48s-13.48-6.05-13.48-13.48v-56.8h26.96v56.8ZM498.04,38.27h26.96v56.8c0,7.43-6.05,13.48-13.48,13.48s-13.48-6.05-13.48-13.48v-56.8Z"/><path d="M495.98,218.07c.18.07.37.11.55.11.6,0,1.16-.36,1.4-.95l28.57-72.22,28.57,72.22c.23.59.8.95,1.4.95.18,0,.37-.03.55-.11.77-.3,1.15-1.18.84-1.95l-28.19-71.26h26.79c.83,0,1.5-.67,1.5-1.5s-.67-1.5-1.5-1.5h-59.93c-.83,0-1.5.67-1.5,1.5s.67,1.5,1.5,1.5h26.79l-28.19,71.26c-.3.77.07,1.64.84,1.95Z"/><path d="M557.96,230.1c0-.83-.67-1.5-1.5-1.5h-59.93c-.83,0-1.5.67-1.5,1.5v73.35c0,.83.67,1.5,1.5,1.5s1.5-.67,1.5-1.5v-71.85h25.87v69.66c0,.83.67,1.5,1.5,1.5s1.5-.67,1.5-1.5v-69.66h28.06v71.85c0,.83.67,1.5,1.5,1.5s1.5-.67,1.5-1.5v-73.35Z"/><path d="M496.54,381.86c-.83,0-1.5.67-1.5,1.5,0,.83.67,1.5,1.5,1.5l59.93.02h0c.71,0,1.32-.5,1.47-1.19.15-.69-.21-1.39-.86-1.68l-56.85-25.29,56.85-25.27c.65-.29,1-.99.86-1.68s-.76-1.19-1.47-1.19h-59.93c-.83,0-1.5.67-1.5,1.5s.67,1.5,1.5,1.5h52.86l-53.47,23.77c-.54.24-.89.78-.89,1.37s.35,1.13.89,1.37l53.47,23.79-52.86-.02h0Z"/><path d="M556.46,499.08h-54.14s54.87-30.5,54.87-30.5c.6-.33.89-1.03.72-1.69-.17-.66-.77-1.12-1.45-1.12h-59.93c-.83,0-1.5.67-1.5,1.5s.67,1.5,1.5,1.5h54.14l-54.87,30.51c-.6.33-.89,1.03-.72,1.69.17.66.77,1.12,1.45,1.12h59.93c.83,0,1.5-.68,1.5-1.51s-.67-1.5-1.5-1.5Z"/><path d="M556.46,510.47c-.83,0-1.5.67-1.5,1.5v18.49h-58.43c-.83,0-1.5.67-1.5,1.5s.67,1.5,1.5,1.5h58.43v18.54c0,.83.67,1.5,1.5,1.5s1.5-.67,1.5-1.5v-40.03c0-.83-.67-1.5-1.5-1.5Z"/><path d="M556.46,564.87c.83,0,1.5-.67,1.5-1.5s-.67-1.5-1.5-1.5h-59.93c-.83,0-1.5.67-1.5,1.5s.67,1.5,1.5,1.5h29.56v30.39h-29.56c-.83,0-1.5.67-1.5,1.5s.67,1.5,1.5,1.5h59.93c.83,0,1.5-.67,1.5-1.5s-.67-1.5-1.5-1.5h-27.37v-30.39h27.37Z"/><path d="M526.5,457.39c17.68,0,32.06-14.38,32.06-32.06s-14.38-32.06-32.06-32.06-32.06,14.38-32.06,32.06,14.38,32.06,32.06,32.06ZM526.5,396.26c16.03,0,29.06,13.04,29.06,29.06s-13.04,29.06-29.06,29.06-29.06-13.04-29.06-29.06,13.04-29.06,29.06-29.06Z"/><path d="M151.5,487.29c-27.61,0-50,22.39-50,50,27.61,0,50-22.39,50-50Z" style="fill:#00bf6c;"/><path d="M101.5,538.79c-.83,0-1.5-.67-1.5-1.5,0-28.4,23.1-51.5,51.5-51.5.83,0,1.5.67,1.5,1.5,0,28.4-23.1,51.5-51.5,51.5ZM149.98,488.82c-25.54.79-46.16,21.42-46.95,46.95,25.54-.79,46.16-21.42,46.95-46.95Z"/><path d="M51.5,487.29c27.61,0,50,22.39,50,50-27.61,0-50-22.39-50-50Z" style="fill:#00bf6c;"/><path d="M101.5,538.79c-28.4,0-51.5-23.1-51.5-51.5,0-.83.67-1.5,1.5-1.5,28.4,0,51.5,23.1,51.5,51.5,0,.83-.67,1.5-1.5,1.5ZM53.02,488.82c.79,25.54,21.42,46.16,46.95,46.95-.79-25.54-21.42-46.16-46.95-46.95Z"/><path d="M51.5,460.5c-27.61,0-50-22.39-50-50,27.61,0,50,22.39,50,50Z" style="fill:#00bf6c;"/><path d="M51.5,462c-28.4,0-51.5-23.1-51.5-51.5,0-.83.67-1.5,1.5-1.5,28.4,0,51.5,23.1,51.5,51.5,0,.83-.67,1.5-1.5,1.5ZM3.02,412.03c.79,25.54,21.42,46.16,46.95,46.95-.79-25.54-21.42-46.16-46.95-46.95Z"/><path d="M151.5,426.77c27.61,0,50,22.39,50,50-27.61,0-50-22.39-50-50Z" style="fill:#00bf6c;"/><path d="M201.5,478.27c-28.4,0-51.5-23.1-51.5-51.5,0-.83.67-1.5,1.5-1.5,28.4,0,51.5,23.1,51.5,51.5,0,.83-.67,1.5-1.5,1.5ZM153.02,428.29c.79,25.54,21.42,46.16,46.95,46.95-.79-25.54-21.42-46.16-46.95-46.95Z"/><path d="M251.5,596.77c0-27.61-22.39-50-50-50,0,27.61,22.39,50,50,50Z" style="fill:#00bf6c;"/><path d="M251.5,598.27c-28.4,0-51.5-23.1-51.5-51.5,0-.83.67-1.5,1.5-1.5,28.4,0,51.5,23.1,51.5,51.5,0,.83-.67,1.5-1.5,1.5ZM203.02,548.29c.79,25.54,21.42,46.16,46.95,46.95-.79-25.54-21.42-46.16-46.95-46.95Z"/><path d="M401.5,476.77c-27.61,0-50,22.39-50,50,27.61,0,50-22.39,50-50Z" style="fill:#00bf6c;"/><path d="M351.5,528.27c-.83,0-1.5-.67-1.5-1.5,0-28.4,23.1-51.5,51.5-51.5.83,0,1.5.67,1.5,1.5,0,28.4-23.1,51.5-51.5,51.5ZM399.98,478.29c-25.54.79-46.16,21.42-46.95,46.95,25.54-.79,46.16-21.42,46.95-46.95Z"/><path d="M301.5,546.77c-27.61,0-50,22.39-50,50,27.61,0,50-22.39,50-50Z" style="fill:#00bf6c;"/><path d="M251.5,598.27c-.83,0-1.5-.67-1.5-1.5,0-28.4,23.1-51.5,51.5-51.5.83,0,1.5.67,1.5,1.5,0,28.4-23.1,51.5-51.5,51.5ZM299.98,548.29c-25.54.79-46.16,21.42-46.95,46.95,25.54-.79,46.16-21.42,46.95-46.95Z"/><path d="M351.5,526.77c0-27.61-22.39-50-50-50,0,27.61,22.39,50,50,50Z" style="fill:#00bf6c;"/><path d="M351.5,528.27c-28.4,0-51.5-23.1-51.5-51.5,0-.83.67-1.5,1.5-1.5,28.4,0,51.5,23.1,51.5,51.5,0,.83-.67,1.5-1.5,1.5ZM303.02,478.29c.79,25.54,21.42,46.16,46.95,46.95-.79-25.54-21.42-46.16-46.95-46.95Z"/><path d="M351.5,356.77c0,27.61-22.39,50-50,50,0-27.61,22.39-50,50-50Z" style="fill:#00bf6c;"/><path d="M301.5,408.27c-.83,0-1.5-.67-1.5-1.5,0-28.4,23.1-51.5,51.5-51.5.83,0,1.5.67,1.5,1.5,0,28.4-23.1,51.5-51.5,51.5ZM349.98,358.29c-25.54.79-46.16,21.42-46.95,46.95,25.54-.79,46.16-21.42,46.95-46.95Z"/><path d="M201.5,369.32c0-27.61,22.39-50,50-50,0,27.61-22.39,50-50,50Z" style="fill:#00bf6c;"/><path d="M201.5,370.82c-.83,0-1.5-.67-1.5-1.5,0-28.4,23.1-51.5,51.5-51.5.83,0,1.5.67,1.5,1.5,0,28.4-23.1,51.5-51.5,51.5ZM249.98,320.84c-25.54.79-46.16,21.42-46.95,46.95,25.54-.79,46.16-21.42,46.95-46.95Z"/><path d="M151.5,487.29c27.61,0,50,22.39,50,50-27.61,0-50-22.39-50-50Z" style="fill:#00bf6c;"/><path d="M201.5,538.79c-28.4,0-51.5-23.1-51.5-51.5,0-.83.67-1.5,1.5-1.5,28.4,0,51.5,23.1,51.5,51.5,0,.83-.67,1.5-1.5,1.5ZM153.02,488.82c.79,25.54,21.42,46.16,46.95,46.95-.79-25.54-21.42-46.16-46.95-46.95Z"/><path d="M101.5,367.29c-27.61,0-50,22.39-50,50,27.61,0,50-22.39,50-50Z" style="fill:#00bf6c;"/><path d="M51.5,418.79c-.83,0-1.5-.67-1.5-1.5,0-28.4,23.1-51.5,51.5-51.5.83,0,1.5.67,1.5,1.5,0,28.4-23.1,51.5-51.5,51.5ZM99.98,368.82c-25.54.79-46.16,21.42-46.95,46.95,25.54-.79,46.16-21.42,46.95-46.95Z"/><path d="M1.5,546.77c27.61,0,50,22.39,50,50-27.61,0-50-22.39-50-50Z" style="fill:#00bf6c;"/><path d="M51.5,598.27c-28.4,0-51.5-23.1-51.5-51.5,0-.83.67-1.5,1.5-1.5,28.4,0,51.5,23.1,51.5,51.5,0,.83-.67,1.5-1.5,1.5ZM3.02,548.29c.79,25.54,21.42,46.16,46.95,46.95-.79-25.54-21.42-46.16-46.95-46.95Z"/><path d="M1.5,289.42c27.61,0,50,22.39,50,50-27.61,0-50-22.39-50-50Z" style="fill:#00bf6c;"/><path d="M51.5,340.92c-28.4,0-51.5-23.1-51.5-51.5,0-.83.67-1.5,1.5-1.5,28.4,0,51.5,23.1,51.5,51.5,0,.83-.67,1.5-1.5,1.5ZM3.02,290.94c.79,25.54,21.42,46.16,46.95,46.95-.79-25.54-21.42-46.16-46.95-46.95Z"/><path d="M101.5,367.29c27.61,0,50,22.39,50,50-27.61,0-50-22.39-50-50Z" style="fill:#00bf6c;"/><path d="M151.5,418.79c-28.4,0-51.5-23.1-51.5-51.5,0-.83.67-1.5,1.5-1.5,28.4,0,51.5,23.1,51.5,51.5,0,.83-.67,1.5-1.5,1.5ZM103.02,368.82c.79,25.54,21.42,46.16,46.95,46.95-.79-25.54-21.42-46.16-46.95-46.95Z"/><path d="M251.5,426.77c-27.61,0-50,22.39-50,50,27.61,0,50-22.39,50-50Z" style="fill:#00bf6c;"/><path d="M201.5,478.27c-.83,0-1.5-.67-1.5-1.5,0-28.4,23.1-51.5,51.5-51.5.83,0,1.5.67,1.5,1.5,0,28.4-23.1,51.5-51.5,51.5ZM249.98,428.29c-25.54.79-46.16,21.42-46.95,46.95,25.54-.79,46.16-21.42,46.95-46.95Z"/><path d="M251.5,426.77c27.61,0,50,22.39,50,50-27.61,0-50-22.39-50-50Z" style="fill:#00bf6c;"/><path d="M301.5,478.27c-28.4,0-51.5-23.1-51.5-51.5,0-.83.67-1.5,1.5-1.5,28.4,0,51.5,23.1,51.5,51.5,0,.83-.67,1.5-1.5,1.5ZM253.02,428.29c.79,25.54,21.42,46.16,46.95,46.95-.79-25.54-21.42-46.16-46.95-46.95Z"/><path d="M401.5,454.12c0-27.61,22.39-50,50-50,0,27.61-22.39,50-50,50Z" style="fill:#00bf6c;"/><path d="M401.5,455.62c-.83,0-1.5-.67-1.5-1.5,0-28.4,23.1-51.5,51.5-51.5.83,0,1.5.67,1.5,1.5,0,28.4-23.1,51.5-51.5,51.5ZM449.98,405.64c-25.54.79-46.16,21.42-46.95,46.95,25.54-.79,46.16-21.42,46.95-46.95Z"/><path d="M401.5,596.77c0-27.61,22.39-50,50-50,0,27.61-22.39,50-50,50Z" style="fill:#00bf6c;"/><path d="M401.5,598.27c-.83,0-1.5-.67-1.5-1.5,0-28.4,23.1-51.5,51.5-51.5.83,0,1.5.67,1.5,1.5,0,28.4-23.1,51.5-51.5,51.5ZM449.98,548.29c-25.54.79-46.16,21.42-46.95,46.95,25.54-.79,46.16-21.42,46.95-46.95Z"/><path d="M451.5,494.22c0-27.61,22.39-50,50-50,0,27.61-22.39,50-50,50Z" style="fill:#00bf6c;"/><path d="M451.5,495.72c-.83,0-1.5-.67-1.5-1.5,0-28.4,23.1-51.5,51.5-51.5.83,0,1.5.67,1.5,1.5,0,28.4-23.1,51.5-51.5,51.5ZM499.98,445.74c-25.54.79-46.16,21.42-46.95,46.95,25.54-.79,46.16-21.42,46.95-46.95Z"/><path d="M1.5,74.14c27.61,0,50,22.39,50,50-27.61,0-50-22.39-50-50Z" style="fill:#00bf6c;"/><path d="M51.5,125.64C23.1,125.64,0,102.54,0,74.14c0-.83.67-1.5,1.5-1.5,28.4,0,51.5,23.1,51.5,51.5,0,.83-.67,1.5-1.5,1.5ZM3.02,75.67c.79,25.54,21.42,46.16,46.95,46.95-.79-25.54-21.42-46.16-46.95-46.95Z"/><path d="M188.17,1.5c0,27.61-22.39,50-50,50,0-27.61,22.39-50,50-50Z" style="fill:#00bf6c;"/><path d="M138.17,53c-.83,0-1.5-.67-1.5-1.5,0-28.4,23.1-51.5,51.5-51.5.83,0,1.5.67,1.5,1.5,0,28.4-23.1,51.5-51.5,51.5ZM186.64,3.02c-25.54.79-46.16,21.42-46.95,46.95,25.54-.79,46.16-21.42,46.95-46.95Z"/><path d="M191.09,213.98c27.61,0,50-22.39,50-50-27.61,0-50,22.39-50,50Z" style="fill:#00bf6c;"/><path d="M191.09,215.48c-.83,0-1.5-.67-1.5-1.5,0-28.4,23.1-51.5,51.5-51.5.83,0,1.5.67,1.5,1.5,0,28.4-23.1,51.5-51.5,51.5ZM239.56,165.51c-25.54.79-46.16,21.42-46.95,46.95,25.54-.79,46.16-21.42,46.95-46.95Z"/><path d="M401.5,454.12c0-27.61,22.39-50,50-50,0,27.61-22.39,50-50,50Z" style="fill:#00bf6c;"/><path d="M401.5,455.62c-.83,0-1.5-.67-1.5-1.5,0-28.4,23.1-51.5,51.5-51.5.83,0,1.5.67,1.5,1.5,0,28.4-23.1,51.5-51.5,51.5ZM449.98,405.64c-25.54.79-46.16,21.42-46.95,46.95,25.54-.79,46.16-21.42,46.95-46.95Z"/><path d="M401.5,264.48c0,27.61,22.39,50,50,50,0-27.61-22.39-50-50-50Z" style="fill:#00bf6c;"/><path d="M451.5,315.98c-28.4,0-51.5-23.1-51.5-51.5,0-.83.67-1.5,1.5-1.5,28.4,0,51.5,23.1,51.5,51.5,0,.83-.67,1.5-1.5,1.5ZM403.02,266c.79,25.54,21.42,46.16,46.95,46.95-.79-25.54-21.42-46.16-46.95-46.95Z"/><path d="M899.3,487.29c27.61,0,50,22.39,50,50-27.61,0-50-22.39-50-50Z" style="fill:#00bf6c;"/><path d="M949.3,538.79c-28.4,0-51.5-23.1-51.5-51.5,0-.83.67-1.5,1.5-1.5,28.4,0,51.5,23.1,51.5,51.5,0,.83-.67,1.5-1.5,1.5ZM900.83,488.82c.79,25.54,21.42,46.16,46.95,46.95-.79-25.54-21.42-46.16-46.95-46.95Z"/><path d="M999.3,487.29c-27.61,0-50,22.39-50,50,27.61,0,50-22.39,50-50Z" style="fill:#00bf6c;"/><path d="M949.3,538.79c-.83,0-1.5-.67-1.5-1.5,0-28.4,23.1-51.5,51.5-51.5.83,0,1.5.67,1.5,1.5,0,28.4-23.1,51.5-51.5,51.5ZM997.78,488.82c-25.54.79-46.16,21.42-46.95,46.95,25.54-.79,46.16-21.42,46.95-46.95Z"/><path d="M999.3,460.5c27.61,0,50-22.39,50-50-27.61,0-50,22.39-50,50Z" style="fill:#00bf6c;"/><path d="M999.3,462c-.83,0-1.5-.67-1.5-1.5,0-28.4,23.1-51.5,51.5-51.5.83,0,1.5.67,1.5,1.5,0,28.4-23.1,51.5-51.5,51.5ZM1047.78,412.03c-25.54.79-46.16,21.42-46.95,46.95,25.54-.79,46.16-21.42,46.95-46.95Z"/><path d="M899.3,426.77c-27.61,0-50,22.39-50,50,27.61,0,50-22.39,50-50Z" style="fill:#00bf6c;"/><path d="M849.3,478.27c-.83,0-1.5-.67-1.5-1.5,0-28.4,23.1-51.5,51.5-51.5.83,0,1.5.67,1.5,1.5,0,28.4-23.1,51.5-51.5,51.5ZM897.78,428.29c-25.54.79-46.16,21.42-46.95,46.95,25.54-.79,46.16-21.42,46.95-46.95Z"/><path d="M799.3,596.77c0-27.61,22.39-50,50-50,0,27.61-22.39,50-50,50Z" style="fill:#00bf6c;"/><path d="M799.3,598.27c-.83,0-1.5-.67-1.5-1.5,0-28.4,23.1-51.5,51.5-51.5.83,0,1.5.67,1.5,1.5,0,28.4-23.1,51.5-51.5,51.5ZM847.78,548.29c-25.54.79-46.16,21.42-46.95,46.95,25.54-.79,46.16-21.42,46.95-46.95Z"/><path d="M649.3,476.77c27.61,0,50,22.39,50,50-27.61,0-50-22.39-50-50Z" style="fill:#00bf6c;"/><path d="M699.3,528.27c-28.4,0-51.5-23.1-51.5-51.5,0-.83.67-1.5,1.5-1.5,28.4,0,51.5,23.1,51.5,51.5,0,.83-.67,1.5-1.5,1.5ZM650.83,478.29c.79,25.54,21.42,46.16,46.95,46.95-.79-25.54-21.42-46.16-46.95-46.95Z"/><path d="M749.3,546.77c27.61,0,50,22.39,50,50-27.61,0-50-22.39-50-50Z" style="fill:#00bf6c;"/><path d="M799.3,598.27c-28.4,0-51.5-23.1-51.5-51.5,0-.83.67-1.5,1.5-1.5,28.4,0,51.5,23.1,51.5,51.5,0,.83-.67,1.5-1.5,1.5ZM750.83,548.29c.79,25.54,21.42,46.16,46.95,46.95-.79-25.54-21.42-46.16-46.95-46.95Z"/><path d="M699.3,526.77c0-27.61,22.39-50,50-50,0,27.61-22.39,50-50,50Z" style="fill:#00bf6c;"/><path d="M699.3,528.27c-.83,0-1.5-.67-1.5-1.5,0-28.4,23.1-51.5,51.5-51.5.83,0,1.5.67,1.5,1.5,0,28.4-23.1,51.5-51.5,51.5ZM747.78,478.29c-25.54.79-46.16,21.42-46.95,46.95,25.54-.79,46.16-21.42,46.95-46.95Z"/><path d="M699.3,356.77c0,27.61,22.39,50,50,50,0-27.61-22.39-50-50-50Z" style="fill:#00bf6c;"/><path d="M749.3,408.27c-28.4,0-51.5-23.1-51.5-51.5,0-.83.67-1.5,1.5-1.5,28.4,0,51.5,23.1,51.5,51.5,0,.83-.67,1.5-1.5,1.5ZM700.83,358.29c.79,25.54,21.42,46.16,46.95,46.95-.79-25.54-21.42-46.16-46.95-46.95Z"/><path d="M849.3,369.32c0-27.61-22.39-50-50-50,0,27.61,22.39,50,50,50Z" style="fill:#00bf6c;"/><path d="M849.3,370.82c-28.4,0-51.5-23.1-51.5-51.5,0-.83.67-1.5,1.5-1.5,28.4,0,51.5,23.1,51.5,51.5,0,.83-.67,1.5-1.5,1.5ZM800.83,320.84c.79,25.54,21.42,46.16,46.95,46.95-.79-25.54-21.42-46.16-46.95-46.95Z"/><path d="M899.3,487.29c-27.61,0-50,22.39-50,50,27.61,0,50-22.39,50-50Z" style="fill:#00bf6c;"/><path d="M849.3,538.79c-.83,0-1.5-.67-1.5-1.5,0-28.4,23.1-51.5,51.5-51.5.83,0,1.5.67,1.5,1.5,0,28.4-23.1,51.5-51.5,51.5ZM897.78,488.82c-25.54.79-46.16,21.42-46.95,46.95,25.54-.79,46.16-21.42,46.95-46.95Z"/><path d="M949.3,367.29c27.61,0,50,22.39,50,50-27.61,0-50-22.39-50-50Z" style="fill:#00bf6c;"/><path d="M999.3,418.79c-28.4,0-51.5-23.1-51.5-51.5,0-.83.67-1.5,1.5-1.5,28.4,0,51.5,23.1,51.5,51.5,0,.83-.67,1.5-1.5,1.5ZM950.83,368.82c.79,25.54,21.42,46.16,46.95,46.95-.79-25.54-21.42-46.16-46.95-46.95Z"/><path d="M1049.3,546.77c-27.61,0-50,22.39-50,50,27.61,0,50-22.39,50-50Z" style="fill:#00bf6c;"/><path d="M999.3,598.27c-.83,0-1.5-.67-1.5-1.5,0-28.4,23.1-51.5,51.5-51.5.83,0,1.5.67,1.5,1.5,0,28.4-23.1,51.5-51.5,51.5ZM1047.78,548.29c-25.54.79-46.16,21.42-46.95,46.95,25.54-.79,46.16-21.42,46.95-46.95Z"/><path d="M1049.3,289.42c-27.61,0-50,22.39-50,50,27.61,0,50-22.39,50-50Z" style="fill:#00bf6c;"/><path d="M999.3,340.92c-.83,0-1.5-.67-1.5-1.5,0-28.4,23.1-51.5,51.5-51.5.83,0,1.5.67,1.5,1.5,0,28.4-23.1,51.5-51.5,51.5ZM1047.78,290.94c-25.54.79-46.16,21.42-46.95,46.95,25.54-.79,46.16-21.42,46.95-46.95Z"/><path d="M949.3,367.29c-27.61,0-50,22.39-50,50,27.61,0,50-22.39,50-50Z" style="fill:#00bf6c;"/><path d="M899.3,418.79c-.83,0-1.5-.67-1.5-1.5,0-28.4,23.1-51.5,51.5-51.5.83,0,1.5.67,1.5,1.5,0,28.4-23.1,51.5-51.5,51.5ZM947.78,368.82c-25.54.79-46.16,21.42-46.95,46.95,25.54-.79,46.16-21.42,46.95-46.95Z"/><path d="M799.3,426.77c27.61,0,50,22.39,50,50-27.61,0-50-22.39-50-50Z" style="fill:#00bf6c;"/><path d="M849.31,478.27c-28.4,0-51.5-23.1-51.5-51.5,0-.83.67-1.5,1.5-1.5,28.4,0,51.5,23.1,51.5,51.5,0,.83-.67,1.5-1.5,1.5ZM800.83,428.29c.79,25.54,21.42,46.16,46.95,46.95-.79-25.54-21.42-46.16-46.95-46.95Z"/><path d="M799.3,426.77c-27.61,0-50,22.39-50,50,27.61,0,50-22.39,50-50Z" style="fill:#00bf6c;"/><path d="M749.31,478.27c-.83,0-1.5-.67-1.5-1.5,0-28.4,23.1-51.5,51.5-51.5.83,0,1.5.67,1.5,1.5,0,28.4-23.1,51.5-51.5,51.5ZM797.78,428.29c-25.54.79-46.16,21.42-46.95,46.95,25.54-.79,46.16-21.42,46.95-46.95Z"/><path d="M649.3,454.12c0-27.61-22.39-50-50-50,0,27.61,22.39,50,50,50Z" style="fill:#00bf6c;"/><path d="M649.3,455.62c-28.4,0-51.5-23.1-51.5-51.5,0-.83.67-1.5,1.5-1.5,28.4,0,51.5,23.1,51.5,51.5,0,.83-.67,1.5-1.5,1.5ZM600.83,405.64c.79,25.54,21.42,46.16,46.95,46.95-.79-25.54-21.42-46.16-46.95-46.95Z"/><path d="M649.3,596.77c0-27.61-22.39-50-50-50,0,27.61,22.39,50,50,50Z" style="fill:#00bf6c;"/><path d="M649.3,598.27c-28.4,0-51.5-23.1-51.5-51.5,0-.83.67-1.5,1.5-1.5,28.4,0,51.5,23.1,51.5,51.5,0,.83-.67,1.5-1.5,1.5ZM600.83,548.29c.79,25.54,21.42,46.16,46.95,46.95-.79-25.54-21.42-46.16-46.95-46.95Z"/><path d="M599.3,364.48c0-27.61-22.39-50-50-50,0,27.61,22.39,50,50,50Z" style="fill:#00bf6c;"/><path d="M599.3,365.98c-28.4,0-51.5-23.1-51.5-51.5,0-.83.67-1.5,1.5-1.5,28.4,0,51.5,23.1,51.5,51.5,0,.83-.67,1.5-1.5,1.5ZM550.83,316c.79,25.54,21.42,46.16,46.95,46.95-.79-25.54-21.42-46.16-46.95-46.95Z"/><path d="M1049.3,74.14c-27.61,0-50,22.39-50,50,27.61,0,50-22.39,50-50Z" style="fill:#00bf6c;"/><path d="M999.3,125.64c-.83,0-1.5-.67-1.5-1.5,0-28.4,23.1-51.5,51.5-51.5.83,0,1.5.67,1.5,1.5,0,28.4-23.1,51.5-51.5,51.5ZM1047.78,75.67c-25.54.79-46.16,21.42-46.95,46.95,25.54-.79,46.16-21.42,46.95-46.95Z"/><path d="M862.64,1.5c0,27.61,22.39,50,50,50,0-27.61-22.39-50-50-50Z" style="fill:#00bf6c;"/><path d="M912.64,53c-28.4,0-51.5-23.1-51.5-51.5,0-.83.67-1.5,1.5-1.5,28.4,0,51.5,23.1,51.5,51.5,0,.83-.67,1.5-1.5,1.5ZM864.16,3.02c.79,25.54,21.42,46.16,46.95,46.95-.79-25.54-21.42-46.16-46.95-46.95Z"/><path d="M859.72,213.98c-27.61,0-50-22.39-50-50,27.61,0,50,22.39,50,50Z" style="fill:#00bf6c;"/><path d="M859.72,215.48c-28.4,0-51.5-23.1-51.5-51.5,0-.83.67-1.5,1.5-1.5,28.4,0,51.5,23.1,51.5,51.5,0,.83-.67,1.5-1.5,1.5ZM811.24,165.51c.79,25.54,21.42,46.16,46.95,46.95-.79-25.54-21.42-46.16-46.95-46.95Z"/><path d="M649.3,454.12c0-27.61-22.39-50-50-50,0,27.61,22.39,50,50,50Z" style="fill:#00bf6c;"/><path d="M649.3,455.62c-28.4,0-51.5-23.1-51.5-51.5,0-.83.67-1.5,1.5-1.5,28.4,0,51.5,23.1,51.5,51.5,0,.83-.67,1.5-1.5,1.5ZM600.83,405.64c.79,25.54,21.42,46.16,46.95,46.95-.79-25.54-21.42-46.16-46.95-46.95Z"/><path d="M649.3,264.48c0,27.61-22.39,50-50,50,0-27.61,22.39-50,50-50Z" style="fill:#00bf6c;"/><path d="M599.3,315.98c-.83,0-1.5-.67-1.5-1.5,0-28.4,23.1-51.5,51.5-51.5.83,0,1.5.67,1.5,1.5,0,28.4-23.1,51.5-51.5,51.5ZM647.78,266c-25.54.79-46.16,21.42-46.95,46.95,25.54-.79,46.16-21.42,46.95-46.95Z"/></svg>