<?xml version="1.0" encoding="UTF-8"?><svg id="Layer_1" xmlns="http://www.w3.org/2000/svg" viewBox="0 0 657.62 687.21"><path d="M648.7,634.82l6.11-6.11-1.2-1.2-6.11,6.11c-4.22-3.93-9.87-6.36-16.08-6.36s-11.86,2.43-16.08,6.36l-6.11-6.11-1.2,1.2,6.11,6.11c-3.93,4.22-6.36,9.87-6.36,16.08s2.43,11.86,6.36,16.08l-6.11,6.11,1.2,1.2,6.11-6.11c4.22,3.93,9.87,6.36,16.08,6.36s11.86-2.43,16.08-6.36l6.11,6.11,1.2-1.2-6.11-6.11c3.93-4.22,6.36-9.87,6.36-16.08s-2.43-11.86-6.36-16.08ZM631.42,628.95c5.74,0,10.96,2.24,14.88,5.86l-14.88,14.88-14.88-14.88c3.92-3.63,9.14-5.86,14.88-5.86ZM609.48,650.9c0-5.74,2.24-10.96,5.86-14.88l14.88,14.88-14.88,14.88c-3.63-3.92-5.86-9.14-5.86-14.88ZM631.42,672.84c-5.74,0-10.96-2.24-14.88-5.86l14.88-14.88,14.88,14.88c-3.92,3.63-9.14,5.86-14.88,5.86ZM632.62,650.9l14.88-14.88c3.63,3.92,5.86,9.14,5.86,14.88s-2.24,10.96-5.86,14.88l-14.88-14.88Z"/><path d="M596.07,634.82l6.11-6.11-1.2-1.2-6.11,6.11c-4.22-3.93-9.87-6.36-16.08-6.36s-11.86,2.43-16.08,6.36l-6.11-6.11-1.2,1.2,6.11,6.11c-3.93,4.22-6.36,9.87-6.36,16.08s2.43,11.86,6.36,16.08l-6.11,6.11,1.2,1.2,6.11-6.11c4.22,3.93,9.87,6.36,16.08,6.36s11.86-2.43,16.08-6.36l6.11,6.11,1.2-1.2-6.11-6.11c3.93-4.22,6.36-9.87,6.36-16.08s-2.43-11.86-6.36-16.08ZM578.79,628.95c5.74,0,10.96,2.24,14.88,5.86l-14.88,14.88-14.88-14.88c3.92-3.63,9.14-5.86,14.88-5.86ZM556.84,650.9c0-5.74,2.24-10.96,5.86-14.88l14.88,14.88-14.88,14.88c-3.63-3.92-5.86-9.14-5.86-14.88ZM578.79,672.84c-5.74,0-10.96-2.24-14.88-5.86l14.88-14.88,14.88,14.88c-3.92,3.63-9.14,5.86-14.88,5.86ZM579.99,650.9l14.88-14.88c3.63,3.92,5.86,9.14,5.86,14.88s-2.24,10.96-5.86,14.88l-14.88-14.88Z"/><path d="M329.28,289.58c-10.36-5.98-21.66-8.8-32.82-8.79,0,0,0,0,0,0s0,0,0,0c11.16.01,22.46-2.81,32.82-8.79,31.4-18.13,42.15-58.27,24.03-89.67-18.13-31.4-58.27-42.15-89.67-24.03-10.36,5.98-18.46,14.37-24.03,24.04,0,0,0,0-.01,0,5.59-9.66,8.81-20.86,8.81-32.83,0-36.25-29.39-65.64-65.64-65.64s-65.64,29.39-65.64,65.64c0,11.96,3.22,23.17,8.81,32.83,0,0,0,0-.01,0-5.57-9.67-13.67-18.06-24.03-24.04-31.4-18.13-71.54-7.37-89.67,24.03-18.13,31.4-7.37,71.54,24.03,89.67,10.36,5.98,21.66,8.8,32.82,8.79,0,0,0,0,0,0s0,0,0,0c-11.16-.01-22.46,2.81-32.82,8.79-31.4,18.13-42.15,58.27-24.03,89.67,18.13,31.4,58.27,42.15,89.67,24.03,10.36-5.98,18.46-14.37,24.03-24.04,0,0,0,0,.01,0-5.59,9.66-8.81,20.86-8.81,32.83,0,36.25,29.39,65.64,65.64,65.64s65.64-29.39,65.64-65.64c0-11.96-3.22-23.17-8.81-32.83,0,0,0,0,.01,0,5.57,9.67,13.67,18.06,24.03,24.04,31.4,18.13,71.54,7.37,89.67-24.03,18.13-31.4,7.37-71.54-24.03-89.67Z" style="fill:#f4b8ff;"/><circle cx="182.77" cy="280.78" r="65.64" style="fill:#fffb00;"/><path d="M640.23,280.77c-32.23-108.75-109.87-196.9-173.4-196.9s-88.91,88.16-56.67,196.9c32.23,108.75,109.87,196.9,173.4,196.9s88.91-88.16,56.67-196.9Z" style="fill:#00bf6c;"/><path d="M2.38,328.55c-4.77,17.81-2.32,36.42,6.9,52.39,19.04,32.97,61.34,44.31,94.31,25.27,4.17-2.41,8.07-5.25,11.63-8.45-.99,4.68-1.5,9.47-1.5,14.29,0,38.07,30.97,69.04,69.04,69.04s69.04-30.97,69.04-69.04c0-4.82-.51-9.61-1.5-14.29,3.56,3.2,7.46,6.04,11.63,8.45,32.97,19.03,75.28,7.7,94.31-25.27,19.03-32.97,7.7-75.28-25.27-94.31-1.53-.88-3.09-1.68-4.67-2.44h81.33c33.03,108.79,111.57,196.88,175.92,196.88,20.79,0,38.58-9.12,51.46-26.36,26.63-35.67,29.88-102.7,8.48-174.9-23.07-77.83-69.54-145.37-117.72-178.18V6.8h67.66c1.88,0,3.4-1.52,3.4-3.4s-1.52-3.4-3.4-3.4h-142.12c-1.88,0-3.4,1.52-3.4,3.4s1.52,3.4,3.4,3.4h67.66v90.44c-17.64-10.77-35.38-16.77-52.15-16.77h-168.4L255.89,6.8h68.99c1.88,0,3.4-1.52,3.4-3.4s-1.52-3.4-3.4-3.4h-142.12c-1.88,0-3.4,1.52-3.4,3.4s1.52,3.4,3.4,3.4h65.27l44.5,77.07-40.95,70.94c.14-1.76.23-3.53.23-5.31,0-38.07-30.97-69.04-69.04-69.04s-69.04,30.97-69.04,69.04c0,4.82.51,9.61,1.5,14.3-3.56-3.2-7.46-6.04-11.63-8.45-15.97-9.22-34.58-11.67-52.39-6.9-17.81,4.77-32.7,16.2-41.92,32.17C.06,196.59-2.39,215.2,2.38,233.01s16.2,32.7,32.17,41.92c4.18,2.41,8.58,4.37,13.13,5.85-4.55,1.48-8.96,3.44-13.13,5.85-15.97,9.22-27.39,24.11-32.17,41.92ZM251.72,277.39c-1.11-22.88-13.42-42.86-31.55-54.59l22.37-38.75s0,0,.01-.01c5.44-9.45,13.32-17.33,22.78-22.79,29.65-17.12,67.69-6.98,84.9,22.58l.23.41c17,29.69,6.76,67.7-22.89,84.82-9.44,5.45-20.18,8.33-31.06,8.33-.02,0-.04,0-.06,0-.07,0-.13.02-.19.02h-44.54ZM179.82,282.49c.61,1.05,1.73,1.7,2.94,1.7h62.14c-1.78,32.74-28.97,58.83-62.14,58.83s-62.24-27.92-62.24-62.24,27.92-62.24,62.24-62.24c10.12,0,19.67,2.44,28.12,6.74l-31.07,53.81c-.61,1.05-.61,2.35,0,3.4ZM188.65,277.39l28.12-48.7c16.1,10.54,27.04,28.33,28.14,48.7h-56.26ZM330.98,274.93c23.71-13.69,36.23-39.4,34.32-65.03l38.97,67.49h-78c1.6-.77,3.18-1.57,4.72-2.46ZM522.37,284.19c1.88,0,3.4-1.52,3.4-3.4V109.63c45.42,32.61,89.08,97.52,111.2,172.11,20.81,70.19,17.97,134.91-7.41,168.91-11.71,15.68-27.19,23.63-46.01,23.63-62.03,0-138.36-87.24-170.14-194.47-20.81-70.2-17.97-134.92,7.41-168.91,11.71-15.68,27.18-23.63,46-23.63,16.73,0,34.49,6.35,52.15,17.72v175.8c0,1.88,1.52,3.4,3.4,3.4ZM437.98,87.27c-8.59,4.43-16.2,10.99-22.6,19.56-23.61,31.63-28.83,87.9-14.8,150.57l-44.2-76.55c-.04-.07-.08-.15-.12-.23s-.09-.14-.13-.22l-53.77-93.13h135.63ZM335.42,158.15c-21.24-14.47-49.77-16.49-73.48-2.8-1.53.88-3.01,1.84-4.46,2.84l38.98-67.52,38.96,67.48ZM69.01,284.19s.05,0,.06,0c.9,0,1.77-.37,2.4-1,.64-.64,1-1.51,1-2.41s-.36-1.77-1-2.41c-.64-.64-1.5-1-2.4-1-.02,0-.04,0-.06,0-10.88,0-21.62-2.88-31.06-8.33-14.4-8.31-24.7-21.73-29-37.79-4.3-16.06-2.09-32.83,6.22-47.23,8.31-14.4,21.73-24.7,37.79-29,16.06-4.3,32.83-2.09,47.23,6.22,9.46,5.46,17.34,13.34,22.78,22.79.49.84,1.31,1.44,2.26,1.63.82.16,1.66.03,2.38-.38.71-.41,1.26-1.06,1.53-1.84.32-.93.22-1.96-.27-2.81-5.46-9.44-8.35-20.2-8.35-31.13,0-34.32,27.92-62.24,62.24-62.24s62.24,27.92,62.24,62.24c0,10.93-2.89,21.69-8.35,31.13-.02.04-.03.08-.05.12l-22.31,38.65c-9.46-4.88-20.17-7.65-31.53-7.65-38.07,0-69.04,30.97-69.04,69.04s30.97,69.04,69.04,69.04,67.17-29.14,68.96-65.63h44.89c10.85.02,21.56,2.89,30.97,8.33,29.72,17.16,39.94,55.3,22.78,85.02-17.16,29.72-55.3,39.94-85.02,22.78-9.46-5.46-17.34-13.35-22.78-22.79-.49-.84-1.31-1.44-2.26-1.63-.88-.18-1.79,0-2.53.48-1.52.98-2.02,2.99-1.11,4.57,5.46,9.44,8.35,20.2,8.35,31.12,0,34.32-27.92,62.24-62.24,62.24s-62.24-27.92-62.24-62.24c0-10.93,2.89-21.69,8.35-31.12.91-1.58.42-3.59-1.11-4.57-.75-.48-1.65-.66-2.53-.48-.95.2-1.78.79-2.26,1.63-5.44,9.45-13.32,17.33-22.78,22.79-29.72,17.16-67.86,6.94-85.02-22.78-8.31-14.4-10.52-31.17-6.22-47.23,4.3-16.06,14.6-29.48,29-37.79,9.44-5.45,20.18-8.33,31.06-8.33Z"/><path d="M103.69,512.37v69.64c0,1.88,1.52,3.4,3.4,3.4s3.4-1.52,3.4-3.4v-69.64c0-1.88-1.52-3.4-3.4-3.4s-3.4,1.52-3.4,3.4Z"/><path d="M91.98,564.6c0-7.27-3.75-13.69-9.42-17.41,5.67-3.72,9.42-10.14,9.42-17.41,0-11.48-9.34-20.81-20.81-20.81H3.42c-1.88,0-3.4,1.52-3.4,3.4v69.64c0,1.88,1.52,3.4,3.4,3.4h67.75c11.48,0,20.81-9.34,20.81-20.81ZM71.17,515.77c7.73,0,14.01,6.29,14.01,14.01s-6.29,14.01-14.01,14.01H6.82v-28.02h64.35ZM6.82,550.59h64.35c7.73,0,14.01,6.29,14.01,14.01s-6.29,14.01-14.01,14.01H6.82v-28.02Z"/><path d="M215.67,511.14c-.68-1.75-2.65-2.62-4.4-1.94l-80.56,31.32v-28.15c0-1.88-1.52-3.4-3.4-3.4s-3.4,1.52-3.4,3.4v69.64c0,1.88,1.52,3.4,3.4,3.4s3.4-1.52,3.4-3.4v-28.15l80.56,31.32c.41.16.82.23,1.23.23,1.36,0,2.65-.82,3.17-2.17.68-1.75-.19-3.72-1.94-4.4l-81.42-31.65,81.42-31.65c1.75-.68,2.62-2.65,1.94-4.4Z"/><path d="M313.34,515.77c1.88,0,3.4-1.52,3.4-3.4s-1.52-3.4-3.4-3.4h-85.24c-1.88,0-3.4,1.52-3.4,3.4v69.64c0,1.88,1.52,3.4,3.4,3.4h85.24c1.88,0,3.4-1.52,3.4-3.4s-1.52-3.4-3.4-3.4h-81.84v-26.75h79.29c1.88,0,3.4-1.52,3.4-3.4s-1.52-3.4-3.4-3.4h-79.29v-29.3h81.84Z"/><path d="M344.3,585.42c1.88,0,3.4-1.52,3.4-3.4v-53.62l24.45,55.01c.55,1.23,1.76,2.02,3.11,2.02,1.34,0,2.56-.79,3.11-2.02l24.47-55-.02,53.62c0,1.88,1.52,3.4,3.4,3.4h0c1.88,0,3.4-1.52,3.4-3.4l.03-69.64c0-1.61-1.12-2.99-2.69-3.33-1.57-.33-3.16.48-3.81,1.94l-27.87,62.66-27.85-62.66c-.65-1.47-2.24-2.27-3.81-1.95-1.57.33-2.7,1.72-2.7,3.33v69.64c0,1.88,1.52,3.4,3.4,3.4Z"/><path d="M542.44,508.97c-1.88,0-3.4,1.52-3.4,3.4v56.53s-32.34-58.18-32.34-58.18c-.75-1.35-2.33-2.03-3.82-1.64-1.5.39-2.55,1.74-2.55,3.29v69.64c0,1.88,1.52,3.4,3.4,3.4s3.4-1.52,3.4-3.4v-56.53l32.35,58.19c.61,1.1,1.76,1.75,2.97,1.75.28,0,.57-.04.85-.11,1.5-.39,2.55-1.74,2.55-3.29v-69.64c0-1.88-1.53-3.4-3.41-3.4Z"/><path d="M602.18,508.97h-46.51c-1.88,0-3.4,1.52-3.4,3.4s1.52,3.4,3.4,3.4h19.83v66.24c0,1.88,1.52,3.4,3.4,3.4s3.4-1.52,3.4-3.4v-66.24h19.88c1.88,0,3.4-1.52,3.4-3.4s-1.52-3.4-3.4-3.4Z"/><path d="M654.22,508.97c-1.88,0-3.4,1.52-3.4,3.4v30.15h-32.01v-30.15c0-1.88-1.52-3.4-3.4-3.4s-3.4,1.52-3.4,3.4v69.64c0,1.88,1.52,3.4,3.4,3.4s3.4-1.52,3.4-3.4v-32.7h32.01v32.7c0,1.88,1.52,3.4,3.4,3.4s3.4-1.52,3.4-3.4v-69.64c0-1.88-1.52-3.4-3.4-3.4Z"/><path d="M454.98,586.11c21.46,0,38.92-17.46,38.92-38.92s-17.46-38.92-38.92-38.92-38.92,17.46-38.92,38.92,17.46,38.92,38.92,38.92ZM454.98,515.07c17.71,0,32.12,14.41,32.12,32.12s-14.41,32.12-32.12,32.12-32.12-14.41-32.12-32.12,14.41-32.12,32.12-32.12Z"/><path d="M1.29,632.5c.47-.81,1.12-1.44,1.94-1.9.81-.46,1.71-.68,2.68-.68,1.11,0,2.1.27,2.96.82.87.55,1.49,1.32,1.88,2.32h-2.06c-.27-.55-.65-.96-1.12-1.23s-1.04-.41-1.67-.41c-.69,0-1.3.16-1.84.46-.54.31-.96.76-1.27,1.34-.31.58-.46,1.25-.46,2.02s.15,1.44.46,2.02c.3.58.73,1.03,1.27,1.34s1.15.47,1.84.47c.63,0,1.19-.13,1.67-.4s.85-.68,1.12-1.23h2.06c-.39,1-1.02,1.77-1.88,2.31-.86.54-1.85.81-2.96.81-.98,0-1.88-.23-2.69-.68s-1.45-1.09-1.93-1.9c-.48-.81-.71-1.72-.71-2.74s.24-1.94.71-2.75Z"/><path d="M20.06,636.99h-6.31c.05.66.29,1.19.73,1.59.44.4.98.6,1.62.6.92,0,1.57-.38,1.95-1.15h1.85c-.25.76-.7,1.38-1.36,1.87-.66.48-1.47.73-2.44.73-.79,0-1.5-.18-2.12-.53-.62-.35-1.12-.85-1.47-1.5s-.53-1.39-.53-2.24.17-1.6.52-2.24c.35-.65.83-1.14,1.46-1.49s1.34-.52,2.15-.52,1.47.17,2.08.51c.61.34,1.08.82,1.42,1.43.34.62.51,1.32.51,2.12,0,.31-.02.59-.06.84ZM18.34,635.61c-.01-.63-.24-1.13-.67-1.52-.44-.38-.99-.57-1.64-.57-.59,0-1.1.19-1.52.56s-.67.88-.75,1.52h4.58Z"/><path d="M23.44,629.38v11.1h-1.71v-11.1h1.71Z"/><path d="M33.16,636.99h-6.31c.05.66.29,1.19.73,1.59.44.4.98.6,1.62.6.92,0,1.57-.38,1.95-1.15h1.85c-.25.76-.7,1.38-1.36,1.87-.66.48-1.47.73-2.44.73-.79,0-1.5-.18-2.12-.53-.62-.35-1.12-.85-1.47-1.5s-.53-1.39-.53-2.24.17-1.6.52-2.24c.35-.65.83-1.14,1.46-1.49s1.34-.52,2.15-.52,1.47.17,2.08.51c.61.34,1.08.82,1.42,1.43.34.62.51,1.32.51,2.12,0,.31-.02.59-.06.84ZM31.44,635.61c-.01-.63-.24-1.13-.67-1.52-.44-.38-.99-.57-1.64-.57-.59,0-1.1.19-1.52.56s-.67.88-.75,1.52h4.58Z"/><path d="M37.74,632.46c.5-.25,1.07-.38,1.69-.38.73,0,1.39.17,1.98.52.59.35,1.06.85,1.4,1.49s.51,1.38.51,2.21-.17,1.57-.51,2.23-.81,1.17-1.4,1.53c-.6.37-1.25.55-1.97.55-.64,0-1.21-.12-1.7-.38-.5-.25-.89-.57-1.18-.96v1.2h-1.71v-11.1h1.71v4.06c.29-.4.69-.73,1.19-.98ZM41.22,634.83c-.23-.42-.54-.73-.93-.94-.39-.22-.8-.32-1.24-.32s-.84.11-1.22.33c-.39.22-.7.54-.93.96s-.35.92-.35,1.48.12,1.07.35,1.49c.23.43.54.75.93.97.38.22.79.33,1.22.33s.85-.11,1.24-.34c.38-.23.69-.55.93-.98.23-.43.35-.93.35-1.5s-.12-1.06-.35-1.48Z"/><path d="M47.65,632.43c.42-.23.91-.35,1.48-.35v1.77h-.44c-.67,0-1.18.17-1.52.51-.35.34-.52.93-.52,1.77v4.35h-1.71v-8.27h1.71v1.2c.25-.42.58-.75,1-.98Z"/><path d="M50.42,634.11c.35-.64.81-1.14,1.41-1.49.59-.35,1.25-.53,1.97-.53.65,0,1.22.13,1.7.38.48.25.87.57,1.16.95v-1.2h1.73v8.27h-1.73v-1.23c-.29.39-.69.71-1.19.98-.5.26-1.07.39-1.71.39-.71,0-1.36-.18-1.95-.55-.59-.36-1.06-.88-1.4-1.53-.34-.65-.52-1.4-.52-2.23s.17-1.56.52-2.21ZM56.32,634.86c-.23-.42-.54-.74-.92-.96-.38-.22-.79-.33-1.23-.33s-.85.11-1.23.32c-.38.21-.69.53-.92.94-.24.42-.35.91-.35,1.48s.12,1.07.35,1.5c.23.43.54.76.93.98.39.23.79.34,1.22.34s.85-.11,1.23-.33c.38-.22.69-.54.92-.97.23-.42.35-.92.35-1.49s-.12-1.06-.35-1.48Z"/><path d="M62.5,633.61v4.58c0,.31.07.53.22.67.15.13.39.2.74.2h1.05v1.42h-1.35c-.77,0-1.36-.18-1.77-.54s-.61-.94-.61-1.75v-4.58h-.98v-1.4h.98v-2.05h1.73v2.05h2.01v1.4h-2.01Z"/><path d="M65.94,630.81c-.21-.21-.31-.47-.31-.78s.1-.57.31-.78.47-.31.78-.31.55.1.76.31c.21.21.32.47.32.78s-.1.57-.32.78c-.21.21-.46.31-.76.31s-.57-.1-.78-.31ZM67.56,632.22v8.27h-1.71v-8.27h1.71Z"/><path d="M75.6,632.49c.52.27.92.67,1.21,1.2.29.53.44,1.17.44,1.92v4.88h-1.69v-4.62c0-.74-.19-1.31-.56-1.7-.37-.4-.88-.59-1.52-.59s-1.15.2-1.52.59-.56.96-.56,1.7v4.62h-1.71v-8.27h1.71v.95c.28-.34.64-.6,1.07-.8.43-.19.9-.28,1.39-.28.65,0,1.23.13,1.75.4Z"/><path d="M84.37,632.46c.49.25.88.57,1.16.95v-1.2h1.73v8.4c0,.76-.16,1.44-.48,2.03-.32.59-.78,1.06-1.39,1.4-.61.34-1.33.51-2.17.51-1.12,0-2.05-.26-2.79-.79-.74-.52-1.16-1.24-1.26-2.14h1.69c.13.43.41.78.83,1.04.43.27.93.4,1.52.4.69,0,1.25-.21,1.67-.63.42-.42.64-1.03.64-1.83v-1.38c-.29.39-.68.72-1.18.98-.5.27-1.06.4-1.69.4-.72,0-1.38-.18-1.97-.55-.6-.36-1.06-.88-1.41-1.53-.34-.65-.52-1.4-.52-2.23s.17-1.56.52-2.21c.35-.64.81-1.14,1.41-1.49.59-.35,1.25-.53,1.97-.53.64,0,1.21.13,1.7.38ZM85.18,634.86c-.23-.42-.54-.74-.92-.96-.38-.22-.79-.33-1.23-.33s-.85.11-1.23.32c-.38.21-.69.53-.92.94-.24.42-.35.91-.35,1.48s.12,1.07.35,1.5c.23.43.54.76.93.98.39.23.79.34,1.22.34s.85-.11,1.23-.33c.38-.22.69-.54.92-.97.23-.42.35-.92.35-1.49s-.12-1.06-.35-1.48Z"/><path d="M95.41,633.61v4.58c0,.31.07.53.22.67.15.13.39.2.74.2h1.05v1.42h-1.35c-.77,0-1.36-.18-1.77-.54s-.61-.94-.61-1.75v-4.58h-.98v-1.4h.98v-2.05h1.73v2.05h2.01v1.4h-2.01Z"/><path d="M104.82,632.49c.5.27.89.67,1.17,1.2.29.53.43,1.17.43,1.92v4.88h-1.69v-4.62c0-.74-.19-1.31-.56-1.7-.37-.4-.88-.59-1.52-.59s-1.15.2-1.52.59-.56.96-.56,1.7v4.62h-1.71v-11.1h1.71v3.79c.29-.35.66-.62,1.1-.81.44-.19.93-.28,1.46-.28.63,0,1.19.13,1.69.4Z"/><path d="M116.03,636.99h-6.31c.05.66.29,1.19.73,1.59.44.4.98.6,1.62.6.92,0,1.57-.38,1.95-1.15h1.85c-.25.76-.7,1.38-1.36,1.87-.66.48-1.47.73-2.44.73-.79,0-1.5-.18-2.12-.53-.62-.35-1.12-.85-1.47-1.5s-.53-1.39-.53-2.24.17-1.6.52-2.24c.35-.65.83-1.14,1.46-1.49s1.34-.52,2.15-.52,1.47.17,2.08.51c.61.34,1.08.82,1.42,1.43.34.62.51,1.32.51,2.12,0,.31-.02.59-.06.84ZM114.3,635.61c-.01-.63-.24-1.13-.67-1.52-.44-.38-.99-.57-1.64-.57-.59,0-1.1.19-1.52.56s-.67.88-.75,1.52h4.58Z"/><path d="M127.08,640.48l-2.4-4.17h-1.31v4.17h-1.71v-10.42h3.6c.8,0,1.48.14,2.03.42.56.28.97.65,1.25,1.12s.41,1,.41,1.57c0,.68-.2,1.3-.59,1.85-.4.56-1,.93-1.82,1.13l2.58,4.32h-2.04ZM123.38,634.95h1.89c.64,0,1.12-.16,1.45-.48.33-.32.49-.75.49-1.29s-.16-.96-.48-1.27c-.32-.31-.81-.46-1.46-.46h-1.89v3.49Z"/><path d="M130.72,634.11c.35-.64.81-1.14,1.41-1.49.59-.35,1.25-.53,1.97-.53.65,0,1.22.13,1.7.38.48.25.87.57,1.16.95v-1.2h1.73v8.27h-1.73v-1.23c-.29.39-.69.71-1.19.98-.5.26-1.07.39-1.71.39-.71,0-1.36-.18-1.95-.55-.59-.36-1.06-.88-1.4-1.53-.34-.65-.52-1.4-.52-2.23s.17-1.56.52-2.21ZM136.62,634.86c-.23-.42-.54-.74-.92-.96-.38-.22-.79-.33-1.23-.33s-.85.11-1.23.32c-.38.21-.69.53-.92.94-.24.42-.35.91-.35,1.48s.12,1.07.35,1.5c.23.43.54.76.93.98.39.23.79.34,1.22.34s.85-.11,1.23-.33c.38-.22.69-.54.92-.97.23-.42.35-.92.35-1.49s-.12-1.06-.35-1.48Z"/><path d="M142.52,629.38v11.1h-1.71v-11.1h1.71Z"/><path d="M152.24,636.99h-6.31c.05.66.29,1.19.73,1.59.44.4.98.6,1.62.6.92,0,1.57-.38,1.95-1.15h1.85c-.25.76-.7,1.38-1.36,1.87-.66.48-1.47.73-2.44.73-.79,0-1.5-.18-2.12-.53-.62-.35-1.12-.85-1.47-1.5s-.53-1.39-.53-2.24.17-1.6.52-2.24c.35-.65.83-1.14,1.46-1.49s1.34-.52,2.15-.52,1.47.17,2.08.51c.61.34,1.08.82,1.42,1.43.34.62.51,1.32.51,2.12,0,.31-.02.59-.06.84ZM150.51,635.61c-.01-.63-.24-1.13-.67-1.52-.44-.38-.99-.57-1.64-.57-.59,0-1.1.19-1.52.56s-.67.88-.75,1.52h4.58Z"/><path d="M153.97,630.81c-.21-.21-.31-.47-.31-.78s.1-.57.31-.78.47-.31.78-.31.55.1.76.31c.21.21.32.47.32.78s-.1.57-.32.78c-.21.21-.46.31-.76.31s-.57-.1-.78-.31ZM155.59,632.22v8.27h-1.71v-8.27h1.71Z"/><path d="M162.78,632.46c.49.25.88.57,1.16.95v-1.2h1.73v8.4c0,.76-.16,1.44-.48,2.03-.32.59-.78,1.06-1.39,1.4-.61.34-1.33.51-2.17.51-1.12,0-2.05-.26-2.79-.79-.74-.52-1.16-1.24-1.26-2.14h1.69c.13.43.41.78.83,1.04.43.27.93.4,1.52.4.69,0,1.25-.21,1.67-.63.42-.42.64-1.03.64-1.83v-1.38c-.29.39-.68.72-1.18.98-.5.27-1.06.4-1.69.4-.72,0-1.38-.18-1.97-.55-.6-.36-1.06-.88-1.41-1.53-.34-.65-.52-1.4-.52-2.23s.17-1.56.52-2.21c.35-.64.81-1.14,1.41-1.49.59-.35,1.25-.53,1.97-.53.64,0,1.21.13,1.7.38ZM163.59,634.86c-.23-.42-.54-.74-.92-.96-.38-.22-.79-.33-1.23-.33s-.85.11-1.23.32c-.38.21-.69.53-.92.94-.24.42-.35.91-.35,1.48s.12,1.07.35,1.5c.23.43.54.76.93.98.39.23.79.34,1.22.34s.85-.11,1.23-.33c.38-.22.69-.54.92-.97.23-.42.35-.92.35-1.49s-.12-1.06-.35-1.48Z"/><path d="M173.75,632.49c.5.27.89.67,1.17,1.2.29.53.43,1.17.43,1.92v4.88h-1.69v-4.62c0-.74-.19-1.31-.56-1.7-.37-.4-.88-.59-1.52-.59s-1.15.2-1.52.59-.56.96-.56,1.7v4.62h-1.71v-11.1h1.71v3.79c.29-.35.66-.62,1.1-.81.44-.19.93-.28,1.46-.28.63,0,1.19.13,1.69.4Z"/><path d="M184.32,632.46c.5-.25,1.07-.38,1.69-.38.73,0,1.39.17,1.98.52.59.35,1.06.85,1.4,1.49s.51,1.38.51,2.21-.17,1.57-.51,2.23-.81,1.17-1.4,1.53c-.6.37-1.25.55-1.97.55-.64,0-1.21-.12-1.7-.38-.5-.25-.89-.57-1.18-.96v1.2h-1.71v-11.1h1.71v4.06c.29-.4.69-.73,1.19-.98ZM187.8,634.83c-.23-.42-.54-.73-.93-.94-.39-.22-.8-.32-1.24-.32s-.84.11-1.22.33c-.39.22-.7.54-.93.96s-.35.92-.35,1.48.12,1.07.35,1.49c.23.43.54.75.93.97.38.22.79.33,1.22.33s.85-.11,1.24-.34c.38-.23.69-.55.93-.98.23-.43.35-.93.35-1.5s-.12-1.06-.35-1.48Z"/><path d="M191.58,630.81c-.21-.21-.31-.47-.31-.78s.1-.57.31-.78.47-.31.78-.31.55.1.76.31c.21.21.32.47.32.78s-.1.57-.32.78c-.21.21-.46.31-.76.31s-.57-.1-.78-.31ZM193.2,632.22v8.27h-1.71v-8.27h1.71Z"/><path d="M198.6,636.36l3.81,4.12h-2.31l-3.06-3.56v3.56h-1.71v-11.1h1.71v6.45l3-3.62h2.37l-3.81,4.14Z"/><path d="M210.61,636.99h-6.31c.05.66.29,1.19.73,1.59.44.4.98.6,1.62.6.92,0,1.57-.38,1.95-1.15h1.85c-.25.76-.7,1.38-1.36,1.87-.66.48-1.47.73-2.44.73-.79,0-1.5-.18-2.12-.53-.62-.35-1.12-.85-1.47-1.5s-.53-1.39-.53-2.24.17-1.6.52-2.24c.35-.65.83-1.14,1.46-1.49s1.34-.52,2.15-.52,1.47.17,2.08.51c.61.34,1.08.82,1.42,1.43.34.62.51,1.32.51,2.12,0,.31-.02.59-.06.84ZM208.89,635.61c-.01-.63-.24-1.13-.67-1.52-.44-.38-.99-.57-1.64-.57-.59,0-1.1.19-1.52.56s-.67.88-.75,1.52h4.58Z"/><path d="M1.09,653.1c.35-.65.82-1.14,1.43-1.49s1.31-.52,2.1-.52c1,0,1.83.24,2.48.71.65.48,1.1,1.15,1.33,2.03h-1.85c-.15-.41-.39-.73-.72-.96-.33-.23-.75-.34-1.25-.34-.7,0-1.26.25-1.67.74-.42.49-.62,1.19-.62,2.08s.21,1.59.62,2.08c.41.5.97.75,1.67.75.99,0,1.65-.44,1.96-1.3h1.85c-.24.84-.69,1.51-1.35,2s-1.48.74-2.46.74c-.79,0-1.49-.18-2.1-.53s-1.09-.85-1.43-1.5c-.34-.65-.52-1.39-.52-2.24s.17-1.6.52-2.24Z"/><path d="M11.53,659.08c-.63-.35-1.12-.85-1.49-1.5-.36-.65-.54-1.39-.54-2.24s.19-1.58.56-2.23c.37-.65.88-1.15,1.52-1.5.64-.35,1.35-.52,2.15-.52s1.5.17,2.15.52c.64.35,1.14.85,1.51,1.5.37.65.56,1.4.56,2.23s-.19,1.59-.57,2.24c-.38.65-.9,1.15-1.55,1.51s-1.38.53-2.17.53-1.48-.18-2.11-.53ZM14.88,657.82c.39-.21.7-.52.94-.94.24-.42.36-.93.36-1.53s-.12-1.11-.35-1.52c-.23-.41-.54-.73-.92-.94s-.79-.31-1.23-.31-.85.1-1.22.31-.67.52-.89.94c-.22.42-.33.92-.33,1.52,0,.89.23,1.58.68,2.06.45.49,1.03.73,1.72.73.44,0,.85-.1,1.24-.31Z"/><path d="M31.3,651.49c.52.27.92.67,1.21,1.2.29.53.44,1.17.44,1.92v4.88h-1.7v-4.62c0-.74-.19-1.31-.55-1.7-.37-.4-.88-.59-1.52-.59s-1.15.2-1.52.59-.56.96-.56,1.7v4.62h-1.69v-4.62c0-.74-.19-1.31-.56-1.7-.37-.4-.88-.59-1.52-.59s-1.15.2-1.52.59-.56.96-.56,1.7v4.62h-1.71v-8.27h1.71v.95c.28-.34.63-.6,1.06-.8.43-.19.89-.28,1.38-.28.66,0,1.25.14,1.77.42.52.28.92.69,1.2,1.21.25-.5.64-.9,1.17-1.19.53-.29,1.1-.44,1.71-.44.65,0,1.23.13,1.75.4Z"/><path d="M46.76,651.49c.52.27.92.67,1.21,1.2.29.53.44,1.17.44,1.92v4.88h-1.7v-4.62c0-.74-.19-1.31-.55-1.7-.37-.4-.88-.59-1.52-.59s-1.15.2-1.52.59-.56.96-.56,1.7v4.62h-1.69v-4.62c0-.74-.19-1.31-.56-1.7-.37-.4-.88-.59-1.52-.59s-1.15.2-1.52.59-.56.96-.56,1.7v4.62h-1.71v-8.27h1.71v.95c.28-.34.63-.6,1.06-.8.43-.19.89-.28,1.38-.28.66,0,1.25.14,1.77.42.52.28.92.69,1.2,1.21.25-.5.64-.9,1.17-1.19.53-.29,1.1-.44,1.71-.44.65,0,1.23.13,1.75.4Z"/><path d="M57.92,651.22v8.27h-1.71v-.98c-.27.34-.62.61-1.06.8-.43.19-.9.29-1.39.29-.65,0-1.23-.14-1.75-.41s-.92-.67-1.21-1.2c-.3-.53-.44-1.17-.44-1.92v-4.86h1.7v4.6c0,.74.18,1.31.55,1.7s.88.59,1.52.59,1.15-.2,1.52-.59.56-.96.56-1.7v-4.6h1.71Z"/><path d="M65.94,651.49c.52.27.92.67,1.21,1.2.29.53.44,1.17.44,1.92v4.88h-1.69v-4.62c0-.74-.19-1.31-.56-1.7-.37-.4-.88-.59-1.52-.59s-1.15.2-1.52.59-.56.96-.56,1.7v4.62h-1.71v-8.27h1.71v.95c.28-.34.64-.6,1.07-.8.43-.19.9-.28,1.39-.28.65,0,1.23.13,1.75.4Z"/><path d="M69.7,649.81c-.21-.21-.31-.47-.31-.78s.1-.57.31-.78.47-.31.78-.31.55.1.76.31c.21.21.32.47.32.78s-.1.57-.32.78c-.21.21-.46.31-.76.31s-.57-.1-.78-.31ZM71.32,651.22v8.27h-1.71v-8.27h1.71Z"/><path d="M75.4,652.61v4.58c0,.31.07.53.22.67.15.13.39.2.74.2h1.05v1.42h-1.35c-.77,0-1.36-.18-1.77-.54s-.61-.94-.61-1.75v-4.58h-.98v-1.4h.98v-2.05h1.73v2.05h2.01v1.4h-2.01Z"/><path d="M86.68,651.22l-5.07,12.15h-1.77l1.68-4.02-3.25-8.13h1.91l2.32,6.3,2.42-6.3h1.77Z"/><path d="M91.82,653.11c.35-.64.81-1.14,1.41-1.49.59-.35,1.25-.53,1.97-.53.65,0,1.22.13,1.7.38.48.25.87.57,1.16.95v-1.2h1.73v8.27h-1.73v-1.23c-.29.39-.69.71-1.19.98-.5.26-1.07.39-1.71.39-.71,0-1.36-.18-1.95-.55-.59-.36-1.06-.88-1.4-1.53-.34-.65-.52-1.4-.52-2.23s.17-1.56.52-2.21ZM97.71,653.86c-.23-.42-.54-.74-.92-.96-.38-.22-.79-.33-1.23-.33s-.85.11-1.23.32c-.38.21-.69.53-.92.94-.24.42-.35.91-.35,1.48s.12,1.07.35,1.5c.23.43.54.76.93.98.39.23.79.34,1.22.34s.85-.11,1.23-.33c.38-.22.69-.54.92-.97.23-.42.35-.92.35-1.49s-.12-1.06-.35-1.48Z"/><path d="M107.82,651.49c.52.27.92.67,1.21,1.2.29.53.44,1.17.44,1.92v4.88h-1.69v-4.62c0-.74-.19-1.31-.56-1.7-.37-.4-.88-.59-1.52-.59s-1.15.2-1.52.59-.56.96-.56,1.7v4.62h-1.71v-8.27h1.71v.95c.28-.34.64-.6,1.07-.8.43-.19.9-.28,1.39-.28.65,0,1.23.13,1.75.4Z"/><path d="M111.51,653.11c.35-.64.81-1.14,1.41-1.49.59-.35,1.26-.53,1.99-.53.54,0,1.07.12,1.6.35s.94.55,1.25.94v-3.99h1.73v11.1h-1.73v-1.25c-.28.4-.67.73-1.16.99-.5.26-1.06.39-1.7.39-.72,0-1.38-.18-1.97-.55-.6-.36-1.06-.88-1.41-1.53-.34-.65-.52-1.4-.52-2.23s.17-1.56.52-2.21ZM117.4,653.86c-.23-.42-.54-.74-.92-.96-.38-.22-.79-.33-1.23-.33s-.85.11-1.23.32c-.38.21-.69.53-.92.94-.24.42-.35.91-.35,1.48s.12,1.07.35,1.5c.23.43.54.76.93.98.39.23.79.34,1.22.34s.85-.11,1.23-.33c.38-.22.69-.54.92-.97.23-.42.35-.92.35-1.49s-.12-1.06-.35-1.48Z"/><path d="M132.46,650.02h-5.03v2.98c.21-.28.52-.52.94-.71s.86-.29,1.33-.29c.84,0,1.52.18,2.05.54.53.36.9.82,1.12,1.37.23.55.34,1.13.34,1.74,0,.74-.14,1.4-.43,1.97-.29.58-.71,1.03-1.27,1.36s-1.26.5-2.08.5c-1.09,0-1.96-.27-2.62-.81s-1.06-1.25-1.19-2.15h1.67c.11.47.35.84.73,1.12.38.27.86.41,1.43.41.71,0,1.24-.22,1.6-.65.35-.43.53-1,.53-1.71s-.18-1.27-.54-1.66c-.36-.38-.89-.58-1.59-.58-.49,0-.9.12-1.24.37s-.58.58-.73,1h-1.62v-6.31h6.6v1.5Z"/><path d="M135.6,649.81c.58-.98,1.59-1.46,3.02-1.46s2.44.49,3.02,1.46c.59.98.88,2.33.88,4.06s-.29,3.12-.88,4.1c-.58.98-1.59,1.48-3.02,1.48s-2.44-.49-3.02-1.48-.88-2.35-.88-4.1.29-3.08.88-4.06ZM140.68,651.82c-.1-.56-.32-1.02-.64-1.37-.32-.35-.79-.53-1.43-.53s-1.1.18-1.42.53c-.32.35-.53.81-.64,1.37s-.16,1.25-.16,2.06.05,1.54.15,2.11c.1.57.31,1.03.64,1.38.32.35.8.53,1.43.53s1.11-.17,1.43-.53c.32-.35.54-.81.64-1.38.1-.57.15-1.27.15-2.11s-.05-1.5-.16-2.06Z"/><path d="M155.9,651.22l-5.07,12.15h-1.77l1.68-4.02-3.25-8.13h1.91l2.32,6.3,2.42-6.3h1.77Z"/><path d="M164.33,655.99h-6.31c.05.66.29,1.19.73,1.59.44.4.98.6,1.62.6.92,0,1.57-.38,1.95-1.15h1.85c-.25.76-.7,1.38-1.36,1.87-.66.48-1.47.73-2.44.73-.79,0-1.5-.18-2.12-.53-.62-.35-1.12-.85-1.47-1.5s-.53-1.39-.53-2.24.17-1.6.52-2.24c.35-.65.83-1.14,1.46-1.49s1.34-.52,2.15-.52,1.47.17,2.08.51c.61.34,1.08.82,1.42,1.43.34.62.51,1.32.51,2.12,0,.31-.02.59-.06.84ZM162.6,654.61c-.01-.63-.24-1.13-.67-1.52-.44-.38-.99-.57-1.64-.57-.59,0-1.1.19-1.52.56s-.67.88-.75,1.52h4.58Z"/><path d="M166.02,653.11c.35-.64.81-1.14,1.41-1.49.59-.35,1.25-.53,1.97-.53.65,0,1.22.13,1.7.38.48.25.87.57,1.16.95v-1.2h1.73v8.27h-1.73v-1.23c-.29.39-.69.71-1.19.98-.5.26-1.07.39-1.71.39-.71,0-1.36-.18-1.95-.55-.59-.36-1.06-.88-1.4-1.53-.34-.65-.52-1.4-.52-2.23s.17-1.56.52-2.21ZM171.92,653.86c-.23-.42-.54-.74-.92-.96-.38-.22-.79-.33-1.23-.33s-.85.11-1.23.32c-.38.21-.69.53-.92.94-.24.42-.35.91-.35,1.48s.12,1.07.35,1.5c.23.43.54.76.93.98.39.23.79.34,1.22.34s.85-.11,1.23-.33c.38-.22.69-.54.92-.97.23-.42.35-.92.35-1.49s-.12-1.06-.35-1.48Z"/><path d="M178.82,651.43c.42-.23.91-.35,1.48-.35v1.77h-.44c-.67,0-1.18.17-1.52.51-.35.34-.52.93-.52,1.77v4.35h-1.71v-8.27h1.71v1.2c.25-.42.58-.75,1-.98Z"/><path d="M183.04,659.27c-.52-.23-.92-.56-1.22-.96-.3-.4-.46-.86-.48-1.36h1.77c.03.35.2.64.5.88.31.24.69.35,1.15.35s.85-.09,1.12-.28.4-.42.4-.71c0-.31-.15-.54-.44-.69s-.76-.31-1.4-.5c-.62-.17-1.12-.33-1.52-.5-.39-.16-.73-.4-1.01-.73-.28-.33-.43-.77-.43-1.31,0-.44.13-.84.39-1.21.26-.36.63-.65,1.12-.86s1.04-.31,1.67-.31c.94,0,1.7.24,2.27.71.57.48.88,1.12.92,1.94h-1.71c-.03-.37-.18-.67-.45-.88s-.64-.33-1.09-.33-.8.08-1.04.25c-.24.17-.36.4-.36.68,0,.22.08.4.24.55s.35.27.58.35.57.19,1.02.32c.6.16,1.09.32,1.48.49s.72.41,1,.73c.28.32.42.75.44,1.27,0,.47-.13.89-.39,1.26s-.63.66-1.1.87-1.03.31-1.67.31-1.23-.12-1.75-.35Z"/><path d="M195.16,659.08c-.63-.35-1.12-.85-1.49-1.5-.36-.65-.54-1.39-.54-2.24s.19-1.58.56-2.23c.37-.65.88-1.15,1.52-1.5.64-.35,1.35-.52,2.15-.52s1.5.17,2.15.52c.64.35,1.14.85,1.51,1.5.37.65.56,1.4.56,2.23s-.19,1.59-.57,2.24c-.38.65-.9,1.15-1.55,1.51s-1.38.53-2.17.53-1.48-.18-2.11-.53ZM198.52,657.82c.39-.21.7-.52.94-.94.24-.42.36-.93.36-1.53s-.12-1.11-.35-1.52c-.23-.41-.54-.73-.92-.94s-.79-.31-1.23-.31-.85.1-1.22.31-.67.52-.89.94c-.22.42-.33.92-.33,1.52,0,.89.23,1.58.68,2.06.45.49,1.03.73,1.72.73.44,0,.85-.1,1.24-.31Z"/><path d="M206.57,652.61h-1.53v6.87h-1.73v-6.87h-.98v-1.4h.98v-.58c0-.95.25-1.64.76-2.08.5-.43,1.3-.65,2.38-.65v1.43c-.52,0-.89.1-1.1.29-.21.19-.31.53-.31,1.01v.58h1.53v1.4Z"/><path d="M213.98,652.61v4.58c0,.31.07.53.22.67.15.13.39.2.74.2h1.05v1.42h-1.35c-.77,0-1.36-.18-1.77-.54s-.61-.94-.61-1.75v-4.58h-.98v-1.4h.98v-2.05h1.73v2.05h2.01v1.4h-2.01Z"/><path d="M223.4,651.49c.5.27.89.67,1.17,1.2.29.53.43,1.17.43,1.92v4.88h-1.69v-4.62c0-.74-.19-1.31-.56-1.7-.37-.4-.88-.59-1.52-.59s-1.15.2-1.52.59-.56.96-.56,1.7v4.62h-1.71v-11.1h1.71v3.79c.29-.35.66-.62,1.1-.81.44-.19.93-.28,1.46-.28.63,0,1.19.13,1.69.4Z"/><path d="M234.61,655.99h-6.31c.05.66.29,1.19.73,1.59.44.4.98.6,1.62.6.92,0,1.57-.38,1.95-1.15h1.85c-.25.76-.7,1.38-1.36,1.87-.66.48-1.47.73-2.44.73-.79,0-1.5-.18-2.12-.53-.62-.35-1.12-.85-1.47-1.5s-.53-1.39-.53-2.24.17-1.6.52-2.24c.35-.65.83-1.14,1.46-1.49s1.34-.52,2.15-.52,1.47.17,2.08.51c.61.34,1.08.82,1.42,1.43.34.62.51,1.32.51,2.12,0,.31-.02.59-.06.84ZM232.88,654.61c-.01-.63-.24-1.13-.67-1.52-.44-.38-.99-.57-1.64-.57-.59,0-1.1.19-1.52.56s-.67.88-.75,1.52h4.58Z"/><path d="M1.29,670.5c.47-.81,1.12-1.44,1.94-1.9.81-.46,1.71-.68,2.68-.68,1.11,0,2.1.27,2.96.82.87.55,1.49,1.32,1.88,2.32h-2.06c-.27-.55-.65-.96-1.12-1.23s-1.04-.41-1.67-.41c-.69,0-1.3.16-1.84.46-.54.31-.96.76-1.27,1.34-.31.58-.46,1.25-.46,2.02s.15,1.44.46,2.02c.3.58.73,1.03,1.27,1.34s1.15.47,1.84.47c.63,0,1.19-.13,1.67-.4s.85-.68,1.12-1.23h2.06c-.39,1-1.02,1.77-1.88,2.31-.86.54-1.85.81-2.96.81-.98,0-1.88-.23-2.69-.68s-1.45-1.09-1.93-1.9c-.48-.81-.71-1.72-.71-2.74s.24-1.94.71-2.75Z"/><path d="M12.5,672.11c.35-.64.81-1.14,1.41-1.49.59-.35,1.25-.53,1.97-.53.65,0,1.22.13,1.7.38.48.25.87.57,1.16.95v-1.2h1.73v8.27h-1.73v-1.23c-.29.39-.69.71-1.19.98-.5.26-1.07.39-1.71.39-.71,0-1.36-.18-1.95-.55-.59-.36-1.06-.88-1.4-1.53-.34-.65-.52-1.4-.52-2.23s.17-1.56.52-2.21ZM18.39,672.86c-.23-.42-.54-.74-.92-.96-.38-.22-.79-.33-1.23-.33s-.85.11-1.23.32c-.38.21-.69.53-.92.94-.24.42-.35.91-.35,1.48s.12,1.07.35,1.5c.23.43.54.76.93.98.39.23.79.34,1.22.34s.85-.11,1.23-.33c.38-.22.69-.54.92-.97.23-.42.35-.92.35-1.49s-.12-1.06-.35-1.48Z"/><path d="M25.48,670.47c.5-.26,1.06-.39,1.69-.39.72,0,1.38.18,1.97.53.59.36,1.06.85,1.4,1.49.34.64.51,1.38.51,2.21s-.17,1.57-.51,2.23-.81,1.17-1.4,1.53c-.6.37-1.25.55-1.97.55-.63,0-1.19-.13-1.68-.38-.49-.25-.89-.57-1.2-.95v5.13h-1.71v-12.2h1.71v1.22c.29-.38.69-.7,1.19-.96ZM28.97,672.83c-.23-.42-.54-.73-.93-.94-.39-.22-.8-.32-1.24-.32s-.84.11-1.22.33c-.39.22-.7.54-.93.96s-.35.92-.35,1.48.12,1.07.35,1.49c.23.43.54.75.93.97.38.22.79.33,1.22.33s.85-.11,1.24-.34c.38-.23.69-.55.93-.98.23-.43.35-.93.35-1.5s-.12-1.06-.35-1.48Z"/><path d="M32.74,668.81c-.21-.21-.31-.47-.31-.78s.1-.57.31-.78.47-.31.78-.31.55.1.76.31c.21.21.32.47.32.78s-.1.57-.32.78c-.21.21-.46.31-.76.31s-.57-.1-.78-.31ZM34.36,670.22v8.27h-1.71v-8.27h1.71Z"/><path d="M38.44,671.61v4.58c0,.31.07.53.22.67.15.13.39.2.74.2h1.05v1.42h-1.35c-.77,0-1.36-.18-1.77-.54s-.61-.94-.61-1.75v-4.58h-.98v-1.4h.98v-2.05h1.73v2.05h2.01v1.4h-2.01Z"/><path d="M41.7,672.11c.35-.64.81-1.14,1.41-1.49.59-.35,1.25-.53,1.97-.53.65,0,1.22.13,1.7.38.48.25.87.57,1.16.95v-1.2h1.73v8.27h-1.73v-1.23c-.29.39-.69.71-1.19.98-.5.26-1.07.39-1.71.39-.71,0-1.36-.18-1.95-.55-.59-.36-1.06-.88-1.4-1.53-.34-.65-.52-1.4-.52-2.23s.17-1.56.52-2.21ZM47.59,672.86c-.23-.42-.54-.74-.92-.96-.38-.22-.79-.33-1.23-.33s-.85.11-1.23.32c-.38.21-.69.53-.92.94-.24.42-.35.91-.35,1.48s.12,1.07.35,1.5c.23.43.54.76.93.98.39.23.79.34,1.22.34s.85-.11,1.23-.33c.38-.22.69-.54.92-.97.23-.42.35-.92.35-1.49s-.12-1.06-.35-1.48Z"/><path d="M53.5,667.38v11.1h-1.71v-11.1h1.71Z"/><path d="M65.93,676.35h-4.37l-.75,2.13h-1.79l3.74-10.44h1.98l3.73,10.44h-1.8l-.75-2.13ZM65.45,674.96l-1.7-4.85-1.71,4.85h3.41Z"/><path d="M72.55,670.43c.42-.23.91-.35,1.48-.35v1.77h-.44c-.67,0-1.18.17-1.52.51-.35.34-.52.93-.52,1.77v4.35h-1.71v-8.27h1.71v1.2c.25-.42.58-.75,1-.98Z"/><path d="M82.9,674.99h-6.31c.05.66.29,1.19.73,1.59.44.4.98.6,1.62.6.92,0,1.57-.38,1.95-1.15h1.85c-.25.76-.7,1.38-1.36,1.87-.66.48-1.47.73-2.44.73-.79,0-1.5-.18-2.12-.53-.62-.35-1.12-.85-1.47-1.5s-.53-1.39-.53-2.24.17-1.6.52-2.24c.35-.65.83-1.14,1.46-1.49s1.34-.52,2.15-.52,1.47.17,2.08.51c.61.34,1.08.82,1.42,1.43.34.62.51,1.32.51,2.12,0,.31-.02.59-.06.84ZM81.17,673.61c-.01-.63-.24-1.13-.67-1.52-.44-.38-.99-.57-1.64-.57-.59,0-1.1.19-1.52.56s-.67.88-.75,1.52h4.58Z"/><path d="M84.59,672.11c.35-.64.81-1.14,1.41-1.49.59-.35,1.25-.53,1.97-.53.65,0,1.22.13,1.7.38.48.25.87.57,1.16.95v-1.2h1.73v8.27h-1.73v-1.23c-.29.39-.69.71-1.19.98-.5.26-1.07.39-1.71.39-.71,0-1.36-.18-1.95-.55-.59-.36-1.06-.88-1.4-1.53-.34-.65-.52-1.4-.52-2.23s.17-1.56.52-2.21ZM90.49,672.86c-.23-.42-.54-.74-.92-.96-.38-.22-.79-.33-1.23-.33s-.85.11-1.23.32c-.38.21-.69.53-.92.94-.24.42-.35.91-.35,1.48s.12,1.07.35,1.5c.23.43.54.76.93.98.39.23.79.34,1.22.34s.85-.11,1.23-.33c.38-.22.69-.54.92-.97.23-.42.35-.92.35-1.49s-.12-1.06-.35-1.48Z"/><path d="M106.26,671.06c-.27-.52-.65-.91-1.12-1.18-.48-.26-1.04-.4-1.67-.4-.69,0-1.3.16-1.84.46-.54.31-.96.75-1.27,1.32-.31.57-.46,1.23-.46,1.98s.15,1.41.46,1.99c.3.58.73,1.02,1.27,1.33s1.15.46,1.84.46c.93,0,1.69-.26,2.27-.78.58-.52.94-1.23,1.06-2.12h-3.92v-1.36h5.75v1.33c-.11.81-.4,1.56-.86,2.23-.47.68-1.07,1.22-1.82,1.63-.75.41-1.57.61-2.48.61-.98,0-1.88-.23-2.69-.68s-1.45-1.09-1.93-1.9c-.48-.81-.71-1.72-.71-2.74s.24-1.94.71-2.75c.47-.81,1.12-1.44,1.94-1.9.81-.46,1.71-.68,2.68-.68,1.11,0,2.1.27,2.96.82.87.55,1.49,1.32,1.88,2.32h-2.06Z"/><path d="M113.04,670.43c.42-.23.91-.35,1.48-.35v1.77h-.44c-.67,0-1.18.17-1.52.51-.35.34-.52.93-.52,1.77v4.35h-1.71v-8.27h1.71v1.2c.25-.42.58-.75,1-.98Z"/><path d="M123.39,674.99h-6.31c.05.66.29,1.19.73,1.59.44.4.98.6,1.62.6.92,0,1.57-.38,1.95-1.15h1.85c-.25.76-.7,1.38-1.36,1.87-.66.48-1.47.73-2.44.73-.79,0-1.5-.18-2.12-.53-.62-.35-1.12-.85-1.47-1.5s-.53-1.39-.53-2.24.17-1.6.52-2.24c.35-.65.83-1.14,1.46-1.49s1.34-.52,2.15-.52,1.47.17,2.08.51c.61.34,1.08.82,1.42,1.43.34.62.51,1.32.51,2.12,0,.31-.02.59-.06.84ZM121.67,673.61c-.01-.63-.24-1.13-.67-1.52-.44-.38-.99-.57-1.64-.57-.59,0-1.1.19-1.52.56s-.67.88-.75,1.52h4.58Z"/><path d="M132.65,674.99h-6.31c.05.66.29,1.19.73,1.59.44.4.98.6,1.62.6.92,0,1.57-.38,1.95-1.15h1.85c-.25.76-.7,1.38-1.36,1.87-.66.48-1.47.73-2.44.73-.79,0-1.5-.18-2.12-.53-.62-.35-1.12-.85-1.47-1.5s-.53-1.39-.53-2.24.17-1.6.52-2.24c.35-.65.83-1.14,1.46-1.49s1.34-.52,2.15-.52,1.47.17,2.08.51c.61.34,1.08.82,1.42,1.43.34.62.51,1.32.51,2.12,0,.31-.02.59-.06.84ZM130.93,673.61c-.01-.63-.24-1.13-.67-1.52-.44-.38-.99-.57-1.64-.57-.59,0-1.1.19-1.52.56s-.67.88-.75,1.52h4.58Z"/><path d="M140.25,670.49c.52.27.92.67,1.21,1.2.29.53.44,1.17.44,1.92v4.88h-1.69v-4.62c0-.74-.19-1.31-.56-1.7-.37-.4-.88-.59-1.52-.59s-1.15.2-1.52.59-.56.96-.56,1.7v4.62h-1.71v-8.27h1.71v.95c.28-.34.64-.6,1.07-.8.43-.19.9-.28,1.39-.28.65,0,1.23.13,1.75.4Z"/><path d="M154.88,670.22l-2.56,8.27h-1.8l-1.67-6.1-1.67,6.1h-1.8l-2.58-8.27h1.74l1.73,6.65,1.75-6.65h1.78l1.68,6.62,1.71-6.62h1.68Z"/><path d="M155.88,672.11c.35-.64.81-1.14,1.41-1.49.59-.35,1.25-.53,1.97-.53.65,0,1.22.13,1.7.38.48.25.87.57,1.16.95v-1.2h1.73v8.27h-1.73v-1.23c-.29.39-.69.71-1.19.98-.5.26-1.07.39-1.71.39-.71,0-1.36-.18-1.95-.55-.59-.36-1.06-.88-1.4-1.53-.34-.65-.52-1.4-.52-2.23s.17-1.56.52-2.21ZM161.77,672.86c-.23-.42-.54-.74-.92-.96-.38-.22-.79-.33-1.23-.33s-.85.11-1.23.32c-.38.21-.69.53-.92.94-.24.42-.35.91-.35,1.48s.12,1.07.35,1.5c.23.43.54.76.93.98.39.23.79.34,1.22.34s.85-.11,1.23-.33c.38-.22.69-.54.92-.97.23-.42.35-.92.35-1.49s-.12-1.06-.35-1.48Z"/><path d="M173.46,670.22l-5.07,12.15h-1.77l1.68-4.02-3.25-8.13h1.91l2.32,6.3,2.42-6.3h1.77Z"/><path d="M173.61,678.27c-.21-.21-.31-.47-.31-.78s.1-.57.31-.78.47-.31.78-.31.56.1.77.31.31.47.31.78-.1.57-.31.78-.46.31-.77.31-.57-.1-.78-.31Z"/><path d="M345.28,640.48l-2.4-4.17h-1.3v4.17h-1.71v-10.42h3.6c.8,0,1.48.14,2.03.42.55.28.97.65,1.25,1.12.27.47.41,1,.41,1.57,0,.68-.2,1.3-.59,1.85-.39.56-1,.93-1.82,1.13l2.58,4.32h-2.04ZM341.58,634.94h1.89c.64,0,1.12-.16,1.45-.48.32-.32.49-.75.49-1.29s-.16-.96-.48-1.27c-.32-.31-.8-.46-1.46-.46h-1.89v3.49Z"/><path d="M348.92,634.1c.35-.64.82-1.14,1.41-1.49.59-.35,1.25-.53,1.97-.53.65,0,1.22.13,1.7.38s.87.57,1.16.95v-1.2h1.72v8.27h-1.72v-1.23c-.29.39-.69.71-1.19.98-.5.26-1.07.39-1.71.39-.71,0-1.36-.18-1.95-.55-.59-.36-1.06-.88-1.4-1.53-.34-.65-.52-1.4-.52-2.23s.17-1.56.52-2.21ZM354.81,634.85c-.24-.42-.54-.74-.92-.96-.38-.22-.79-.33-1.23-.33s-.85.11-1.23.32c-.38.21-.69.53-.92.94-.23.42-.35.91-.35,1.48s.12,1.07.35,1.5c.24.43.54.76.93.98.38.23.79.34,1.22.34s.85-.11,1.23-.33c.38-.22.69-.54.92-.97.23-.42.35-.92.35-1.49s-.12-1.06-.35-1.48Z"/><path d="M360.71,629.38v11.1h-1.71v-11.1h1.71Z"/><path d="M370.43,636.98h-6.31c.05.66.29,1.19.73,1.59.44.4.98.6,1.62.6.92,0,1.57-.38,1.95-1.15h1.84c-.25.76-.7,1.38-1.36,1.87-.65.48-1.47.73-2.44.73-.79,0-1.5-.18-2.12-.53s-1.12-.85-1.47-1.5c-.36-.65-.53-1.39-.53-2.24s.17-1.6.52-2.24c.35-.65.83-1.14,1.46-1.49s1.34-.52,2.15-.52,1.48.17,2.08.51c.61.34,1.08.82,1.43,1.43.34.62.51,1.32.51,2.12,0,.31-.02.59-.06.84ZM368.71,635.6c0-.63-.24-1.13-.67-1.52-.44-.38-.99-.57-1.63-.57-.59,0-1.1.19-1.52.56s-.67.88-.75,1.52h4.58Z"/><path d="M372.17,630.8c-.21-.21-.31-.47-.31-.78s.1-.57.31-.78.47-.31.78-.31.55.1.76.31.32.47.32.78-.11.57-.32.78-.46.31-.76.31-.57-.1-.78-.31ZM373.79,632.21v8.27h-1.71v-8.27h1.71Z"/><path d="M380.98,632.46c.5.25.88.57,1.16.95v-1.2h1.72v8.4c0,.76-.16,1.44-.48,2.03-.32.59-.78,1.06-1.39,1.4-.61.34-1.33.51-2.17.51-1.12,0-2.05-.26-2.79-.79s-1.16-1.24-1.26-2.14h1.7c.13.43.41.78.83,1.04.42.27.93.4,1.52.4.69,0,1.25-.21,1.67-.63s.64-1.03.64-1.83v-1.38c-.29.39-.68.72-1.18.98-.5.27-1.06.4-1.69.4-.72,0-1.38-.18-1.97-.55-.59-.36-1.06-.88-1.41-1.53-.34-.65-.52-1.4-.52-2.23s.17-1.56.52-2.21c.35-.64.82-1.14,1.41-1.49.59-.35,1.25-.53,1.97-.53.64,0,1.21.13,1.7.38ZM381.79,634.85c-.24-.42-.54-.74-.92-.96-.38-.22-.79-.33-1.23-.33s-.85.11-1.23.32c-.38.21-.69.53-.92.94-.23.42-.35.91-.35,1.48s.12,1.07.35,1.5c.24.43.54.76.93.98.38.23.79.34,1.22.34s.85-.11,1.23-.33c.38-.22.69-.54.92-.97.23-.42.35-.92.35-1.49s-.12-1.06-.35-1.48Z"/><path d="M391.95,632.48c.49.27.88.67,1.17,1.2.29.53.43,1.17.43,1.92v4.88h-1.69v-4.62c0-.74-.19-1.31-.56-1.7s-.88-.59-1.51-.59-1.15.2-1.52.59-.56.96-.56,1.7v4.62h-1.71v-11.1h1.71v3.79c.29-.35.66-.62,1.1-.81.45-.19.93-.28,1.46-.28.63,0,1.19.13,1.69.4Z"/><path d="M397.62,638.42l-1.82,4.14h-1.11l1.06-4.14h1.86Z"/><path d="M411.58,640.48h-1.71l-5.15-7.79v7.79h-1.71v-10.44h1.71l5.15,7.77v-7.77h1.71v10.44Z"/><path d="M414,632.5c.47-.81,1.12-1.44,1.93-1.9.82-.46,1.71-.68,2.68-.68,1.11,0,2.1.27,2.96.82.86.55,1.49,1.32,1.88,2.32h-2.05c-.27-.55-.64-.96-1.12-1.23-.48-.27-1.04-.41-1.67-.41-.69,0-1.3.16-1.84.46-.54.31-.96.76-1.27,1.34-.31.58-.46,1.25-.46,2.02s.15,1.44.46,2.02c.3.58.73,1.03,1.27,1.34s1.16.47,1.84.47c.63,0,1.19-.13,1.67-.4.48-.27.86-.68,1.12-1.23h2.05c-.39,1-1.02,1.77-1.88,2.31-.87.54-1.85.81-2.96.81-.98,0-1.88-.23-2.68-.68-.81-.46-1.45-1.09-1.93-1.9-.48-.81-.71-1.72-.71-2.74s.24-1.94.71-2.75Z"/><path d="M350.85,649.05v10.42h-1.71v-7.14l-3.18,7.14h-1.18l-3.2-7.14v7.14h-1.71v-10.42h1.84l3.66,8.17,3.65-8.17h1.83Z"/><path d="M353.07,653.1c.35-.64.82-1.14,1.41-1.49.59-.35,1.25-.53,1.97-.53.65,0,1.22.13,1.7.38s.87.57,1.16.95v-1.2h1.72v8.27h-1.72v-1.23c-.29.39-.69.71-1.19.98-.5.26-1.07.39-1.71.39-.71,0-1.36-.18-1.95-.55-.59-.36-1.06-.88-1.4-1.53-.34-.65-.52-1.4-.52-2.23s.17-1.56.52-2.21ZM358.97,653.85c-.24-.42-.54-.74-.92-.96-.38-.22-.79-.33-1.23-.33s-.85.11-1.23.32c-.38.21-.69.53-.92.94-.23.42-.35.91-.35,1.48s.12,1.07.35,1.5c.24.43.54.76.93.98.38.23.79.34,1.22.34s.85-.11,1.23-.33c.38-.22.69-.54.92-.97.23-.42.35-.92.35-1.49s-.12-1.06-.35-1.48Z"/><path d="M370.66,651.21l-5.07,12.15h-1.77l1.68-4.02-3.25-8.13h1.9l2.33,6.3,2.42-6.3h1.77Z"/><path d="M387.28,653.33v1.44h-11.25v-1.44h11.25Z"/><path d="M394.33,657.15c.96-.83,1.72-1.51,2.27-2.05.56-.53,1.02-1.09,1.39-1.67s.55-1.16.55-1.74-.14-1.07-.43-1.41-.73-.51-1.34-.51-1.05.19-1.37.56c-.33.38-.5.88-.52,1.51h-1.65c.03-1.14.37-2.01,1.03-2.62s1.49-.91,2.5-.91c1.09,0,1.94.3,2.56.9.62.6.92,1.4.92,2.4,0,.72-.18,1.41-.55,2.08-.36.67-.8,1.26-1.3,1.79s-1.15,1.13-1.93,1.82l-.67.6h4.75v1.43h-7.29v-1.25l1.08-.93Z"/><path d="M402.78,649.81c.58-.98,1.59-1.46,3.02-1.46s2.44.49,3.02,1.46.88,2.33.88,4.06-.29,3.12-.88,4.1-1.59,1.48-3.02,1.48-2.44-.49-3.02-1.48-.88-2.35-.88-4.1.29-3.08.88-4.06ZM407.86,651.81c-.1-.56-.32-1.02-.64-1.37-.32-.35-.79-.53-1.42-.53s-1.1.18-1.42.53-.53.81-.64,1.37c-.1.56-.16,1.25-.16,2.06s.05,1.54.15,2.11c.1.57.31,1.03.64,1.38.33.35.8.53,1.43.53s1.11-.17,1.43-.53c.33-.35.54-.81.64-1.38.1-.57.15-1.27.15-2.11s-.05-1.5-.16-2.06Z"/><path d="M412.17,657.15c.96-.83,1.72-1.51,2.27-2.05.56-.53,1.02-1.09,1.39-1.67s.55-1.16.55-1.74-.14-1.07-.43-1.41-.73-.51-1.34-.51-1.05.19-1.37.56c-.33.38-.5.88-.52,1.51h-1.65c.03-1.14.37-2.01,1.03-2.62s1.49-.91,2.5-.91c1.09,0,1.94.3,2.56.9.62.6.92,1.4.92,2.4,0,.72-.18,1.41-.55,2.08-.36.67-.8,1.26-1.3,1.79s-1.15,1.13-1.93,1.82l-.67.6h4.75v1.43h-7.29v-1.25l1.08-.93Z"/><path d="M424.96,650.04c-.29-.23-.7-.34-1.21-.34-.79,0-1.38.3-1.77.91-.39.6-.6,1.61-.62,3.01.26-.44.64-.78,1.14-1.02.5-.24,1.04-.36,1.62-.36.66,0,1.24.14,1.75.43.5.28.9.7,1.18,1.24s.43,1.19.43,1.94c0,.7-.14,1.33-.41,1.88-.27.55-.68.98-1.22,1.3s-1.19.47-1.95.47c-1.03,0-1.84-.23-2.42-.68-.58-.45-1-1.1-1.23-1.93-.24-.83-.35-1.87-.35-3.1,0-3.66,1.29-5.49,3.87-5.49,1,0,1.79.27,2.36.81.57.54.91,1.21,1.01,2h-1.58c-.11-.46-.31-.81-.6-1.04ZM422.19,654.22c-.42.36-.64.89-.64,1.58s.2,1.24.59,1.64c.4.41.95.61,1.66.61.63,0,1.13-.2,1.49-.58.37-.39.55-.91.55-1.56s-.18-1.22-.53-1.63c-.35-.41-.88-.61-1.57-.61-.61,0-1.13.18-1.55.55Z"/><path d="M345.28,678.48l-2.4-4.17h-1.3v4.17h-1.71v-10.42h3.6c.8,0,1.48.14,2.03.42.55.28.97.65,1.25,1.12.27.47.41,1,.41,1.57,0,.68-.2,1.3-.59,1.85-.39.56-1,.93-1.82,1.13l2.58,4.32h-2.04ZM341.58,672.94h1.89c.64,0,1.12-.16,1.45-.48.32-.32.49-.75.49-1.29s-.16-.96-.48-1.27c-.32-.31-.8-.46-1.46-.46h-1.89v3.49Z"/><path d="M348.92,672.1c.35-.64.82-1.14,1.41-1.49.59-.35,1.25-.53,1.97-.53.65,0,1.22.13,1.7.38s.87.57,1.16.95v-1.2h1.72v8.27h-1.72v-1.23c-.29.39-.69.71-1.19.98-.5.26-1.07.39-1.71.39-.71,0-1.36-.18-1.95-.55-.59-.36-1.06-.88-1.4-1.53-.34-.65-.52-1.4-.52-2.23s.17-1.56.52-2.21ZM354.81,672.85c-.24-.42-.54-.74-.92-.96-.38-.22-.79-.33-1.23-.33s-.85.11-1.23.32c-.38.21-.69.53-.92.94-.23.42-.35.91-.35,1.48s.12,1.07.35,1.5c.24.43.54.76.93.98.38.23.79.34,1.22.34s.85-.11,1.23-.33c.38-.22.69-.54.92-.97.23-.42.35-.92.35-1.49s-.12-1.06-.35-1.48Z"/><path d="M360.71,667.38v11.1h-1.71v-11.1h1.71Z"/><path d="M370.43,674.98h-6.31c.05.66.29,1.19.73,1.59.44.4.98.6,1.62.6.92,0,1.57-.38,1.95-1.15h1.84c-.25.76-.7,1.38-1.36,1.87-.65.48-1.47.73-2.44.73-.79,0-1.5-.18-2.12-.53s-1.12-.85-1.47-1.5c-.36-.65-.53-1.39-.53-2.24s.17-1.6.52-2.24c.35-.65.83-1.14,1.46-1.49s1.34-.52,2.15-.52,1.48.17,2.08.51c.61.34,1.08.82,1.43,1.43.34.62.51,1.32.51,2.12,0,.31-.02.59-.06.84ZM368.71,673.6c0-.63-.24-1.13-.67-1.52-.44-.38-.99-.57-1.63-.57-.59,0-1.1.19-1.52.56s-.67.88-.75,1.52h4.58Z"/><path d="M372.17,668.8c-.21-.21-.31-.47-.31-.78s.1-.57.31-.78.47-.31.78-.31.55.1.76.31.32.47.32.78-.11.57-.32.78-.46.31-.76.31-.57-.1-.78-.31ZM373.79,670.21v8.27h-1.71v-8.27h1.71Z"/><path d="M380.98,670.46c.5.25.88.57,1.16.95v-1.2h1.72v8.4c0,.76-.16,1.44-.48,2.03-.32.59-.78,1.06-1.39,1.4-.61.34-1.33.51-2.17.51-1.12,0-2.05-.26-2.79-.79s-1.16-1.24-1.26-2.14h1.7c.13.43.41.78.83,1.04.42.27.93.4,1.52.4.69,0,1.25-.21,1.67-.63s.64-1.03.64-1.83v-1.38c-.29.39-.68.72-1.18.98-.5.27-1.06.4-1.69.4-.72,0-1.38-.18-1.97-.55-.59-.36-1.06-.88-1.41-1.53-.34-.65-.52-1.4-.52-2.23s.17-1.56.52-2.21c.35-.64.82-1.14,1.41-1.49.59-.35,1.25-.53,1.97-.53.64,0,1.21.13,1.7.38ZM381.79,672.85c-.24-.42-.54-.74-.92-.96-.38-.22-.79-.33-1.23-.33s-.85.11-1.23.32c-.38.21-.69.53-.92.94-.23.42-.35.91-.35,1.48s.12,1.07.35,1.5c.24.43.54.76.93.98.38.23.79.34,1.22.34s.85-.11,1.23-.33c.38-.22.69-.54.92-.97.23-.42.35-.92.35-1.49s-.12-1.06-.35-1.48Z"/><path d="M391.95,670.48c.49.27.88.67,1.17,1.2.29.53.43,1.17.43,1.92v4.88h-1.69v-4.62c0-.74-.19-1.31-.56-1.7s-.88-.59-1.51-.59-1.15.2-1.52.59-.56.96-.56,1.7v4.62h-1.71v-11.1h1.71v3.79c.29-.35.66-.62,1.1-.81.45-.19.93-.28,1.46-.28.63,0,1.19.13,1.69.4Z"/><path d="M402.69,674.01c.39.49.58,1.05.58,1.67,0,.53-.14,1.01-.41,1.43-.28.43-.67.76-1.19,1-.52.25-1.12.37-1.82.37h-4.17v-10.42h3.97c.71,0,1.32.12,1.83.36.51.24.9.56,1.16.97.26.41.39.86.39,1.36,0,.6-.16,1.1-.48,1.5-.32.4-.75.7-1.29.89.56.1,1.04.4,1.42.88ZM397.4,672.43h2.12c.56,0,1-.13,1.31-.38.31-.25.47-.62.47-1.1s-.16-.84-.47-1.1c-.32-.27-.75-.4-1.31-.4h-2.12v2.98ZM401.07,676.66c.33-.28.5-.67.5-1.17s-.17-.92-.52-1.22c-.35-.3-.82-.45-1.4-.45h-2.25v3.25h2.31c.58,0,1.04-.14,1.37-.42Z"/><path d="M405.15,668.8c-.21-.21-.31-.47-.31-.78s.1-.57.31-.78.47-.31.78-.31.55.1.76.31.32.47.32.78-.11.57-.32.78-.46.31-.76.31-.57-.1-.78-.31ZM406.77,670.21v8.27h-1.71v-8.27h1.71Z"/><path d="M412.17,674.35l3.81,4.12h-2.31l-3.06-3.56v3.56h-1.71v-11.1h1.71v6.45l3-3.62h2.37l-3.81,4.14Z"/><path d="M424.19,674.98h-6.31c.05.66.29,1.19.73,1.59.44.4.98.6,1.62.6.92,0,1.57-.38,1.95-1.15h1.84c-.25.76-.7,1.38-1.36,1.87-.65.48-1.47.73-2.44.73-.79,0-1.5-.18-2.12-.53s-1.12-.85-1.47-1.5c-.36-.65-.53-1.39-.53-2.24s.17-1.6.52-2.24c.35-.65.83-1.14,1.46-1.49s1.34-.52,2.15-.52,1.48.17,2.08.51c.61.34,1.08.82,1.43,1.43.34.62.51,1.32.51,2.12,0,.31-.02.59-.06.84ZM422.46,673.6c0-.63-.24-1.13-.67-1.52-.44-.38-.99-.57-1.63-.57-.59,0-1.1.19-1.52.56s-.67.88-.75,1.52h4.58Z"/><path d="M436.93,668.05v10.42h-1.71v-7.14l-3.18,7.14h-1.18l-3.2-7.14v7.14h-1.71v-10.42h1.84l3.66,8.17,3.65-8.17h1.83Z"/><path d="M440.67,678.08c-.63-.35-1.12-.85-1.48-1.5-.36-.65-.54-1.39-.54-2.24s.18-1.58.55-2.23c.37-.65.88-1.15,1.51-1.5.64-.35,1.36-.52,2.15-.52s1.5.17,2.14.52c.64.35,1.15.85,1.52,1.5.37.65.55,1.4.55,2.23s-.19,1.59-.57,2.24-.9,1.15-1.55,1.51c-.66.35-1.38.53-2.17.53s-1.49-.18-2.12-.53ZM444.03,676.81c.38-.21.7-.52.94-.94s.36-.93.36-1.53-.12-1.11-.34-1.52c-.23-.41-.54-.73-.92-.94-.38-.21-.79-.31-1.23-.31s-.85.1-1.22.31-.67.52-.89.94c-.22.42-.33.92-.33,1.52,0,.89.23,1.58.68,2.06.46.49,1.03.73,1.72.73.44,0,.85-.1,1.24-.31Z"/><path d="M454.61,670.48c.51.27.92.67,1.21,1.2.29.53.43,1.17.43,1.92v4.88h-1.69v-4.62c0-.74-.19-1.31-.56-1.7s-.88-.59-1.51-.59-1.15.2-1.52.59-.56.96-.56,1.7v4.62h-1.71v-8.27h1.71v.95c.28-.34.64-.6,1.07-.8.44-.19.9-.28,1.39-.28.65,0,1.23.13,1.75.4Z"/><path d="M460.17,671.61v4.58c0,.31.07.53.22.67.14.13.39.2.74.2h1.05v1.42h-1.35c-.77,0-1.36-.18-1.77-.54s-.62-.94-.62-1.75v-4.58h-.97v-1.4h.97v-2.05h1.73v2.05h2.01v1.4h-2.01Z"/><path d="M469.59,670.48c.49.27.88.67,1.17,1.2.29.53.43,1.17.43,1.92v4.88h-1.69v-4.62c0-.74-.19-1.31-.56-1.7s-.88-.59-1.51-.59-1.15.2-1.52.59-.56.96-.56,1.7v4.62h-1.71v-11.1h1.71v3.79c.29-.35.66-.62,1.1-.81.45-.19.93-.28,1.46-.28.63,0,1.19.13,1.69.4Z"/><path d="M473.3,678.27c-.21-.21-.32-.47-.32-.78s.11-.57.32-.78.47-.31.78-.31.55.1.76.31.31.47.31.78-.1.57-.31.78-.46.31-.76.31-.57-.1-.78-.31Z"/><path d="M476.7,672.1c.35-.65.82-1.14,1.43-1.49s1.31-.52,2.1-.52c1,0,1.83.24,2.48.71.65.48,1.1,1.15,1.33,2.03h-1.84c-.15-.41-.39-.73-.72-.96-.33-.23-.75-.34-1.24-.34-.7,0-1.26.25-1.67.74-.42.49-.62,1.19-.62,2.08s.21,1.59.62,2.08c.42.5.97.75,1.67.75.99,0,1.64-.44,1.96-1.3h1.84c-.24.84-.69,1.51-1.35,2-.66.5-1.48.74-2.46.74-.79,0-1.49-.18-2.1-.53s-1.09-.85-1.43-1.5c-.34-.65-.52-1.39-.52-2.24s.17-1.6.52-2.24Z"/><path d="M487.13,678.08c-.63-.35-1.12-.85-1.48-1.5-.36-.65-.54-1.39-.54-2.24s.18-1.58.55-2.23c.37-.65.88-1.15,1.51-1.5.64-.35,1.36-.52,2.15-.52s1.5.17,2.14.52c.64.35,1.15.85,1.52,1.5.37.65.55,1.4.55,2.23s-.19,1.59-.57,2.24-.9,1.15-1.55,1.51c-.66.35-1.38.53-2.17.53s-1.49-.18-2.12-.53ZM490.48,676.81c.38-.21.7-.52.94-.94s.36-.93.36-1.53-.12-1.11-.34-1.52c-.23-.41-.54-.73-.92-.94-.38-.21-.79-.31-1.23-.31s-.85.1-1.22.31-.67.52-.89.94c-.22.42-.33.92-.33,1.52,0,.89.23,1.58.68,2.06.46.49,1.03.73,1.72.73.44,0,.85-.1,1.24-.31Z"/><path d="M506.9,670.48c.51.27.92.67,1.21,1.2.29.53.44,1.17.44,1.92v4.88h-1.7v-4.62c0-.74-.18-1.31-.55-1.7s-.88-.59-1.52-.59-1.15.2-1.52.59-.56.96-.56,1.7v4.62h-1.69v-4.62c0-.74-.19-1.31-.56-1.7s-.88-.59-1.51-.59-1.15.2-1.52.59-.56.96-.56,1.7v4.62h-1.71v-8.27h1.71v.95c.28-.34.63-.6,1.07-.8.43-.19.89-.28,1.38-.28.66,0,1.25.14,1.77.42.52.28.92.69,1.2,1.21.25-.5.64-.9,1.17-1.19s1.1-.44,1.71-.44c.65,0,1.23.13,1.75.4Z"/></svg>