<?xml version="1.0" encoding="UTF-8"?><svg id="Layer_1" xmlns="http://www.w3.org/2000/svg" viewBox="0 0 7795.11 1080"><rect y="0" width="7795.11" height="1080" style="fill:#fffb00;"/><path d="M3878.99,611.88c-15.18-8.76-31.75-12.89-48.11-12.88,0,0,0,0,0-.01s0,0,0-.01c16.35.02,32.93-4.11,48.11-12.88,46.02-26.57,61.78-85.41,35.22-131.43-26.57-46.02-85.41-61.78-131.43-35.22-15.19,8.77-27.05,21.06-35.22,35.24,0,0-.01,0-.02-.01,8.2-14.16,12.91-30.58,12.91-48.12,0-53.14-43.08-96.21-96.21-96.21s-96.21,43.08-96.21,96.21c0,17.54,4.71,33.96,12.91,48.12,0,0-.01,0-.02.01-8.16-14.18-20.03-26.47-35.22-35.24-46.02-26.57-104.86-10.8-131.43,35.22-26.57,46.02-10.8,104.86,35.22,131.43,15.18,8.76,31.75,12.89,48.11,12.88,0,0,0,0,0,.01s0,0,0,.01c-16.35-.02-32.93,4.11-48.11,12.88-46.02,26.57-61.78,85.41-35.22,131.43,26.57,46.02,85.41,61.78,131.43,35.22,15.19-8.77,27.05-21.06,35.22-35.24,0,0,.01,0,.02.01-8.2,14.16-12.91,30.58-12.91,48.12,0,53.14,43.08,96.21,96.21,96.21s96.21-43.08,96.21-96.21c0-17.54-4.71-33.96-12.91-48.12,0,0,.01,0,.02-.01,8.16,14.18,20.03,26.47,35.22,35.24,46.02,26.57,104.86,10.8,131.43-35.22,26.57-46.02,10.8-104.86-35.22-131.43Z" style="fill:#ff6a00; stroke:#000; stroke-linecap:round; stroke-linejoin:round; stroke-width:26.94px;"/><circle cx="3664.24" cy="598.99" r="96.21" style="fill:#00bf6c; stroke:#000; stroke-linecap:round; stroke-linejoin:round; stroke-width:26.94px;"/><polyline points="3997.53 599.01 3664.24 599.01 3830.88 310.37 4080.6 310.37" style="fill:none; stroke:#000; stroke-linecap:round; stroke-linejoin:round; stroke-width:26.94px;"/><line x1="3762.79" y1="192.42" x2="3997.53" y2="599.01" style="fill:none; stroke:#000; stroke-linecap:round; stroke-linejoin:round; stroke-width:26.94px;"/><line x1="3872.54" y1="192.42" x2="3664.24" y2="192.42" style="fill:none; stroke:#000; stroke-linecap:round; stroke-linejoin:round; stroke-width:26.94px;"/><line x1="4266.17" y1="192.42" x2="4057.86" y2="192.42" style="fill:none; stroke:#000; stroke-linecap:round; stroke-linejoin:round; stroke-width:26.94px;"/><path d="M4334.76,598.98c-47.25-159.39-161.04-288.61-254.16-288.61s-130.31,129.21-83.07,288.61,161.04,288.61,254.16,288.61,130.31-129.21,83.07-288.61Z" style="fill:#f4b8ff; stroke:#000; stroke-linecap:round; stroke-linejoin:round; stroke-width:26.94px;"/><line x1="4162.01" y1="599.01" x2="4162.01" y2="192.42" style="fill:none; stroke:#000; stroke-linecap:round; stroke-linejoin:round; stroke-width:26.94px;"/><line x1="1227.23" y1="192.42" x2="1227.23" y2="887.58" style="fill:none; stroke:#000; stroke-linecap:round; stroke-linejoin:round; stroke-width:26.94px;"/><path d="M868.67,192.42c95.98,0,173.79,77.81,173.79,173.79s-77.81,173.79-173.79,173.79c95.98,0,173.79,77.81,173.79,173.79s-77.81,173.79-173.79,173.79H192.43V192.43h676.24Z" style="fill:none; stroke:#000; stroke-linecap:round; stroke-linejoin:round; stroke-width:26.94px;"/><line x1="868.67" y1="540" x2="192.43" y2="540" style="fill:none; stroke:#000; stroke-linecap:round; stroke-linejoin:round; stroke-width:26.94px;"/><line x1="1428.97" y1="887.58" x2="1428.97" y2="192.43" style="fill:none; stroke:#000; stroke-linecap:round; stroke-linejoin:round; stroke-width:26.94px;"/><line x1="1428.97" y1="547.35" x2="2279.34" y2="887.58" style="fill:none; stroke:#000; stroke-linecap:round; stroke-linejoin:round; stroke-width:26.94px;"/><line x1="2279.34" y1="192.43" x2="1428.97" y2="532.66" style="fill:none; stroke:#000; stroke-linecap:round; stroke-linejoin:round; stroke-width:26.94px;"/><polyline points="3285.91 192.43 2435.05 192.43 2435.05 887.58 3285.91 887.58" style="fill:none; stroke:#000; stroke-linecap:round; stroke-linejoin:round; stroke-width:26.94px;"/><line x1="2435.05" y1="552.73" x2="3260.45" y2="552.73" style="fill:none; stroke:#000; stroke-linecap:round; stroke-linejoin:round; stroke-width:26.94px;"/><polyline points="4509.2 887.58 4509.2 192.42 4818.19 887.58 5127.44 192.42 5127.19 887.58" style="fill:none; stroke:#000; stroke-linecap:round; stroke-linejoin:round; stroke-width:26.94px;"/><polyline points="6100.51 887.58 6100.51 192.42 6487.02 887.58 6486.95 192.42" style="fill:none; stroke:#000; stroke-linecap:round; stroke-linejoin:round; stroke-width:26.94px;"/><line x1="6619.03" y1="192.42" x2="7083.32" y2="192.42" style="fill:none; stroke:#000; stroke-linecap:round; stroke-linejoin:round; stroke-width:26.94px;"/><line x1="6850.9" y1="192.42" x2="6850.9" y2="887.57" style="fill:none; stroke:#000; stroke-linecap:round; stroke-linejoin:round; stroke-width:26.94px;"/><line x1="7215.32" y1="192.42" x2="7215.32" y2="887.57" style="fill:none; stroke:#000; stroke-linecap:round; stroke-linejoin:round; stroke-width:26.94px;"/><line x1="7602.68" y1="192.42" x2="7602.68" y2="887.58" style="fill:none; stroke:#000; stroke-linecap:round; stroke-linejoin:round; stroke-width:26.94px;"/><line x1="7602.68" y1="527.27" x2="7215.32" y2="527.27" style="fill:none; stroke:#000; stroke-linecap:round; stroke-linejoin:round; stroke-width:26.94px;"/><circle cx="5613.97" cy="539.99" r="354.53" style="fill:none; stroke:#000; stroke-linecap:round; stroke-linejoin:round; stroke-width:26.94px;"/></svg>